<?xml version="1.0" encoding="utf-8"?>
<!-- Generator: Adobe Illustrator 18.0.0, SVG Export Plug-In . SVG Version: 6.00 Build 0)  -->
<!DOCTYPE svg PUBLIC "-//W3C//DTD SVG 1.1//EN" "http://www.w3.org/Graphics/SVG/1.1/DTD/svg11.dtd">
<svg version="1.1" id="Calque_1" xmlns="http://www.w3.org/2000/svg" xmlns:xlink="http://www.w3.org/1999/xlink" x="0px" y="0px"
	 viewBox="0 0 500 500" enable-background="new 0 0 500 500" xml:space="preserve">
<rect fill="none" width="500" height="500"/>
<polygon fill="none" stroke="#BEBEBE" stroke-width="10" stroke-miterlimit="10" points="275,175 250,150 225,175 200,200 200,300 
	300,300 300,200 "/>
<rect x="100" y="300" fill="none" stroke="#BEBEBE" stroke-width="10" stroke-miterlimit="10" width="100" height="100"/>
<rect x="200" y="300" fill="none" stroke="#BEBEBE" stroke-width="10" stroke-miterlimit="10" width="100" height="100"/>
<rect x="200" y="200" fill="none" stroke="#BEBEBE" stroke-width="10" stroke-miterlimit="10" width="100" height="100"/>
<polygon fill="none" stroke="#BEBEBE" stroke-width="10" stroke-linejoin="bevel" stroke-miterlimit="10" points="400,300 300,300 
	300,250 350.4,274.8 "/>
<polygon fill="none" stroke="#BEBEBE" stroke-width="10" stroke-linejoin="bevel" stroke-miterlimit="10" points="100,300 200,300 
	200,250 149.6,274.8 "/>
<rect x="300" y="300" fill="none" stroke="#BEBEBE" stroke-width="10" stroke-miterlimit="10" width="100" height="100"/>
<path fill="none" stroke="#BEBEBE" stroke-width="10" stroke-miterlimit="10" d="M150,325c-13.8,0-25,11.2-25,25v50h50v-50
	C175,336.2,163.8,325,150,325z"/>
<path fill="none" stroke="#BEBEBE" stroke-width="10" stroke-miterlimit="10" d="M250,325c-13.8,0-25,11.2-25,25v50h50v-50
	C275,336.2,263.8,325,250,325z"/>
<path fill="none" stroke="#BEBEBE" stroke-width="10" stroke-miterlimit="10" d="M350,325c-13.8,0-25,11.2-25,25v50h50v-50
	C375,336.2,363.8,325,350,325z"/>
<circle fill="none" stroke="#BEBEBE" stroke-width="10" stroke-miterlimit="10" cx="250" cy="250" r="25"/>
</svg>
