<?xml version="1.0" standalone="no"?>
<!DOCTYPE svg PUBLIC "-//W3C//DTD SVG 20010904//EN"
 "http://www.w3.org/TR/2001/REC-SVG-20010904/DTD/svg10.dtd">
<svg version="1.0" xmlns="http://www.w3.org/2000/svg"
 width="1024.000000pt" height="1024.000000pt" viewBox="0 0 1024.000000 1024.000000"
 preserveAspectRatio="xMidYMid meet">
<metadata>
Created by potrace 1.11, written by Peter Selinger 2001-2013
</metadata>
<g transform="translate(0.000000,1024.000000) scale(0.100000,-0.100000)"
fill="#000000" stroke="none">
<path d="M0 5120 l0 -5120 5120 0 5120 0 0 5120 0 5120 -5120 0 -5120 0 0
-5120z m6380 3120 c227 -25 483 -100 685 -200 644 -318 1076 -927 1165 -1640
6 -55 10 -509 10 -1290 0 -1289 0 -1285 -51 -1503 -158 -674 -645 -1232 -1291
-1481 -200 -77 -402 -121 -608 -134 -69 -4 -1062 -6 -2207 -4 l-2083 2 0 105
c0 277 76 588 214 870 268 547 771 956 1362 1106 257 65 211 63 1417 66 l1097
4 0 979 0 980 -2051 0 -2052 0 6 173 c18 503 224 978 586 1351 123 126 216
203 358 297 290 191 664 313 1023 332 147 7 2338 -4 2420 -13z"/>
<path d="M3800 8135 c-553 -76 -1037 -373 -1358 -834 -29 -41 -52 -78 -52 -83
0 -4 87 -8 193 -8 l193 0 22 30 c74 100 233 244 372 337 219 147 513 250 766
270 l84 6 0 148 0 149 -62 -1 c-35 -1 -106 -7 -158 -14z"/>
<path d="M4140 7175 l0 -975 970 0 970 0 0 975 0 975 -215 0 -215 0 0 -510 0
-510 -550 0 -550 0 0 510 0 510 -205 0 -205 0 0 -975z"/>
<path d="M4650 7690 l0 -460 70 0 70 0 0 460 0 460 -70 0 -70 0 0 -460z"/>
<path d="M4890 7690 l0 -460 85 0 85 0 0 460 0 460 -85 0 -85 0 0 -460z"/>
<path d="M5160 7690 l0 -460 75 0 75 0 0 460 0 460 -75 0 -75 0 0 -460z"/>
<path d="M5410 7690 l0 -460 70 0 70 0 0 460 0 460 -70 0 -70 0 0 -460z"/>
<path d="M6180 7175 l0 -975 981 0 982 0 -7 98 c-59 804 -603 1500 -1371 1751
-168 55 -422 101 -555 101 l-30 0 0 -975z"/>
<path d="M3845 7734 c-376 -58 -758 -281 -981 -574 l-38 -50 -252 0 -251 0
-43 -92 c-106 -229 -167 -465 -186 -725 l-7 -93 967 0 966 0 0 775 0 775 -42
-1 c-24 -1 -83 -7 -133 -15z"/>
<path d="M6200 5120 l0 -970 970 0 970 0 0 970 0 970 -970 0 -970 0 0 -970z
m1530 -5 l0 -565 -562 2 -563 3 -3 563 -2 562 565 0 565 0 0 -565z"/>
<path d="M6710 5505 l0 -75 460 0 460 0 0 75 0 75 -460 0 -460 0 0 -75z"/>
<path d="M6710 4995 l0 -335 460 0 460 0 0 335 0 335 -205 0 -205 0 0 -45 0
-45 -50 0 -50 0 0 45 0 45 -205 0 -205 0 0 -335z"/>
<path d="M4140 3065 l0 -975 195 0 195 0 0 510 0 510 560 0 560 0 0 -510 0
-510 215 0 215 0 0 975 0 975 -970 0 -970 0 0 -975z"/>
<path d="M6180 3064 l0 -977 98 7 c990 68 1786 859 1858 1849 l7 97 -982 0
-981 0 0 -976z"/>
<path d="M3835 4019 c-749 -97 -1394 -630 -1634 -1354 -55 -166 -101 -413
-101 -545 l0 -30 970 0 970 0 0 970 0 970 -67 -1 c-38 -1 -99 -6 -138 -10z"/>
<path d="M4630 2550 l0 -460 205 0 205 0 0 460 0 460 -205 0 -205 0 0 -460z
m260 135 l0 -125 -50 0 -50 0 0 125 0 125 50 0 50 0 0 -125z"/>
<path d="M5140 2550 l0 -460 205 0 205 0 0 460 0 460 -205 0 -205 0 0 -460z
m270 135 l0 -125 -50 0 -50 0 0 125 0 125 50 0 50 0 0 -125z"/>
</g>
</svg>
