<?xml version="1.0" encoding="UTF-8" standalone="no"?>
<svg width="1024px" height="768px" viewBox="0 0 1024 768" version="1.1" xmlns="http://www.w3.org/2000/svg" xmlns:xlink="http://www.w3.org/1999/xlink" xmlns:sketch="http://www.bohemiancoding.com/sketch/ns">
    <!-- Generator: Sketch 3.3.3 (12072) - http://www.bohemiancoding.com/sketch -->
    <title>iPad Landscape Copy 36</title>
    <desc>Created with Sketch.</desc>
    <defs></defs>
    <g id="Page-1" stroke="none" stroke-width="1" fill="none" fill-rule="evenodd" sketch:type="MSPage">
        <g id="iPad-Landscape-Copy-36" sketch:type="MSArtboardGroup">
            <rect id="Rectangle-242" fill="#FFFFFF" sketch:type="MSShapeGroup" x="0" y="0" width="1024" height="768"></rect>
            <text id="‹-Précédent-Copy" sketch:type="MSTextLayer" font-family="Proxima Nova" font-size="25" font-weight="260" sketch:alignment="middle" fill="#DEDEDE">
                <tspan x="54.9375" y="734">‹ Précédent</tspan>
            </text>
            <rect id="Rectangle-12-Copy-11" fill="#DFDEDE" sketch:type="MSShapeGroup" x="749" y="686" width="235" height="64" rx="40"></rect>
            <rect id="Rectangle-12-Copy-16" fill="#FFFFFF" sketch:type="MSShapeGroup" x="2" y="688" width="235" height="50"></rect>
            <g id="Accueil-+-Group-+-‹" sketch:type="MSLayerGroup" transform="translate(43.500000, 37.500000)">
                <g id="Group" transform="translate(15.000000, 0.000000)" sketch:type="MSShapeGroup">
                    <path d="M29.1666667,4.269 L25,0.102333333 L16.6666667,8.43566667 L16.6666667,25.1023333 L33.3333333,25.1023333 L33.3333333,8.43566667 L29.1666667,4.269 L29.1666667,4.269 Z" id="Fill-3"></path>
                    <path d="M29.1666667,4.269 L25,0.102333333 L16.6666667,8.43566667 L16.6666667,25.1023333 L33.3333333,25.1023333 L33.3333333,8.43566667 L29.1666667,4.269 L29.1666667,4.269 Z" id="Stroke-4" stroke="#BEBEBE"></path>
                    <path d="M0,25.1023333 L16.6666667,25.1023333 L16.6666667,41.769 L0,41.769 L0,25.1023333 Z" id="Fill-5"></path>
                    <path d="M0,25.1023333 L16.6666667,25.1023333 L16.6666667,41.769 L0,41.769 L0,25.1023333 Z" id="Stroke-6" stroke="#BEBEBE"></path>
                    <path d="M16.6666667,25.1023333 L33.3333333,25.1023333 L33.3333333,41.769 L16.6666667,41.769 L16.6666667,25.1023333 Z" id="Fill-7"></path>
                    <path d="M16.6666667,25.1023333 L33.3333333,25.1023333 L33.3333333,41.769 L16.6666667,41.769 L16.6666667,25.1023333 Z" id="Stroke-8" stroke="#BEBEBE"></path>
                    <path d="M16.6666667,8.43566667 L33.3333333,8.43566667 L33.3333333,25.1023333 L16.6666667,25.1023333 L16.6666667,8.43566667 Z" id="Fill-9"></path>
                    <path d="M16.6666667,8.43566667 L33.3333333,8.43566667 L33.3333333,25.1023333 L16.6666667,25.1023333 L16.6666667,8.43566667 Z" id="Stroke-10" stroke="#BEBEBE"></path>
                    <path d="M50,25.1023333 L33.3333333,25.1023333 L33.3333333,16.769 L41.7276667,20.9051667 L50,25.1023333 L50,25.1023333 Z" id="Fill-11"></path>
                    <path d="M50,25.1023333 L33.3333333,25.1023333 L33.3333333,16.769 L41.7276667,20.9051667 L50,25.1023333 L50,25.1023333 Z" id="Stroke-12" stroke="#BEBEBE" stroke-linejoin="bevel"></path>
                    <path d="M0,25.1023333 L16.6666667,25.1023333 L16.6666667,16.769 L8.27233333,20.9051667 L0,25.1023333 L0,25.1023333 Z" id="Fill-13"></path>
                    <path d="M0,25.1023333 L16.6666667,25.1023333 L16.6666667,16.769 L8.27233333,20.9051667 L0,25.1023333 L0,25.1023333 Z" id="Stroke-14" stroke="#BEBEBE" stroke-linejoin="bevel"></path>
                    <path d="M33.3333333,25.1023333 L50,25.1023333 L50,41.769 L33.3333333,41.769 L33.3333333,25.1023333 Z" id="Fill-15"></path>
                    <path d="M33.3333333,25.1023333 L50,25.1023333 L50,41.769 L33.3333333,41.769 L33.3333333,25.1023333 Z" id="Stroke-16" stroke="#BEBEBE"></path>
                    <path d="M8.33333333,29.269 C6.03216667,29.269 4.16666667,31.1345 4.16666667,33.4356667 L4.16666667,41.769 L12.5,41.769 L12.5,33.4356667 C12.5,31.1345 10.6345,29.269 8.33333333,29.269 L8.33333333,29.269 Z" id="Fill-17"></path>
                    <path d="M8.33333333,29.269 C6.03216667,29.269 4.16666667,31.1345 4.16666667,33.4356667 L4.16666667,41.769 L12.5,41.769 L12.5,33.4356667 C12.5,31.1345 10.6345,29.269 8.33333333,29.269 L8.33333333,29.269 Z" id="Stroke-18" stroke="#BEBEBE"></path>
                    <path d="M25,29.269 C22.6988333,29.269 20.8333333,31.1345 20.8333333,33.4356667 L20.8333333,41.769 L29.1666667,41.769 L29.1666667,33.4356667 C29.1666667,31.1345 27.3011667,29.269 25,29.269 L25,29.269 Z" id="Fill-19"></path>
                    <path d="M25,29.269 C22.6988333,29.269 20.8333333,31.1345 20.8333333,33.4356667 L20.8333333,41.769 L29.1666667,41.769 L29.1666667,33.4356667 C29.1666667,31.1345 27.3011667,29.269 25,29.269 L25,29.269 Z" id="Stroke-20" stroke="#BEBEBE"></path>
                    <path d="M41.6666667,29.269 C39.3655,29.269 37.5,31.1345 37.5,33.4356667 L37.5,41.769 L45.8333333,41.769 L45.8333333,33.4356667 C45.8333333,31.1345 43.9678333,29.269 41.6666667,29.269 L41.6666667,29.269 Z" id="Fill-21"></path>
                    <path d="M41.6666667,29.269 C39.3655,29.269 37.5,31.1345 37.5,33.4356667 L37.5,41.769 L45.8333333,41.769 L45.8333333,33.4356667 C45.8333333,31.1345 43.9678333,29.269 41.6666667,29.269 L41.6666667,29.269 Z" id="Stroke-22" stroke="#BEBEBE"></path>
                    <path d="M29.1666667,16.769 C29.1666667,19.0701667 27.3011667,20.9356667 25,20.9356667 C22.6988333,20.9356667 20.8333333,19.0701667 20.8333333,16.769 C20.8333333,14.4678333 22.6988333,12.6023333 25,12.6023333 C27.3011667,12.6023333 29.1666667,14.4678333 29.1666667,16.769 L29.1666667,16.769 Z" id="Fill-23"></path>
                    <path d="M29.1666667,16.769 C29.1666667,19.0701667 27.3011667,20.9356667 25,20.9356667 C22.6988333,20.9356667 20.8333333,19.0701667 20.8333333,16.769 C20.8333333,14.4678333 22.6988333,12.6023333 25,12.6023333 C27.3011667,12.6023333 29.1666667,14.4678333 29.1666667,16.769 L29.1666667,16.769 Z" id="Stroke-24" stroke="#BEBEBE"></path>
                </g>
                <path d="M24.48,61 L20.385,50.995 L19.32,50.995 L15.225,61 L16.215,61 L17.205,58.54 L22.5,58.54 L23.49,61 L24.48,61 Z M22.215,57.76 L17.49,57.76 L19.845,51.91 L22.215,57.76 Z M29.225,61.18 C30.485,61.18 31.205,60.685 31.79,59.935 L31.25,59.455 C30.725,60.175 30.065,60.475 29.27,60.475 C27.575,60.475 26.54,59.11 26.54,57.37 C26.54,55.63 27.575,54.28 29.27,54.28 C30.065,54.28 30.725,54.565 31.25,55.285 L31.79,54.805 C31.205,54.07 30.485,53.575 29.225,53.575 C27.095,53.575 25.7,55.255 25.7,57.37 C25.7,59.485 27.095,61.18 29.225,61.18 L29.225,61.18 Z M36.835,61.18 C38.095,61.18 38.815,60.685 39.4,59.935 L38.86,59.455 C38.335,60.175 37.675,60.475 36.88,60.475 C35.185,60.475 34.15,59.11 34.15,57.37 C34.15,55.63 35.185,54.28 36.88,54.28 C37.675,54.28 38.335,54.565 38.86,55.285 L39.4,54.805 C38.815,54.07 38.095,53.575 36.835,53.575 C34.705,53.575 33.31,55.255 33.31,57.37 C33.31,59.485 34.705,61.18 36.835,61.18 L36.835,61.18 Z M47.01,61 L47.01,53.755 L46.23,53.755 L46.23,59.275 C45.75,59.92 44.805,60.475 43.875,60.475 C42.825,60.475 42.12,60.085 42.12,58.675 L42.12,53.755 L41.34,53.755 L41.34,58.855 C41.34,60.49 42.135,61.18 43.62,61.18 C44.67,61.18 45.63,60.595 46.23,59.935 L46.23,61 L47.01,61 Z M52.85,61.18 C54.05,61.18 54.965,60.76 55.685,60.01 L55.28,59.5 C54.665,60.16 53.825,60.505 52.91,60.505 C51.2,60.505 50.15,59.2 50.075,57.625 L56.135,57.625 L56.135,57.415 C56.135,55.33 54.92,53.575 52.715,53.575 C50.705,53.575 49.22,55.27 49.22,57.37 C49.22,59.605 50.735,61.18 52.85,61.18 L52.85,61.18 Z M55.34,57.01 L50.075,57.01 C50.135,55.75 50.99,54.25 52.7,54.25 C54.515,54.25 55.325,55.78 55.34,57.01 L55.34,57.01 Z M58.735,52.615 C59.065,52.615 59.335,52.345 59.335,52.015 C59.335,51.685 59.065,51.43 58.735,51.43 C58.42,51.43 58.135,51.685 58.135,52.015 C58.135,52.345 58.42,52.615 58.735,52.615 L58.735,52.615 Z M59.125,61 L59.125,53.755 L58.345,53.755 L58.345,61 L59.125,61 Z M62.535,61 L62.535,50.995 L61.755,50.995 L61.755,61 L62.535,61 Z" id="Accueil" fill="#BEBEBE" sketch:type="MSShapeGroup"></path>
                <path d="M4.446,36.866 L1.566,33.626 L4.446,30.44 L3.42,30.44 L0.54,33.626 L3.42,36.866 L4.446,36.866 Z" id="‹" fill="#BEBEBE" sketch:type="MSShapeGroup"></path>
            </g>
            <rect id="Rectangle-42" fill="#3B3B48" sketch:type="MSShapeGroup" x="0" y="140" width="512" height="528"></rect>
            <path d="M30,263.5 C30,248.312169 42.313813,236 57.491844,236 L256.047284,236 L256.08858,291 L57.4968664,291 C42.3107664,291 30,278.69117 30,263.5 L30,263.5 Z" id="Rectangle-42-Copy-14" fill="#1A1A21" sketch:type="MSShapeGroup"></path>
            <path d="M206,263.5 C206,248.312169 218.313813,236 233.491844,236 L432.047284,236 L432.08858,291 L233.496866,291 C218.310766,291 206,278.69117 206,263.5 L206,263.5 Z" id="Rectangle-42-Copy-13" fill="#2E2E3B" sketch:type="MSShapeGroup" transform="translate(343.962094, 263.500000) rotate(-180.000000) translate(-343.962094, -263.500000) "></path>
            <path d="M30,333.5 C30,318.312169 42.313813,306 57.491844,306 L256.047284,306 L256.08858,361 L57.4968664,361 C42.3107664,361 30,348.69117 30,333.5 L30,333.5 Z" id="Rectangle-42-Copy-6" fill="#1A1A21" sketch:type="MSShapeGroup"></path>
            <path d="M206,333.5 C206,318.312169 218.313813,306 233.491844,306 L432.047284,306 L432.08858,361 L233.496866,361 C218.310766,361 206,348.69117 206,333.5 L206,333.5 Z" id="Rectangle-42-Copy-12" fill="#2E2E3B" sketch:type="MSShapeGroup" transform="translate(343.962094, 333.500000) rotate(-180.000000) translate(-343.962094, -333.500000) "></path>
            <rect id="Rectangle-42-Copy-11" fill="#2E2E3B" sketch:type="MSShapeGroup" x="30" y="556" width="453" height="55" rx="50"></rect>
            <rect id="Rectangle-42-Copy" fill="#0079FE" sketch:type="MSShapeGroup" x="512" y="140" width="512" height="528"></rect>
            <rect id="Rectangle-42-Copy-10" opacity="0.2" fill="#000000" sketch:type="MSShapeGroup" x="541.5" y="233.5" width="332" height="75" rx="3"></rect>
            <rect id="Rectangle-42-Copy-15" fill-opacity="0.2" fill="#000000" sketch:type="MSShapeGroup" x="894" y="233.448" width="100" height="75" rx="3"></rect>
            <rect id="Rectangle-42-Copy-17" opacity="0.2" fill="#000000" sketch:type="MSShapeGroup" x="541.5" y="328.5" width="332" height="75" rx="3"></rect>
            <rect id="Rectangle-42-Copy-19" opacity="0.2" fill="#000000" sketch:type="MSShapeGroup" x="541.5" y="423.5" width="332" height="75" rx="3"></rect>
            <rect id="Rectangle-42-Copy-18" fill-opacity="0.2" fill="#000000" sketch:type="MSShapeGroup" x="894" y="423.448" width="100" height="75" rx="3"></rect>
            <rect id="Rectangle-42-Copy-21" opacity="0.2" fill="#000000" sketch:type="MSShapeGroup" x="541.5" y="518.5" width="332" height="75" rx="3"></rect>
            <path d="M483.288,83 C488.286,83 491.31,80.102 491.31,75.44 C491.31,72.122 488.832,69.014 485.85,68.552 C488.37,68.048 490.764,65.654 490.764,62.126 C490.764,57.716 487.74,54.986 483.036,54.986 L471.528,54.986 L471.528,83 L483.288,83 Z M482.742,67.544 L473.922,67.544 L473.922,57.17 L482.742,57.17 C486.354,57.17 488.244,59.522 488.244,62.378 C488.244,65.276 486.354,67.544 482.742,67.544 L482.742,67.544 Z M482.91,80.816 L473.922,80.816 L473.922,69.728 L482.91,69.728 C486.816,69.728 488.79,72.416 488.79,75.272 C488.79,78.674 486.606,80.816 482.91,80.816 L482.91,80.816 Z M498.324,59.522 C499.248,59.522 500.004,58.766 500.004,57.842 C500.004,56.918 499.248,56.204 498.324,56.204 C497.442,56.204 496.644,56.918 496.644,57.842 C496.644,58.766 497.442,59.522 498.324,59.522 L498.324,59.522 Z M499.416,83 L499.416,62.714 L497.232,62.714 L497.232,83 L499.416,83 Z M508.404,83 L508.404,54.986 L506.22,54.986 L506.22,83 L508.404,83 Z M517.392,83 L517.392,54.986 L515.208,54.986 L515.208,83 L517.392,83 Z M533.184,83.504 C536.544,83.504 539.106,82.328 541.122,80.228 L539.988,78.8 C538.266,80.648 535.914,81.614 533.352,81.614 C528.564,81.614 525.624,77.96 525.414,73.55 L542.382,73.55 L542.382,72.962 C542.382,67.124 538.98,62.21 532.806,62.21 C527.178,62.21 523.02,66.956 523.02,72.836 C523.02,79.094 527.262,83.504 533.184,83.504 L533.184,83.504 Z M540.156,71.828 L525.414,71.828 C525.582,68.3 527.976,64.1 532.764,64.1 C537.846,64.1 540.114,68.384 540.156,71.828 L540.156,71.828 Z M552.42,83.504 C554.1,83.504 555.066,83 555.864,82.244 L555.024,80.564 C554.562,81.068 553.722,81.53 552.756,81.53 C551.328,81.53 550.656,80.396 550.656,78.758 L550.656,64.646 L554.772,64.646 L554.772,62.714 L550.656,62.714 L550.656,57.17 L548.43,57.17 L548.43,62.714 L545.07,62.714 L545.07,64.646 L548.43,64.646 L548.43,79.094 C548.43,81.866 549.732,83.504 552.42,83.504 L552.42,83.504 Z" id="Billet" fill="#0079FE" sketch:type="MSShapeGroup"></path>
            <path d="M62.18,206 L62.18,181.988 L59.192,181.988 L59.192,200.744 L45.368,181.988 L42.308,181.988 L42.308,206 L45.296,206 L45.296,186.848 L59.3,206 L62.18,206 Z M81.26,206 L81.26,194.048 C81.26,189.836 78.2,188.18 74.528,188.18 C71.684,188.18 69.452,189.116 67.58,191.06 L68.84,192.932 C70.388,191.276 72.08,190.52 74.168,190.52 C76.688,190.52 78.56,191.852 78.56,194.192 L78.56,197.324 C77.156,195.704 75.176,194.948 72.8,194.948 C69.848,194.948 66.716,196.784 66.716,200.672 C66.716,204.452 69.848,206.432 72.8,206.432 C75.14,206.432 77.12,205.604 78.56,204.02 L78.56,206 L81.26,206 Z M73.772,204.488 C71.252,204.488 69.488,202.904 69.488,200.708 C69.488,198.476 71.252,196.892 73.772,196.892 C75.68,196.892 77.516,197.612 78.56,199.052 L78.56,202.328 C77.516,203.768 75.68,204.488 73.772,204.488 L73.772,204.488 Z M110.348,206 L110.348,193.436 C110.348,189.944 108.656,188.18 105.488,188.18 C102.968,188.18 100.628,189.836 99.656,191.42 C99.152,189.62 97.64,188.18 94.976,188.18 C92.42,188.18 90.08,190.016 89.36,191.132 L89.36,188.612 L86.66,188.612 L86.66,206 L89.36,206 L89.36,193.292 C90.296,191.888 92.168,190.592 93.932,190.592 C96.2,190.592 97.136,191.996 97.136,194.192 L97.136,206 L99.836,206 L99.836,193.256 C100.736,191.888 102.644,190.592 104.444,190.592 C106.676,190.592 107.648,191.996 107.648,194.192 L107.648,206 L110.348,206 Z M130.184,206 L130.184,188.612 L127.484,188.612 L127.484,201.392 C126.476,202.796 124.46,204.02 122.336,204.02 C119.996,204.02 118.448,203.12 118.448,200.06 L118.448,188.612 L115.748,188.612 L115.748,200.888 C115.748,204.668 117.656,206.432 121.292,206.432 C123.884,206.432 126.152,205.064 127.484,203.552 L127.484,206 L130.184,206 Z M138.284,206 L138.284,193.688 C139.076,192.284 141.344,190.916 143,190.916 C143.432,190.916 143.756,190.952 144.08,191.024 L144.08,188.252 C141.704,188.252 139.688,189.584 138.284,191.42 L138.284,188.612 L135.584,188.612 L135.584,206 L138.284,206 Z M163.592,197.252 L157.832,190.88 L155.132,190.88 L160.892,197.252 L155.132,203.732 L157.832,203.732 L163.592,197.252 Z M190.916,206 L190.916,203.336 L179.756,203.336 L179.756,181.988 L176.768,181.988 L176.768,206 L190.916,206 Z M196.352,186.128 C197.36,186.128 198.188,185.336 198.188,184.328 C198.188,183.32 197.36,182.492 196.352,182.492 C195.38,182.492 194.552,183.32 194.552,184.328 C194.552,185.336 195.38,186.128 196.352,186.128 L196.352,186.128 Z M197.72,206 L197.72,188.612 L195.02,188.612 L195.02,206 L197.72,206 Z M210.968,206.432 C213.812,206.432 216.152,205.496 217.88,203.768 L216.584,202.004 C215.216,203.408 213.2,204.2 211.22,204.2 C207.476,204.2 205.172,201.464 204.956,198.188 L219.032,198.188 L219.032,197.504 C219.032,192.284 215.936,188.18 210.68,188.18 C205.712,188.18 202.112,192.248 202.112,197.288 C202.112,202.724 205.82,206.432 210.968,206.432 L210.968,206.432 Z M216.368,196.208 L204.956,196.208 C205.1,193.544 206.936,190.412 210.644,190.412 C214.604,190.412 216.332,193.616 216.368,196.208 L216.368,196.208 Z M212.732,185.984 L207.404,180.8 L204.596,180.8 L210.68,185.984 L212.732,185.984 Z M230.372,213.056 C234.62,213.056 238.652,211.256 238.652,205.496 L238.652,188.612 L235.952,188.612 L235.952,191.24 C234.548,189.332 232.46,188.18 230.12,188.18 C225.548,188.18 222.38,191.636 222.38,197.216 C222.38,202.832 225.584,206.216 230.12,206.216 C232.568,206.216 234.692,204.884 235.952,203.12 L235.952,205.604 C235.952,209.42 233.252,210.824 230.372,210.824 C227.888,210.824 226.16,210.176 224.72,208.448 L223.352,210.464 C225.404,212.48 227.42,213.056 230.372,213.056 L230.372,213.056 Z M230.768,203.84 C227.276,203.84 225.188,201.032 225.188,197.216 C225.188,193.364 227.276,190.592 230.768,190.592 C232.928,190.592 235.016,191.888 235.952,193.4 L235.952,200.996 C235.016,202.508 232.928,203.84 230.768,203.84 L230.768,203.84 Z M251.9,206.432 C254.744,206.432 257.084,205.496 258.812,203.768 L257.516,202.004 C256.148,203.408 254.132,204.2 252.152,204.2 C248.408,204.2 246.104,201.464 245.888,198.188 L259.964,198.188 L259.964,197.504 C259.964,192.284 256.868,188.18 251.612,188.18 C246.644,188.18 243.044,192.248 243.044,197.288 C243.044,202.724 246.752,206.432 251.9,206.432 L251.9,206.432 Z M257.3,196.208 L245.888,196.208 C246.032,193.544 247.868,190.412 251.576,190.412 C255.536,190.412 257.264,193.616 257.3,196.208 L257.3,196.208 Z" id="Namur-›-Liège" fill="#FFFFFF" sketch:type="MSShapeGroup"></path>
            <path d="M319.138338,269.948 L312.144338,252.606 L309.466338,252.606 L302.498338,269.948 L304.968338,269.948 L306.502338,266.1 L315.134338,266.1 L316.668338,269.948 L319.138338,269.948 Z M314.484338,264.176 L307.126338,264.176 L310.818338,254.842 L314.484338,264.176 Z M323.272338,269.948 L323.272338,252.606 L321.322338,252.606 L321.322338,269.948 L323.272338,269.948 Z M329.122338,269.948 L329.122338,252.606 L327.172338,252.606 L327.172338,269.948 L329.122338,269.948 Z M338.690338,270.26 C340.744338,270.26 342.434338,269.584 343.682338,268.336 L342.746338,267.062 C341.758338,268.076 340.302338,268.648 338.872338,268.648 C336.168338,268.648 334.504338,266.672 334.348338,264.306 L344.514338,264.306 L344.514338,263.812 C344.514338,260.042 342.278338,257.078 338.482338,257.078 C334.894338,257.078 332.294338,260.016 332.294338,263.656 C332.294338,267.582 334.972338,270.26 338.690338,270.26 L338.690338,270.26 Z M342.590338,262.876 L334.348338,262.876 C334.452338,260.952 335.778338,258.69 338.456338,258.69 C341.316338,258.69 342.564338,261.004 342.590338,262.876 L342.590338,262.876 Z M349.610338,269.948 L349.610338,261.056 C350.182338,260.042 351.820338,259.054 353.016338,259.054 C353.328338,259.054 353.562338,259.08 353.796338,259.132 L353.796338,257.13 C352.080338,257.13 350.624338,258.092 349.610338,259.418 L349.610338,257.39 L347.660338,257.39 L347.660338,269.948 L349.610338,269.948 Z M366.926338,270.26 C370.176338,270.26 371.866338,268.57 371.866338,266.464 C371.866338,261.576 364.092338,263.396 364.092338,260.64 C364.092338,259.522 365.158338,258.664 366.874338,258.664 C368.486338,258.664 369.864338,259.34 370.618338,260.25 L371.528338,258.898 C370.514338,257.884 369.006338,257.078 366.874338,257.078 C363.884338,257.078 362.194338,258.742 362.194338,260.692 C362.194338,265.346 369.968338,263.474 369.968338,266.516 C369.968338,267.764 368.928338,268.674 367.004338,268.674 C365.288338,268.674 363.702338,267.842 362.870338,266.88 L361.856338,268.284 C363.130338,269.636 364.872338,270.26 366.926338,270.26 L366.926338,270.26 Z M376.000338,255.596 C376.728338,255.596 377.326338,255.024 377.326338,254.296 C377.326338,253.568 376.728338,252.97 376.000338,252.97 C375.298338,252.97 374.700338,253.568 374.700338,254.296 C374.700338,255.024 375.298338,255.596 376.000338,255.596 L376.000338,255.596 Z M376.988338,269.948 L376.988338,257.39 L375.038338,257.39 L375.038338,269.948 L376.988338,269.948 Z M397.996338,269.948 L397.996338,260.874 C397.996338,258.352 396.774338,257.078 394.486338,257.078 C392.666338,257.078 390.976338,258.274 390.274338,259.418 C389.910338,258.118 388.818338,257.078 386.894338,257.078 C385.048338,257.078 383.358338,258.404 382.838338,259.21 L382.838338,257.39 L380.888338,257.39 L380.888338,269.948 L382.838338,269.948 L382.838338,260.77 C383.514338,259.756 384.866338,258.82 386.140338,258.82 C387.778338,258.82 388.454338,259.834 388.454338,261.42 L388.454338,269.948 L390.404338,269.948 L390.404338,260.744 C391.054338,259.756 392.432338,258.82 393.732338,258.82 C395.344338,258.82 396.046338,259.834 396.046338,261.42 L396.046338,269.948 L397.996338,269.948 Z M408.084338,270.26 C411.386338,270.26 413.674338,267.712 413.674338,263.656 C413.674338,259.574 411.386338,257.078 408.084338,257.078 C406.316338,257.078 404.756338,257.988 403.846338,259.262 L403.846338,257.39 L401.896338,257.39 L401.896338,274.732 L403.846338,274.732 L403.846338,268.05 C404.860338,269.454 406.368338,270.26 408.084338,270.26 L408.084338,270.26 Z M407.590338,268.518 C406.056338,268.518 404.522338,267.582 403.846338,266.49 L403.846338,260.822 C404.522338,259.73 406.056338,258.82 407.590338,258.82 C410.112338,258.82 411.620338,260.874 411.620338,263.656 C411.620338,266.438 410.112338,268.518 407.590338,268.518 L407.590338,268.518 Z M418.718338,269.948 L418.718338,252.606 L416.768338,252.606 L416.768338,269.948 L418.718338,269.948 Z M428.286338,270.26 C430.340338,270.26 432.030338,269.584 433.278338,268.336 L432.342338,267.062 C431.354338,268.076 429.898338,268.648 428.468338,268.648 C425.764338,268.648 424.100338,266.672 423.944338,264.306 L434.110338,264.306 L434.110338,263.812 C434.110338,260.042 431.874338,257.078 428.078338,257.078 C424.490338,257.078 421.890338,260.016 421.890338,263.656 C421.890338,267.582 424.568338,270.26 428.286338,270.26 L428.286338,270.26 Z M432.186338,262.876 L423.944338,262.876 C424.048338,260.952 425.374338,258.69 428.052338,258.69 C430.912338,258.69 432.160338,261.004 432.186338,262.876 L432.186338,262.876 Z" id="Aller-simple-Copy" fill="#FFFFFF" sketch:type="MSShapeGroup"></path>
            <path d="M298.995,339.948 L298.995,324.53 L304.507,324.53 L304.507,322.606 L291.351,322.606 L291.351,324.53 L296.837,324.53 L296.837,339.948 L298.995,339.948 Z M317.091,339.948 L317.091,331.316 C317.091,328.274 314.881,327.078 312.229,327.078 C310.175,327.078 308.563,327.754 307.211,329.158 L308.121,330.51 C309.239,329.314 310.461,328.768 311.969,328.768 C313.789,328.768 315.141,329.73 315.141,331.42 L315.141,333.682 C314.127,332.512 312.697,331.966 310.981,331.966 C308.849,331.966 306.587,333.292 306.587,336.1 C306.587,338.83 308.849,340.26 310.981,340.26 C312.671,340.26 314.101,339.662 315.141,338.518 L315.141,339.948 L317.091,339.948 Z M311.683,338.856 C309.863,338.856 308.589,337.712 308.589,336.126 C308.589,334.514 309.863,333.37 311.683,333.37 C313.061,333.37 314.387,333.89 315.141,334.93 L315.141,337.296 C314.387,338.336 313.061,338.856 311.683,338.856 L311.683,338.856 Z M322.941,339.948 L322.941,331.056 C323.513,330.042 325.151,329.054 326.347,329.054 C326.659,329.054 326.893,329.08 327.127,329.132 L327.127,327.13 C325.411,327.13 323.955,328.092 322.941,329.418 L322.941,327.39 L320.991,327.39 L320.991,339.948 L322.941,339.948 Z M330.533,325.596 C331.261,325.596 331.859,325.024 331.859,324.296 C331.859,323.568 331.261,322.97 330.533,322.97 C329.831,322.97 329.233,323.568 329.233,324.296 C329.233,325.024 329.831,325.596 330.533,325.596 L330.533,325.596 Z M331.521,339.948 L331.521,327.39 L329.571,327.39 L329.571,339.948 L331.521,339.948 Z M337.917,339.948 L337.917,329.106 L340.465,329.106 L340.465,327.39 L337.917,327.39 L337.917,326.428 C337.917,324.842 338.619,323.958 339.893,323.958 C340.543,323.958 341.037,324.218 341.453,324.582 L342.259,323.308 C341.479,322.58 340.595,322.346 339.607,322.346 C337.371,322.346 335.967,323.854 335.967,326.428 L335.967,327.39 L333.887,327.39 L333.887,329.106 L335.967,329.106 L335.967,339.948 L337.917,339.948 Z M353.465,340.26 C356.715,340.26 358.405,338.57 358.405,336.464 C358.405,331.576 350.631,333.396 350.631,330.64 C350.631,329.522 351.697,328.664 353.413,328.664 C355.025,328.664 356.403,329.34 357.157,330.25 L358.067,328.898 C357.053,327.884 355.545,327.078 353.413,327.078 C350.423,327.078 348.733,328.742 348.733,330.692 C348.733,335.346 356.507,333.474 356.507,336.516 C356.507,337.764 355.467,338.674 353.543,338.674 C351.827,338.674 350.241,337.842 349.409,336.88 L348.395,338.284 C349.669,339.636 351.411,340.26 353.465,340.26 L353.465,340.26 Z M364.749,340.26 C365.893,340.26 366.595,339.922 367.089,339.454 L366.517,337.998 C366.257,338.284 365.737,338.518 365.191,338.518 C364.333,338.518 363.917,337.842 363.917,336.906 L363.917,329.106 L366.465,329.106 L366.465,327.39 L363.917,327.39 L363.917,323.958 L361.967,323.958 L361.967,327.39 L359.887,327.39 L359.887,329.106 L361.967,329.106 L361.967,337.322 C361.967,339.194 362.903,340.26 364.749,340.26 L364.749,340.26 Z M379.023,339.948 L379.023,331.316 C379.023,328.274 376.813,327.078 374.161,327.078 C372.107,327.078 370.495,327.754 369.143,329.158 L370.053,330.51 C371.171,329.314 372.393,328.768 373.901,328.768 C375.721,328.768 377.073,329.73 377.073,331.42 L377.073,333.682 C376.059,332.512 374.629,331.966 372.913,331.966 C370.781,331.966 368.519,333.292 368.519,336.1 C368.519,338.83 370.781,340.26 372.913,340.26 C374.603,340.26 376.033,339.662 377.073,338.518 L377.073,339.948 L379.023,339.948 Z M373.615,338.856 C371.795,338.856 370.521,337.712 370.521,336.126 C370.521,334.514 371.795,333.37 373.615,333.37 C374.993,333.37 376.319,333.89 377.073,334.93 L377.073,337.296 C376.319,338.336 374.993,338.856 373.615,338.856 L373.615,338.856 Z M393.349,339.948 L393.349,331.134 C393.349,328.404 391.971,327.078 389.345,327.078 C387.473,327.078 385.757,328.17 384.873,329.21 L384.873,327.39 L382.923,327.39 L382.923,339.948 L384.873,339.948 L384.873,330.77 C385.601,329.756 387.057,328.82 388.591,328.82 C390.281,328.82 391.399,329.522 391.399,331.732 L391.399,339.948 L393.349,339.948 Z M408.299,339.948 L408.299,322.606 L406.349,322.606 L406.349,329.288 C405.335,327.91 403.801,327.078 402.111,327.078 C398.809,327.078 396.521,329.678 396.521,333.682 C396.521,337.764 398.835,340.26 402.111,340.26 C403.879,340.26 405.413,339.35 406.349,338.076 L406.349,339.948 L408.299,339.948 Z M402.579,338.518 C400.057,338.518 398.549,336.464 398.549,333.682 C398.549,330.9 400.057,328.82 402.579,328.82 C404.139,328.82 405.647,329.756 406.349,330.848 L406.349,336.542 C405.647,337.634 404.139,338.518 402.579,338.518 L402.579,338.518 Z M422.001,339.948 L422.001,331.316 C422.001,328.274 419.791,327.078 417.139,327.078 C415.085,327.078 413.473,327.754 412.121,329.158 L413.031,330.51 C414.149,329.314 415.371,328.768 416.879,328.768 C418.699,328.768 420.051,329.73 420.051,331.42 L420.051,333.682 C419.037,332.512 417.607,331.966 415.891,331.966 C413.759,331.966 411.497,333.292 411.497,336.1 C411.497,338.83 413.759,340.26 415.891,340.26 C417.581,340.26 419.011,339.662 420.051,338.518 L420.051,339.948 L422.001,339.948 Z M416.593,338.856 C414.773,338.856 413.499,337.712 413.499,336.126 C413.499,334.514 414.773,333.37 416.593,333.37 C417.971,333.37 419.297,333.89 420.051,334.93 L420.051,337.296 C419.297,338.336 417.971,338.856 416.593,338.856 L416.593,338.856 Z M427.851,339.948 L427.851,331.056 C428.423,330.042 430.061,329.054 431.257,329.054 C431.569,329.054 431.803,329.08 432.037,329.132 L432.037,327.13 C430.321,327.13 428.865,328.092 427.851,329.418 L427.851,327.39 L425.901,327.39 L425.901,339.948 L427.851,339.948 Z M445.531,339.948 L445.531,322.606 L443.581,322.606 L443.581,329.288 C442.567,327.91 441.033,327.078 439.343,327.078 C436.041,327.078 433.753,329.678 433.753,333.682 C433.753,337.764 436.067,340.26 439.343,340.26 C441.111,340.26 442.645,339.35 443.581,338.076 L443.581,339.948 L445.531,339.948 Z M439.811,338.518 C437.289,338.518 435.781,336.464 435.781,333.682 C435.781,330.9 437.289,328.82 439.811,328.82 C441.371,328.82 442.879,329.756 443.581,330.848 L443.581,336.542 C442.879,337.634 441.371,338.518 439.811,338.518 L439.811,338.518 Z" id="Tarif-standard-Copy" fill="#FFFFFF" sketch:type="MSShapeGroup"></path>
            <path d="M85.371,269.948 L78.377,252.606 L75.699,252.606 L68.731,269.948 L71.201,269.948 L72.735,266.1 L81.367,266.1 L82.901,269.948 L85.371,269.948 Z M80.717,264.176 L73.359,264.176 L77.051,254.842 L80.717,264.176 Z M89.505,269.948 L89.505,252.606 L87.555,252.606 L87.555,269.948 L89.505,269.948 Z M95.355,269.948 L95.355,252.606 L93.405,252.606 L93.405,269.948 L95.355,269.948 Z M104.923,270.26 C106.977,270.26 108.667,269.584 109.915,268.336 L108.979,267.062 C107.991,268.076 106.535,268.648 105.105,268.648 C102.401,268.648 100.737,266.672 100.581,264.306 L110.747,264.306 L110.747,263.812 C110.747,260.042 108.511,257.078 104.715,257.078 C101.127,257.078 98.527,260.016 98.527,263.656 C98.527,267.582 101.205,270.26 104.923,270.26 L104.923,270.26 Z M108.823,262.876 L100.581,262.876 C100.685,260.952 102.011,258.69 104.689,258.69 C107.549,258.69 108.797,261.004 108.823,262.876 L108.823,262.876 Z M115.843,269.948 L115.843,261.056 C116.415,260.042 118.053,259.054 119.249,259.054 C119.561,259.054 119.795,259.08 120.029,259.132 L120.029,257.13 C118.313,257.13 116.857,258.092 115.843,259.418 L115.843,257.39 L113.893,257.39 L113.893,269.948 L115.843,269.948 Z M128.765,270.468 L134.927,252.086 L133.393,252.086 L127.231,270.468 L128.765,270.468 Z M156.247,269.948 L151.567,262.876 C153.933,262.668 156.065,260.952 156.065,257.832 C156.065,254.634 153.803,252.606 150.631,252.606 L143.663,252.606 L143.663,269.948 L145.821,269.948 L145.821,263.058 L149.279,263.058 L153.699,269.948 L156.247,269.948 Z M150.371,261.16 L145.821,261.16 L145.821,254.53 L150.371,254.53 C152.425,254.53 153.829,255.882 153.829,257.832 C153.829,259.782 152.425,261.16 150.371,261.16 L150.371,261.16 Z M165.061,270.26 C167.115,270.26 168.805,269.584 170.053,268.336 L169.117,267.062 C168.129,268.076 166.673,268.648 165.243,268.648 C162.539,268.648 160.875,266.672 160.719,264.306 L170.885,264.306 L170.885,263.812 C170.885,260.042 168.649,257.078 164.853,257.078 C161.265,257.078 158.665,260.016 158.665,263.656 C158.665,267.582 161.343,270.26 165.061,270.26 L165.061,270.26 Z M168.961,262.876 L160.719,262.876 C160.823,260.952 162.149,258.69 164.827,258.69 C167.687,258.69 168.935,261.004 168.961,262.876 L168.961,262.876 Z M177.203,270.26 C178.347,270.26 179.049,269.922 179.543,269.454 L178.971,267.998 C178.711,268.284 178.191,268.518 177.645,268.518 C176.787,268.518 176.371,267.842 176.371,266.906 L176.371,259.106 L178.919,259.106 L178.919,257.39 L176.371,257.39 L176.371,253.958 L174.421,253.958 L174.421,257.39 L172.341,257.39 L172.341,259.106 L174.421,259.106 L174.421,267.322 C174.421,269.194 175.357,270.26 177.203,270.26 L177.203,270.26 Z M187.161,270.26 C190.983,270.26 193.375,267.296 193.375,263.656 C193.375,260.016 190.983,257.078 187.161,257.078 C183.339,257.078 180.947,260.016 180.947,263.656 C180.947,267.296 183.339,270.26 187.161,270.26 L187.161,270.26 Z M187.161,268.518 C184.483,268.518 182.975,266.23 182.975,263.656 C182.975,261.108 184.483,258.82 187.161,258.82 C189.839,258.82 191.321,261.108 191.321,263.656 C191.321,266.23 189.839,268.518 187.161,268.518 L187.161,268.518 Z M206.973,269.948 L206.973,257.39 L205.023,257.39 L205.023,266.62 C204.295,267.634 202.839,268.518 201.305,268.518 C199.615,268.518 198.497,267.868 198.497,265.658 L198.497,257.39 L196.547,257.39 L196.547,266.256 C196.547,268.986 197.925,270.26 200.551,270.26 C202.423,270.26 204.061,269.272 205.023,268.18 L205.023,269.948 L206.973,269.948 Z M212.823,269.948 L212.823,261.056 C213.395,260.042 215.033,259.054 216.229,259.054 C216.541,259.054 216.775,259.08 217.009,259.132 L217.009,257.13 C215.293,257.13 213.837,258.092 212.823,259.418 L212.823,257.39 L210.873,257.39 L210.873,269.948 L212.823,269.948 Z" id="Aller-/-Retour" fill="#3B3B48" sketch:type="MSShapeGroup"></path>
            <path d="M93.925,339.948 L89.245,332.876 C91.611,332.668 93.743,330.952 93.743,327.832 C93.743,324.634 91.481,322.606 88.309,322.606 L81.341,322.606 L81.341,339.948 L83.499,339.948 L83.499,333.058 L86.957,333.058 L91.377,339.948 L93.925,339.948 Z M88.049,331.16 L83.499,331.16 L83.499,324.53 L88.049,324.53 C90.103,324.53 91.507,325.882 91.507,327.832 C91.507,329.782 90.103,331.16 88.049,331.16 L88.049,331.16 Z M106.925,321.748 L104.897,321.748 L101.049,325.492 L102.531,325.492 L106.925,321.748 Z M102.739,340.26 C104.793,340.26 106.483,339.584 107.731,338.336 L106.795,337.062 C105.807,338.076 104.351,338.648 102.921,338.648 C100.217,338.648 98.553,336.672 98.397,334.306 L108.563,334.306 L108.563,333.812 C108.563,330.042 106.327,327.078 102.531,327.078 C98.943,327.078 96.343,330.016 96.343,333.656 C96.343,337.582 99.021,340.26 102.739,340.26 L102.739,340.26 Z M106.639,332.876 L98.397,332.876 C98.501,330.952 99.827,328.69 102.505,328.69 C105.365,328.69 106.613,331.004 106.639,332.876 L106.639,332.876 Z M122.759,339.948 L122.759,322.606 L120.809,322.606 L120.809,329.288 C119.795,327.91 118.261,327.078 116.571,327.078 C113.269,327.078 110.981,329.678 110.981,333.682 C110.981,337.764 113.295,340.26 116.571,340.26 C118.339,340.26 119.873,339.35 120.809,338.076 L120.809,339.948 L122.759,339.948 Z M117.039,338.518 C114.517,338.518 113.009,336.464 113.009,333.682 C113.009,330.9 114.517,328.82 117.039,328.82 C118.599,328.82 120.107,329.756 120.809,330.848 L120.809,336.542 C120.107,337.634 118.599,338.518 117.039,338.518 L117.039,338.518 Z M137.085,339.948 L137.085,327.39 L135.135,327.39 L135.135,336.62 C134.407,337.634 132.951,338.518 131.417,338.518 C129.727,338.518 128.609,337.868 128.609,335.658 L128.609,327.39 L126.659,327.39 L126.659,336.256 C126.659,338.986 128.037,340.26 130.663,340.26 C132.535,340.26 134.173,339.272 135.135,338.18 L135.135,339.948 L137.085,339.948 Z M146.523,340.26 C148.811,340.26 150.163,339.324 151.125,338.076 L149.825,336.88 C148.993,337.998 147.927,338.518 146.627,338.518 C143.949,338.518 142.285,336.438 142.285,333.656 C142.285,330.874 143.949,328.82 146.627,328.82 C147.927,328.82 148.993,329.314 149.825,330.458 L151.125,329.262 C150.163,328.014 148.811,327.078 146.523,327.078 C142.779,327.078 140.257,329.938 140.257,333.656 C140.257,337.4 142.779,340.26 146.523,340.26 L146.523,340.26 Z M157.027,340.26 C158.171,340.26 158.873,339.922 159.367,339.454 L158.795,337.998 C158.535,338.284 158.015,338.518 157.469,338.518 C156.611,338.518 156.195,337.842 156.195,336.906 L156.195,329.106 L158.743,329.106 L158.743,327.39 L156.195,327.39 L156.195,323.958 L154.245,323.958 L154.245,327.39 L152.165,327.39 L152.165,329.106 L154.245,329.106 L154.245,337.322 C154.245,339.194 155.181,340.26 157.027,340.26 L157.027,340.26 Z M162.461,325.596 C163.189,325.596 163.787,325.024 163.787,324.296 C163.787,323.568 163.189,322.97 162.461,322.97 C161.759,322.97 161.161,323.568 161.161,324.296 C161.161,325.024 161.759,325.596 162.461,325.596 L162.461,325.596 Z M163.449,339.948 L163.449,327.39 L161.499,327.39 L161.499,339.948 L163.449,339.948 Z M172.835,340.26 C176.657,340.26 179.049,337.296 179.049,333.656 C179.049,330.016 176.657,327.078 172.835,327.078 C169.013,327.078 166.621,330.016 166.621,333.656 C166.621,337.296 169.013,340.26 172.835,340.26 L172.835,340.26 Z M172.835,338.518 C170.157,338.518 168.649,336.23 168.649,333.656 C168.649,331.108 170.157,328.82 172.835,328.82 C175.513,328.82 176.995,331.108 176.995,333.656 C176.995,336.23 175.513,338.518 172.835,338.518 L172.835,338.518 Z M192.647,339.948 L192.647,331.134 C192.647,328.404 191.269,327.078 188.643,327.078 C186.771,327.078 185.055,328.17 184.171,329.21 L184.171,327.39 L182.221,327.39 L182.221,339.948 L184.171,339.948 L184.171,330.77 C184.899,329.756 186.355,328.82 187.889,328.82 C189.579,328.82 190.697,329.522 190.697,331.732 L190.697,339.948 L192.647,339.948 Z M200.525,340.26 C203.775,340.26 205.465,338.57 205.465,336.464 C205.465,331.576 197.691,333.396 197.691,330.64 C197.691,329.522 198.757,328.664 200.473,328.664 C202.085,328.664 203.463,329.34 204.217,330.25 L205.127,328.898 C204.113,327.884 202.605,327.078 200.473,327.078 C197.483,327.078 195.793,328.742 195.793,330.692 C195.793,335.346 203.567,333.474 203.567,336.516 C203.567,337.764 202.527,338.674 200.603,338.674 C198.887,338.674 197.301,337.842 196.469,336.88 L195.455,338.284 C196.729,339.636 198.471,340.26 200.525,340.26 L200.525,340.26 Z" id="Réductions" fill="#3B3B48" sketch:type="MSShapeGroup"></path>
            <path d="M553.18,206 L562.864,181.988 L559.444,181.988 L551.344,202.724 L543.244,181.988 L539.824,181.988 L549.472,206 L553.18,206 Z M573.484,206.432 C578.776,206.432 582.088,202.328 582.088,197.288 C582.088,192.248 578.776,188.18 573.484,188.18 C568.192,188.18 564.88,192.248 564.88,197.288 C564.88,202.328 568.192,206.432 573.484,206.432 L573.484,206.432 Z M573.484,204.02 C569.776,204.02 567.688,200.852 567.688,197.288 C567.688,193.76 569.776,190.592 573.484,190.592 C577.192,190.592 579.244,193.76 579.244,197.288 C579.244,200.852 577.192,204.02 573.484,204.02 L573.484,204.02 Z M590.872,206.432 C592.456,206.432 593.428,205.964 594.112,205.316 L593.32,203.3 C592.96,203.696 592.24,204.02 591.484,204.02 C590.296,204.02 589.72,203.084 589.72,201.788 L589.72,190.988 L593.248,190.988 L593.248,188.612 L589.72,188.612 L589.72,183.86 L587.02,183.86 L587.02,188.612 L584.14,188.612 L584.14,190.988 L587.02,190.988 L587.02,202.364 C587.02,204.956 588.316,206.432 590.872,206.432 L590.872,206.432 Z M599.764,206 L599.764,193.688 C600.556,192.284 602.824,190.916 604.48,190.916 C604.912,190.916 605.236,190.952 605.56,191.024 L605.56,188.252 C603.184,188.252 601.168,189.584 599.764,191.42 L599.764,188.612 L597.064,188.612 L597.064,206 L599.764,206 Z M616.792,206.432 C619.636,206.432 621.976,205.496 623.704,203.768 L622.408,202.004 C621.04,203.408 619.024,204.2 617.044,204.2 C613.3,204.2 610.996,201.464 610.78,198.188 L624.856,198.188 L624.856,197.504 C624.856,192.284 621.76,188.18 616.504,188.18 C611.536,188.18 607.936,192.248 607.936,197.288 C607.936,202.724 611.644,206.432 616.792,206.432 L616.792,206.432 Z M622.192,196.208 L610.78,196.208 C610.924,193.544 612.76,190.412 616.468,190.412 C620.428,190.412 622.156,193.616 622.192,196.208 L622.192,196.208 Z M652.144,180.8 L649.336,180.8 L644.008,185.984 L646.06,185.984 L652.144,180.8 Z M646.348,206.432 C649.192,206.432 651.532,205.496 653.26,203.768 L651.964,202.004 C650.596,203.408 648.58,204.2 646.6,204.2 C642.856,204.2 640.552,201.464 640.336,198.188 L654.412,198.188 L654.412,197.504 C654.412,192.284 651.316,188.18 646.06,188.18 C641.092,188.18 637.492,192.248 637.492,197.288 C637.492,202.724 641.2,206.432 646.348,206.432 L646.348,206.432 Z M651.748,196.208 L640.336,196.208 C640.48,193.544 642.316,190.412 646.024,190.412 C649.984,190.412 651.712,193.616 651.748,196.208 L651.748,196.208 Z M666.04,204.02 C662.548,204.02 660.496,201.14 660.496,197.288 C660.496,193.436 662.548,190.592 666.04,190.592 C668.2,190.592 670.324,191.852 671.224,193.364 L671.224,201.212 C670.324,202.724 668.2,204.02 666.04,204.02 L666.04,204.02 Z M665.392,206.432 C667.732,206.432 669.82,205.316 671.224,203.372 L671.224,212.624 L673.924,212.624 L673.924,188.612 L671.224,188.612 L671.224,191.204 C670,189.44 667.84,188.18 665.392,188.18 C660.82,188.18 657.652,191.636 657.652,197.288 C657.652,202.904 660.82,206.432 665.392,206.432 L665.392,206.432 Z M693.796,206 L693.796,188.612 L691.096,188.612 L691.096,201.392 C690.088,202.796 688.072,204.02 685.948,204.02 C683.608,204.02 682.06,203.12 682.06,200.06 L682.06,188.612 L679.36,188.612 L679.36,200.888 C679.36,204.668 681.268,206.432 684.904,206.432 C687.496,206.432 689.764,205.064 691.096,203.552 L691.096,206 L693.796,206 Z M700.528,186.128 C701.536,186.128 702.364,185.336 702.364,184.328 C702.364,183.32 701.536,182.492 700.528,182.492 C699.556,182.492 698.728,183.32 698.728,184.328 C698.728,185.336 699.556,186.128 700.528,186.128 L700.528,186.128 Z M701.896,206 L701.896,188.612 L699.196,188.612 L699.196,206 L701.896,206 Z M715.864,206.432 C720.436,206.432 723.604,202.904 723.604,197.288 C723.604,191.636 720.436,188.18 715.864,188.18 C713.416,188.18 711.256,189.44 709.996,191.204 L709.996,188.612 L707.296,188.612 L707.296,212.624 L709.996,212.624 L709.996,203.372 C711.4,205.316 713.488,206.432 715.864,206.432 L715.864,206.432 Z M715.18,204.02 C713.056,204.02 710.932,202.724 709.996,201.212 L709.996,193.364 C710.932,191.852 713.056,190.592 715.18,190.592 C718.672,190.592 720.76,193.436 720.76,197.288 C720.76,201.14 718.672,204.02 715.18,204.02 L715.18,204.02 Z M741.46,206 L741.46,194.048 C741.46,189.836 738.4,188.18 734.728,188.18 C731.884,188.18 729.652,189.116 727.78,191.06 L729.04,192.932 C730.588,191.276 732.28,190.52 734.368,190.52 C736.888,190.52 738.76,191.852 738.76,194.192 L738.76,197.324 C737.356,195.704 735.376,194.948 733,194.948 C730.048,194.948 726.916,196.784 726.916,200.672 C726.916,204.452 730.048,206.432 733,206.432 C735.34,206.432 737.32,205.604 738.76,204.02 L738.76,206 L741.46,206 Z M733.972,204.488 C731.452,204.488 729.688,202.904 729.688,200.708 C729.688,198.476 731.452,196.892 733.972,196.892 C735.88,196.892 737.716,197.612 738.76,199.052 L738.76,202.328 C737.716,203.768 735.88,204.488 733.972,204.488 L733.972,204.488 Z M753.844,213.056 C758.092,213.056 762.124,211.256 762.124,205.496 L762.124,188.612 L759.424,188.612 L759.424,191.24 C758.02,189.332 755.932,188.18 753.592,188.18 C749.02,188.18 745.852,191.636 745.852,197.216 C745.852,202.832 749.056,206.216 753.592,206.216 C756.04,206.216 758.164,204.884 759.424,203.12 L759.424,205.604 C759.424,209.42 756.724,210.824 753.844,210.824 C751.36,210.824 749.632,210.176 748.192,208.448 L746.824,210.464 C748.876,212.48 750.892,213.056 753.844,213.056 L753.844,213.056 Z M754.24,203.84 C750.748,203.84 748.66,201.032 748.66,197.216 C748.66,193.364 750.748,190.592 754.24,190.592 C756.4,190.592 758.488,191.888 759.424,193.4 L759.424,200.996 C758.488,202.508 756.4,203.84 754.24,203.84 L754.24,203.84 Z M775.372,206.432 C778.216,206.432 780.556,205.496 782.284,203.768 L780.988,202.004 C779.62,203.408 777.604,204.2 775.624,204.2 C771.88,204.2 769.576,201.464 769.36,198.188 L783.436,198.188 L783.436,197.504 C783.436,192.284 780.34,188.18 775.084,188.18 C770.116,188.18 766.516,192.248 766.516,197.288 C766.516,202.724 770.224,206.432 775.372,206.432 L775.372,206.432 Z M780.772,196.208 L769.36,196.208 C769.504,193.544 771.34,190.412 775.048,190.412 C779.008,190.412 780.736,193.616 780.772,196.208 L780.772,196.208 Z" id="Votre-équipage" fill="#FFFFFF" sketch:type="MSShapeGroup"></path>
            <path d="M586.89,267.448 L586.89,265.524 L577.686,265.524 L577.686,259.544 L586.708,259.544 L586.708,257.62 L577.686,257.62 L577.686,252.03 L586.89,252.03 L586.89,250.106 L575.528,250.106 L575.528,267.448 L586.89,267.448 Z M600.67,267.448 L600.67,258.634 C600.67,255.904 599.292,254.578 596.666,254.578 C594.794,254.578 593.078,255.67 592.194,256.71 L592.194,254.89 L590.244,254.89 L590.244,267.448 L592.194,267.448 L592.194,258.27 C592.922,257.256 594.378,256.32 595.912,256.32 C597.602,256.32 598.72,257.022 598.72,259.232 L598.72,267.448 L600.67,267.448 Z M607.066,267.448 L607.066,256.606 L609.614,256.606 L609.614,254.89 L607.066,254.89 L607.066,253.928 C607.066,252.342 607.768,251.458 609.042,251.458 C609.692,251.458 610.186,251.718 610.602,252.082 L611.408,250.808 C610.628,250.08 609.744,249.846 608.756,249.846 C606.52,249.846 605.116,251.354 605.116,253.928 L605.116,254.89 L603.036,254.89 L603.036,256.606 L605.116,256.606 L605.116,267.448 L607.066,267.448 Z M621.73,267.448 L621.73,258.816 C621.73,255.774 619.52,254.578 616.868,254.578 C614.814,254.578 613.202,255.254 611.85,256.658 L612.76,258.01 C613.878,256.814 615.1,256.268 616.608,256.268 C618.428,256.268 619.78,257.23 619.78,258.92 L619.78,261.182 C618.766,260.012 617.336,259.466 615.62,259.466 C613.488,259.466 611.226,260.792 611.226,263.6 C611.226,266.33 613.488,267.76 615.62,267.76 C617.31,267.76 618.74,267.162 619.78,266.018 L619.78,267.448 L621.73,267.448 Z M616.322,266.356 C614.502,266.356 613.228,265.212 613.228,263.626 C613.228,262.014 614.502,260.87 616.322,260.87 C617.7,260.87 619.026,261.39 619.78,262.43 L619.78,264.796 C619.026,265.836 617.7,266.356 616.322,266.356 L616.322,266.356 Z M636.056,267.448 L636.056,258.634 C636.056,255.904 634.678,254.578 632.052,254.578 C630.18,254.578 628.464,255.67 627.58,256.71 L627.58,254.89 L625.63,254.89 L625.63,267.448 L627.58,267.448 L627.58,258.27 C628.308,257.256 629.764,256.32 631.298,256.32 C632.988,256.32 634.106,257.022 634.106,259.232 L634.106,267.448 L636.056,267.448 Z M643.128,267.76 C644.272,267.76 644.974,267.422 645.468,266.954 L644.896,265.498 C644.636,265.784 644.116,266.018 643.57,266.018 C642.712,266.018 642.296,265.342 642.296,264.406 L642.296,256.606 L644.844,256.606 L644.844,254.89 L642.296,254.89 L642.296,251.458 L640.346,251.458 L640.346,254.89 L638.266,254.89 L638.266,256.606 L640.346,256.606 L640.346,264.822 C640.346,266.694 641.282,267.76 643.128,267.76 L643.128,267.76 Z M651.578,267.76 C654.828,267.76 656.518,266.07 656.518,263.964 C656.518,259.076 648.744,260.896 648.744,258.14 C648.744,257.022 649.81,256.164 651.526,256.164 C653.138,256.164 654.516,256.84 655.27,257.75 L656.18,256.398 C655.166,255.384 653.658,254.578 651.526,254.578 C648.536,254.578 646.846,256.242 646.846,258.192 C646.846,262.846 654.62,260.974 654.62,264.016 C654.62,265.264 653.58,266.174 651.656,266.174 C649.94,266.174 648.354,265.342 647.522,264.38 L646.508,265.784 C647.782,267.136 649.524,267.76 651.578,267.76 L651.578,267.76 Z M578.36,288.686 L578.36,287.498 L574.04,287.498 L574.04,288.686 L578.36,288.686 Z M588.242,292.448 L588.242,280.442 L586.928,280.442 L583.922,283.538 L584.822,284.456 L586.748,282.422 L586.748,292.448 L588.242,292.448 Z M598.862,292.448 L598.862,291.116 L592.976,291.116 C596.324,288.47 598.808,286.238 598.808,283.79 C598.808,281.396 596.774,280.262 594.776,280.262 C593.084,280.262 591.518,280.946 590.6,282.152 L591.518,283.106 C592.22,282.206 593.336,281.594 594.776,281.594 C596.018,281.594 597.278,282.26 597.278,283.79 C597.278,285.86 594.938,287.858 590.618,291.26 L590.618,292.448 L598.862,292.448 Z M613.01,292.448 L613.01,286.472 C613.01,284.366 611.48,283.538 609.644,283.538 C608.222,283.538 607.106,284.006 606.17,284.978 L606.8,285.914 C607.574,285.086 608.42,284.708 609.464,284.708 C610.724,284.708 611.66,285.374 611.66,286.544 L611.66,288.11 C610.958,287.3 609.968,286.922 608.78,286.922 C607.304,286.922 605.738,287.84 605.738,289.784 C605.738,291.674 607.304,292.664 608.78,292.664 C609.95,292.664 610.94,292.25 611.66,291.458 L611.66,292.448 L613.01,292.448 Z M609.266,291.692 C608.006,291.692 607.124,290.9 607.124,289.802 C607.124,288.686 608.006,287.894 609.266,287.894 C610.22,287.894 611.138,288.254 611.66,288.974 L611.66,290.612 C611.138,291.332 610.22,291.692 609.266,291.692 L609.266,291.692 Z M622.928,292.448 L622.928,286.346 C622.928,284.456 621.974,283.538 620.156,283.538 C618.86,283.538 617.672,284.294 617.06,285.014 L617.06,283.754 L615.71,283.754 L615.71,292.448 L617.06,292.448 L617.06,286.094 C617.564,285.392 618.572,284.744 619.634,284.744 C620.804,284.744 621.578,285.23 621.578,286.76 L621.578,292.448 L622.928,292.448 Z M628.382,292.664 C630.632,292.664 631.802,291.494 631.802,290.036 C631.802,286.652 626.42,287.912 626.42,286.004 C626.42,285.23 627.158,284.636 628.346,284.636 C629.462,284.636 630.416,285.104 630.938,285.734 L631.568,284.798 C630.866,284.096 629.822,283.538 628.346,283.538 C626.276,283.538 625.106,284.69 625.106,286.04 C625.106,289.262 630.488,287.966 630.488,290.072 C630.488,290.936 629.768,291.566 628.436,291.566 C627.248,291.566 626.15,290.99 625.574,290.324 L624.872,291.296 C625.754,292.232 626.96,292.664 628.382,292.664 L628.382,292.664 Z" id="Enfants" fill="#FFFFFF" sketch:type="MSShapeGroup"></path>
            <path d="M850.224,282.448 L850.224,254.434 L847.158,254.434 L840.144,261.658 L842.244,263.8 L846.738,259.054 L846.738,282.448 L850.224,282.448 Z" id="1" fill="#FFFFFF" sketch:type="MSShapeGroup"></path>
            <path d="M953.504,282.976 L955.872,280.608 L946.4,271.072 L955.872,261.6 L953.504,259.168 L943.968,268.704 L934.496,259.168 L932.128,261.6 L941.6,271.072 L932.128,280.608 L934.496,282.976 L943.968,273.44 L953.504,282.976 Z" id="×" opacity="0.3" fill="#000000" sketch:type="MSShapeGroup"></path>
            <path d="M578.31,362.76 C581.404,362.76 583.822,360.992 583.822,357.222 L583.822,345.106 L581.664,345.106 L581.664,357.196 C581.664,359.354 580.312,360.836 578.18,360.836 C576.672,360.836 575.658,360.03 574.904,359.12 L573.786,360.758 C574.982,362.162 576.464,362.76 578.31,362.76 L578.31,362.76 Z M593.468,362.76 C595.522,362.76 597.212,362.084 598.46,360.836 L597.524,359.562 C596.536,360.576 595.08,361.148 593.65,361.148 C590.946,361.148 589.282,359.172 589.126,356.806 L599.292,356.806 L599.292,356.312 C599.292,352.542 597.056,349.578 593.26,349.578 C589.672,349.578 587.072,352.516 587.072,356.156 C587.072,360.082 589.75,362.76 593.468,362.76 L593.468,362.76 Z M597.368,355.376 L589.126,355.376 C589.23,353.452 590.556,351.19 593.234,351.19 C596.094,351.19 597.342,353.504 597.368,355.376 L597.368,355.376 Z M612.864,362.448 L612.864,349.89 L610.914,349.89 L610.914,359.12 C610.186,360.134 608.73,361.018 607.196,361.018 C605.506,361.018 604.388,360.368 604.388,358.158 L604.388,349.89 L602.438,349.89 L602.438,358.756 C602.438,361.486 603.816,362.76 606.442,362.76 C608.314,362.76 609.952,361.772 610.914,360.68 L610.914,362.448 L612.864,362.448 Z M627.19,362.448 L627.19,353.634 C627.19,350.904 625.812,349.578 623.186,349.578 C621.314,349.578 619.598,350.67 618.714,351.71 L618.714,349.89 L616.764,349.89 L616.764,362.448 L618.714,362.448 L618.714,353.27 C619.442,352.256 620.898,351.32 622.432,351.32 C624.122,351.32 625.24,352.022 625.24,354.232 L625.24,362.448 L627.19,362.448 Z M636.758,362.76 C638.812,362.76 640.502,362.084 641.75,360.836 L640.814,359.562 C639.826,360.576 638.37,361.148 636.94,361.148 C634.236,361.148 632.572,359.172 632.416,356.806 L642.582,356.806 L642.582,356.312 C642.582,352.542 640.346,349.578 636.55,349.578 C632.962,349.578 630.362,352.516 630.362,356.156 C630.362,360.082 633.04,362.76 636.758,362.76 L636.758,362.76 Z M640.658,355.376 L632.416,355.376 C632.52,353.452 633.846,351.19 636.524,351.19 C639.384,351.19 640.632,353.504 640.658,355.376 L640.658,355.376 Z M649.706,362.76 C652.956,362.76 654.646,361.07 654.646,358.964 C654.646,354.076 646.872,355.896 646.872,353.14 C646.872,352.022 647.938,351.164 649.654,351.164 C651.266,351.164 652.644,351.84 653.398,352.75 L654.308,351.398 C653.294,350.384 651.786,349.578 649.654,349.578 C646.664,349.578 644.974,351.242 644.974,353.192 C644.974,357.846 652.748,355.974 652.748,359.016 C652.748,360.264 651.708,361.174 649.784,361.174 C648.068,361.174 646.482,360.342 645.65,359.38 L644.636,360.784 C645.91,362.136 647.652,362.76 649.706,362.76 L649.706,362.76 Z M578.198,387.448 L578.198,375.442 L576.884,375.442 L573.878,378.538 L574.778,379.456 L576.704,377.422 L576.704,387.448 L578.198,387.448 Z M588.818,387.448 L588.818,386.116 L582.932,386.116 C586.28,383.47 588.764,381.238 588.764,378.79 C588.764,376.396 586.73,375.262 584.732,375.262 C583.04,375.262 581.474,375.946 580.556,377.152 L581.474,378.106 C582.176,377.206 583.292,376.594 584.732,376.594 C585.974,376.594 587.234,377.26 587.234,378.79 C587.234,380.86 584.894,382.858 580.574,386.26 L580.574,387.448 L588.818,387.448 Z M599.6,383.074 L596.72,379.888 L595.37,379.888 L598.25,383.074 L595.37,386.314 L596.72,386.314 L599.6,383.074 Z M614,387.448 L614,386.116 L608.114,386.116 C611.462,383.47 613.946,381.238 613.946,378.79 C613.946,376.396 611.912,375.262 609.914,375.262 C608.222,375.262 606.656,375.946 605.738,377.152 L606.656,378.106 C607.358,377.206 608.474,376.594 609.914,376.594 C611.156,376.594 612.416,377.26 612.416,378.79 C612.416,380.86 610.076,382.858 605.756,386.26 L605.756,387.448 L614,387.448 Z M620.786,387.664 C623.198,387.664 625.052,386.152 625.052,383.704 C625.052,381.238 623.234,379.87 621.236,379.87 C620.03,379.87 619.004,380.374 618.428,380.95 L618.428,376.774 L624.278,376.774 L624.278,375.442 L616.934,375.442 L616.934,381.922 L618.032,382.3 C618.842,381.508 619.742,381.166 620.804,381.166 C622.424,381.166 623.558,382.174 623.558,383.758 C623.558,385.216 622.424,386.332 620.786,386.332 C619.31,386.332 618.266,385.756 617.474,384.748 L616.556,385.738 C617.456,386.926 618.752,387.664 620.786,387.664 L620.786,387.664 Z M638.768,387.448 L638.768,381.472 C638.768,379.366 637.238,378.538 635.402,378.538 C633.98,378.538 632.864,379.006 631.928,379.978 L632.558,380.914 C633.332,380.086 634.178,379.708 635.222,379.708 C636.482,379.708 637.418,380.374 637.418,381.544 L637.418,383.11 C636.716,382.3 635.726,381.922 634.538,381.922 C633.062,381.922 631.496,382.84 631.496,384.784 C631.496,386.674 633.062,387.664 634.538,387.664 C635.708,387.664 636.698,387.25 637.418,386.458 L637.418,387.448 L638.768,387.448 Z M635.024,386.692 C633.764,386.692 632.882,385.9 632.882,384.802 C632.882,383.686 633.764,382.894 635.024,382.894 C635.978,382.894 636.896,383.254 637.418,383.974 L637.418,385.612 C636.896,386.332 635.978,386.692 635.024,386.692 L635.024,386.692 Z M648.686,387.448 L648.686,381.346 C648.686,379.456 647.732,378.538 645.914,378.538 C644.618,378.538 643.43,379.294 642.818,380.014 L642.818,378.754 L641.468,378.754 L641.468,387.448 L642.818,387.448 L642.818,381.094 C643.322,380.392 644.33,379.744 645.392,379.744 C646.562,379.744 647.336,380.23 647.336,381.76 L647.336,387.448 L648.686,387.448 Z M654.14,387.664 C656.39,387.664 657.56,386.494 657.56,385.036 C657.56,381.652 652.178,382.912 652.178,381.004 C652.178,380.23 652.916,379.636 654.104,379.636 C655.22,379.636 656.174,380.104 656.696,380.734 L657.326,379.798 C656.624,379.096 655.58,378.538 654.104,378.538 C652.034,378.538 650.864,379.69 650.864,381.04 C650.864,384.262 656.246,382.966 656.246,385.072 C656.246,385.936 655.526,386.566 654.194,386.566 C653.006,386.566 651.908,385.99 651.332,385.324 L650.63,386.296 C651.512,387.232 652.718,387.664 654.14,387.664 L654.14,387.664 Z" id="Jeunes" fill="#FFFFFF" sketch:type="MSShapeGroup"></path>
            <path d="M590.374,457.448 L583.38,440.106 L580.702,440.106 L573.734,457.448 L576.204,457.448 L577.738,453.6 L586.37,453.6 L587.904,457.448 L590.374,457.448 Z M585.72,451.676 L578.362,451.676 L582.054,442.342 L585.72,451.676 Z M603.608,457.448 L603.608,440.106 L601.658,440.106 L601.658,446.788 C600.644,445.41 599.11,444.578 597.42,444.578 C594.118,444.578 591.83,447.178 591.83,451.182 C591.83,455.264 594.144,457.76 597.42,457.76 C599.188,457.76 600.722,456.85 601.658,455.576 L601.658,457.448 L603.608,457.448 Z M597.888,456.018 C595.366,456.018 593.858,453.964 593.858,451.182 C593.858,448.4 595.366,446.32 597.888,446.32 C599.448,446.32 600.956,447.256 601.658,448.348 L601.658,454.042 C600.956,455.134 599.448,456.018 597.888,456.018 L597.888,456.018 Z M617.934,457.448 L617.934,444.89 L615.984,444.89 L615.984,454.12 C615.256,455.134 613.8,456.018 612.266,456.018 C610.576,456.018 609.458,455.368 609.458,453.158 L609.458,444.89 L607.508,444.89 L607.508,453.756 C607.508,456.486 608.886,457.76 611.512,457.76 C613.384,457.76 615.022,456.772 615.984,455.68 L615.984,457.448 L617.934,457.448 Z M623.784,457.448 L623.784,440.106 L621.834,440.106 L621.834,457.448 L623.784,457.448 Z M630.856,457.76 C632,457.76 632.702,457.422 633.196,456.954 L632.624,455.498 C632.364,455.784 631.844,456.018 631.298,456.018 C630.44,456.018 630.024,455.342 630.024,454.406 L630.024,446.606 L632.572,446.606 L632.572,444.89 L630.024,444.89 L630.024,441.458 L628.074,441.458 L628.074,444.89 L625.994,444.89 L625.994,446.606 L628.074,446.606 L628.074,454.822 C628.074,456.694 629.01,457.76 630.856,457.76 L630.856,457.76 Z M640.996,457.76 C643.05,457.76 644.74,457.084 645.988,455.836 L645.052,454.562 C644.064,455.576 642.608,456.148 641.178,456.148 C638.474,456.148 636.81,454.172 636.654,451.806 L646.82,451.806 L646.82,451.312 C646.82,447.542 644.584,444.578 640.788,444.578 C637.2,444.578 634.6,447.516 634.6,451.156 C634.6,455.082 637.278,457.76 640.996,457.76 L640.996,457.76 Z M644.896,450.376 L636.654,450.376 C636.758,448.452 638.084,446.19 640.762,446.19 C643.622,446.19 644.87,448.504 644.896,450.376 L644.896,450.376 Z M653.944,457.76 C657.194,457.76 658.884,456.07 658.884,453.964 C658.884,449.076 651.11,450.896 651.11,448.14 C651.11,447.022 652.176,446.164 653.892,446.164 C655.504,446.164 656.882,446.84 657.636,447.75 L658.546,446.398 C657.532,445.384 656.024,444.578 653.892,444.578 C650.902,444.578 649.212,446.242 649.212,448.192 C649.212,452.846 656.986,450.974 656.986,454.016 C656.986,455.264 655.946,456.174 654.022,456.174 C652.306,456.174 650.72,455.342 649.888,454.38 L648.874,455.784 C650.148,457.136 651.89,457.76 653.944,457.76 L653.944,457.76 Z M582.716,482.448 L582.716,481.116 L576.83,481.116 C580.178,478.47 582.662,476.238 582.662,473.79 C582.662,471.396 580.628,470.262 578.63,470.262 C576.938,470.262 575.372,470.946 574.454,472.152 L575.372,473.106 C576.074,472.206 577.19,471.594 578.63,471.594 C579.872,471.594 581.132,472.26 581.132,473.79 C581.132,475.86 578.792,477.858 574.472,481.26 L574.472,482.448 L582.716,482.448 Z M589.628,482.664 C592.256,482.664 593.84,480.828 593.84,478.74 C593.84,476.184 592.076,474.906 589.916,474.906 C588.368,474.906 587.036,475.95 586.514,476.778 C586.496,476.616 586.496,476.472 586.496,476.31 C586.496,473.952 587.558,471.594 589.88,471.594 C591.14,471.594 591.842,472.098 592.454,472.818 L593.21,471.702 C592.472,470.856 591.428,470.262 589.88,470.262 C586.514,470.262 585.002,473.214 585.002,476.472 C585.002,479.73 586.28,482.664 589.628,482.664 L589.628,482.664 Z M589.574,481.332 C587.486,481.332 586.694,479.496 586.55,478.002 C587.216,476.94 588.368,476.202 589.556,476.202 C591.104,476.202 592.328,477.03 592.328,478.794 C592.328,479.946 591.428,481.332 589.574,481.332 L589.574,481.332 Z M604.136,478.074 L601.256,474.888 L599.906,474.888 L602.786,478.074 L599.906,481.314 L601.256,481.314 L604.136,478.074 Z M614.864,482.664 C617.492,482.664 619.076,480.828 619.076,478.74 C619.076,476.184 617.312,474.906 615.152,474.906 C613.604,474.906 612.272,475.95 611.75,476.778 C611.732,476.616 611.732,476.472 611.732,476.31 C611.732,473.952 612.794,471.594 615.116,471.594 C616.376,471.594 617.078,472.098 617.69,472.818 L618.446,471.702 C617.708,470.856 616.664,470.262 615.116,470.262 C611.75,470.262 610.238,473.214 610.238,476.472 C610.238,479.73 611.516,482.664 614.864,482.664 L614.864,482.664 Z M614.81,481.332 C612.722,481.332 611.93,479.496 611.786,478.002 C612.452,476.94 613.604,476.202 614.792,476.202 C616.34,476.202 617.564,477.03 617.564,478.794 C617.564,479.946 616.664,481.332 614.81,481.332 L614.81,481.332 Z M627.734,482.448 L627.734,479.406 L629.426,479.406 L629.426,478.092 L627.734,478.092 L627.734,470.442 L625.682,470.442 L620.534,478.164 L620.534,479.406 L626.24,479.406 L626.24,482.448 L627.734,482.448 Z M626.24,478.092 L622.028,478.092 L626.24,471.828 L626.24,478.092 Z M642.782,482.448 L642.782,476.472 C642.782,474.366 641.252,473.538 639.416,473.538 C637.994,473.538 636.878,474.006 635.942,474.978 L636.572,475.914 C637.346,475.086 638.192,474.708 639.236,474.708 C640.496,474.708 641.432,475.374 641.432,476.544 L641.432,478.11 C640.73,477.3 639.74,476.922 638.552,476.922 C637.076,476.922 635.51,477.84 635.51,479.784 C635.51,481.674 637.076,482.664 638.552,482.664 C639.722,482.664 640.712,482.25 641.432,481.458 L641.432,482.448 L642.782,482.448 Z M639.038,481.692 C637.778,481.692 636.896,480.9 636.896,479.802 C636.896,478.686 637.778,477.894 639.038,477.894 C639.992,477.894 640.91,478.254 641.432,478.974 L641.432,480.612 C640.91,481.332 639.992,481.692 639.038,481.692 L639.038,481.692 Z M652.7,482.448 L652.7,476.346 C652.7,474.456 651.746,473.538 649.928,473.538 C648.632,473.538 647.444,474.294 646.832,475.014 L646.832,473.754 L645.482,473.754 L645.482,482.448 L646.832,482.448 L646.832,476.094 C647.336,475.392 648.344,474.744 649.406,474.744 C650.576,474.744 651.35,475.23 651.35,476.76 L651.35,482.448 L652.7,482.448 Z M658.154,482.664 C660.404,482.664 661.574,481.494 661.574,480.036 C661.574,476.652 656.192,477.912 656.192,476.004 C656.192,475.23 656.93,474.636 658.118,474.636 C659.234,474.636 660.188,475.104 660.71,475.734 L661.34,474.798 C660.638,474.096 659.594,473.538 658.118,473.538 C656.048,473.538 654.878,474.69 654.878,476.04 C654.878,479.262 660.26,477.966 660.26,480.072 C660.26,480.936 659.54,481.566 658.208,481.566 C657.02,481.566 655.922,480.99 655.346,480.324 L654.644,481.296 C655.526,482.232 656.732,482.664 658.154,482.664 L658.154,482.664 Z" id="Adultes" fill="#FFFFFF" sketch:type="MSShapeGroup"></path>
            <path d="M850.308,474.448 L850.308,471.34 L836.574,471.34 C844.386,465.166 850.182,459.958 850.182,454.246 C850.182,448.66 845.436,446.014 840.774,446.014 C836.826,446.014 833.172,447.61 831.03,450.424 L833.172,452.65 C834.81,450.55 837.414,449.122 840.774,449.122 C843.672,449.122 846.612,450.676 846.612,454.246 C846.612,459.076 841.152,463.738 831.072,471.676 L831.072,474.448 L850.308,474.448 Z" id="2" fill="#FFFFFF" sketch:type="MSShapeGroup"></path>
            <path d="M953.504,472.976 L955.872,470.608 L946.4,461.072 L955.872,451.6 L953.504,449.168 L943.968,458.704 L934.496,449.168 L932.128,451.6 L941.6,461.072 L932.128,470.608 L934.496,472.976 L943.968,463.44 L953.504,472.976 Z" id="×-copy-2" opacity="0.3" fill="#000000" sketch:type="MSShapeGroup"></path>
            <path d="M581.144,552.76 C585.824,552.76 587.54,550.186 587.54,547.664 C587.54,541.19 577.27,543.426 577.27,539.526 C577.27,537.888 578.752,536.77 580.832,536.77 C582.73,536.77 584.55,537.42 585.85,538.85 L587.15,537.264 C585.694,535.73 583.64,534.846 580.988,534.846 C577.582,534.846 575.034,536.796 575.034,539.656 C575.034,545.844 585.304,543.374 585.304,547.846 C585.304,549.172 584.316,550.836 581.222,550.836 C578.778,550.836 576.906,549.64 575.762,548.366 L574.488,550.004 C575.918,551.616 578.128,552.76 581.144,552.76 L581.144,552.76 Z M596.354,552.76 C598.408,552.76 600.098,552.084 601.346,550.836 L600.41,549.562 C599.422,550.576 597.966,551.148 596.536,551.148 C593.832,551.148 592.168,549.172 592.012,546.806 L602.178,546.806 L602.178,546.312 C602.178,542.542 599.942,539.578 596.146,539.578 C592.558,539.578 589.958,542.516 589.958,546.156 C589.958,550.082 592.636,552.76 596.354,552.76 L596.354,552.76 Z M600.254,545.376 L592.012,545.376 C592.116,543.452 593.442,541.19 596.12,541.19 C598.98,541.19 600.228,543.504 600.254,545.376 L600.254,545.376 Z M615.75,552.448 L615.75,543.634 C615.75,540.904 614.372,539.578 611.746,539.578 C609.874,539.578 608.158,540.67 607.274,541.71 L607.274,539.89 L605.324,539.89 L605.324,552.448 L607.274,552.448 L607.274,543.27 C608.002,542.256 609.458,541.32 610.992,541.32 C612.682,541.32 613.8,542.022 613.8,544.232 L613.8,552.448 L615.75,552.448 Z M620.612,538.096 C621.34,538.096 621.938,537.524 621.938,536.796 C621.938,536.068 621.34,535.47 620.612,535.47 C619.91,535.47 619.312,536.068 619.312,536.796 C619.312,537.524 619.91,538.096 620.612,538.096 L620.612,538.096 Z M621.6,552.448 L621.6,539.89 L619.65,539.89 L619.65,552.448 L621.6,552.448 Z M630.986,552.76 C634.808,552.76 637.2,549.796 637.2,546.156 C637.2,542.516 634.808,539.578 630.986,539.578 C627.164,539.578 624.772,542.516 624.772,546.156 C624.772,549.796 627.164,552.76 630.986,552.76 L630.986,552.76 Z M630.986,551.018 C628.308,551.018 626.8,548.73 626.8,546.156 C626.8,543.608 628.308,541.32 630.986,541.32 C633.664,541.32 635.146,543.608 635.146,546.156 C635.146,548.73 633.664,551.018 630.986,551.018 L630.986,551.018 Z M642.322,552.448 L642.322,543.556 C642.894,542.542 644.532,541.554 645.728,541.554 C646.04,541.554 646.274,541.58 646.508,541.632 L646.508,539.63 C644.792,539.63 643.336,540.592 642.322,541.918 L642.322,539.89 L640.372,539.89 L640.372,552.448 L642.322,552.448 Z M581.96,571.85 L581.96,570.914 L578.504,570.914 L578.504,567.188 L577.478,567.188 L577.478,570.914 L574.022,570.914 L574.022,571.85 L577.478,571.85 L577.478,575.684 L578.504,575.684 L578.504,571.85 L581.96,571.85 Z M592.67,577.664 C595.298,577.664 596.882,575.828 596.882,573.74 C596.882,571.184 595.118,569.906 592.958,569.906 C591.41,569.906 590.078,570.95 589.556,571.778 C589.538,571.616 589.538,571.472 589.538,571.31 C589.538,568.952 590.6,566.594 592.922,566.594 C594.182,566.594 594.884,567.098 595.496,567.818 L596.252,566.702 C595.514,565.856 594.47,565.262 592.922,565.262 C589.556,565.262 588.044,568.214 588.044,571.472 C588.044,574.73 589.322,577.664 592.67,577.664 L592.67,577.664 Z M592.616,576.332 C590.528,576.332 589.736,574.496 589.592,573.002 C590.258,571.94 591.41,571.202 592.598,571.202 C594.146,571.202 595.37,572.03 595.37,573.794 C595.37,574.946 594.47,576.332 592.616,576.332 L592.616,576.332 Z M603.182,577.664 C605.594,577.664 607.448,576.152 607.448,573.704 C607.448,571.238 605.63,569.87 603.632,569.87 C602.426,569.87 601.4,570.374 600.824,570.95 L600.824,566.774 L606.674,566.774 L606.674,565.442 L599.33,565.442 L599.33,571.922 L600.428,572.3 C601.238,571.508 602.138,571.166 603.2,571.166 C604.82,571.166 605.954,572.174 605.954,573.758 C605.954,575.216 604.82,576.332 603.182,576.332 C601.706,576.332 600.662,575.756 599.87,574.748 L598.952,575.738 C599.852,576.926 601.148,577.664 603.182,577.664 L603.182,577.664 Z M621.164,577.448 L621.164,571.472 C621.164,569.366 619.634,568.538 617.798,568.538 C616.376,568.538 615.26,569.006 614.324,569.978 L614.954,570.914 C615.728,570.086 616.574,569.708 617.618,569.708 C618.878,569.708 619.814,570.374 619.814,571.544 L619.814,573.11 C619.112,572.3 618.122,571.922 616.934,571.922 C615.458,571.922 613.892,572.84 613.892,574.784 C613.892,576.674 615.458,577.664 616.934,577.664 C618.104,577.664 619.094,577.25 619.814,576.458 L619.814,577.448 L621.164,577.448 Z M617.42,576.692 C616.16,576.692 615.278,575.9 615.278,574.802 C615.278,573.686 616.16,572.894 617.42,572.894 C618.374,572.894 619.292,573.254 619.814,573.974 L619.814,575.612 C619.292,576.332 618.374,576.692 617.42,576.692 L617.42,576.692 Z M631.082,577.448 L631.082,571.346 C631.082,569.456 630.128,568.538 628.31,568.538 C627.014,568.538 625.826,569.294 625.214,570.014 L625.214,568.754 L623.864,568.754 L623.864,577.448 L625.214,577.448 L625.214,571.094 C625.718,570.392 626.726,569.744 627.788,569.744 C628.958,569.744 629.732,570.23 629.732,571.76 L629.732,577.448 L631.082,577.448 Z M636.536,577.664 C638.786,577.664 639.956,576.494 639.956,575.036 C639.956,571.652 634.574,572.912 634.574,571.004 C634.574,570.23 635.312,569.636 636.5,569.636 C637.616,569.636 638.57,570.104 639.092,570.734 L639.722,569.798 C639.02,569.096 637.976,568.538 636.5,568.538 C634.43,568.538 633.26,569.69 633.26,571.04 C633.26,574.262 638.642,572.966 638.642,575.072 C638.642,575.936 637.922,576.566 636.59,576.566 C635.402,576.566 634.304,575.99 633.728,575.324 L633.026,576.296 C633.908,577.232 635.114,577.664 636.536,577.664 L636.536,577.664 Z" id="Senior" fill="#FFFFFF" sketch:type="MSShapeGroup"></path>
            <path d="M815.65,724.5 C820.15,724.5 821.575,721.925 821.575,719.775 C821.575,713.55 811.575,715.9 811.575,711.625 C811.575,709.825 813.25,708.55 815.475,708.55 C817.35,708.55 819.05,709.2 820.25,710.65 L821.2,709.6 C819.9,708.125 818.05,707.25 815.55,707.25 C812.525,707.25 810.075,708.975 810.075,711.7 C810.075,717.525 820.075,714.975 820.075,719.875 C820.075,721.3 819.1,723.2 815.675,723.2 C813.3,723.2 811.55,722.025 810.475,720.775 L809.55,721.85 C810.825,723.4 812.9,724.5 815.65,724.5 L815.65,724.5 Z M837.4,724.2 L837.4,712.125 L836.1,712.125 L836.1,721.325 C835.3,722.4 833.725,723.325 832.175,723.325 C830.425,723.325 829.25,722.675 829.25,720.325 L829.25,712.125 L827.95,712.125 L827.95,720.625 C827.95,723.35 829.275,724.5 831.75,724.5 C833.5,724.5 835.1,723.525 836.1,722.425 L836.1,724.2 L837.4,724.2 Z M845.1,710.225 C845.65,710.225 846.1,709.775 846.1,709.225 C846.1,708.675 845.65,708.25 845.1,708.25 C844.575,708.25 844.1,708.675 844.1,709.225 C844.1,709.775 844.575,710.225 845.1,710.225 L845.1,710.225 Z M845.75,724.2 L845.75,712.125 L844.45,712.125 L844.45,724.2 L845.75,724.2 Z M857.525,724.2 L862.625,712.125 L861.15,712.125 L856.8,722.675 L852.4,712.125 L850.95,712.125 L856.05,724.2 L857.525,724.2 Z M876.8,724.2 L876.8,715.7 C876.8,713 874.85,711.825 872.4,711.825 C870.4,711.825 869,712.5 867.75,713.85 L868.475,714.75 C869.575,713.5 870.75,712.975 872.25,712.975 C874.05,712.975 875.5,713.95 875.5,715.75 L875.5,718.2 C874.45,717.025 873.075,716.475 871.4,716.475 C869.3,716.475 867.175,717.85 867.175,720.475 C867.175,723.075 869.325,724.5 871.4,724.5 C873.075,724.5 874.425,723.95 875.5,722.775 L875.5,724.2 L876.8,724.2 Z M871.85,723.475 C869.85,723.475 868.55,722.2 868.55,720.5 C868.55,718.775 869.85,717.5 871.85,717.5 C873.3,717.5 874.65,718.075 875.5,719.175 L875.5,721.825 C874.65,722.925 873.3,723.475 871.85,723.475 L871.85,723.475 Z M893.3,724.2 L893.3,715.75 C893.3,713.025 891.95,711.825 889.5,711.825 C887.75,711.825 886.025,712.9 885.15,713.95 L885.15,712.125 L883.85,712.125 L883.85,724.2 L885.15,724.2 L885.15,715.075 C885.925,713.975 887.525,713 889.075,713 C890.825,713 892,713.7 892,716.025 L892,724.2 L893.3,724.2 Z M902.975,724.5 C903.975,724.5 904.55,724.2 905.025,723.75 L904.525,722.75 C904.25,723.05 903.75,723.325 903.175,723.325 C902.325,723.325 901.925,722.65 901.925,721.675 L901.925,713.275 L904.375,713.275 L904.375,712.125 L901.925,712.125 L901.925,708.825 L900.6,708.825 L900.6,712.125 L898.6,712.125 L898.6,713.275 L900.6,713.275 L900.6,721.875 C900.6,723.525 901.375,724.5 902.975,724.5 L902.975,724.5 Z M923.85,718.125 L919.85,713.7 L918.425,713.7 L922.425,718.125 L918.425,722.625 L919.85,722.625 L923.85,718.125 Z" id="Suivant-›" fill="#FFFFFF" sketch:type="MSShapeGroup"></path>
            <path d="M184.129,581.862 L184.129,580.51 L179.137,580.51 L179.137,575.128 L177.655,575.128 L177.655,580.51 L172.663,580.51 L172.663,581.862 L177.655,581.862 L177.655,587.4 L179.137,587.4 L179.137,581.862 L184.129,581.862 Z M199.235,590.26 C203.915,590.26 205.631,587.686 205.631,585.164 C205.631,578.69 195.361,580.926 195.361,577.026 C195.361,575.388 196.843,574.27 198.923,574.27 C200.821,574.27 202.641,574.92 203.941,576.35 L205.241,574.764 C203.785,573.23 201.731,572.346 199.079,572.346 C195.673,572.346 193.125,574.296 193.125,577.156 C193.125,583.344 203.395,580.874 203.395,585.346 C203.395,586.672 202.407,588.336 199.313,588.336 C196.869,588.336 194.997,587.14 193.853,585.866 L192.579,587.504 C194.009,589.116 196.219,590.26 199.235,590.26 L199.235,590.26 Z M219.203,589.948 L219.203,577.39 L217.253,577.39 L217.253,586.62 C216.525,587.634 215.069,588.518 213.535,588.518 C211.845,588.518 210.727,587.868 210.727,585.658 L210.727,577.39 L208.777,577.39 L208.777,586.256 C208.777,588.986 210.155,590.26 212.781,590.26 C214.653,590.26 216.291,589.272 217.253,588.18 L217.253,589.948 L219.203,589.948 Z M229.291,590.26 C232.593,590.26 234.881,587.712 234.881,583.656 C234.881,579.574 232.593,577.078 229.291,577.078 C227.523,577.078 225.963,577.988 225.053,579.262 L225.053,577.39 L223.103,577.39 L223.103,594.732 L225.053,594.732 L225.053,588.05 C226.067,589.454 227.575,590.26 229.291,590.26 L229.291,590.26 Z M228.797,588.518 C227.263,588.518 225.729,587.582 225.053,586.49 L225.053,580.822 C225.729,579.73 227.263,578.82 228.797,578.82 C231.319,578.82 232.827,580.874 232.827,583.656 C232.827,586.438 231.319,588.518 228.797,588.518 L228.797,588.518 Z M244.163,590.26 C247.465,590.26 249.753,587.712 249.753,583.656 C249.753,579.574 247.465,577.078 244.163,577.078 C242.395,577.078 240.835,577.988 239.925,579.262 L239.925,577.39 L237.975,577.39 L237.975,594.732 L239.925,594.732 L239.925,588.05 C240.939,589.454 242.447,590.26 244.163,590.26 L244.163,590.26 Z M243.669,588.518 C242.135,588.518 240.601,587.582 239.925,586.49 L239.925,580.822 C240.601,579.73 242.135,578.82 243.669,578.82 C246.191,578.82 247.699,580.874 247.699,583.656 C247.699,586.438 246.191,588.518 243.669,588.518 L243.669,588.518 Z M254.797,589.948 L254.797,572.606 L252.847,572.606 L252.847,589.948 L254.797,589.948 Z M268.551,571.748 L266.523,571.748 L262.675,575.492 L264.157,575.492 L268.551,571.748 Z M264.365,590.26 C266.419,590.26 268.109,589.584 269.357,588.336 L268.421,587.062 C267.433,588.076 265.977,588.648 264.547,588.648 C261.843,588.648 260.179,586.672 260.023,584.306 L270.189,584.306 L270.189,583.812 C270.189,580.042 267.953,577.078 264.157,577.078 C260.569,577.078 257.969,580.016 257.969,583.656 C257.969,587.582 260.647,590.26 264.365,590.26 L264.365,590.26 Z M268.265,582.876 L260.023,582.876 C260.127,580.952 261.453,578.69 264.131,578.69 C266.991,578.69 268.239,581.004 268.265,582.876 L268.265,582.876 Z M290.443,589.948 L290.443,580.874 C290.443,578.352 289.221,577.078 286.933,577.078 C285.113,577.078 283.423,578.274 282.721,579.418 C282.357,578.118 281.265,577.078 279.341,577.078 C277.495,577.078 275.805,578.404 275.285,579.21 L275.285,577.39 L273.335,577.39 L273.335,589.948 L275.285,589.948 L275.285,580.77 C275.961,579.756 277.313,578.82 278.587,578.82 C280.225,578.82 280.901,579.834 280.901,581.42 L280.901,589.948 L282.851,589.948 L282.851,580.744 C283.501,579.756 284.879,578.82 286.179,578.82 C287.791,578.82 288.493,579.834 288.493,581.42 L288.493,589.948 L290.443,589.948 Z M300.011,590.26 C302.065,590.26 303.755,589.584 305.003,588.336 L304.067,587.062 C303.079,588.076 301.623,588.648 300.193,588.648 C297.489,588.648 295.825,586.672 295.669,584.306 L305.835,584.306 L305.835,583.812 C305.835,580.042 303.599,577.078 299.803,577.078 C296.215,577.078 293.615,580.016 293.615,583.656 C293.615,587.582 296.293,590.26 300.011,590.26 L300.011,590.26 Z M303.911,582.876 L295.669,582.876 C295.773,580.952 297.099,578.69 299.777,578.69 C302.637,578.69 303.885,581.004 303.911,582.876 L303.911,582.876 Z M319.407,589.948 L319.407,581.134 C319.407,578.404 318.029,577.078 315.403,577.078 C313.531,577.078 311.815,578.17 310.931,579.21 L310.931,577.39 L308.981,577.39 L308.981,589.948 L310.931,589.948 L310.931,580.77 C311.659,579.756 313.115,578.82 314.649,578.82 C316.339,578.82 317.457,579.522 317.457,581.732 L317.457,589.948 L319.407,589.948 Z M326.479,590.26 C327.623,590.26 328.325,589.922 328.819,589.454 L328.247,587.998 C327.987,588.284 327.467,588.518 326.921,588.518 C326.063,588.518 325.647,587.842 325.647,586.906 L325.647,579.106 L328.195,579.106 L328.195,577.39 L325.647,577.39 L325.647,573.958 L323.697,573.958 L323.697,577.39 L321.617,577.39 L321.617,579.106 L323.697,579.106 L323.697,587.322 C323.697,589.194 324.633,590.26 326.479,590.26 L326.479,590.26 Z M334.929,590.26 C338.179,590.26 339.869,588.57 339.869,586.464 C339.869,581.576 332.095,583.396 332.095,580.64 C332.095,579.522 333.161,578.664 334.877,578.664 C336.489,578.664 337.867,579.34 338.621,580.25 L339.531,578.898 C338.517,577.884 337.009,577.078 334.877,577.078 C331.887,577.078 330.197,578.742 330.197,580.692 C330.197,585.346 337.971,583.474 337.971,586.516 C337.971,587.764 336.931,588.674 335.007,588.674 C333.291,588.674 331.705,587.842 330.873,586.88 L329.859,588.284 C331.133,589.636 332.875,590.26 334.929,590.26 L334.929,590.26 Z" id="+-Suppléments" fill="#FFFFFF" sketch:type="MSShapeGroup"></path>
            <path d="M46.1125,722.625 L42.1125,718.125 L46.1125,713.7 L44.6875,713.7 L40.6875,718.125 L44.6875,722.625 L46.1125,722.625 Z M62.8375,724.2 L62.8375,717.275 L67.6625,717.275 C70.8375,717.275 72.6875,715.025 72.6875,712.4 C72.6875,709.775 70.8625,707.525 67.6625,707.525 L61.4125,707.525 L61.4125,724.2 L62.8375,724.2 Z M67.5125,715.975 L62.8375,715.975 L62.8375,708.825 L67.5125,708.825 C69.7125,708.825 71.1875,710.3 71.1875,712.4 C71.1875,714.5 69.7125,715.975 67.5125,715.975 L67.5125,715.975 Z M79.9375,724.2 L79.9375,715.4 C80.4875,714.35 82.1375,713.25 83.3625,713.25 C83.6125,713.25 83.7875,713.25 84.0125,713.3 L84.0125,711.875 C82.3375,711.875 80.9625,712.85 79.9375,714.2 L79.9375,712.125 L78.6375,712.125 L78.6375,724.2 L79.9375,724.2 Z M98.7375,706.7 L97.1875,706.7 L93.3375,710.3 L94.4375,710.3 L98.7375,706.7 Z M94.9125,724.5 C96.9125,724.5 98.4375,723.8 99.6375,722.55 L98.9625,721.7 C97.9375,722.8 96.5375,723.375 95.0125,723.375 C92.1625,723.375 90.4125,721.2 90.2875,718.575 L100.3875,718.575 L100.3875,718.225 C100.3875,714.75 98.3625,711.825 94.6875,711.825 C91.3375,711.825 88.8625,714.65 88.8625,718.15 C88.8625,721.875 91.3875,724.5 94.9125,724.5 L94.9125,724.5 Z M99.0625,717.55 L90.2875,717.55 C90.3875,715.45 91.8125,712.95 94.6625,712.95 C97.6875,712.95 99.0375,715.5 99.0625,717.55 L99.0625,717.55 Z M111.9125,724.5 C114.0125,724.5 115.2125,723.675 116.1875,722.425 L115.2875,721.625 C114.4125,722.825 113.3125,723.325 111.9875,723.325 C109.1625,723.325 107.4375,721.05 107.4375,718.15 C107.4375,715.25 109.1625,713 111.9875,713 C113.3125,713 114.4125,713.475 115.2875,714.675 L116.1875,713.875 C115.2125,712.65 114.0125,711.825 111.9125,711.825 C108.3625,711.825 106.0375,714.625 106.0375,718.15 C106.0375,721.675 108.3625,724.5 111.9125,724.5 L111.9125,724.5 Z M131.2625,706.7 L129.7125,706.7 L125.8625,710.3 L126.9625,710.3 L131.2625,706.7 Z M127.4375,724.5 C129.4375,724.5 130.9625,723.8 132.1625,722.55 L131.4875,721.7 C130.4625,722.8 129.0625,723.375 127.5375,723.375 C124.6875,723.375 122.9375,721.2 122.8125,718.575 L132.9125,718.575 L132.9125,718.225 C132.9125,714.75 130.8875,711.825 127.2125,711.825 C123.8625,711.825 121.3875,714.65 121.3875,718.15 C121.3875,721.875 123.9125,724.5 127.4375,724.5 L127.4375,724.5 Z M131.5875,717.55 L122.8125,717.55 C122.9125,715.45 124.3375,712.95 127.1875,712.95 C130.2125,712.95 131.5625,715.5 131.5875,717.55 L131.5875,717.55 Z M149.4875,724.2 L149.4875,707.525 L148.1625,707.525 L148.1625,714.075 C147.1875,712.7 145.6875,711.825 143.9625,711.825 C140.7625,711.825 138.5625,714.35 138.5625,718.175 C138.5625,722.05 140.7625,724.5 143.9625,724.5 C145.7625,724.5 147.3125,723.525 148.1625,722.275 L148.1625,724.2 L149.4875,724.2 Z M144.1875,723.325 C141.5125,723.325 139.9625,721.1 139.9625,718.175 C139.9625,715.25 141.5125,713 144.1875,713 C145.8875,713 147.4625,714.025 148.1625,715.2 L148.1625,721.175 C147.4625,722.325 145.8875,723.325 144.1875,723.325 L144.1875,723.325 Z M161.8875,724.5 C163.8875,724.5 165.4125,723.8 166.6125,722.55 L165.9375,721.7 C164.9125,722.8 163.5125,723.375 161.9875,723.375 C159.1375,723.375 157.3875,721.2 157.2625,718.575 L167.3625,718.575 L167.3625,718.225 C167.3625,714.75 165.3375,711.825 161.6625,711.825 C158.3125,711.825 155.8375,714.65 155.8375,718.15 C155.8375,721.875 158.3625,724.5 161.8875,724.5 L161.8875,724.5 Z M166.0375,717.55 L157.2625,717.55 C157.3625,715.45 158.7875,712.95 161.6375,712.95 C164.6625,712.95 166.0125,715.5 166.0375,717.55 L166.0375,717.55 Z M183.1625,724.2 L183.1625,715.75 C183.1625,713.025 181.8125,711.825 179.3625,711.825 C177.6125,711.825 175.8875,712.9 175.0125,713.95 L175.0125,712.125 L173.7125,712.125 L173.7125,724.2 L175.0125,724.2 L175.0125,715.075 C175.7875,713.975 177.3875,713 178.9375,713 C180.6875,713 181.8625,713.7 181.8625,716.025 L181.8625,724.2 L183.1625,724.2 Z M192.8375,724.5 C193.8375,724.5 194.4125,724.2 194.8875,723.75 L194.3875,722.75 C194.1125,723.05 193.6125,723.325 193.0375,723.325 C192.1875,723.325 191.7875,722.65 191.7875,721.675 L191.7875,713.275 L194.2375,713.275 L194.2375,712.125 L191.7875,712.125 L191.7875,708.825 L190.4625,708.825 L190.4625,712.125 L188.4625,712.125 L188.4625,713.275 L190.4625,713.275 L190.4625,721.875 C190.4625,723.525 191.2375,724.5 192.8375,724.5 L192.8375,724.5 Z" id="‹-Précédent-Copy-2" fill="#BEBEBE" sketch:type="MSShapeGroup"></path>
        </g>
    </g>
</svg>