<?xml version="1.0" encoding="UTF-8" standalone="no"?>
<svg width="1024px" height="768px" viewBox="0 0 1024 768" version="1.1" xmlns="http://www.w3.org/2000/svg" xmlns:xlink="http://www.w3.org/1999/xlink" xmlns:sketch="http://www.bohemiancoding.com/sketch/ns">
    <!-- Generator: Sketch 3.3.3 (12072) - http://www.bohemiancoding.com/sketch -->
    <title>iPad Landscape Copy 27</title>
    <desc>Created with Sketch.</desc>
    <defs></defs>
    <g id="Page-1" stroke="none" stroke-width="1" fill="none" fill-rule="evenodd" sketch:type="MSPage">
        <g id="iPad-Landscape-Copy-27" sketch:type="MSArtboardGroup">
            <rect id="Rectangle-242" fill="#FFFFFF" sketch:type="MSShapeGroup" x="0" y="0" width="1024" height="768"></rect>
            <text id="‹-Précédent-Copy" sketch:type="MSTextLayer" font-family="Proxima Nova" font-size="25" font-weight="260" sketch:alignment="middle" fill="#DEDEDE">
                <tspan x="54.9375" y="734">‹ Précédent</tspan>
            </text>
            <rect id="Rectangle-12-Copy-11" fill="#DFDEDE" sketch:type="MSShapeGroup" x="749" y="686" width="235" height="64" rx="40"></rect>
            <rect id="Rectangle-12-Copy-16" fill="#FFFFFF" sketch:type="MSShapeGroup" x="2" y="688" width="235" height="50"></rect>
            <g id="Accueil-+-Group-+-‹" sketch:type="MSLayerGroup" transform="translate(43.500000, 37.500000)">
                <g id="Group" transform="translate(15.000000, 0.000000)" sketch:type="MSShapeGroup">
                    <path d="M29.1666667,4.269 L25,0.102333333 L16.6666667,8.43566667 L16.6666667,25.1023333 L33.3333333,25.1023333 L33.3333333,8.43566667 L29.1666667,4.269 L29.1666667,4.269 Z" id="Fill-3"></path>
                    <path d="M29.1666667,4.269 L25,0.102333333 L16.6666667,8.43566667 L16.6666667,25.1023333 L33.3333333,25.1023333 L33.3333333,8.43566667 L29.1666667,4.269 L29.1666667,4.269 Z" id="Stroke-4" stroke="#BEBEBE"></path>
                    <path d="M0,25.1023333 L16.6666667,25.1023333 L16.6666667,41.769 L0,41.769 L0,25.1023333 Z" id="Fill-5"></path>
                    <path d="M0,25.1023333 L16.6666667,25.1023333 L16.6666667,41.769 L0,41.769 L0,25.1023333 Z" id="Stroke-6" stroke="#BEBEBE"></path>
                    <path d="M16.6666667,25.1023333 L33.3333333,25.1023333 L33.3333333,41.769 L16.6666667,41.769 L16.6666667,25.1023333 Z" id="Fill-7"></path>
                    <path d="M16.6666667,25.1023333 L33.3333333,25.1023333 L33.3333333,41.769 L16.6666667,41.769 L16.6666667,25.1023333 Z" id="Stroke-8" stroke="#BEBEBE"></path>
                    <path d="M16.6666667,8.43566667 L33.3333333,8.43566667 L33.3333333,25.1023333 L16.6666667,25.1023333 L16.6666667,8.43566667 Z" id="Fill-9"></path>
                    <path d="M16.6666667,8.43566667 L33.3333333,8.43566667 L33.3333333,25.1023333 L16.6666667,25.1023333 L16.6666667,8.43566667 Z" id="Stroke-10" stroke="#BEBEBE"></path>
                    <path d="M50,25.1023333 L33.3333333,25.1023333 L33.3333333,16.769 L41.7276667,20.9051667 L50,25.1023333 L50,25.1023333 Z" id="Fill-11"></path>
                    <path d="M50,25.1023333 L33.3333333,25.1023333 L33.3333333,16.769 L41.7276667,20.9051667 L50,25.1023333 L50,25.1023333 Z" id="Stroke-12" stroke="#BEBEBE" stroke-linejoin="bevel"></path>
                    <path d="M0,25.1023333 L16.6666667,25.1023333 L16.6666667,16.769 L8.27233333,20.9051667 L0,25.1023333 L0,25.1023333 Z" id="Fill-13"></path>
                    <path d="M0,25.1023333 L16.6666667,25.1023333 L16.6666667,16.769 L8.27233333,20.9051667 L0,25.1023333 L0,25.1023333 Z" id="Stroke-14" stroke="#BEBEBE" stroke-linejoin="bevel"></path>
                    <path d="M33.3333333,25.1023333 L50,25.1023333 L50,41.769 L33.3333333,41.769 L33.3333333,25.1023333 Z" id="Fill-15"></path>
                    <path d="M33.3333333,25.1023333 L50,25.1023333 L50,41.769 L33.3333333,41.769 L33.3333333,25.1023333 Z" id="Stroke-16" stroke="#BEBEBE"></path>
                    <path d="M8.33333333,29.269 C6.03216667,29.269 4.16666667,31.1345 4.16666667,33.4356667 L4.16666667,41.769 L12.5,41.769 L12.5,33.4356667 C12.5,31.1345 10.6345,29.269 8.33333333,29.269 L8.33333333,29.269 Z" id="Fill-17"></path>
                    <path d="M8.33333333,29.269 C6.03216667,29.269 4.16666667,31.1345 4.16666667,33.4356667 L4.16666667,41.769 L12.5,41.769 L12.5,33.4356667 C12.5,31.1345 10.6345,29.269 8.33333333,29.269 L8.33333333,29.269 Z" id="Stroke-18" stroke="#BEBEBE"></path>
                    <path d="M25,29.269 C22.6988333,29.269 20.8333333,31.1345 20.8333333,33.4356667 L20.8333333,41.769 L29.1666667,41.769 L29.1666667,33.4356667 C29.1666667,31.1345 27.3011667,29.269 25,29.269 L25,29.269 Z" id="Fill-19"></path>
                    <path d="M25,29.269 C22.6988333,29.269 20.8333333,31.1345 20.8333333,33.4356667 L20.8333333,41.769 L29.1666667,41.769 L29.1666667,33.4356667 C29.1666667,31.1345 27.3011667,29.269 25,29.269 L25,29.269 Z" id="Stroke-20" stroke="#BEBEBE"></path>
                    <path d="M41.6666667,29.269 C39.3655,29.269 37.5,31.1345 37.5,33.4356667 L37.5,41.769 L45.8333333,41.769 L45.8333333,33.4356667 C45.8333333,31.1345 43.9678333,29.269 41.6666667,29.269 L41.6666667,29.269 Z" id="Fill-21"></path>
                    <path d="M41.6666667,29.269 C39.3655,29.269 37.5,31.1345 37.5,33.4356667 L37.5,41.769 L45.8333333,41.769 L45.8333333,33.4356667 C45.8333333,31.1345 43.9678333,29.269 41.6666667,29.269 L41.6666667,29.269 Z" id="Stroke-22" stroke="#BEBEBE"></path>
                    <path d="M29.1666667,16.769 C29.1666667,19.0701667 27.3011667,20.9356667 25,20.9356667 C22.6988333,20.9356667 20.8333333,19.0701667 20.8333333,16.769 C20.8333333,14.4678333 22.6988333,12.6023333 25,12.6023333 C27.3011667,12.6023333 29.1666667,14.4678333 29.1666667,16.769 L29.1666667,16.769 Z" id="Fill-23"></path>
                    <path d="M29.1666667,16.769 C29.1666667,19.0701667 27.3011667,20.9356667 25,20.9356667 C22.6988333,20.9356667 20.8333333,19.0701667 20.8333333,16.769 C20.8333333,14.4678333 22.6988333,12.6023333 25,12.6023333 C27.3011667,12.6023333 29.1666667,14.4678333 29.1666667,16.769 L29.1666667,16.769 Z" id="Stroke-24" stroke="#BEBEBE"></path>
                </g>
                <path d="M24.48,61 L20.385,50.995 L19.32,50.995 L15.225,61 L16.215,61 L17.205,58.54 L22.5,58.54 L23.49,61 L24.48,61 Z M22.215,57.76 L17.49,57.76 L19.845,51.91 L22.215,57.76 Z M29.225,61.18 C30.485,61.18 31.205,60.685 31.79,59.935 L31.25,59.455 C30.725,60.175 30.065,60.475 29.27,60.475 C27.575,60.475 26.54,59.11 26.54,57.37 C26.54,55.63 27.575,54.28 29.27,54.28 C30.065,54.28 30.725,54.565 31.25,55.285 L31.79,54.805 C31.205,54.07 30.485,53.575 29.225,53.575 C27.095,53.575 25.7,55.255 25.7,57.37 C25.7,59.485 27.095,61.18 29.225,61.18 L29.225,61.18 Z M36.835,61.18 C38.095,61.18 38.815,60.685 39.4,59.935 L38.86,59.455 C38.335,60.175 37.675,60.475 36.88,60.475 C35.185,60.475 34.15,59.11 34.15,57.37 C34.15,55.63 35.185,54.28 36.88,54.28 C37.675,54.28 38.335,54.565 38.86,55.285 L39.4,54.805 C38.815,54.07 38.095,53.575 36.835,53.575 C34.705,53.575 33.31,55.255 33.31,57.37 C33.31,59.485 34.705,61.18 36.835,61.18 L36.835,61.18 Z M47.01,61 L47.01,53.755 L46.23,53.755 L46.23,59.275 C45.75,59.92 44.805,60.475 43.875,60.475 C42.825,60.475 42.12,60.085 42.12,58.675 L42.12,53.755 L41.34,53.755 L41.34,58.855 C41.34,60.49 42.135,61.18 43.62,61.18 C44.67,61.18 45.63,60.595 46.23,59.935 L46.23,61 L47.01,61 Z M52.85,61.18 C54.05,61.18 54.965,60.76 55.685,60.01 L55.28,59.5 C54.665,60.16 53.825,60.505 52.91,60.505 C51.2,60.505 50.15,59.2 50.075,57.625 L56.135,57.625 L56.135,57.415 C56.135,55.33 54.92,53.575 52.715,53.575 C50.705,53.575 49.22,55.27 49.22,57.37 C49.22,59.605 50.735,61.18 52.85,61.18 L52.85,61.18 Z M55.34,57.01 L50.075,57.01 C50.135,55.75 50.99,54.25 52.7,54.25 C54.515,54.25 55.325,55.78 55.34,57.01 L55.34,57.01 Z M58.735,52.615 C59.065,52.615 59.335,52.345 59.335,52.015 C59.335,51.685 59.065,51.43 58.735,51.43 C58.42,51.43 58.135,51.685 58.135,52.015 C58.135,52.345 58.42,52.615 58.735,52.615 L58.735,52.615 Z M59.125,61 L59.125,53.755 L58.345,53.755 L58.345,61 L59.125,61 Z M62.535,61 L62.535,50.995 L61.755,50.995 L61.755,61 L62.535,61 Z" id="Accueil" fill="#BEBEBE" sketch:type="MSShapeGroup"></path>
                <path d="M4.446,36.866 L1.566,33.626 L4.446,30.44 L3.42,30.44 L0.54,33.626 L3.42,36.866 L4.446,36.866 Z" id="‹" fill="#BEBEBE" sketch:type="MSShapeGroup"></path>
            </g>
            <rect id="Rectangle-42" fill="#3B3B48" sketch:type="MSShapeGroup" x="0" y="140" width="512" height="528"></rect>
            <rect id="Rectangle-42-Copy" fill="#0079FE" sketch:type="MSShapeGroup" x="512" y="140" width="512" height="528"></rect>
            <rect id="Rectangle-42-Copy-10" opacity="0.197936101" fill="#000000" sketch:type="MSShapeGroup" x="541.5" y="233.5" width="217.530612" height="75" rx="3"></rect>
            <rect id="Rectangle-42-Copy-11" opacity="0.197936101" fill="#000000" sketch:type="MSShapeGroup" x="541.5" y="323.5" width="217.530612" height="75" rx="3"></rect>
            <rect id="Rectangle-42-Copy-12" opacity="0.197936101" fill="#000000" sketch:type="MSShapeGroup" x="541.5" y="413.5" width="217.530612" height="75" rx="3"></rect>
            <rect id="Rectangle-42-Copy-15" opacity="0.197936101" fill="#000000" sketch:type="MSShapeGroup" x="778.806122" y="233.5" width="217.530612" height="75" rx="3"></rect>
            <rect id="Rectangle-42-Copy-13" opacity="0.197936101" fill="#000000" sketch:type="MSShapeGroup" x="778.806122" y="323.5" width="217.530612" height="75" rx="3"></rect>
            <rect id="Rectangle-42-Copy-14" opacity="0.197936101" fill="#000000" sketch:type="MSShapeGroup" x="778.806122" y="413.5" width="217.530612" height="75" rx="3"></rect>
            <rect id="Rectangle-42-Copy-5" fill="#2E2E3B" sketch:type="MSShapeGroup" x="30" y="236" width="453" height="55" rx="50"></rect>
            <rect id="Rectangle-42-Copy-7" fill="#FFFFFF" sketch:type="MSShapeGroup" x="541.5" y="563.5" width="453" height="55" rx="50"></rect>
            <g id="Accueil-+-Group-+-‹-Copy" sketch:type="MSLayerGroup" transform="translate(543.477551, 251.856000)"></g>
            <g id="Accueil-+-Group-+-‹-Copy-2" sketch:type="MSLayerGroup" transform="translate(543.477551, 342.000000)"></g>
            <g id="Group" sketch:type="MSLayerGroup" transform="translate(568.500000, 254.725789)">
                <path d="M33.4321725,0 L50.1482587,0 L50.1482587,16.7160862 L33.4321725,16.7160862 L33.4321725,0 Z" id="Fill-71" sketch:type="MSShapeGroup"></path>
                <path d="M33.4321725,0.059509267 L50.1482587,0.059509267 L50.1482587,16.7755955 L33.4321725,16.7755955 L33.4321725,0.059509267 Z" id="Stroke-72" stroke="#FFFFFF" sketch:type="MSShapeGroup"></path>
                <path d="M0,0.059509267 L16.7160862,0.059509267 L16.7160862,16.7755955 L0,16.7755955 L0,0.059509267 Z" id="Fill-73" sketch:type="MSShapeGroup"></path>
                <path d="M0,0.059509267 L16.7160862,0.059509267 L16.7160862,16.7755955 L0,16.7755955 L0,0.059509267 Z" id="Stroke-74" stroke="#FFFFFF" sketch:type="MSShapeGroup"></path>
                <path d="M3.34321725,16.7755955 L6.68643449,16.7755955 L6.68643449,8.41755238 L3.34321725,8.41755238 L3.34321725,16.7755955 Z" id="Fill-75" sketch:type="MSShapeGroup"></path>
                <path d="M3.34321725,16.7755955 L6.68643449,16.7755955 L6.68643449,8.41755238 L3.34321725,8.41755238 L3.34321725,16.7755955 Z" id="Stroke-76" stroke="#FFFFFF" sketch:type="MSShapeGroup"></path>
                <path d="M10.0296517,16.7755955 L13.372869,16.7755955 L13.372869,8.41755238 L10.0296517,8.41755238 L10.0296517,16.7755955 Z" id="Fill-77" sketch:type="MSShapeGroup"></path>
                <path d="M10.0296517,16.7755955 L13.372869,16.7755955 L13.372869,8.41755238 L10.0296517,8.41755238 L10.0296517,16.7755955 Z" id="Stroke-78" stroke="#FFFFFF" sketch:type="MSShapeGroup"></path>
                <path d="M16.7160862,16.7755955 L33.4321725,16.7755955 L33.4321725,33.4916817 L16.7160862,33.4916817 L16.7160862,16.7755955 Z" id="Fill-79" sketch:type="MSShapeGroup"></path>
                <path d="M16.7160862,16.7755955 L33.4321725,16.7755955 L33.4321725,33.4916817 L16.7160862,33.4916817 L16.7160862,16.7755955 Z" id="Stroke-80" stroke="#FFFFFF" sketch:type="MSShapeGroup"></path>
                <path d="M16.7160862,16.7755955 L33.4321725,16.7755955 L33.4321725,20.9546171 L16.7160862,20.9546171 L16.7160862,16.7755955 Z" id="Fill-81" sketch:type="MSShapeGroup"></path>
                <path d="M16.7160862,16.7755955 L33.4321725,16.7755955 L33.4321725,20.9546171 L16.7160862,20.9546171 L16.7160862,16.7755955 Z" id="Stroke-82" stroke="#FFFFFF" sketch:type="MSShapeGroup"></path>
                <path d="M33.4321725,16.7755955 L50.1482587,16.7755955 L50.1482587,33.4916817 L33.4321725,33.4916817 L33.4321725,16.7755955 Z" id="Fill-83" sketch:type="MSShapeGroup"></path>
                <path d="M33.4321725,16.7755955 L50.1482587,16.7755955 L50.1482587,33.4916817 L33.4321725,33.4916817 L33.4321725,16.7755955 Z" id="Stroke-84" stroke="#FFFFFF" sketch:type="MSShapeGroup"></path>
                <path d="M37.7783549,25.1336386 L46.136398,25.1336386 L46.136398,33.4916817 L37.7783549,33.4916817 L37.7783549,25.1336386 Z" id="Fill-85" sketch:type="MSShapeGroup"></path>
                <path d="M37.7783549,25.1336386 L46.136398,25.1336386 L46.136398,33.4916817 L37.7783549,33.4916817 L37.7783549,25.1336386 Z" id="Stroke-86" stroke="#FFFFFF" sketch:type="MSShapeGroup"></path>
                <path d="M0,16.7755955 L16.7160862,16.7755955 L16.7160862,33.4916817 L0,33.4916817 L0,16.7755955 Z" id="Fill-87" sketch:type="MSShapeGroup"></path>
                <path d="M0,16.7755955 L16.7160862,16.7755955 L16.7160862,33.4916817 L0,33.4916817 L0,16.7755955 Z" id="Stroke-88" stroke="#FFFFFF" sketch:type="MSShapeGroup"></path>
                <path d="M30.6461024,2.14885289 L27.8601994,4.23836367 L22.2880593,4.23836367 L16.7160862,0.059509267 L16.7160862,16.7755955 L33.4321725,16.7755955 L33.4321725,0.059509267 L30.6461024,2.14885289 L30.6461024,2.14885289 Z" id="Fill-89" sketch:type="MSShapeGroup"></path>
                <path d="M30.6461024,2.14885289 L27.8601994,4.23836367 L22.2880593,4.23836367 L16.7160862,0.059509267 L16.7160862,16.7755955 L33.4321725,16.7755955 L33.4321725,0.059509267 L30.6461024,2.14885289 L30.6461024,2.14885289 Z" id="Stroke-90" stroke="#FFFFFF" stroke-linejoin="bevel" sketch:type="MSShapeGroup"></path>
                <path d="M20.0593035,16.7755955 L23.4025207,16.7755955 L23.4025207,8.41755238 L20.0593035,8.41755238 L20.0593035,16.7755955 Z" id="Fill-91" sketch:type="MSShapeGroup"></path>
                <path d="M20.0593035,16.7755955 L23.4025207,16.7755955 L23.4025207,8.41755238 L20.0593035,8.41755238 L20.0593035,16.7755955 Z" id="Stroke-92" stroke="#FFFFFF" sketch:type="MSShapeGroup"></path>
                <path d="M26.745738,16.7755955 L30.0889552,16.7755955 L30.0889552,8.41755238 L26.745738,8.41755238 L26.745738,16.7755955 Z" id="Fill-93" sketch:type="MSShapeGroup"></path>
                <path d="M26.745738,16.7755955 L30.0889552,16.7755955 L30.0889552,8.41755238 L26.745738,8.41755238 L26.745738,16.7755955 Z" id="Stroke-94" stroke="#FFFFFF" sketch:type="MSShapeGroup"></path>
                <path d="M36.7753897,16.7755955 L40.118607,16.7755955 L40.118607,8.41755238 L36.7753897,8.41755238 L36.7753897,16.7755955 Z" id="Fill-95" sketch:type="MSShapeGroup"></path>
                <path d="M36.7753897,16.7755955 L40.118607,16.7755955 L40.118607,8.41755238 L36.7753897,8.41755238 L36.7753897,16.7755955 Z" id="Stroke-96" stroke="#FFFFFF" sketch:type="MSShapeGroup"></path>
                <path d="M43.4618242,16.7755955 L46.8050415,16.7755955 L46.8050415,8.41755238 L43.4618242,8.41755238 L43.4618242,16.7755955 Z" id="Fill-97" sketch:type="MSShapeGroup"></path>
                <path d="M43.4618242,16.7755955 L46.8050415,16.7755955 L46.8050415,8.41755238 L43.4618242,8.41755238 L43.4618242,16.7755955 Z" id="Stroke-98" stroke="#FFFFFF" sketch:type="MSShapeGroup"></path>
                <path d="M0,16.7755955 L16.7160862,16.7755955 L16.7160862,20.9546171 L0,20.9546171 L0,16.7755955 Z" id="Fill-99" sketch:type="MSShapeGroup"></path>
                <path d="M0,16.7755955 L16.7160862,16.7755955 L16.7160862,20.9546171 L0,20.9546171 L0,16.7755955 Z" id="Stroke-100" stroke="#FFFFFF" sketch:type="MSShapeGroup"></path>
                <path d="M33.4321725,16.7755955 L50.1482587,16.7755955 L50.1482587,20.9546171 L33.4321725,20.9546171 L33.4321725,16.7755955 Z" id="Fill-101" sketch:type="MSShapeGroup"></path>
                <path d="M33.4321725,16.7755955 L50.1482587,16.7755955 L50.1482587,20.9546171 L33.4321725,20.9546171 L33.4321725,16.7755955 Z" id="Stroke-102" stroke="#FFFFFF" sketch:type="MSShapeGroup"></path>
            </g>
            <g id="Group" sketch:type="MSLayerGroup" transform="translate(792.500000, 254.592456)">
                <path d="M16.9,16.900169 L33.8,16.900169 L33.8,0 C24.466299,0 16.9,7.566468 16.9,16.900169 L16.9,16.900169 Z" id="Fill-54" sketch:type="MSShapeGroup"></path>
                <path d="M16.9,16.900169 L33.8,16.900169 L33.8,0 C24.466299,0 16.9,7.566468 16.9,16.900169 L16.9,16.900169 Z" id="Stroke-55" stroke="#FFFFFF" sketch:type="MSShapeGroup"></path>
                <path d="M67.6,16.900169 L50.7,16.900169 L50.7,0 C60.033701,0 67.6,7.566468 67.6,16.900169 L67.6,16.900169 Z" id="Fill-56" sketch:type="MSShapeGroup"></path>
                <path d="M67.6,16.900169 L50.7,16.900169 L50.7,0 C60.033701,0 67.6,7.566468 67.6,16.900169 L67.6,16.900169 Z" id="Stroke-57" stroke="#FFFFFF" sketch:type="MSShapeGroup"></path>
                <path d="M33.8,0 L50.7,0 L50.7,16.9 L33.8,16.9 L33.8,0 Z" id="Fill-58" sketch:type="MSShapeGroup"></path>
                <path d="M33.8,0 L50.7,0 L50.7,16.9 L33.8,16.9 L33.8,0 Z" id="Stroke-59" stroke="#FFFFFF" sketch:type="MSShapeGroup"></path>
                <path d="M0,33.8 L16.9,33.8 L16.9,16.9 C7.566299,16.9 0,24.466299 0,33.8 L0,33.8 Z" id="Fill-60" sketch:type="MSShapeGroup"></path>
                <path d="M0,33.8 L16.9,33.8 L16.9,16.9 C7.566299,16.9 0,24.466299 0,33.8 L0,33.8 Z" id="Stroke-61" stroke="#FFFFFF" sketch:type="MSShapeGroup"></path>
                <path d="M16.9,33.8 L33.8,33.8 L33.8,16.9 C24.466299,16.9 16.9,24.466299 16.9,33.8 L16.9,33.8 Z" id="Fill-62" sketch:type="MSShapeGroup"></path>
                <path d="M16.9,33.8 L33.8,33.8 L33.8,16.9 C24.466299,16.9 16.9,24.466299 16.9,33.8 L16.9,33.8 Z" id="Stroke-63" stroke="#FFFFFF" sketch:type="MSShapeGroup"></path>
                <path d="M84.5,33.8 L67.6,33.8 L67.6,16.9 C76.933701,16.9 84.5,24.466299 84.5,33.8 L84.5,33.8 Z" id="Fill-64" sketch:type="MSShapeGroup"></path>
                <path d="M84.5,33.8 L67.6,33.8 L67.6,16.9 C76.933701,16.9 84.5,24.466299 84.5,33.8 L84.5,33.8 Z" id="Stroke-65" stroke="#FFFFFF" sketch:type="MSShapeGroup"></path>
                <path d="M67.6,33.8 L50.7,33.8 L50.7,16.9 C60.033701,16.9 67.6,24.466299 67.6,33.8 L67.6,33.8 Z" id="Fill-66" sketch:type="MSShapeGroup"></path>
                <path d="M67.6,33.8 L50.7,33.8 L50.7,16.9 C60.033701,16.9 67.6,24.466299 67.6,33.8 L67.6,33.8 Z" id="Stroke-67" stroke="#FFFFFF" sketch:type="MSShapeGroup"></path>
                <path d="M33.8,16.9 L50.7,16.9 L50.7,33.8 L33.8,33.8 L33.8,16.9 Z" id="Fill-68" sketch:type="MSShapeGroup"></path>
                <path d="M33.8,16.9 L50.7,16.9 L50.7,33.8 L33.8,33.8 L33.8,16.9 Z" id="Stroke-69" stroke="#FFFFFF" sketch:type="MSShapeGroup"></path>
            </g>
            <g id="Group-Copy-8" sketch:type="MSLayerGroup" transform="translate(568.250000, 344.000000)">
                <path d="M0,16.9154229 L17.2757475,16.9154229 L17.2757475,33.8308458 L0,33.8308458 L0,16.9154229 Z" id="Fill-2" sketch:type="MSShapeGroup"></path>
                <path d="M0,16.9619955 L17.2757475,16.9619955 L17.2757475,33.8774183 L0,33.8774183 L0,16.9619955 Z" id="Stroke-3" stroke="#FFFFFF" sketch:type="MSShapeGroup"></path>
                <path d="M17.2757475,16.9619955 L34.551495,16.9619955 L34.551495,33.8774183 L17.2757475,33.8774183 L17.2757475,16.9619955 Z" id="Fill-4" sketch:type="MSShapeGroup"></path>
                <path d="M17.2757475,16.9619955 L34.551495,16.9619955 L34.551495,33.8774183 L17.2757475,33.8774183 L17.2757475,16.9619955 Z" id="Stroke-5" stroke="#FFFFFF" sketch:type="MSShapeGroup"></path>
                <path d="M34.7242525,16.9619955 L52,16.9619955 L52,33.8774183 L34.7242525,33.8774183 L34.7242525,16.9619955 Z" id="Fill-6" sketch:type="MSShapeGroup"></path>
                <path d="M34.7242525,16.9619955 L52,16.9619955 L52,33.8774183 L34.7242525,33.8774183 L34.7242525,16.9619955 Z" id="Stroke-7" stroke="#FFFFFF" sketch:type="MSShapeGroup"></path>
                <path d="M0,16.9619955 L17.2757475,16.9619955 L17.2757475,0.0465725738 C7.73469767,0.0465725738 0,7.61977655 0,16.9619955 L0,16.9619955 Z" id="Fill-8" sketch:type="MSShapeGroup"></path>
                <path d="M0,16.9619955 L17.2757475,16.9619955 L17.2757475,0.0465725738 C7.73469767,0.0465725738 0,7.61977655 0,16.9619955 L0,16.9619955 Z" id="Stroke-9" stroke="#FFFFFF" sketch:type="MSShapeGroup"></path>
                <path d="M51.8272425,16.9619955 L34.551495,16.9619955 L34.551495,0.0465725738 C44.0927176,0.0465725738 51.8272425,7.61977655 51.8272425,16.9619955 L51.8272425,16.9619955 Z" id="Fill-10" sketch:type="MSShapeGroup"></path>
                <path d="M51.8272425,16.9619955 L34.551495,16.9619955 L34.551495,0.0465725738 C44.0927176,0.0465725738 51.8272425,7.61977655 51.8272425,16.9619955 L51.8272425,16.9619955 Z" id="Stroke-11" stroke="#FFFFFF" sketch:type="MSShapeGroup"></path>
                <path d="M17.2757475,0.0465725738 L34.551495,0.0465725738 L34.551495,16.9619955 L17.2757475,16.9619955 L17.2757475,0.0465725738 Z" id="Fill-12" sketch:type="MSShapeGroup"></path>
                <path d="M17.2757475,0.0465725738 L34.551495,0.0465725738 L34.551495,16.9619955 L17.2757475,16.9619955 L17.2757475,0.0465725738 Z" id="Stroke-13" stroke="#FFFFFF" sketch:type="MSShapeGroup"></path>
                <path d="M30.2325581,8.50428402 C30.2325581,10.8397965 28.2988837,12.7331397 25.9136213,12.7331397 C23.5283588,12.7331397 21.5946844,10.8397965 21.5946844,8.50428402 C21.5946844,6.16860242 23.5283588,4.2754283 25.9136213,4.2754283 C28.2988837,4.2754283 30.2325581,6.16860242 30.2325581,8.50428402 L30.2325581,8.50428402 Z" id="Fill-14" sketch:type="MSShapeGroup"></path>
                <path d="M30.2325581,8.50428402 C30.2325581,10.8397965 28.2988837,12.7331397 25.9136213,12.7331397 C23.5283588,12.7331397 21.5946844,10.8397965 21.5946844,8.50428402 C21.5946844,6.16860242 23.5283588,4.2754283 25.9136213,4.2754283 C28.2988837,4.2754283 30.2325581,6.16860242 30.2325581,8.50428402 L30.2325581,8.50428402 Z" id="Stroke-15" stroke="#FFFFFF" sketch:type="MSShapeGroup"></path>
                <path d="M34.4651163,25.3774183 C34.4651163,20.7297368 30.6171163,16.9619955 25.8704319,16.9619955 C21.1237475,16.9619955 17.2757475,20.7297368 17.2757475,25.3774183 L34.4651163,25.3774183 L34.4651163,25.3774183 Z" id="Fill-16" sketch:type="MSShapeGroup"></path>
                <path d="M34.4651163,25.3774183 C34.4651163,20.7297368 30.6171163,16.9619955 25.8704319,16.9619955 C21.1237475,16.9619955 17.2757475,20.7297368 17.2757475,25.3774183 L34.4651163,25.3774183 L34.4651163,25.3774183 Z" id="Stroke-17" stroke="#FFFFFF" sketch:type="MSShapeGroup"></path>
            </g>
            <g id="Group-Copy-9" sketch:type="MSLayerGroup" transform="translate(558.750000, 438.000000)">
                <path d="M17.5,17.3333333 L35,17.3333333 L35,26 L17.5,26 L17.5,17.3333333 Z" id="Fill-145-Copy" sketch:type="MSShapeGroup"></path>
                <path d="M17.5,17.3333333 L35,17.3333333 L35,26 L17.5,26 L17.5,17.3333333 Z" id="Stroke-146-Copy" stroke="#FFFFFF" sketch:type="MSShapeGroup"></path>
                <path id="Stroke-147-Copy" stroke="#FFFFFF" sketch:type="MSShapeGroup"></path>
                <path d="M35,17.3333333 L52.5,17.3333333 L52.5,26 L35,26 L35,17.3333333 Z" id="Fill-148-Copy" sketch:type="MSShapeGroup"></path>
                <path d="M35,17.3333333 L52.5,17.3333333 L52.5,26 L35,26 L35,17.3333333 Z" id="Stroke-149-Copy" stroke="#FFFFFF" sketch:type="MSShapeGroup"></path>
                <path d="M61.25,0 L52.5,8.60548 L52.5,25.9388133 L70,25.9388133 L70,8.60548 L61.25,0 L61.25,0 Z" id="Fill-150-Copy" sketch:type="MSShapeGroup"></path>
                <path d="M61.25,0 L52.5,8.60548 L52.5,25.9388133 L70,25.9388133 L70,8.60548 L61.25,0 L61.25,0 Z" id="Stroke-151-Copy" stroke="#FFFFFF" sketch:type="MSShapeGroup"></path>
                <path id="Fill-152-Copy" sketch:type="MSShapeGroup" d="M70,8.66666667 L52.5,8.66666667"></path>
                <path id="Stroke-153-Copy" stroke="#FFFFFF" sketch:type="MSShapeGroup" d="M70,8.66666667 L52.5,8.66666667"></path>
                <path id="Stroke-154-Copy" stroke="#FFFFFF" sketch:type="MSShapeGroup" d="M61.25,6.41333333 L61.25,8.49333333"></path>
                <path d="M8.75,0 L0,8.60548 L0,25.9388133 L17.5,25.9388133 L17.5,8.60548 L8.75,0 L8.75,0 Z" id="Fill-155-Copy" sketch:type="MSShapeGroup"></path>
                <path d="M8.75,0 L0,8.60548 L0,25.9388133 L17.5,25.9388133 L17.5,8.60548 L8.75,0 L8.75,0 Z" id="Stroke-156-Copy" stroke="#FFFFFF" sketch:type="MSShapeGroup"></path>
                <path id="Fill-157-Copy" sketch:type="MSShapeGroup" d="M17.5,8.66666667 L0,8.66666667"></path>
                <path id="Stroke-158-Copy" stroke="#FFFFFF" sketch:type="MSShapeGroup" d="M17.5,8.66666667 L0,8.66666667"></path>
                <path id="Stroke-159-Copy" stroke="#FFFFFF" sketch:type="MSShapeGroup" d="M8.75,6.41333333 L8.75,8.49333333"></path>
                <path d="M52.5,17.3333333 C52.5,7.76030667 44.665075,0 35,0 C25.334925,0 17.5,7.76030667 17.5,17.3333333 L52.5,17.3333333 L52.5,17.3333333 Z" id="Fill-160-Copy" sketch:type="MSShapeGroup"></path>
                <path d="M52.5,17.3333333 C52.5,7.76030667 44.665075,0 35,0 C25.334925,0 17.5,7.76030667 17.5,17.3333333 L52.5,17.3333333 L52.5,17.3333333 Z" id="Stroke-161-Copy" stroke="#FFFFFF" sketch:type="MSShapeGroup"></path>
                <path d="M39.375,8.66666667 C39.375,11.05988 37.416225,13 35,13 C32.583775,13 30.625,11.05988 30.625,8.66666667 C30.625,6.27345333 32.583775,4.33333333 35,4.33333333 C37.416225,4.33333333 39.375,6.27345333 39.375,8.66666667 L39.375,8.66666667 Z" id="Fill-162-Copy" sketch:type="MSShapeGroup"></path>
                <path d="M39.375,8.66666667 C39.375,11.05988 37.416225,13 35,13 C32.583775,13 30.625,11.05988 30.625,8.66666667 C30.625,6.27345333 32.583775,4.33333333 35,4.33333333 C37.416225,4.33333333 39.375,6.27345333 39.375,8.66666667 L39.375,8.66666667 Z" id="Stroke-163-Copy" stroke="#FFFFFF" sketch:type="MSShapeGroup"></path>
            </g>
            <g id="Group-Copy-10" sketch:type="MSLayerGroup" transform="translate(792.000000, 347.000000)">
                <path d="M18.3547904,12.8348808 L36.6182635,12.8348808 L36.6182635,29.7840333 L18.3547904,29.7840333 L18.3547904,12.8348808 Z" id="Fill-25" sketch:type="MSShapeGroup"></path>
                <path d="M18.3547904,12.8348808 L36.6182635,12.8348808 L36.6182635,29.7840333 L18.3547904,29.7840333 L18.3547904,12.8348808 Z" id="Stroke-26" stroke="#FFFFFF" sketch:type="MSShapeGroup"></path>
                <path d="M0.0913173653,13.0043723 L18.3547904,13.0043723 L18.3547904,29.9535248 L0.0913173653,29.9535248 L0.0913173653,13.0043723 Z" id="Fill-27" sketch:type="MSShapeGroup"></path>
                <path d="M0.0913173653,13.0043723 L18.3547904,13.0043723 L18.3547904,29.9535248 L0.0913173653,29.9535248 L0.0913173653,13.0043723 Z" id="Stroke-28" stroke="#FFFFFF" sketch:type="MSShapeGroup"></path>
                <path d="M36.6182635,12.8348808 L54.8817365,12.8348808 L54.8817365,29.7840333 L36.6182635,29.7840333 L36.6182635,12.8348808 Z" id="Fill-29" sketch:type="MSShapeGroup"></path>
                <path d="M36.6182635,12.8348808 L54.8817365,12.8348808 L54.8817365,29.7840333 L36.6182635,29.7840333 L36.6182635,12.8348808 Z" id="Stroke-30" stroke="#FFFFFF" sketch:type="MSShapeGroup"></path>
                <path d="M36.6182635,4.30742315 L45.75,0.123016369 L54.8817365,4.30742315" id="Fill-31" sketch:type="MSShapeGroup"></path>
                <path d="M36.6182635,4.30742315 L45.75,0.123016369 L54.8817365,4.30742315" id="Stroke-32" stroke="#FFFFFF" sketch:type="MSShapeGroup"></path>
                <path id="Fill-33" sketch:type="MSShapeGroup" d="M54.8817365,12.7118644 L36.6182635,12.7118644"></path>
                <path id="Stroke-34" stroke="#FFFFFF" sketch:type="MSShapeGroup" d="M54.8817365,12.7118644 L36.6182635,12.7118644"></path>
                <path d="M54.8817365,4.3603045 L64.0803174,8.56657569 L73.1452096,12.8348808 L54.8817365,12.8348808" id="Fill-35" sketch:type="MSShapeGroup"></path>
                <path d="M54.8817365,4.3603045 L64.0803174,8.56657569 L73.1452096,12.8348808 L54.8817365,12.8348808" id="Stroke-36" stroke="#FFFFFF" stroke-linejoin="bevel" sketch:type="MSShapeGroup"></path>
                <path d="M36.6182635,4.3603045 L27.4196826,8.56657569 L18.3547904,12.8348808 L36.6182635,12.8348808" id="Fill-37" sketch:type="MSShapeGroup"></path>
                <path d="M36.6182635,4.3603045 L27.4196826,8.56657569 L18.3547904,12.8348808 L36.6182635,12.8348808" id="Stroke-38" stroke="#FFFFFF" stroke-linejoin="bevel" sketch:type="MSShapeGroup"></path>
                <path d="M54.8817365,12.8348808 L73.1452096,12.8348808 L73.1452096,29.7840333 L54.8817365,29.7840333 L54.8817365,12.8348808 Z" id="Fill-39" sketch:type="MSShapeGroup"></path>
                <path d="M54.8817365,12.8348808 L73.1452096,12.8348808 L73.1452096,29.7840333 L54.8817365,29.7840333 L54.8817365,12.8348808 Z" id="Stroke-40" stroke="#FFFFFF" sketch:type="MSShapeGroup"></path>
                <path d="M73.1452096,12.8348808 L91.4086826,12.8348808 L91.4086826,29.7840333 L73.1452096,29.7840333 L73.1452096,12.8348808 Z" id="Fill-41" sketch:type="MSShapeGroup"></path>
                <path d="M73.1452096,12.8348808 L91.4086826,12.8348808 L91.4086826,29.7840333 L73.1452096,29.7840333 L73.1452096,12.8348808 Z" id="Stroke-42" stroke="#FFFFFF" sketch:type="MSShapeGroup"></path>
                <path d="M91.4086826,12.8348808 L73.1452096,12.8348808 L77.7110778,4.3603045 L86.8428144,4.3603045 L91.4086826,12.8348808 L91.4086826,12.8348808 Z" id="Fill-43" sketch:type="MSShapeGroup"></path>
                <path d="M91.4086826,12.8348808 L73.1452096,12.8348808 L77.7110778,4.3603045 L86.8428144,4.3603045 L91.4086826,12.8348808 L91.4086826,12.8348808 Z" id="Stroke-44" stroke="#FFFFFF" sketch:type="MSShapeGroup"></path>
                <path d="M18.3547904,12.8348808 L0.0913173653,12.8348808 L4.65718563,4.3603045 L13.7889222,4.3603045 L18.3547904,12.8348808 L18.3547904,12.8348808 Z" id="Fill-45" sketch:type="MSShapeGroup"></path>
                <path d="M18.3547904,12.8348808 L0.0913173653,12.8348808 L4.65718563,4.3603045 L13.7889222,4.3603045 L18.3547904,12.8348808 L18.3547904,12.8348808 Z" id="Stroke-46" stroke="#FFFFFF" sketch:type="MSShapeGroup"></path>
                <path d="M27.4865269,17.0721689 C24.9648892,17.0721689 22.9206587,18.9692876 22.9206587,21.309457 L22.9206587,29.7840333 L32.0523952,29.7840333 L32.0523952,21.309457 C32.0523952,18.9692876 30.0081647,17.0721689 27.4865269,17.0721689 L27.4865269,17.0721689 Z" id="Fill-47" sketch:type="MSShapeGroup"></path>
                <path d="M27.4865269,17.0721689 C24.9648892,17.0721689 22.9206587,18.9692876 22.9206587,21.309457 L22.9206587,29.7840333 L32.0523952,29.7840333 L32.0523952,21.309457 C32.0523952,18.9692876 30.0081647,17.0721689 27.4865269,17.0721689 L27.4865269,17.0721689 Z" id="Stroke-48" stroke="#FFFFFF" sketch:type="MSShapeGroup"></path>
                <path d="M45.75,17.0721689 C43.2283623,17.0721689 41.1841317,18.9692876 41.1841317,21.309457 L41.1841317,29.7840333 L50.3158683,29.7840333 L50.3158683,21.309457 C50.3158683,18.9692876 48.2716377,17.0721689 45.75,17.0721689 L45.75,17.0721689 Z" id="Fill-49" sketch:type="MSShapeGroup"></path>
                <path d="M45.75,17.0721689 C43.2283623,17.0721689 41.1841317,18.9692876 41.1841317,21.309457 L41.1841317,29.7840333 L50.3158683,29.7840333 L50.3158683,21.309457 C50.3158683,18.9692876 48.2716377,17.0721689 45.75,17.0721689 L45.75,17.0721689 Z" id="Stroke-50" stroke="#FFFFFF" sketch:type="MSShapeGroup"></path>
                <path d="M64.0134731,17.0721689 C61.4918353,17.0721689 59.4476048,18.9692876 59.4476048,21.309457 L59.4476048,29.7840333 L68.5793413,29.7840333 L68.5793413,21.309457 C68.5793413,18.9692876 66.5351108,17.0721689 64.0134731,17.0721689 L64.0134731,17.0721689 Z" id="Fill-51" sketch:type="MSShapeGroup"></path>
                <path d="M64.0134731,17.0721689 C61.4918353,17.0721689 59.4476048,18.9692876 59.4476048,21.309457 L59.4476048,29.7840333 L68.5793413,29.7840333 L68.5793413,21.309457 C68.5793413,18.9692876 66.5351108,17.0721689 64.0134731,17.0721689 L64.0134731,17.0721689 Z" id="Stroke-52" stroke="#FFFFFF" sketch:type="MSShapeGroup"></path>
                <path d="M54.8817365,12.8348808 C54.8817365,8.15454179 50.7932754,4.3603045 45.75,4.3603045 C40.7067246,4.3603045 36.6182635,8.15454179 36.6182635,12.8348808 L54.8817365,12.8348808 L54.8817365,12.8348808 Z" id="Fill-142" sketch:type="MSShapeGroup"></path>
                <path d="M54.8817365,12.8348808 C54.8817365,8.15454179 50.7932754,4.3603045 45.75,4.3603045 C40.7067246,4.3603045 36.6182635,8.15454179 36.6182635,12.8348808 L54.8817365,12.8348808 L54.8817365,12.8348808 Z" id="Stroke-143" stroke="#FFFFFF" sketch:type="MSShapeGroup"></path>
            </g>
            <g id="Group-Copy-11" sketch:type="MSLayerGroup" transform="translate(793.000000, 427.000000)">
                <path d="M17,31.8159722 L34,31.8159722 L34,48.8298611 L17,48.8298611 L17,31.8159722 Z" id="Fill-2" sketch:type="MSShapeGroup"></path>
                <path d="M17,31.8159722 L34,31.8159722 L34,48.8298611 L17,48.8298611 L17,31.8159722 Z" id="Stroke-3" stroke="#FFFFFF" sketch:type="MSShapeGroup"></path>
                <path d="M0,31.9861111 L17,31.9861111 L17,49 L0,49 L0,31.9861111 Z" id="Fill-4" sketch:type="MSShapeGroup"></path>
                <path d="M0,31.9861111 L17,31.9861111 L17,49 L0,49 L0,31.9861111 Z" id="Stroke-5" stroke="#FFFFFF" sketch:type="MSShapeGroup"></path>
                <path d="M34,31.8159722 L51,31.8159722 L51,48.8298611 L34,48.8298611 L34,31.8159722 Z" id="Fill-6" sketch:type="MSShapeGroup"></path>
                <path d="M34,31.8159722 L51,31.8159722 L51,48.8298611 L34,48.8298611 L34,31.8159722 Z" id="Stroke-7" stroke="#FFFFFF" sketch:type="MSShapeGroup"></path>
                <path id="Fill-8" sketch:type="MSShapeGroup" d="M51,31.8159722 L34,31.8159722"></path>
                <path id="Stroke-9" stroke="#FFFFFF" sketch:type="MSShapeGroup" d="M51,31.8159722 L34,31.8159722"></path>
                <path d="M51,31.8159722 L68,31.8159722 L68,48.8298611 L51,48.8298611 L51,31.8159722 Z" id="Fill-10" sketch:type="MSShapeGroup"></path>
                <path d="M51,31.8159722 L68,31.8159722 L68,48.8298611 L51,48.8298611 L51,31.8159722 Z" id="Stroke-11" stroke="#FFFFFF" sketch:type="MSShapeGroup"></path>
                <path d="M25.5,36.0694444 C23.15281,36.0694444 21.25,37.973809 21.25,40.3229167 L21.25,48.8298611 L29.75,48.8298611 L29.75,40.3229167 C29.75,37.973809 27.84719,36.0694444 25.5,36.0694444 L25.5,36.0694444 Z" id="Fill-12" sketch:type="MSShapeGroup"></path>
                <path d="M25.5,36.0694444 C23.15281,36.0694444 21.25,37.973809 21.25,40.3229167 L21.25,48.8298611 L29.75,48.8298611 L29.75,40.3229167 C29.75,37.973809 27.84719,36.0694444 25.5,36.0694444 L25.5,36.0694444 Z" id="Stroke-13" stroke="#FFFFFF" sketch:type="MSShapeGroup"></path>
                <path d="M42.5,36.0694444 C40.15281,36.0694444 38.25,37.973809 38.25,40.3229167 L38.25,48.8298611 L46.75,48.8298611 L46.75,40.3229167 C46.75,37.973809 44.84719,36.0694444 42.5,36.0694444 L42.5,36.0694444 Z" id="Fill-14" sketch:type="MSShapeGroup"></path>
                <path d="M42.5,36.0694444 C40.15281,36.0694444 38.25,37.973809 38.25,40.3229167 L38.25,48.8298611 L46.75,48.8298611 L46.75,40.3229167 C46.75,37.973809 44.84719,36.0694444 42.5,36.0694444 L42.5,36.0694444 Z" id="Stroke-15" stroke="#FFFFFF" sketch:type="MSShapeGroup"></path>
                <path d="M59.5,36.0694444 C57.15281,36.0694444 55.25,37.973809 55.25,40.3229167 L55.25,48.8298611 L63.75,48.8298611 L63.75,40.3229167 C63.75,37.973809 61.84719,36.0694444 59.5,36.0694444 L59.5,36.0694444 Z" id="Fill-16" sketch:type="MSShapeGroup"></path>
                <path d="M59.5,36.0694444 C57.15281,36.0694444 55.25,37.973809 55.25,40.3229167 L55.25,48.8298611 L63.75,48.8298611 L63.75,40.3229167 C63.75,37.973809 61.84719,36.0694444 59.5,36.0694444 L59.5,36.0694444 Z" id="Stroke-17" stroke="#FFFFFF" sketch:type="MSShapeGroup"></path>
                <path d="M34,23.3090278 L34,6.29513889 C24.61107,6.29513889 17,13.9124271 17,23.3090278" id="Fill-18" sketch:type="MSShapeGroup"></path>
                <path d="M34,23.3090278 L34,6.29513889 C24.61107,6.29513889 17,13.9124271 17,23.3090278" id="Stroke-19" stroke="#FFFFFF" sketch:type="MSShapeGroup"></path>
                <path d="M51,23.3090278 L51,6.29513889 C60.38876,6.29513889 68,13.9124271 68,23.3090278" id="Fill-20" sketch:type="MSShapeGroup"></path>
                <path d="M51,23.3090278 L51,6.29513889 C60.38876,6.29513889 68,13.9124271 68,23.3090278" id="Stroke-21" stroke="#FFFFFF" sketch:type="MSShapeGroup"></path>
                <path d="M34,23.3090278 L34,6.29513889 L51,6.29513889 L51,23.3090278" id="Fill-22" sketch:type="MSShapeGroup"></path>
                <path d="M34,23.3090278 L34,6.29513889 L51,6.29513889 L51,23.3090278" id="Stroke-23" stroke="#FFFFFF" sketch:type="MSShapeGroup"></path>
                <path d="M51,23.4791667 L51,31.9136319 L34,31.9136319 L34,23.4791667" id="Fill-24" sketch:type="MSShapeGroup"></path>
                <path d="M51,23.4791667 L51,31.9136319 L34,31.9136319 L34,23.4791667" id="Stroke-25" stroke="#FFFFFF" sketch:type="MSShapeGroup"></path>
                <path d="M68,23.3090278 L68,31.8159722 L51,31.8159722 L51,23.3090278" id="Fill-26" sketch:type="MSShapeGroup"></path>
                <path d="M68,23.3090278 L68,31.8159722 L51,31.8159722 L51,23.3090278" id="Stroke-27" stroke="#FFFFFF" sketch:type="MSShapeGroup"></path>
                <path d="M34,23.3090278 L34,31.8159722 L17,31.8159722 L17,23.3090278" id="Fill-28" sketch:type="MSShapeGroup"></path>
                <path d="M34,23.3090278 L34,31.8159722 L17,31.8159722 L17,23.3090278" id="Stroke-29" stroke="#FFFFFF" sketch:type="MSShapeGroup"></path>
                <path d="M51,31.8159722 C51,27.1177569 47.19438,23.3090278 42.5,23.3090278 C37.80562,23.3090278 34,27.1177569 34,31.8159722 L51,31.8159722 L51,31.8159722 Z" id="Fill-30" sketch:type="MSShapeGroup"></path>
                <path d="M51,31.8159722 C51,27.1177569 47.19438,23.3090278 42.5,23.3090278 C37.80562,23.3090278 34,27.1177569 34,31.8159722 L51,31.8159722 L51,31.8159722 Z" id="Stroke-31" stroke="#FFFFFF" sketch:type="MSShapeGroup"></path>
                <path d="M68,31.8159722 C68,27.1177569 64.19438,23.3090278 59.5,23.3090278 C54.80562,23.3090278 51,27.1177569 51,31.8159722 L68,31.8159722 L68,31.8159722 Z" id="Fill-32" sketch:type="MSShapeGroup"></path>
                <path d="M68,31.8159722 C68,27.1177569 64.19438,23.3090278 59.5,23.3090278 C54.80562,23.3090278 51,27.1177569 51,31.8159722 L68,31.8159722 L68,31.8159722 Z" id="Stroke-33" stroke="#FFFFFF" sketch:type="MSShapeGroup"></path>
                <path d="M17,31.8159722 C17,27.1177569 13.19438,23.3090278 8.5,23.3090278 C3.80562,23.3090278 0,27.1177569 0,31.8159722 L17,31.8159722 L17,31.8159722 Z" id="Fill-34" sketch:type="MSShapeGroup"></path>
                <path d="M17,31.8159722 C17,27.1177569 13.19438,23.3090278 8.5,23.3090278 C3.80562,23.3090278 0,27.1177569 0,31.8159722 L17,31.8159722 L17,31.8159722 Z" id="Stroke-35" stroke="#FFFFFF" sketch:type="MSShapeGroup"></path>
                <path d="M34,31.8159722 C34,27.1177569 30.19438,23.3090278 25.5,23.3090278 C20.80562,23.3090278 17,27.1177569 17,31.8159722 L34,31.8159722 L34,31.8159722 Z" id="Fill-36" sketch:type="MSShapeGroup"></path>
                <path d="M34,31.8159722 C34,27.1177569 30.19438,23.3090278 25.5,23.3090278 C20.80562,23.3090278 17,27.1177569 17,31.8159722 L34,31.8159722 L34,31.8159722 Z" id="Stroke-37" stroke="#FFFFFF" sketch:type="MSShapeGroup"></path>
                <path d="M38.25,6.29513889 C38.25,3.94586111 40.15281,2.04166667 42.5,2.04166667 C44.84719,2.04166667 46.75,3.94586111 46.75,6.29513889 L38.25,6.29513889 L38.25,6.29513889 Z" id="Fill-38" sketch:type="MSShapeGroup"></path>
                <path d="M38.25,6.29513889 C38.25,3.94586111 40.15281,2.04166667 42.5,2.04166667 C44.84719,2.04166667 46.75,3.94586111 46.75,6.29513889 L38.25,6.29513889 L38.25,6.29513889 Z" id="Stroke-39" stroke="#FFFFFF" sketch:type="MSShapeGroup"></path>
                <path d="M42.41483,2.14375 L42.41483,0 M25.5,23.4111111 L25.5,21.2673611 M59.5,23.5060486 L59.5,21.3622986" id="Stroke-40" stroke="#FFFFFF" sketch:type="MSShapeGroup"></path>
                <path d="M68,31.8159722 L85,31.8159722 L85,48.8298611 L68,48.8298611 L68,31.8159722 Z" id="Fill-41" sketch:type="MSShapeGroup"></path>
                <path d="M68,31.8159722 L85,31.8159722 L85,48.8298611 L68,48.8298611 L68,31.8159722 Z" id="Stroke-42" stroke="#FFFFFF" sketch:type="MSShapeGroup"></path>
                <path d="M85,31.8159722 C85,27.1177569 81.19438,23.3090278 76.5,23.3090278 C71.80562,23.3090278 68,27.1177569 68,31.8159722 L85,31.8159722 L85,31.8159722 Z" id="Fill-43" sketch:type="MSShapeGroup"></path>
                <path d="M85,31.8159722 C85,27.1177569 81.19438,23.3090278 76.5,23.3090278 C71.80562,23.3090278 68,27.1177569 68,31.8159722 L85,31.8159722 L85,31.8159722 Z" id="Stroke-44" stroke="#FFFFFF" sketch:type="MSShapeGroup"></path>
            </g>
            <path d="M483.288,83 C488.286,83 491.31,80.102 491.31,75.44 C491.31,72.122 488.832,69.014 485.85,68.552 C488.37,68.048 490.764,65.654 490.764,62.126 C490.764,57.716 487.74,54.986 483.036,54.986 L471.528,54.986 L471.528,83 L483.288,83 Z M482.742,67.544 L473.922,67.544 L473.922,57.17 L482.742,57.17 C486.354,57.17 488.244,59.522 488.244,62.378 C488.244,65.276 486.354,67.544 482.742,67.544 L482.742,67.544 Z M482.91,80.816 L473.922,80.816 L473.922,69.728 L482.91,69.728 C486.816,69.728 488.79,72.416 488.79,75.272 C488.79,78.674 486.606,80.816 482.91,80.816 L482.91,80.816 Z M498.324,59.522 C499.248,59.522 500.004,58.766 500.004,57.842 C500.004,56.918 499.248,56.204 498.324,56.204 C497.442,56.204 496.644,56.918 496.644,57.842 C496.644,58.766 497.442,59.522 498.324,59.522 L498.324,59.522 Z M499.416,83 L499.416,62.714 L497.232,62.714 L497.232,83 L499.416,83 Z M508.404,83 L508.404,54.986 L506.22,54.986 L506.22,83 L508.404,83 Z M517.392,83 L517.392,54.986 L515.208,54.986 L515.208,83 L517.392,83 Z M533.184,83.504 C536.544,83.504 539.106,82.328 541.122,80.228 L539.988,78.8 C538.266,80.648 535.914,81.614 533.352,81.614 C528.564,81.614 525.624,77.96 525.414,73.55 L542.382,73.55 L542.382,72.962 C542.382,67.124 538.98,62.21 532.806,62.21 C527.178,62.21 523.02,66.956 523.02,72.836 C523.02,79.094 527.262,83.504 533.184,83.504 L533.184,83.504 Z M540.156,71.828 L525.414,71.828 C525.582,68.3 527.976,64.1 532.764,64.1 C537.846,64.1 540.114,68.384 540.156,71.828 L540.156,71.828 Z M552.42,83.504 C554.1,83.504 555.066,83 555.864,82.244 L555.024,80.564 C554.562,81.068 553.722,81.53 552.756,81.53 C551.328,81.53 550.656,80.396 550.656,78.758 L550.656,64.646 L554.772,64.646 L554.772,62.714 L550.656,62.714 L550.656,57.17 L548.43,57.17 L548.43,62.714 L545.07,62.714 L545.07,64.646 L548.43,64.646 L548.43,79.094 C548.43,81.866 549.732,83.504 552.42,83.504 L552.42,83.504 Z" id="Billet" fill="#0079FE" sketch:type="MSShapeGroup"></path>
            <path d="M53.18,206 L62.864,181.988 L59.444,181.988 L51.344,202.724 L43.244,181.988 L39.824,181.988 L49.472,206 L53.18,206 Z M73.484,206.432 C78.776,206.432 82.088,202.328 82.088,197.288 C82.088,192.248 78.776,188.18 73.484,188.18 C68.192,188.18 64.88,192.248 64.88,197.288 C64.88,202.328 68.192,206.432 73.484,206.432 L73.484,206.432 Z M73.484,204.02 C69.776,204.02 67.688,200.852 67.688,197.288 C67.688,193.76 69.776,190.592 73.484,190.592 C77.192,190.592 79.244,193.76 79.244,197.288 C79.244,200.852 77.192,204.02 73.484,204.02 L73.484,204.02 Z M100.916,206 L100.916,188.612 L98.216,188.612 L98.216,201.392 C97.208,202.796 95.192,204.02 93.068,204.02 C90.728,204.02 89.18,203.12 89.18,200.06 L89.18,188.612 L86.48,188.612 L86.48,200.888 C86.48,204.668 88.388,206.432 92.024,206.432 C94.616,206.432 96.884,205.064 98.216,203.552 L98.216,206 L100.916,206 Z M111.824,206.432 C116.324,206.432 118.664,204.092 118.664,201.176 C118.664,194.408 107.9,196.928 107.9,193.112 C107.9,191.564 109.376,190.376 111.752,190.376 C113.984,190.376 115.892,191.312 116.936,192.572 L118.196,190.7 C116.792,189.296 114.704,188.18 111.752,188.18 C107.612,188.18 105.272,190.484 105.272,193.184 C105.272,199.628 116.036,197.036 116.036,201.248 C116.036,202.976 114.596,204.236 111.932,204.236 C109.556,204.236 107.36,203.084 106.208,201.752 L104.804,203.696 C106.568,205.568 108.98,206.432 111.824,206.432 L111.824,206.432 Z M140.912,206.432 C145.484,206.432 148.652,202.904 148.652,197.288 C148.652,191.636 145.484,188.18 140.912,188.18 C138.464,188.18 136.304,189.44 135.044,191.204 L135.044,188.612 L132.344,188.612 L132.344,212.624 L135.044,212.624 L135.044,203.372 C136.448,205.316 138.536,206.432 140.912,206.432 L140.912,206.432 Z M140.228,204.02 C138.104,204.02 135.98,202.724 135.044,201.212 L135.044,193.364 C135.98,191.852 138.104,190.592 140.228,190.592 C143.72,190.592 145.808,193.436 145.808,197.288 C145.808,201.14 143.72,204.02 140.228,204.02 L140.228,204.02 Z M166.508,206 L166.508,194.048 C166.508,189.836 163.448,188.18 159.776,188.18 C156.932,188.18 154.7,189.116 152.828,191.06 L154.088,192.932 C155.636,191.276 157.328,190.52 159.416,190.52 C161.936,190.52 163.808,191.852 163.808,194.192 L163.808,197.324 C162.404,195.704 160.424,194.948 158.048,194.948 C155.096,194.948 151.964,196.784 151.964,200.672 C151.964,204.452 155.096,206.432 158.048,206.432 C160.388,206.432 162.368,205.604 163.808,204.02 L163.808,206 L166.508,206 Z M159.02,204.488 C156.5,204.488 154.736,202.904 154.736,200.708 C154.736,198.476 156.5,196.892 159.02,196.892 C160.928,196.892 162.764,197.612 163.808,199.052 L163.808,202.328 C162.764,203.768 160.928,204.488 159.02,204.488 L159.02,204.488 Z M174.608,206 L174.608,193.688 C175.4,192.284 177.668,190.916 179.324,190.916 C179.756,190.916 180.08,190.952 180.404,191.024 L180.404,188.252 C178.028,188.252 176.012,189.584 174.608,191.42 L174.608,188.612 L171.908,188.612 L171.908,206 L174.608,206 Z M188.18,206.432 C189.764,206.432 190.736,205.964 191.42,205.316 L190.628,203.3 C190.268,203.696 189.548,204.02 188.792,204.02 C187.604,204.02 187.028,203.084 187.028,201.788 L187.028,190.988 L190.556,190.988 L190.556,188.612 L187.028,188.612 L187.028,183.86 L184.328,183.86 L184.328,188.612 L181.448,188.612 L181.448,190.988 L184.328,190.988 L184.328,202.364 C184.328,204.956 185.624,206.432 188.18,206.432 L188.18,206.432 Z M202.22,206.432 C205.064,206.432 207.404,205.496 209.132,203.768 L207.836,202.004 C206.468,203.408 204.452,204.2 202.472,204.2 C198.728,204.2 196.424,201.464 196.208,198.188 L210.284,198.188 L210.284,197.504 C210.284,192.284 207.188,188.18 201.932,188.18 C196.964,188.18 193.364,192.248 193.364,197.288 C193.364,202.724 197.072,206.432 202.22,206.432 L202.22,206.432 Z M207.62,196.208 L196.208,196.208 C196.352,193.544 198.188,190.412 201.896,190.412 C205.856,190.412 207.584,193.616 207.62,196.208 L207.62,196.208 Z M227.06,206 L227.06,203.66 L217.268,203.66 L226.916,190.664 L226.916,188.612 L213.812,188.612 L213.812,190.988 L223.388,190.988 L213.812,203.912 L213.812,206 L227.06,206 Z M256.22,206 L256.22,181.988 L253.52,181.988 L253.52,191.24 C252.116,189.332 249.992,188.18 247.652,188.18 C243.08,188.18 239.912,191.78 239.912,197.324 C239.912,202.976 243.116,206.432 247.652,206.432 C250.1,206.432 252.224,205.172 253.52,203.408 L253.52,206 L256.22,206 Z M248.3,204.02 C244.808,204.02 242.72,201.176 242.72,197.324 C242.72,193.472 244.808,190.592 248.3,190.592 C250.46,190.592 252.548,191.888 253.52,193.4 L253.52,201.284 C252.548,202.796 250.46,204.02 248.3,204.02 L248.3,204.02 Z M269.468,206.432 C272.312,206.432 274.652,205.496 276.38,203.768 L275.084,202.004 C273.716,203.408 271.7,204.2 269.72,204.2 C265.976,204.2 263.672,201.464 263.456,198.188 L277.532,198.188 L277.532,197.504 C277.532,192.284 274.436,188.18 269.18,188.18 C264.212,188.18 260.612,192.248 260.612,197.288 C260.612,202.724 264.32,206.432 269.468,206.432 L269.468,206.432 Z M274.868,196.208 L263.456,196.208 C263.6,193.544 265.436,190.412 269.144,190.412 C273.104,190.412 274.832,193.616 274.868,196.208 L274.868,196.208 Z M285.272,204.38 C285.272,203.3 284.372,202.4 283.292,202.4 C282.212,202.4 281.348,203.3 281.348,204.38 C281.348,205.424 282.212,206.36 283.292,206.36 C284.372,206.36 285.272,205.424 285.272,204.38 L285.272,204.38 Z M293.588,204.38 C293.588,203.3 292.652,202.4 291.572,202.4 C290.492,202.4 289.628,203.3 289.628,204.38 C289.628,205.424 290.492,206.36 291.572,206.36 C292.652,206.36 293.588,205.424 293.588,204.38 L293.588,204.38 Z M301.868,204.38 C301.868,203.3 300.968,202.4 299.888,202.4 C298.808,202.4 297.908,203.3 297.908,204.38 C297.908,205.424 298.808,206.36 299.888,206.36 C300.968,206.36 301.868,205.424 301.868,204.38 L301.868,204.38 Z" id="Vous-partez-de…" fill="#FFFFFF" sketch:type="MSShapeGroup"></path>
            <path d="M75.3080814,269.948 L75.3080814,252.606 L73.1500814,252.606 L73.1500814,266.152 L63.1660814,252.606 L60.9560814,252.606 L60.9560814,269.948 L63.1140814,269.948 L63.1140814,256.116 L73.2280814,269.948 L75.3080814,269.948 Z M89.0880814,269.948 L89.0880814,261.316 C89.0880814,258.274 86.8780814,257.078 84.2260814,257.078 C82.1720814,257.078 80.5600814,257.754 79.2080814,259.158 L80.1180814,260.51 C81.2360814,259.314 82.4580814,258.768 83.9660814,258.768 C85.7860814,258.768 87.1380814,259.73 87.1380814,261.42 L87.1380814,263.682 C86.1240814,262.512 84.6940814,261.966 82.9780814,261.966 C80.8460814,261.966 78.5840814,263.292 78.5840814,266.1 C78.5840814,268.83 80.8460814,270.26 82.9780814,270.26 C84.6680814,270.26 86.0980814,269.662 87.1380814,268.518 L87.1380814,269.948 L89.0880814,269.948 Z M83.6800814,268.856 C81.8600814,268.856 80.5860814,267.712 80.5860814,266.126 C80.5860814,264.514 81.8600814,263.37 83.6800814,263.37 C85.0580814,263.37 86.3840814,263.89 87.1380814,264.93 L87.1380814,267.296 C86.3840814,268.336 85.0580814,268.856 83.6800814,268.856 L83.6800814,268.856 Z M110.096081,269.948 L110.096081,260.874 C110.096081,258.352 108.874081,257.078 106.586081,257.078 C104.766081,257.078 103.076081,258.274 102.374081,259.418 C102.010081,258.118 100.918081,257.078 98.9940814,257.078 C97.1480814,257.078 95.4580814,258.404 94.9380814,259.21 L94.9380814,257.39 L92.9880814,257.39 L92.9880814,269.948 L94.9380814,269.948 L94.9380814,260.77 C95.6140814,259.756 96.9660814,258.82 98.2400814,258.82 C99.8780814,258.82 100.554081,259.834 100.554081,261.42 L100.554081,269.948 L102.504081,269.948 L102.504081,260.744 C103.154081,259.756 104.532081,258.82 105.832081,258.82 C107.444081,258.82 108.146081,259.834 108.146081,261.42 L108.146081,269.948 L110.096081,269.948 Z M124.422081,269.948 L124.422081,257.39 L122.472081,257.39 L122.472081,266.62 C121.744081,267.634 120.288081,268.518 118.754081,268.518 C117.064081,268.518 115.946081,267.868 115.946081,265.658 L115.946081,257.39 L113.996081,257.39 L113.996081,266.256 C113.996081,268.986 115.374081,270.26 118.000081,270.26 C119.872081,270.26 121.510081,269.272 122.472081,268.18 L122.472081,269.948 L124.422081,269.948 Z M130.272081,269.948 L130.272081,261.056 C130.844081,260.042 132.482081,259.054 133.678081,259.054 C133.990081,259.054 134.224081,259.08 134.458081,259.132 L134.458081,257.13 C132.742081,257.13 131.286081,258.092 130.272081,259.418 L130.272081,257.39 L128.322081,257.39 L128.322081,269.948 L130.272081,269.948 Z" id="Namur" fill="#FFFFFF" sketch:type="MSShapeGroup"></path>
            <path d="M565.68,206 L575.364,181.988 L571.944,181.988 L563.844,202.724 L555.744,181.988 L552.324,181.988 L561.972,206 L565.68,206 Z M585.984,206.432 C591.276,206.432 594.588,202.328 594.588,197.288 C594.588,192.248 591.276,188.18 585.984,188.18 C580.692,188.18 577.38,192.248 577.38,197.288 C577.38,202.328 580.692,206.432 585.984,206.432 L585.984,206.432 Z M585.984,204.02 C582.276,204.02 580.188,200.852 580.188,197.288 C580.188,193.76 582.276,190.592 585.984,190.592 C589.692,190.592 591.744,193.76 591.744,197.288 C591.744,200.852 589.692,204.02 585.984,204.02 L585.984,204.02 Z M613.416,206 L613.416,188.612 L610.716,188.612 L610.716,201.392 C609.708,202.796 607.692,204.02 605.568,204.02 C603.228,204.02 601.68,203.12 601.68,200.06 L601.68,188.612 L598.98,188.612 L598.98,200.888 C598.98,204.668 600.888,206.432 604.524,206.432 C607.116,206.432 609.384,205.064 610.716,203.552 L610.716,206 L613.416,206 Z M624.324,206.432 C628.824,206.432 631.164,204.092 631.164,201.176 C631.164,194.408 620.4,196.928 620.4,193.112 C620.4,191.564 621.876,190.376 624.252,190.376 C626.484,190.376 628.392,191.312 629.436,192.572 L630.696,190.7 C629.292,189.296 627.204,188.18 624.252,188.18 C620.112,188.18 617.772,190.484 617.772,193.184 C617.772,199.628 628.536,197.036 628.536,201.248 C628.536,202.976 627.096,204.236 624.432,204.236 C622.056,204.236 619.86,203.084 618.708,201.752 L617.304,203.696 C619.068,205.568 621.48,206.432 624.324,206.432 L624.324,206.432 Z M658.416,206 L658.416,194.048 C658.416,189.836 655.356,188.18 651.684,188.18 C648.84,188.18 646.608,189.116 644.736,191.06 L645.996,192.932 C647.544,191.276 649.236,190.52 651.324,190.52 C653.844,190.52 655.716,191.852 655.716,194.192 L655.716,197.324 C654.312,195.704 652.332,194.948 649.956,194.948 C647.004,194.948 643.872,196.784 643.872,200.672 C643.872,204.452 647.004,206.432 649.956,206.432 C652.296,206.432 654.276,205.604 655.716,204.02 L655.716,206 L658.416,206 Z M650.928,204.488 C648.408,204.488 646.644,202.904 646.644,200.708 C646.644,198.476 648.408,196.892 650.928,196.892 C652.836,196.892 654.672,197.612 655.716,199.052 L655.716,202.328 C654.672,203.768 652.836,204.488 650.928,204.488 L650.928,204.488 Z M666.516,206 L666.516,181.988 L663.816,181.988 L663.816,206 L666.516,206 Z M674.616,206 L674.616,181.988 L671.916,181.988 L671.916,206 L674.616,206 Z M687.864,206.432 C690.708,206.432 693.048,205.496 694.776,203.768 L693.48,202.004 C692.112,203.408 690.096,204.2 688.116,204.2 C684.372,204.2 682.068,201.464 681.852,198.188 L695.928,198.188 L695.928,197.504 C695.928,192.284 692.832,188.18 687.576,188.18 C682.608,188.18 679.008,192.248 679.008,197.288 C679.008,202.724 682.716,206.432 687.864,206.432 L687.864,206.432 Z M693.264,196.208 L681.852,196.208 C681.996,193.544 683.832,190.412 687.54,190.412 C691.5,190.412 693.228,193.616 693.264,196.208 L693.264,196.208 Z M712.704,206 L712.704,203.66 L702.912,203.66 L712.56,190.664 L712.56,188.612 L699.456,188.612 L699.456,190.988 L709.032,190.988 L699.456,203.912 L699.456,206 L712.704,206 Z M740.136,206 L740.136,194.048 C740.136,189.836 737.076,188.18 733.404,188.18 C730.56,188.18 728.328,189.116 726.456,191.06 L727.716,192.932 C729.264,191.276 730.956,190.52 733.044,190.52 C735.564,190.52 737.436,191.852 737.436,194.192 L737.436,197.324 C736.032,195.704 734.052,194.948 731.676,194.948 C728.724,194.948 725.592,196.784 725.592,200.672 C725.592,204.452 728.724,206.432 731.676,206.432 C734.016,206.432 735.996,205.604 737.436,204.02 L737.436,206 L740.136,206 Z M732.648,204.488 C730.128,204.488 728.364,202.904 728.364,200.708 C728.364,198.476 730.128,196.892 732.648,196.892 C734.556,196.892 736.392,197.612 737.436,199.052 L737.436,202.328 C736.392,203.768 734.556,204.488 732.648,204.488 L732.648,204.488 Z M735.456,185.984 L730.128,180.8 L727.32,180.8 L733.404,185.984 L735.456,185.984 Z M748.92,204.38 C748.92,203.3 748.02,202.4 746.94,202.4 C745.86,202.4 744.996,203.3 744.996,204.38 C744.996,205.424 745.86,206.36 746.94,206.36 C748.02,206.36 748.92,205.424 748.92,204.38 L748.92,204.38 Z M757.236,204.38 C757.236,203.3 756.3,202.4 755.22,202.4 C754.14,202.4 753.276,203.3 753.276,204.38 C753.276,205.424 754.14,206.36 755.22,206.36 C756.3,206.36 757.236,205.424 757.236,204.38 L757.236,204.38 Z M765.516,204.38 C765.516,203.3 764.616,202.4 763.536,202.4 C762.456,202.4 761.556,203.3 761.556,204.38 C761.556,205.424 762.456,206.36 763.536,206.36 C764.616,206.36 765.516,205.424 765.516,204.38 L765.516,204.38 Z" id="Vous-allez-à…" fill="#FFFFFF" sketch:type="MSShapeGroup"></path>
            <path d="M581.432,597.76 C586.554,597.76 590.038,593.912 590.038,588.79 C590.038,583.668 586.554,579.82 581.432,579.82 C576.284,579.82 572.826,583.668 572.826,588.79 C572.826,593.912 576.284,597.76 581.432,597.76 L581.432,597.76 Z M581.432,595.836 C577.532,595.836 575.062,592.82 575.062,588.79 C575.062,584.734 577.532,581.744 581.432,581.744 C585.306,581.744 587.802,584.734 587.802,588.79 C587.802,592.82 585.306,595.836 581.432,595.836 L581.432,595.836 Z M603.766,597.448 L603.766,584.89 L601.816,584.89 L601.816,594.12 C601.088,595.134 599.632,596.018 598.098,596.018 C596.408,596.018 595.29,595.368 595.29,593.158 L595.29,584.89 L593.34,584.89 L593.34,593.756 C593.34,596.486 594.718,597.76 597.344,597.76 C599.216,597.76 600.854,596.772 601.816,595.68 L601.816,597.448 L603.766,597.448 Z M620.042,597.76 C622.096,597.76 623.786,597.084 625.034,595.836 L624.098,594.562 C623.11,595.576 621.654,596.148 620.224,596.148 C617.52,596.148 615.856,594.172 615.7,591.806 L625.866,591.806 L625.866,591.312 C625.866,587.542 623.63,584.578 619.834,584.578 C616.246,584.578 613.646,587.516 613.646,591.156 C613.646,595.082 616.324,597.76 620.042,597.76 L620.042,597.76 Z M623.942,590.376 L615.7,590.376 C615.804,588.452 617.13,586.19 619.808,586.19 C622.668,586.19 623.916,588.504 623.942,590.376 L623.942,590.376 Z M639.438,597.448 L639.438,588.634 C639.438,585.904 638.06,584.578 635.434,584.578 C633.562,584.578 631.846,585.67 630.962,586.71 L630.962,584.89 L629.012,584.89 L629.012,597.448 L630.962,597.448 L630.962,588.27 C631.69,587.256 633.146,586.32 634.68,586.32 C636.37,586.32 637.488,587.022 637.488,589.232 L637.488,597.448 L639.438,597.448 Z M646.51,597.76 C647.654,597.76 648.356,597.422 648.85,596.954 L648.278,595.498 C648.018,595.784 647.498,596.018 646.952,596.018 C646.094,596.018 645.678,595.342 645.678,594.406 L645.678,586.606 L648.226,586.606 L648.226,584.89 L645.678,584.89 L645.678,581.458 L643.728,581.458 L643.728,584.89 L641.648,584.89 L641.648,586.606 L643.728,586.606 L643.728,594.822 C643.728,596.694 644.664,597.76 646.51,597.76 L646.51,597.76 Z M652.932,597.448 L652.932,588.556 C653.504,587.542 655.142,586.554 656.338,586.554 C656.65,586.554 656.884,586.58 657.118,586.632 L657.118,584.63 C655.402,584.63 653.946,585.592 652.932,586.918 L652.932,584.89 L650.982,584.89 L650.982,597.448 L652.932,597.448 Z M665.23,597.76 C667.284,597.76 668.974,597.084 670.222,595.836 L669.286,594.562 C668.298,595.576 666.842,596.148 665.412,596.148 C662.708,596.148 661.044,594.172 660.888,591.806 L671.054,591.806 L671.054,591.312 C671.054,587.542 668.818,584.578 665.022,584.578 C661.434,584.578 658.834,587.516 658.834,591.156 C658.834,595.082 661.512,597.76 665.23,597.76 L665.23,597.76 Z M669.13,590.376 L660.888,590.376 C660.992,588.452 662.318,586.19 664.996,586.19 C667.856,586.19 669.104,588.504 669.13,590.376 L669.13,590.376 Z M683.17,597.448 L683.17,595.758 L676.098,595.758 L683.066,586.372 L683.066,584.89 L673.602,584.89 L673.602,586.606 L680.518,586.606 L673.602,595.94 L673.602,597.448 L683.17,597.448 Z M703.606,597.448 L703.606,584.89 L701.656,584.89 L701.656,594.12 C700.928,595.134 699.472,596.018 697.938,596.018 C696.248,596.018 695.13,595.368 695.13,593.158 L695.13,584.89 L693.18,584.89 L693.18,593.756 C693.18,596.486 694.558,597.76 697.184,597.76 C699.056,597.76 700.694,596.772 701.656,595.68 L701.656,597.448 L703.606,597.448 Z M717.932,597.448 L717.932,588.634 C717.932,585.904 716.554,584.578 713.928,584.578 C712.056,584.578 710.34,585.67 709.456,586.71 L709.456,584.89 L707.506,584.89 L707.506,597.448 L709.456,597.448 L709.456,588.27 C710.184,587.256 711.64,586.32 713.174,586.32 C714.864,586.32 715.982,587.022 715.982,589.232 L715.982,597.448 L717.932,597.448 Z M727.5,597.76 C729.554,597.76 731.244,597.084 732.492,595.836 L731.556,594.562 C730.568,595.576 729.112,596.148 727.682,596.148 C724.978,596.148 723.314,594.172 723.158,591.806 L733.324,591.806 L733.324,591.312 C733.324,587.542 731.088,584.578 727.292,584.578 C723.704,584.578 721.104,587.516 721.104,591.156 C721.104,595.082 723.782,597.76 727.5,597.76 L727.5,597.76 Z M731.4,590.376 L723.158,590.376 C723.262,588.452 724.588,586.19 727.266,586.19 C730.126,586.19 731.374,588.504 731.4,590.376 L731.4,590.376 Z M748.222,602.544 C751.29,602.544 754.202,601.244 754.202,597.084 L754.202,584.89 L752.252,584.89 L752.252,586.788 C751.238,585.41 749.73,584.578 748.04,584.578 C744.738,584.578 742.45,587.074 742.45,591.104 C742.45,595.16 744.764,597.604 748.04,597.604 C749.808,597.604 751.342,596.642 752.252,595.368 L752.252,597.162 C752.252,599.918 750.302,600.932 748.222,600.932 C746.428,600.932 745.18,600.464 744.14,599.216 L743.152,600.672 C744.634,602.128 746.09,602.544 748.222,602.544 L748.222,602.544 Z M748.508,595.888 C745.986,595.888 744.478,593.86 744.478,591.104 C744.478,588.322 745.986,586.32 748.508,586.32 C750.068,586.32 751.576,587.256 752.252,588.348 L752.252,593.834 C751.576,594.926 750.068,595.888 748.508,595.888 L748.508,595.888 Z M767.904,597.448 L767.904,588.816 C767.904,585.774 765.694,584.578 763.042,584.578 C760.988,584.578 759.376,585.254 758.024,586.658 L758.934,588.01 C760.052,586.814 761.274,586.268 762.782,586.268 C764.602,586.268 765.954,587.23 765.954,588.92 L765.954,591.182 C764.94,590.012 763.51,589.466 761.794,589.466 C759.662,589.466 757.4,590.792 757.4,593.6 C757.4,596.33 759.662,597.76 761.794,597.76 C763.484,597.76 764.914,597.162 765.954,596.018 L765.954,597.448 L767.904,597.448 Z M762.496,596.356 C760.676,596.356 759.402,595.212 759.402,593.626 C759.402,592.014 760.676,590.87 762.496,590.87 C763.874,590.87 765.2,591.39 765.954,592.43 L765.954,594.796 C765.2,595.836 763.874,596.356 762.496,596.356 L762.496,596.356 Z M773.754,597.448 L773.754,588.556 C774.326,587.542 775.964,586.554 777.16,586.554 C777.472,586.554 777.706,586.58 777.94,586.632 L777.94,584.63 C776.224,584.63 774.768,585.592 773.754,586.918 L773.754,584.89 L771.804,584.89 L771.804,597.448 L773.754,597.448 Z M786.052,597.76 C788.106,597.76 789.796,597.084 791.044,595.836 L790.108,594.562 C789.12,595.576 787.664,596.148 786.234,596.148 C783.53,596.148 781.866,594.172 781.71,591.806 L791.876,591.806 L791.876,591.312 C791.876,587.542 789.64,584.578 785.844,584.578 C782.256,584.578 779.656,587.516 779.656,591.156 C779.656,595.082 782.334,597.76 786.052,597.76 L786.052,597.76 Z M789.952,590.376 L781.71,590.376 C781.814,588.452 783.14,586.19 785.818,586.19 C788.678,586.19 789.926,588.504 789.952,590.376 L789.952,590.376 Z" id="Ou-entrez-une-gare" fill="#B7B7B7" sketch:type="MSShapeGroup"></path>
            <path d="M667.05676,279.768 C669.74076,279.768 671.30276,278.162 671.30276,275.808 C671.30276,274.048 670.00476,272.442 668.44276,272.2 C669.78476,271.914 671.01676,270.682 671.01676,268.834 C671.01676,266.634 669.45476,265.094 666.90276,265.094 L660.36876,265.094 L660.36876,279.768 L667.05676,279.768 Z M666.59476,271.452 L662.19476,271.452 L662.19476,266.722 L666.59476,266.722 C668.24476,266.722 669.12476,267.778 669.12476,269.098 C669.12476,270.44 668.24476,271.452 666.59476,271.452 L666.59476,271.452 Z M666.68276,278.14 L662.19476,278.14 L662.19476,273.08 L666.68276,273.08 C668.48676,273.08 669.41076,274.268 669.41076,275.61 C669.41076,277.172 668.39876,278.14 666.68276,278.14 L666.68276,278.14 Z M675.79076,279.768 L675.79076,272.244 C676.27476,271.386 677.66076,270.55 678.67276,270.55 C678.93676,270.55 679.13476,270.572 679.33276,270.616 L679.33276,268.922 C677.88076,268.922 676.64876,269.736 675.79076,270.858 L675.79076,269.142 L674.14076,269.142 L674.14076,279.768 L675.79076,279.768 Z M690.22276,279.768 L690.22276,269.142 L688.57276,269.142 L688.57276,276.952 C687.95676,277.81 686.72476,278.558 685.42676,278.558 C683.99676,278.558 683.05076,278.008 683.05076,276.138 L683.05076,269.142 L681.40076,269.142 L681.40076,276.644 C681.40076,278.954 682.56676,280.032 684.78876,280.032 C686.37276,280.032 687.75876,279.196 688.57276,278.272 L688.57276,279.768 L690.22276,279.768 Z M702.32276,279.768 L698.23076,274.312 L702.08076,269.142 L700.16676,269.142 L697.21876,273.19 L694.27076,269.142 L692.35676,269.142 L696.20676,274.312 L692.13676,279.768 L694.02876,279.768 L697.21876,275.412 L700.40876,279.768 L702.32276,279.768 Z M708.19676,280.032 C709.93476,280.032 711.36476,279.46 712.42076,278.404 L711.62876,277.326 C710.79276,278.184 709.56076,278.668 708.35076,278.668 C706.06276,278.668 704.65476,276.996 704.52276,274.994 L713.12476,274.994 L713.12476,274.576 C713.12476,271.386 711.23276,268.878 708.02076,268.878 C704.98476,268.878 702.78476,271.364 702.78476,274.444 C702.78476,277.766 705.05076,280.032 708.19676,280.032 L708.19676,280.032 Z M711.49676,273.784 L704.52276,273.784 C704.61076,272.156 705.73276,270.242 707.99876,270.242 C710.41876,270.242 711.47476,272.2 711.49676,273.784 L711.49676,273.784 Z M717.43676,279.768 L717.43676,265.094 L715.78676,265.094 L715.78676,279.768 L717.43676,279.768 Z M722.38676,279.768 L722.38676,265.094 L720.73676,265.094 L720.73676,279.768 L722.38676,279.768 Z M730.48276,280.032 C732.22076,280.032 733.65076,279.46 734.70676,278.404 L733.91476,277.326 C733.07876,278.184 731.84676,278.668 730.63676,278.668 C728.34876,278.668 726.94076,276.996 726.80876,274.994 L735.41076,274.994 L735.41076,274.576 C735.41076,271.386 733.51876,268.878 730.30676,268.878 C727.27076,268.878 725.07076,271.364 725.07076,274.444 C725.07076,277.766 727.33676,280.032 730.48276,280.032 L730.48276,280.032 Z M733.78276,273.784 L726.80876,273.784 C726.89676,272.156 728.01876,270.242 730.28476,270.242 C732.70476,270.242 733.76076,272.2 733.78276,273.784 L733.78276,273.784 Z M741.43876,280.032 C744.18876,280.032 745.61876,278.602 745.61876,276.82 C745.61876,272.684 739.04076,274.224 739.04076,271.892 C739.04076,270.946 739.94276,270.22 741.39476,270.22 C742.75876,270.22 743.92476,270.792 744.56276,271.562 L745.33276,270.418 C744.47476,269.56 743.19876,268.878 741.39476,268.878 C738.86476,268.878 737.43476,270.286 737.43476,271.936 C737.43476,275.874 744.01276,274.29 744.01276,276.864 C744.01276,277.92 743.13276,278.69 741.50476,278.69 C740.05276,278.69 738.71076,277.986 738.00676,277.172 L737.14876,278.36 C738.22676,279.504 739.70076,280.032 741.43876,280.032 L741.43876,280.032 Z" id="Bruxelles" fill="#FFFFFF" sketch:type="MSShapeGroup"></path>
            <path d="M938.250882,279.768 L938.250882,278.14 L931.430882,278.14 L931.430882,265.094 L929.604882,265.094 L929.604882,279.768 L938.250882,279.768 Z M941.572882,267.624 C942.188882,267.624 942.694882,267.14 942.694882,266.524 C942.694882,265.908 942.188882,265.402 941.572882,265.402 C940.978882,265.402 940.472882,265.908 940.472882,266.524 C940.472882,267.14 940.978882,267.624 941.572882,267.624 L941.572882,267.624 Z M942.408882,279.768 L942.408882,269.142 L940.758882,269.142 L940.758882,279.768 L942.408882,279.768 Z M950.504882,280.032 C952.242882,280.032 953.672882,279.46 954.728882,278.404 L953.936882,277.326 C953.100882,278.184 951.868882,278.668 950.658882,278.668 C948.370882,278.668 946.962882,276.996 946.830882,274.994 L955.432882,274.994 L955.432882,274.576 C955.432882,271.386 953.540882,268.878 950.328882,268.878 C947.292882,268.878 945.092882,271.364 945.092882,274.444 C945.092882,277.766 947.358882,280.032 950.504882,280.032 L950.504882,280.032 Z M953.804882,273.784 L946.830882,273.784 C946.918882,272.156 948.040882,270.242 950.306882,270.242 C952.726882,270.242 953.782882,272.2 953.804882,273.784 L953.804882,273.784 Z M951.582882,267.536 L948.326882,264.368 L946.610882,264.368 L950.328882,267.536 L951.582882,267.536 Z M962.362882,284.08 C964.958882,284.08 967.422882,282.98 967.422882,279.46 L967.422882,269.142 L965.772882,269.142 L965.772882,270.748 C964.914882,269.582 963.638882,268.878 962.208882,268.878 C959.414882,268.878 957.478882,270.99 957.478882,274.4 C957.478882,277.832 959.436882,279.9 962.208882,279.9 C963.704882,279.9 965.002882,279.086 965.772882,278.008 L965.772882,279.526 C965.772882,281.858 964.122882,282.716 962.362882,282.716 C960.844882,282.716 959.788882,282.32 958.908882,281.264 L958.072882,282.496 C959.326882,283.728 960.558882,284.08 962.362882,284.08 L962.362882,284.08 Z M962.604882,278.448 C960.470882,278.448 959.194882,276.732 959.194882,274.4 C959.194882,272.046 960.470882,270.352 962.604882,270.352 C963.924882,270.352 965.200882,271.144 965.772882,272.068 L965.772882,276.71 C965.200882,277.634 963.924882,278.448 962.604882,278.448 L962.604882,278.448 Z M975.518882,280.032 C977.256882,280.032 978.686882,279.46 979.742882,278.404 L978.950882,277.326 C978.114882,278.184 976.882882,278.668 975.672882,278.668 C973.384882,278.668 971.976882,276.996 971.844882,274.994 L980.446882,274.994 L980.446882,274.576 C980.446882,271.386 978.554882,268.878 975.342882,268.878 C972.306882,268.878 970.106882,271.364 970.106882,274.444 C970.106882,277.766 972.372882,280.032 975.518882,280.032 L975.518882,280.032 Z M978.818882,273.784 L971.844882,273.784 C971.932882,272.156 973.054882,270.242 975.320882,270.242 C977.740882,270.242 978.796882,272.2 978.818882,273.784 L978.818882,273.784 Z" id="Liège" fill="#FFFFFF" sketch:type="MSShapeGroup"></path>
            <path d="M667.05676,370.032 C671.39076,370.032 674.33876,366.776 674.33876,362.442 C674.33876,358.108 671.39076,354.852 667.05676,354.852 C662.70076,354.852 659.77476,358.108 659.77476,362.442 C659.77476,366.776 662.70076,370.032 667.05676,370.032 L667.05676,370.032 Z M667.05676,368.404 C663.75676,368.404 661.66676,365.852 661.66676,362.442 C661.66676,359.01 663.75676,356.48 667.05676,356.48 C670.33476,356.48 672.44676,359.01 672.44676,362.442 C672.44676,365.852 670.33476,368.404 667.05676,368.404 L667.05676,368.404 Z M679.81676,370.032 C680.78476,370.032 681.37876,369.746 681.79676,369.35 L681.31276,368.118 C681.09276,368.36 680.65276,368.558 680.19076,368.558 C679.46476,368.558 679.11276,367.986 679.11276,367.194 L679.11276,360.594 L681.26876,360.594 L681.26876,359.142 L679.11276,359.142 L679.11276,356.238 L677.46276,356.238 L677.46276,359.142 L675.70276,359.142 L675.70276,360.594 L677.46276,360.594 L677.46276,367.546 C677.46276,369.13 678.25476,370.032 679.81676,370.032 L679.81676,370.032 Z M686.28476,370.032 C687.25276,370.032 687.84676,369.746 688.26476,369.35 L687.78076,368.118 C687.56076,368.36 687.12076,368.558 686.65876,368.558 C685.93276,368.558 685.58076,367.986 685.58076,367.194 L685.58076,360.594 L687.73676,360.594 L687.73676,359.142 L685.58076,359.142 L685.58076,356.238 L683.93076,356.238 L683.93076,359.142 L682.17076,359.142 L682.17076,360.594 L683.93076,360.594 L683.93076,367.546 C683.93076,369.13 684.72276,370.032 686.28476,370.032 L686.28476,370.032 Z M690.88276,357.624 C691.49876,357.624 692.00476,357.14 692.00476,356.524 C692.00476,355.908 691.49876,355.402 690.88276,355.402 C690.28876,355.402 689.78276,355.908 689.78276,356.524 C689.78276,357.14 690.28876,357.624 690.88276,357.624 L690.88276,357.624 Z M691.71876,369.768 L691.71876,359.142 L690.06876,359.142 L690.06876,369.768 L691.71876,369.768 Z M699.28676,374.08 C701.88276,374.08 704.34676,372.98 704.34676,369.46 L704.34676,359.142 L702.69676,359.142 L702.69676,360.748 C701.83876,359.582 700.56276,358.878 699.13276,358.878 C696.33876,358.878 694.40276,360.99 694.40276,364.4 C694.40276,367.832 696.36076,369.9 699.13276,369.9 C700.62876,369.9 701.92676,369.086 702.69676,368.008 L702.69676,369.526 C702.69676,371.858 701.04676,372.716 699.28676,372.716 C697.76876,372.716 696.71276,372.32 695.83276,371.264 L694.99676,372.496 C696.25076,373.728 697.48276,374.08 699.28676,374.08 L699.28676,374.08 Z M699.52876,368.448 C697.39476,368.448 696.11876,366.732 696.11876,364.4 C696.11876,362.046 697.39476,360.352 699.52876,360.352 C700.84876,360.352 702.12476,361.144 702.69676,362.068 L702.69676,366.71 C702.12476,367.634 700.84876,368.448 699.52876,368.448 L699.52876,368.448 Z M716.46876,369.768 L716.46876,362.31 C716.46876,360 715.30276,358.878 713.08076,358.878 C711.49676,358.878 710.04476,359.802 709.29676,360.682 L709.29676,359.142 L707.64676,359.142 L707.64676,369.768 L709.29676,369.768 L709.29676,362.002 C709.91276,361.144 711.14476,360.352 712.44276,360.352 C713.87276,360.352 714.81876,360.946 714.81876,362.816 L714.81876,369.768 L716.46876,369.768 Z M720.58276,357.624 C721.19876,357.624 721.70476,357.14 721.70476,356.524 C721.70476,355.908 721.19876,355.402 720.58276,355.402 C719.98876,355.402 719.48276,355.908 719.48276,356.524 C719.48276,357.14 719.98876,357.624 720.58276,357.624 L720.58276,357.624 Z M721.41876,369.768 L721.41876,359.142 L719.76876,359.142 L719.76876,369.768 L721.41876,369.768 Z M729.51476,370.032 C731.25276,370.032 732.68276,369.46 733.73876,368.404 L732.94676,367.326 C732.11076,368.184 730.87876,368.668 729.66876,368.668 C727.38076,368.668 725.97276,366.996 725.84076,364.994 L734.44276,364.994 L734.44276,364.576 C734.44276,361.386 732.55076,358.878 729.33876,358.878 C726.30276,358.878 724.10276,361.364 724.10276,364.444 C724.10276,367.766 726.36876,370.032 729.51476,370.032 L729.51476,370.032 Z M732.81476,363.784 L725.84076,363.784 C725.92876,362.156 727.05076,360.242 729.31676,360.242 C731.73676,360.242 732.79276,362.2 732.81476,363.784 L732.81476,363.784 Z M740.47076,370.032 C743.22076,370.032 744.65076,368.602 744.65076,366.82 C744.65076,362.684 738.07276,364.224 738.07276,361.892 C738.07276,360.946 738.97476,360.22 740.42676,360.22 C741.79076,360.22 742.95676,360.792 743.59476,361.562 L744.36476,360.418 C743.50676,359.56 742.23076,358.878 740.42676,358.878 C737.89676,358.878 736.46676,360.286 736.46676,361.936 C736.46676,365.874 743.04476,364.29 743.04476,366.864 C743.04476,367.92 742.16476,368.69 740.53676,368.69 C739.08476,368.69 737.74276,367.986 737.03876,367.172 L736.18076,368.36 C737.25876,369.504 738.73276,370.032 740.47076,370.032 L740.47076,370.032 Z" id="Ottignies" fill="#FFFFFF" sketch:type="MSShapeGroup"></path>
            <path d="M667.05676,460.032 C671.39076,460.032 674.33876,456.776 674.33876,452.442 C674.33876,448.108 671.39076,444.852 667.05676,444.852 C662.70076,444.852 659.77476,448.108 659.77476,452.442 C659.77476,456.776 662.70076,460.032 667.05676,460.032 L667.05676,460.032 Z M667.05676,458.404 C663.75676,458.404 661.66676,455.852 661.66676,452.442 C661.66676,449.01 663.75676,446.48 667.05676,446.48 C670.33476,446.48 672.44676,449.01 672.44676,452.442 C672.44676,455.852 670.33476,458.404 667.05676,458.404 L667.05676,458.404 Z M680.49876,460.032 C683.24876,460.032 684.67876,458.602 684.67876,456.82 C684.67876,452.684 678.10076,454.224 678.10076,451.892 C678.10076,450.946 679.00276,450.22 680.45476,450.22 C681.81876,450.22 682.98476,450.792 683.62276,451.562 L684.39276,450.418 C683.53476,449.56 682.25876,448.878 680.45476,448.878 C677.92476,448.878 676.49476,450.286 676.49476,451.936 C676.49476,455.874 683.07276,454.29 683.07276,456.864 C683.07276,457.92 682.19276,458.69 680.56476,458.69 C679.11276,458.69 677.77076,457.986 677.06676,457.172 L676.20876,458.36 C677.28676,459.504 678.76076,460.032 680.49876,460.032 L680.49876,460.032 Z M690.04676,460.032 C691.01476,460.032 691.60876,459.746 692.02676,459.35 L691.54276,458.118 C691.32276,458.36 690.88276,458.558 690.42076,458.558 C689.69476,458.558 689.34276,457.986 689.34276,457.194 L689.34276,450.594 L691.49876,450.594 L691.49876,449.142 L689.34276,449.142 L689.34276,446.238 L687.69276,446.238 L687.69276,449.142 L685.93276,449.142 L685.93276,450.594 L687.69276,450.594 L687.69276,457.546 C687.69276,459.13 688.48476,460.032 690.04676,460.032 L690.04676,460.032 Z M698.62676,460.032 C700.36476,460.032 701.79476,459.46 702.85076,458.404 L702.05876,457.326 C701.22276,458.184 699.99076,458.668 698.78076,458.668 C696.49276,458.668 695.08476,456.996 694.95276,454.994 L703.55476,454.994 L703.55476,454.576 C703.55476,451.386 701.66276,448.878 698.45076,448.878 C695.41476,448.878 693.21476,451.364 693.21476,454.444 C693.21476,457.766 695.48076,460.032 698.62676,460.032 L698.62676,460.032 Z M701.92676,453.784 L694.95276,453.784 C695.04076,452.156 696.16276,450.242 698.42876,450.242 C700.84876,450.242 701.90476,452.2 701.92676,453.784 L701.92676,453.784 Z M715.03876,459.768 L715.03876,452.31 C715.03876,450 713.87276,448.878 711.65076,448.878 C710.06676,448.878 708.61476,449.802 707.86676,450.682 L707.86676,449.142 L706.21676,449.142 L706.21676,459.768 L707.86676,459.768 L707.86676,452.002 C708.48276,451.144 709.71476,450.352 711.01276,450.352 C712.44276,450.352 713.38876,450.946 713.38876,452.816 L713.38876,459.768 L715.03876,459.768 Z M727.68876,459.768 L727.68876,445.094 L726.03876,445.094 L726.03876,450.748 C725.18076,449.582 723.88276,448.878 722.45276,448.878 C719.65876,448.878 717.72276,451.078 717.72276,454.466 C717.72276,457.92 719.68076,460.032 722.45276,460.032 C723.94876,460.032 725.24676,459.262 726.03876,458.184 L726.03876,459.768 L727.68876,459.768 Z M722.84876,458.558 C720.71476,458.558 719.43876,456.82 719.43876,454.466 C719.43876,452.112 720.71476,450.352 722.84876,450.352 C724.16876,450.352 725.44476,451.144 726.03876,452.068 L726.03876,456.886 C725.44476,457.81 724.16876,458.558 722.84876,458.558 L722.84876,458.558 Z M735.78476,460.032 C737.52276,460.032 738.95276,459.46 740.00876,458.404 L739.21676,457.326 C738.38076,458.184 737.14876,458.668 735.93876,458.668 C733.65076,458.668 732.24276,456.996 732.11076,454.994 L740.71276,454.994 L740.71276,454.576 C740.71276,451.386 738.82076,448.878 735.60876,448.878 C732.57276,448.878 730.37276,451.364 730.37276,454.444 C730.37276,457.766 732.63876,460.032 735.78476,460.032 L735.78476,460.032 Z M739.08476,453.784 L732.11076,453.784 C732.19876,452.156 733.32076,450.242 735.58676,450.242 C738.00676,450.242 739.06276,452.2 739.08476,453.784 L739.08476,453.784 Z" id="Ostende" fill="#FFFFFF" sketch:type="MSShapeGroup"></path>
            <path d="M902.126882,370.032 C904.722882,370.032 906.482882,368.8 907.714882,367.128 L906.152882,366.27 C905.316882,367.524 903.798882,368.404 902.126882,368.404 C898.914882,368.404 896.472882,365.918 896.472882,362.442 C896.472882,358.944 898.914882,356.48 902.126882,356.48 C903.798882,356.48 905.316882,357.382 906.152882,358.614 L907.692882,357.756 C906.526882,356.106 904.722882,354.852 902.126882,354.852 C897.902882,354.852 894.580882,357.932 894.580882,362.442 C894.580882,366.952 897.902882,370.032 902.126882,370.032 L902.126882,370.032 Z M918.824882,369.768 L918.824882,362.266 C918.824882,359.956 917.658882,358.878 915.436882,358.878 C913.830882,358.878 912.378882,359.802 911.630882,360.682 L911.630882,355.094 L909.980882,355.094 L909.980882,369.768 L911.630882,369.768 L911.630882,362.002 C912.268882,361.144 913.500882,360.352 914.776882,360.352 C916.206882,360.352 917.174882,360.902 917.174882,362.772 L917.174882,369.768 L918.824882,369.768 Z M930.418882,369.768 L930.418882,362.464 C930.418882,359.89 928.548882,358.878 926.304882,358.878 C924.566882,358.878 923.202882,359.45 922.058882,360.638 L922.828882,361.782 C923.774882,360.77 924.808882,360.308 926.084882,360.308 C927.624882,360.308 928.768882,361.122 928.768882,362.552 L928.768882,364.466 C927.910882,363.476 926.700882,363.014 925.248882,363.014 C923.444882,363.014 921.530882,364.136 921.530882,366.512 C921.530882,368.822 923.444882,370.032 925.248882,370.032 C926.678882,370.032 927.888882,369.526 928.768882,368.558 L928.768882,369.768 L930.418882,369.768 Z M925.842882,368.844 C924.302882,368.844 923.224882,367.876 923.224882,366.534 C923.224882,365.17 924.302882,364.202 925.842882,364.202 C927.008882,364.202 928.130882,364.642 928.768882,365.522 L928.768882,367.524 C928.130882,368.404 927.008882,368.844 925.842882,368.844 L925.842882,368.844 Z M935.368882,369.768 L935.368882,362.244 C935.852882,361.386 937.238882,360.55 938.250882,360.55 C938.514882,360.55 938.712882,360.572 938.910882,360.616 L938.910882,358.922 C937.458882,358.922 936.226882,359.736 935.368882,360.858 L935.368882,359.142 L933.718882,359.142 L933.718882,369.768 L935.368882,369.768 Z M942.628882,369.768 L942.628882,355.094 L940.978882,355.094 L940.978882,369.768 L942.628882,369.768 Z M950.724882,370.032 C952.462882,370.032 953.892882,369.46 954.948882,368.404 L954.156882,367.326 C953.320882,368.184 952.088882,368.668 950.878882,368.668 C948.590882,368.668 947.182882,366.996 947.050882,364.994 L955.652882,364.994 L955.652882,364.576 C955.652882,361.386 953.760882,358.878 950.548882,358.878 C947.512882,358.878 945.312882,361.364 945.312882,364.444 C945.312882,367.766 947.578882,370.032 950.724882,370.032 L950.724882,370.032 Z M954.024882,363.784 L947.050882,363.784 C947.138882,362.156 948.260882,360.242 950.526882,360.242 C952.946882,360.242 954.002882,362.2 954.024882,363.784 L954.024882,363.784 Z M959.964882,369.768 L959.964882,362.244 C960.448882,361.386 961.834882,360.55 962.846882,360.55 C963.110882,360.55 963.308882,360.572 963.506882,360.616 L963.506882,358.922 C962.054882,358.922 960.822882,359.736 959.964882,360.858 L959.964882,359.142 L958.314882,359.142 L958.314882,369.768 L959.964882,369.768 Z M970.216882,370.032 C973.450882,370.032 975.474882,367.524 975.474882,364.444 C975.474882,361.364 973.450882,358.878 970.216882,358.878 C966.982882,358.878 964.958882,361.364 964.958882,364.444 C964.958882,367.524 966.982882,370.032 970.216882,370.032 L970.216882,370.032 Z M970.216882,368.558 C967.950882,368.558 966.674882,366.622 966.674882,364.444 C966.674882,362.288 967.950882,360.352 970.216882,360.352 C972.482882,360.352 973.736882,362.288 973.736882,364.444 C973.736882,366.622 972.482882,368.558 970.216882,368.558 L970.216882,368.558 Z M978.972882,357.624 C979.588882,357.624 980.094882,357.14 980.094882,356.524 C980.094882,355.908 979.588882,355.402 978.972882,355.402 C978.378882,355.402 977.872882,355.908 977.872882,356.524 C977.872882,357.14 978.378882,357.624 978.972882,357.624 L978.972882,357.624 Z M979.808882,369.768 L979.808882,359.142 L978.158882,359.142 L978.158882,369.768 L979.808882,369.768 Z" id="Charleroi" fill="#FFFFFF" sketch:type="MSShapeGroup"></path>
            <path d="M928.482882,459.768 L922.564882,445.094 L920.298882,445.094 L914.402882,459.768 L916.492882,459.768 L917.790882,456.512 L925.094882,456.512 L926.392882,459.768 L928.482882,459.768 Z M924.544882,454.884 L918.318882,454.884 L921.442882,446.986 L924.544882,454.884 Z M939.152882,459.768 L939.152882,452.31 C939.152882,450 937.986882,448.878 935.764882,448.878 C934.180882,448.878 932.728882,449.802 931.980882,450.682 L931.980882,449.142 L930.330882,449.142 L930.330882,459.768 L931.980882,459.768 L931.980882,452.002 C932.596882,451.144 933.828882,450.352 935.126882,450.352 C936.556882,450.352 937.502882,450.946 937.502882,452.816 L937.502882,459.768 L939.152882,459.768 Z M947.094882,459.768 L951.516882,449.142 L949.712882,449.142 L946.192882,457.854 L942.650882,449.142 L940.868882,449.142 L945.290882,459.768 L947.094882,459.768 Z M958.028882,460.032 C959.766882,460.032 961.196882,459.46 962.252882,458.404 L961.460882,457.326 C960.624882,458.184 959.392882,458.668 958.182882,458.668 C955.894882,458.668 954.486882,456.996 954.354882,454.994 L962.956882,454.994 L962.956882,454.576 C962.956882,451.386 961.064882,448.878 957.852882,448.878 C954.816882,448.878 952.616882,451.364 952.616882,454.444 C952.616882,457.766 954.882882,460.032 958.028882,460.032 L958.028882,460.032 Z M961.328882,453.784 L954.354882,453.784 C954.442882,452.156 955.564882,450.242 957.830882,450.242 C960.250882,450.242 961.306882,452.2 961.328882,453.784 L961.328882,453.784 Z M967.268882,459.768 L967.268882,452.244 C967.752882,451.386 969.138882,450.55 970.150882,450.55 C970.414882,450.55 970.612882,450.572 970.810882,450.616 L970.810882,448.922 C969.358882,448.922 968.126882,449.736 967.268882,450.858 L967.268882,449.142 L965.618882,449.142 L965.618882,459.768 L967.268882,459.768 Z M976.244882,460.032 C978.994882,460.032 980.424882,458.602 980.424882,456.82 C980.424882,452.684 973.846882,454.224 973.846882,451.892 C973.846882,450.946 974.748882,450.22 976.200882,450.22 C977.564882,450.22 978.730882,450.792 979.368882,451.562 L980.138882,450.418 C979.280882,449.56 978.004882,448.878 976.200882,448.878 C973.670882,448.878 972.240882,450.286 972.240882,451.936 C972.240882,455.874 978.818882,454.29 978.818882,456.864 C978.818882,457.92 977.938882,458.69 976.310882,458.69 C974.858882,458.69 973.516882,457.986 972.812882,457.172 L971.954882,458.36 C973.032882,459.504 974.506882,460.032 976.244882,460.032 L976.244882,460.032 Z" id="Anvers" fill="#FFFFFF" sketch:type="MSShapeGroup"></path>
            <path d="M815.65,724.5 C820.15,724.5 821.575,721.925 821.575,719.775 C821.575,713.55 811.575,715.9 811.575,711.625 C811.575,709.825 813.25,708.55 815.475,708.55 C817.35,708.55 819.05,709.2 820.25,710.65 L821.2,709.6 C819.9,708.125 818.05,707.25 815.55,707.25 C812.525,707.25 810.075,708.975 810.075,711.7 C810.075,717.525 820.075,714.975 820.075,719.875 C820.075,721.3 819.1,723.2 815.675,723.2 C813.3,723.2 811.55,722.025 810.475,720.775 L809.55,721.85 C810.825,723.4 812.9,724.5 815.65,724.5 L815.65,724.5 Z M837.4,724.2 L837.4,712.125 L836.1,712.125 L836.1,721.325 C835.3,722.4 833.725,723.325 832.175,723.325 C830.425,723.325 829.25,722.675 829.25,720.325 L829.25,712.125 L827.95,712.125 L827.95,720.625 C827.95,723.35 829.275,724.5 831.75,724.5 C833.5,724.5 835.1,723.525 836.1,722.425 L836.1,724.2 L837.4,724.2 Z M845.1,710.225 C845.65,710.225 846.1,709.775 846.1,709.225 C846.1,708.675 845.65,708.25 845.1,708.25 C844.575,708.25 844.1,708.675 844.1,709.225 C844.1,709.775 844.575,710.225 845.1,710.225 L845.1,710.225 Z M845.75,724.2 L845.75,712.125 L844.45,712.125 L844.45,724.2 L845.75,724.2 Z M857.525,724.2 L862.625,712.125 L861.15,712.125 L856.8,722.675 L852.4,712.125 L850.95,712.125 L856.05,724.2 L857.525,724.2 Z M876.8,724.2 L876.8,715.7 C876.8,713 874.85,711.825 872.4,711.825 C870.4,711.825 869,712.5 867.75,713.85 L868.475,714.75 C869.575,713.5 870.75,712.975 872.25,712.975 C874.05,712.975 875.5,713.95 875.5,715.75 L875.5,718.2 C874.45,717.025 873.075,716.475 871.4,716.475 C869.3,716.475 867.175,717.85 867.175,720.475 C867.175,723.075 869.325,724.5 871.4,724.5 C873.075,724.5 874.425,723.95 875.5,722.775 L875.5,724.2 L876.8,724.2 Z M871.85,723.475 C869.85,723.475 868.55,722.2 868.55,720.5 C868.55,718.775 869.85,717.5 871.85,717.5 C873.3,717.5 874.65,718.075 875.5,719.175 L875.5,721.825 C874.65,722.925 873.3,723.475 871.85,723.475 L871.85,723.475 Z M893.3,724.2 L893.3,715.75 C893.3,713.025 891.95,711.825 889.5,711.825 C887.75,711.825 886.025,712.9 885.15,713.95 L885.15,712.125 L883.85,712.125 L883.85,724.2 L885.15,724.2 L885.15,715.075 C885.925,713.975 887.525,713 889.075,713 C890.825,713 892,713.7 892,716.025 L892,724.2 L893.3,724.2 Z M902.975,724.5 C903.975,724.5 904.55,724.2 905.025,723.75 L904.525,722.75 C904.25,723.05 903.75,723.325 903.175,723.325 C902.325,723.325 901.925,722.65 901.925,721.675 L901.925,713.275 L904.375,713.275 L904.375,712.125 L901.925,712.125 L901.925,708.825 L900.6,708.825 L900.6,712.125 L898.6,712.125 L898.6,713.275 L900.6,713.275 L900.6,721.875 C900.6,723.525 901.375,724.5 902.975,724.5 L902.975,724.5 Z M923.85,718.125 L919.85,713.7 L918.425,713.7 L922.425,718.125 L918.425,722.625 L919.85,722.625 L923.85,718.125 Z" id="Suivant-›" fill="#FFFFFF" sketch:type="MSShapeGroup"></path>
            <path d="M46.1125,722.625 L42.1125,718.125 L46.1125,713.7 L44.6875,713.7 L40.6875,718.125 L44.6875,722.625 L46.1125,722.625 Z M62.8375,724.2 L62.8375,717.275 L67.6625,717.275 C70.8375,717.275 72.6875,715.025 72.6875,712.4 C72.6875,709.775 70.8625,707.525 67.6625,707.525 L61.4125,707.525 L61.4125,724.2 L62.8375,724.2 Z M67.5125,715.975 L62.8375,715.975 L62.8375,708.825 L67.5125,708.825 C69.7125,708.825 71.1875,710.3 71.1875,712.4 C71.1875,714.5 69.7125,715.975 67.5125,715.975 L67.5125,715.975 Z M79.9375,724.2 L79.9375,715.4 C80.4875,714.35 82.1375,713.25 83.3625,713.25 C83.6125,713.25 83.7875,713.25 84.0125,713.3 L84.0125,711.875 C82.3375,711.875 80.9625,712.85 79.9375,714.2 L79.9375,712.125 L78.6375,712.125 L78.6375,724.2 L79.9375,724.2 Z M98.7375,706.7 L97.1875,706.7 L93.3375,710.3 L94.4375,710.3 L98.7375,706.7 Z M94.9125,724.5 C96.9125,724.5 98.4375,723.8 99.6375,722.55 L98.9625,721.7 C97.9375,722.8 96.5375,723.375 95.0125,723.375 C92.1625,723.375 90.4125,721.2 90.2875,718.575 L100.3875,718.575 L100.3875,718.225 C100.3875,714.75 98.3625,711.825 94.6875,711.825 C91.3375,711.825 88.8625,714.65 88.8625,718.15 C88.8625,721.875 91.3875,724.5 94.9125,724.5 L94.9125,724.5 Z M99.0625,717.55 L90.2875,717.55 C90.3875,715.45 91.8125,712.95 94.6625,712.95 C97.6875,712.95 99.0375,715.5 99.0625,717.55 L99.0625,717.55 Z M111.9125,724.5 C114.0125,724.5 115.2125,723.675 116.1875,722.425 L115.2875,721.625 C114.4125,722.825 113.3125,723.325 111.9875,723.325 C109.1625,723.325 107.4375,721.05 107.4375,718.15 C107.4375,715.25 109.1625,713 111.9875,713 C113.3125,713 114.4125,713.475 115.2875,714.675 L116.1875,713.875 C115.2125,712.65 114.0125,711.825 111.9125,711.825 C108.3625,711.825 106.0375,714.625 106.0375,718.15 C106.0375,721.675 108.3625,724.5 111.9125,724.5 L111.9125,724.5 Z M131.2625,706.7 L129.7125,706.7 L125.8625,710.3 L126.9625,710.3 L131.2625,706.7 Z M127.4375,724.5 C129.4375,724.5 130.9625,723.8 132.1625,722.55 L131.4875,721.7 C130.4625,722.8 129.0625,723.375 127.5375,723.375 C124.6875,723.375 122.9375,721.2 122.8125,718.575 L132.9125,718.575 L132.9125,718.225 C132.9125,714.75 130.8875,711.825 127.2125,711.825 C123.8625,711.825 121.3875,714.65 121.3875,718.15 C121.3875,721.875 123.9125,724.5 127.4375,724.5 L127.4375,724.5 Z M131.5875,717.55 L122.8125,717.55 C122.9125,715.45 124.3375,712.95 127.1875,712.95 C130.2125,712.95 131.5625,715.5 131.5875,717.55 L131.5875,717.55 Z M149.4875,724.2 L149.4875,707.525 L148.1625,707.525 L148.1625,714.075 C147.1875,712.7 145.6875,711.825 143.9625,711.825 C140.7625,711.825 138.5625,714.35 138.5625,718.175 C138.5625,722.05 140.7625,724.5 143.9625,724.5 C145.7625,724.5 147.3125,723.525 148.1625,722.275 L148.1625,724.2 L149.4875,724.2 Z M144.1875,723.325 C141.5125,723.325 139.9625,721.1 139.9625,718.175 C139.9625,715.25 141.5125,713 144.1875,713 C145.8875,713 147.4625,714.025 148.1625,715.2 L148.1625,721.175 C147.4625,722.325 145.8875,723.325 144.1875,723.325 L144.1875,723.325 Z M161.8875,724.5 C163.8875,724.5 165.4125,723.8 166.6125,722.55 L165.9375,721.7 C164.9125,722.8 163.5125,723.375 161.9875,723.375 C159.1375,723.375 157.3875,721.2 157.2625,718.575 L167.3625,718.575 L167.3625,718.225 C167.3625,714.75 165.3375,711.825 161.6625,711.825 C158.3125,711.825 155.8375,714.65 155.8375,718.15 C155.8375,721.875 158.3625,724.5 161.8875,724.5 L161.8875,724.5 Z M166.0375,717.55 L157.2625,717.55 C157.3625,715.45 158.7875,712.95 161.6375,712.95 C164.6625,712.95 166.0125,715.5 166.0375,717.55 L166.0375,717.55 Z M183.1625,724.2 L183.1625,715.75 C183.1625,713.025 181.8125,711.825 179.3625,711.825 C177.6125,711.825 175.8875,712.9 175.0125,713.95 L175.0125,712.125 L173.7125,712.125 L173.7125,724.2 L175.0125,724.2 L175.0125,715.075 C175.7875,713.975 177.3875,713 178.9375,713 C180.6875,713 181.8625,713.7 181.8625,716.025 L181.8625,724.2 L183.1625,724.2 Z M192.8375,724.5 C193.8375,724.5 194.4125,724.2 194.8875,723.75 L194.3875,722.75 C194.1125,723.05 193.6125,723.325 193.0375,723.325 C192.1875,723.325 191.7875,722.65 191.7875,721.675 L191.7875,713.275 L194.2375,713.275 L194.2375,712.125 L191.7875,712.125 L191.7875,708.825 L190.4625,708.825 L190.4625,712.125 L188.4625,712.125 L188.4625,713.275 L190.4625,713.275 L190.4625,721.875 C190.4625,723.525 191.2375,724.5 192.8375,724.5 L192.8375,724.5 Z" id="‹-Précédent-Copy-2" fill="#BEBEBE" sketch:type="MSShapeGroup"></path>
        </g>
    </g>
</svg>