<?xml version="1.0" encoding="UTF-8" standalone="no"?>
<svg width="1024px" height="768px" viewBox="0 0 1024 768" version="1.1" xmlns="http://www.w3.org/2000/svg" xmlns:xlink="http://www.w3.org/1999/xlink" xmlns:sketch="http://www.bohemiancoding.com/sketch/ns">
    <!-- Generator: Sketch 3.3.3 (12072) - http://www.bohemiancoding.com/sketch -->
    <title>iPad Landscape Copy 49</title>
    <desc>Created with Sketch.</desc>
    <defs></defs>
    <g id="Page-1" stroke="none" stroke-width="1" fill="none" fill-rule="evenodd" sketch:type="MSPage">
        <g id="iPad-Landscape-Copy-49" sketch:type="MSArtboardGroup">
            <rect id="Rectangle-242" fill="#FFFFFF" sketch:type="MSShapeGroup" x="0" y="0" width="1024" height="768"></rect>
            <rect id="Rectangle-42" fill="#3B3B48" sketch:type="MSShapeGroup" x="0" y="140" width="512" height="528"></rect>
            <rect id="Rectangle-42-Copy" fill="#0079FE" sketch:type="MSShapeGroup" x="512" y="140" width="512" height="528"></rect>
            <g id="Accueil-+-Group-+-‹" sketch:type="MSLayerGroup" transform="translate(43.500000, 37.500000)">
                <g id="Group" transform="translate(15.000000, -0.000000)" sketch:type="MSShapeGroup">
                    <path d="M29.1666667,4.269 L25,0.102333333 L16.6666667,8.43566667 L16.6666667,25.1023333 L33.3333333,25.1023333 L33.3333333,8.43566667 L29.1666667,4.269 L29.1666667,4.269 Z" id="Fill-3"></path>
                    <path d="M29.1666667,4.269 L25,0.102333333 L16.6666667,8.43566667 L16.6666667,25.1023333 L33.3333333,25.1023333 L33.3333333,8.43566667 L29.1666667,4.269 L29.1666667,4.269 Z" id="Stroke-4" stroke="#BEBEBE"></path>
                    <path d="M0,25.1023333 L16.6666667,25.1023333 L16.6666667,41.769 L0,41.769 L0,25.1023333 Z" id="Fill-5"></path>
                    <path d="M0,25.1023333 L16.6666667,25.1023333 L16.6666667,41.769 L0,41.769 L0,25.1023333 Z" id="Stroke-6" stroke="#BEBEBE"></path>
                    <path d="M16.6666667,25.1023333 L33.3333333,25.1023333 L33.3333333,41.769 L16.6666667,41.769 L16.6666667,25.1023333 Z" id="Fill-7"></path>
                    <path d="M16.6666667,25.1023333 L33.3333333,25.1023333 L33.3333333,41.769 L16.6666667,41.769 L16.6666667,25.1023333 Z" id="Stroke-8" stroke="#BEBEBE"></path>
                    <path d="M16.6666667,8.43566667 L33.3333333,8.43566667 L33.3333333,25.1023333 L16.6666667,25.1023333 L16.6666667,8.43566667 Z" id="Fill-9"></path>
                    <path d="M16.6666667,8.43566667 L33.3333333,8.43566667 L33.3333333,25.1023333 L16.6666667,25.1023333 L16.6666667,8.43566667 Z" id="Stroke-10" stroke="#BEBEBE"></path>
                    <path d="M50,25.1023333 L33.3333333,25.1023333 L33.3333333,16.769 L41.7276667,20.9051667 L50,25.1023333 L50,25.1023333 Z" id="Fill-11"></path>
                    <path d="M50,25.1023333 L33.3333333,25.1023333 L33.3333333,16.769 L41.7276667,20.9051667 L50,25.1023333 L50,25.1023333 Z" id="Stroke-12" stroke="#BEBEBE" stroke-linejoin="bevel"></path>
                    <path d="M0,25.1023333 L16.6666667,25.1023333 L16.6666667,16.769 L8.27233333,20.9051667 L0,25.1023333 L0,25.1023333 Z" id="Fill-13"></path>
                    <path d="M0,25.1023333 L16.6666667,25.1023333 L16.6666667,16.769 L8.27233333,20.9051667 L0,25.1023333 L0,25.1023333 Z" id="Stroke-14" stroke="#BEBEBE" stroke-linejoin="bevel"></path>
                    <path d="M33.3333333,25.1023333 L50,25.1023333 L50,41.769 L33.3333333,41.769 L33.3333333,25.1023333 Z" id="Fill-15"></path>
                    <path d="M33.3333333,25.1023333 L50,25.1023333 L50,41.769 L33.3333333,41.769 L33.3333333,25.1023333 Z" id="Stroke-16" stroke="#BEBEBE"></path>
                    <path d="M8.33333333,29.269 C6.03216667,29.269 4.16666667,31.1345 4.16666667,33.4356667 L4.16666667,41.769 L12.5,41.769 L12.5,33.4356667 C12.5,31.1345 10.6345,29.269 8.33333333,29.269 L8.33333333,29.269 Z" id="Fill-17"></path>
                    <path d="M8.33333333,29.269 C6.03216667,29.269 4.16666667,31.1345 4.16666667,33.4356667 L4.16666667,41.769 L12.5,41.769 L12.5,33.4356667 C12.5,31.1345 10.6345,29.269 8.33333333,29.269 L8.33333333,29.269 Z" id="Stroke-18" stroke="#BEBEBE"></path>
                    <path d="M25,29.269 C22.6988333,29.269 20.8333333,31.1345 20.8333333,33.4356667 L20.8333333,41.769 L29.1666667,41.769 L29.1666667,33.4356667 C29.1666667,31.1345 27.3011667,29.269 25,29.269 L25,29.269 Z" id="Fill-19"></path>
                    <path d="M25,29.269 C22.6988333,29.269 20.8333333,31.1345 20.8333333,33.4356667 L20.8333333,41.769 L29.1666667,41.769 L29.1666667,33.4356667 C29.1666667,31.1345 27.3011667,29.269 25,29.269 L25,29.269 Z" id="Stroke-20" stroke="#BEBEBE"></path>
                    <path d="M41.6666667,29.269 C39.3655,29.269 37.5,31.1345 37.5,33.4356667 L37.5,41.769 L45.8333333,41.769 L45.8333333,33.4356667 C45.8333333,31.1345 43.9678333,29.269 41.6666667,29.269 L41.6666667,29.269 Z" id="Fill-21"></path>
                    <path d="M41.6666667,29.269 C39.3655,29.269 37.5,31.1345 37.5,33.4356667 L37.5,41.769 L45.8333333,41.769 L45.8333333,33.4356667 C45.8333333,31.1345 43.9678333,29.269 41.6666667,29.269 L41.6666667,29.269 Z" id="Stroke-22" stroke="#BEBEBE"></path>
                    <path d="M29.1666667,16.769 C29.1666667,19.0701667 27.3011667,20.9356667 25,20.9356667 C22.6988333,20.9356667 20.8333333,19.0701667 20.8333333,16.769 C20.8333333,14.4678333 22.6988333,12.6023333 25,12.6023333 C27.3011667,12.6023333 29.1666667,14.4678333 29.1666667,16.769 L29.1666667,16.769 Z" id="Fill-23"></path>
                    <path d="M29.1666667,16.769 C29.1666667,19.0701667 27.3011667,20.9356667 25,20.9356667 C22.6988333,20.9356667 20.8333333,19.0701667 20.8333333,16.769 C20.8333333,14.4678333 22.6988333,12.6023333 25,12.6023333 C27.3011667,12.6023333 29.1666667,14.4678333 29.1666667,16.769 L29.1666667,16.769 Z" id="Stroke-24" stroke="#BEBEBE"></path>
                </g>
                <path d="M24.48,61 L20.385,50.995 L19.32,50.995 L15.225,61 L16.215,61 L17.205,58.54 L22.5,58.54 L23.49,61 L24.48,61 Z M22.215,57.76 L17.49,57.76 L19.845,51.91 L22.215,57.76 Z M29.225,61.18 C30.485,61.18 31.205,60.685 31.79,59.935 L31.25,59.455 C30.725,60.175 30.065,60.475 29.27,60.475 C27.575,60.475 26.54,59.11 26.54,57.37 C26.54,55.63 27.575,54.28 29.27,54.28 C30.065,54.28 30.725,54.565 31.25,55.285 L31.79,54.805 C31.205,54.07 30.485,53.575 29.225,53.575 C27.095,53.575 25.7,55.255 25.7,57.37 C25.7,59.485 27.095,61.18 29.225,61.18 L29.225,61.18 Z M36.835,61.18 C38.095,61.18 38.815,60.685 39.4,59.935 L38.86,59.455 C38.335,60.175 37.675,60.475 36.88,60.475 C35.185,60.475 34.15,59.11 34.15,57.37 C34.15,55.63 35.185,54.28 36.88,54.28 C37.675,54.28 38.335,54.565 38.86,55.285 L39.4,54.805 C38.815,54.07 38.095,53.575 36.835,53.575 C34.705,53.575 33.31,55.255 33.31,57.37 C33.31,59.485 34.705,61.18 36.835,61.18 L36.835,61.18 Z M47.01,61 L47.01,53.755 L46.23,53.755 L46.23,59.275 C45.75,59.92 44.805,60.475 43.875,60.475 C42.825,60.475 42.12,60.085 42.12,58.675 L42.12,53.755 L41.34,53.755 L41.34,58.855 C41.34,60.49 42.135,61.18 43.62,61.18 C44.67,61.18 45.63,60.595 46.23,59.935 L46.23,61 L47.01,61 Z M52.85,61.18 C54.05,61.18 54.965,60.76 55.685,60.01 L55.28,59.5 C54.665,60.16 53.825,60.505 52.91,60.505 C51.2,60.505 50.15,59.2 50.075,57.625 L56.135,57.625 L56.135,57.415 C56.135,55.33 54.92,53.575 52.715,53.575 C50.705,53.575 49.22,55.27 49.22,57.37 C49.22,59.605 50.735,61.18 52.85,61.18 L52.85,61.18 Z M55.34,57.01 L50.075,57.01 C50.135,55.75 50.99,54.25 52.7,54.25 C54.515,54.25 55.325,55.78 55.34,57.01 L55.34,57.01 Z M58.735,52.615 C59.065,52.615 59.335,52.345 59.335,52.015 C59.335,51.685 59.065,51.43 58.735,51.43 C58.42,51.43 58.135,51.685 58.135,52.015 C58.135,52.345 58.42,52.615 58.735,52.615 L58.735,52.615 Z M59.125,61 L59.125,53.755 L58.345,53.755 L58.345,61 L59.125,61 Z M62.535,61 L62.535,50.995 L61.755,50.995 L61.755,61 L62.535,61 Z" id="Accueil" fill="#BEBEBE" sketch:type="MSShapeGroup"></path>
                <path d="M4.446,36.866 L1.566,33.626 L4.446,30.44 L3.42,30.44 L0.54,33.626 L3.42,36.866 L4.446,36.866 Z" id="‹" fill="#BEBEBE" sketch:type="MSShapeGroup"></path>
            </g>
            <rect id="Rectangle-42-Copy-10" opacity="0.2" fill="#000000" sketch:type="MSShapeGroup" x="541.5" y="233.5" width="452.5" height="120" rx="3"></rect>
            <rect id="Rectangle-42-Copy-17" opacity="0.2" fill="#000000" sketch:type="MSShapeGroup" x="541.5" y="373.5" width="452.5" height="120" rx="3"></rect>
            <rect id="Rectangle-42-Copy-18" opacity="0.2" fill="#000000" sketch:type="MSShapeGroup" x="541.5" y="513.5" width="452.5" height="120" rx="3"></rect>
            <path d="M483.288,83 C488.286,83 491.31,80.102 491.31,75.44 C491.31,72.122 488.832,69.014 485.85,68.552 C488.37,68.048 490.764,65.654 490.764,62.126 C490.764,57.716 487.74,54.986 483.036,54.986 L471.528,54.986 L471.528,83 L483.288,83 Z M482.742,67.544 L473.922,67.544 L473.922,57.17 L482.742,57.17 C486.354,57.17 488.244,59.522 488.244,62.378 C488.244,65.276 486.354,67.544 482.742,67.544 L482.742,67.544 Z M482.91,80.816 L473.922,80.816 L473.922,69.728 L482.91,69.728 C486.816,69.728 488.79,72.416 488.79,75.272 C488.79,78.674 486.606,80.816 482.91,80.816 L482.91,80.816 Z M498.324,59.522 C499.248,59.522 500.004,58.766 500.004,57.842 C500.004,56.918 499.248,56.204 498.324,56.204 C497.442,56.204 496.644,56.918 496.644,57.842 C496.644,58.766 497.442,59.522 498.324,59.522 L498.324,59.522 Z M499.416,83 L499.416,62.714 L497.232,62.714 L497.232,83 L499.416,83 Z M508.404,83 L508.404,54.986 L506.22,54.986 L506.22,83 L508.404,83 Z M517.392,83 L517.392,54.986 L515.208,54.986 L515.208,83 L517.392,83 Z M533.184,83.504 C536.544,83.504 539.106,82.328 541.122,80.228 L539.988,78.8 C538.266,80.648 535.914,81.614 533.352,81.614 C528.564,81.614 525.624,77.96 525.414,73.55 L542.382,73.55 L542.382,72.962 C542.382,67.124 538.98,62.21 532.806,62.21 C527.178,62.21 523.02,66.956 523.02,72.836 C523.02,79.094 527.262,83.504 533.184,83.504 L533.184,83.504 Z M540.156,71.828 L525.414,71.828 C525.582,68.3 527.976,64.1 532.764,64.1 C537.846,64.1 540.114,68.384 540.156,71.828 L540.156,71.828 Z M552.42,83.504 C554.1,83.504 555.066,83 555.864,82.244 L555.024,80.564 C554.562,81.068 553.722,81.53 552.756,81.53 C551.328,81.53 550.656,80.396 550.656,78.758 L550.656,64.646 L554.772,64.646 L554.772,62.714 L550.656,62.714 L550.656,57.17 L548.43,57.17 L548.43,62.714 L545.07,62.714 L545.07,64.646 L548.43,64.646 L548.43,79.094 C548.43,81.866 549.732,83.504 552.42,83.504 L552.42,83.504 Z" id="Billet" fill="#0079FE" sketch:type="MSShapeGroup"></path>
            <path d="M43.252,206 C47.644,206 50.2,203.372 50.2,199.52 C50.2,196.64 48.076,194.012 45.52,193.616 C47.716,193.148 49.732,191.132 49.732,188.108 C49.732,184.508 47.176,181.988 43,181.988 L32.308,181.988 L32.308,206 L43.252,206 Z M42.496,192.392 L35.296,192.392 L35.296,184.652 L42.496,184.652 C45.196,184.652 46.636,186.38 46.636,188.54 C46.636,190.736 45.196,192.392 42.496,192.392 L42.496,192.392 Z M42.64,203.336 L35.296,203.336 L35.296,195.056 L42.64,195.056 C45.592,195.056 47.104,197 47.104,199.196 C47.104,201.752 45.448,203.336 42.64,203.336 L42.64,203.336 Z M57.544,206 L57.544,193.688 C58.336,192.284 60.604,190.916 62.26,190.916 C62.692,190.916 63.016,190.952 63.34,191.024 L63.34,188.252 C60.964,188.252 58.948,189.584 57.544,191.42 L57.544,188.612 L54.844,188.612 L54.844,206 L57.544,206 Z M81.16,206 L81.16,188.612 L78.46,188.612 L78.46,201.392 C77.452,202.796 75.436,204.02 73.312,204.02 C70.972,204.02 69.424,203.12 69.424,200.06 L69.424,188.612 L66.724,188.612 L66.724,200.888 C66.724,204.668 68.632,206.432 72.268,206.432 C74.86,206.432 77.128,205.064 78.46,203.552 L78.46,206 L81.16,206 Z M100.96,206 L94.264,197.072 L100.564,188.612 L97.432,188.612 L92.608,195.236 L87.784,188.612 L84.652,188.612 L90.952,197.072 L84.292,206 L87.388,206 L92.608,198.872 L97.828,206 L100.96,206 Z M111.904,206.432 C114.748,206.432 117.088,205.496 118.816,203.768 L117.52,202.004 C116.152,203.408 114.136,204.2 112.156,204.2 C108.412,204.2 106.108,201.464 105.892,198.188 L119.968,198.188 L119.968,197.504 C119.968,192.284 116.872,188.18 111.616,188.18 C106.648,188.18 103.048,192.248 103.048,197.288 C103.048,202.724 106.756,206.432 111.904,206.432 L111.904,206.432 Z M117.304,196.208 L105.892,196.208 C106.036,193.544 107.872,190.412 111.58,190.412 C115.54,190.412 117.268,193.616 117.304,196.208 L117.304,196.208 Z M127.024,206 L127.024,181.988 L124.324,181.988 L124.324,206 L127.024,206 Z M135.124,206 L135.124,181.988 L132.424,181.988 L132.424,206 L135.124,206 Z M148.372,206.432 C151.216,206.432 153.556,205.496 155.284,203.768 L153.988,202.004 C152.62,203.408 150.604,204.2 148.624,204.2 C144.88,204.2 142.576,201.464 142.36,198.188 L156.436,198.188 L156.436,197.504 C156.436,192.284 153.34,188.18 148.084,188.18 C143.116,188.18 139.516,192.248 139.516,197.288 C139.516,202.724 143.224,206.432 148.372,206.432 L148.372,206.432 Z M153.772,196.208 L142.36,196.208 C142.504,193.544 144.34,190.412 148.048,190.412 C152.008,190.412 153.736,193.616 153.772,196.208 L153.772,196.208 Z M166.3,206.432 C170.8,206.432 173.14,204.092 173.14,201.176 C173.14,194.408 162.376,196.928 162.376,193.112 C162.376,191.564 163.852,190.376 166.228,190.376 C168.46,190.376 170.368,191.312 171.412,192.572 L172.672,190.7 C171.268,189.296 169.18,188.18 166.228,188.18 C162.088,188.18 159.748,190.484 159.748,193.184 C159.748,199.628 170.512,197.036 170.512,201.248 C170.512,202.976 169.072,204.236 166.408,204.236 C164.032,204.236 161.836,203.084 160.684,201.752 L159.28,203.696 C161.044,205.568 163.456,206.432 166.3,206.432 L166.3,206.432 Z M193.66,197.252 L187.9,190.88 L185.2,190.88 L190.96,197.252 L185.2,203.732 L187.9,203.732 L193.66,197.252 Z M220.984,206 L220.984,203.336 L209.824,203.336 L209.824,181.988 L206.836,181.988 L206.836,206 L220.984,206 Z M226.42,186.128 C227.428,186.128 228.256,185.336 228.256,184.328 C228.256,183.32 227.428,182.492 226.42,182.492 C225.448,182.492 224.62,183.32 224.62,184.328 C224.62,185.336 225.448,186.128 226.42,186.128 L226.42,186.128 Z M227.788,206 L227.788,188.612 L225.088,188.612 L225.088,206 L227.788,206 Z M241.036,206.432 C243.88,206.432 246.22,205.496 247.948,203.768 L246.652,202.004 C245.284,203.408 243.268,204.2 241.288,204.2 C237.544,204.2 235.24,201.464 235.024,198.188 L249.1,198.188 L249.1,197.504 C249.1,192.284 246.004,188.18 240.748,188.18 C235.78,188.18 232.18,192.248 232.18,197.288 C232.18,202.724 235.888,206.432 241.036,206.432 L241.036,206.432 Z M246.436,196.208 L235.024,196.208 C235.168,193.544 237.004,190.412 240.712,190.412 C244.672,190.412 246.4,193.616 246.436,196.208 L246.436,196.208 Z M242.8,185.984 L237.472,180.8 L234.664,180.8 L240.748,185.984 L242.8,185.984 Z M260.44,213.056 C264.688,213.056 268.72,211.256 268.72,205.496 L268.72,188.612 L266.02,188.612 L266.02,191.24 C264.616,189.332 262.528,188.18 260.188,188.18 C255.616,188.18 252.448,191.636 252.448,197.216 C252.448,202.832 255.652,206.216 260.188,206.216 C262.636,206.216 264.76,204.884 266.02,203.12 L266.02,205.604 C266.02,209.42 263.32,210.824 260.44,210.824 C257.956,210.824 256.228,210.176 254.788,208.448 L253.42,210.464 C255.472,212.48 257.488,213.056 260.44,213.056 L260.44,213.056 Z M260.836,203.84 C257.344,203.84 255.256,201.032 255.256,197.216 C255.256,193.364 257.344,190.592 260.836,190.592 C262.996,190.592 265.084,191.888 266.02,193.4 L266.02,200.996 C265.084,202.508 262.996,203.84 260.836,203.84 L260.836,203.84 Z M281.968,206.432 C284.812,206.432 287.152,205.496 288.88,203.768 L287.584,202.004 C286.216,203.408 284.2,204.2 282.22,204.2 C278.476,204.2 276.172,201.464 275.956,198.188 L290.032,198.188 L290.032,197.504 C290.032,192.284 286.936,188.18 281.68,188.18 C276.712,188.18 273.112,192.248 273.112,197.288 C273.112,202.724 276.82,206.432 281.968,206.432 L281.968,206.432 Z M287.368,196.208 L275.956,196.208 C276.1,193.544 277.936,190.412 281.644,190.412 C285.604,190.412 287.332,193.616 287.368,196.208 L287.368,196.208 Z M46.374,285 L39.38,267.658 L36.702,267.658 L29.734,285 L32.204,285 L33.738,281.152 L42.37,281.152 L43.904,285 L46.374,285 Z M41.72,279.228 L34.362,279.228 L38.054,269.894 L41.72,279.228 Z M50.508,285 L50.508,267.658 L48.558,267.658 L48.558,285 L50.508,285 Z M56.358,285 L56.358,267.658 L54.408,267.658 L54.408,285 L56.358,285 Z M65.926,285.312 C67.98,285.312 69.67,284.636 70.918,283.388 L69.982,282.114 C68.994,283.128 67.538,283.7 66.108,283.7 C63.404,283.7 61.74,281.724 61.584,279.358 L71.75,279.358 L71.75,278.864 C71.75,275.094 69.514,272.13 65.718,272.13 C62.13,272.13 59.53,275.068 59.53,278.708 C59.53,282.634 62.208,285.312 65.926,285.312 L65.926,285.312 Z M69.826,277.928 L61.584,277.928 C61.688,276.004 63.014,273.742 65.692,273.742 C68.552,273.742 69.8,276.056 69.826,277.928 L69.826,277.928 Z M76.846,285 L76.846,276.108 C77.418,275.094 79.056,274.106 80.252,274.106 C80.564,274.106 80.798,274.132 81.032,274.184 L81.032,272.182 C79.316,272.182 77.86,273.144 76.846,274.47 L76.846,272.442 L74.896,272.442 L74.896,285 L76.846,285 Z M94.162,285.312 C97.412,285.312 99.102,283.622 99.102,281.516 C99.102,276.628 91.328,278.448 91.328,275.692 C91.328,274.574 92.394,273.716 94.11,273.716 C95.722,273.716 97.1,274.392 97.854,275.302 L98.764,273.95 C97.75,272.936 96.242,272.13 94.11,272.13 C91.12,272.13 89.43,273.794 89.43,275.744 C89.43,280.398 97.204,278.526 97.204,281.568 C97.204,282.816 96.164,283.726 94.24,283.726 C92.524,283.726 90.938,282.894 90.106,281.932 L89.092,283.336 C90.366,284.688 92.108,285.312 94.162,285.312 L94.162,285.312 Z M103.236,270.648 C103.964,270.648 104.562,270.076 104.562,269.348 C104.562,268.62 103.964,268.022 103.236,268.022 C102.534,268.022 101.936,268.62 101.936,269.348 C101.936,270.076 102.534,270.648 103.236,270.648 L103.236,270.648 Z M104.224,285 L104.224,272.442 L102.274,272.442 L102.274,285 L104.224,285 Z M125.232,285 L125.232,275.926 C125.232,273.404 124.01,272.13 121.722,272.13 C119.902,272.13 118.212,273.326 117.51,274.47 C117.146,273.17 116.054,272.13 114.13,272.13 C112.284,272.13 110.594,273.456 110.074,274.262 L110.074,272.442 L108.124,272.442 L108.124,285 L110.074,285 L110.074,275.822 C110.75,274.808 112.102,273.872 113.376,273.872 C115.014,273.872 115.69,274.886 115.69,276.472 L115.69,285 L117.64,285 L117.64,275.796 C118.29,274.808 119.668,273.872 120.968,273.872 C122.58,273.872 123.282,274.886 123.282,276.472 L123.282,285 L125.232,285 Z M135.32,285.312 C138.622,285.312 140.91,282.764 140.91,278.708 C140.91,274.626 138.622,272.13 135.32,272.13 C133.552,272.13 131.992,273.04 131.082,274.314 L131.082,272.442 L129.132,272.442 L129.132,289.784 L131.082,289.784 L131.082,283.102 C132.096,284.506 133.604,285.312 135.32,285.312 L135.32,285.312 Z M134.826,283.57 C133.292,283.57 131.758,282.634 131.082,281.542 L131.082,275.874 C131.758,274.782 133.292,273.872 134.826,273.872 C137.348,273.872 138.856,275.926 138.856,278.708 C138.856,281.49 137.348,283.57 134.826,283.57 L134.826,283.57 Z M145.954,285 L145.954,267.658 L144.004,267.658 L144.004,285 L145.954,285 Z M155.522,285.312 C157.576,285.312 159.266,284.636 160.514,283.388 L159.578,282.114 C158.59,283.128 157.134,283.7 155.704,283.7 C153,283.7 151.336,281.724 151.18,279.358 L161.346,279.358 L161.346,278.864 C161.346,275.094 159.11,272.13 155.314,272.13 C151.726,272.13 149.126,275.068 149.126,278.708 C149.126,282.634 151.804,285.312 155.522,285.312 L155.522,285.312 Z M159.422,277.928 L151.18,277.928 C151.284,276.004 152.61,273.742 155.288,273.742 C158.148,273.742 159.396,276.056 159.422,277.928 L159.422,277.928 Z M37.976,317 L37.976,301.582 L43.488,301.582 L43.488,299.658 L30.332,299.658 L30.332,301.582 L35.818,301.582 L35.818,317 L37.976,317 Z M56.072,317 L56.072,308.368 C56.072,305.326 53.862,304.13 51.21,304.13 C49.156,304.13 47.544,304.806 46.192,306.21 L47.102,307.562 C48.22,306.366 49.442,305.82 50.95,305.82 C52.77,305.82 54.122,306.782 54.122,308.472 L54.122,310.734 C53.108,309.564 51.678,309.018 49.962,309.018 C47.83,309.018 45.568,310.344 45.568,313.152 C45.568,315.882 47.83,317.312 49.962,317.312 C51.652,317.312 53.082,316.714 54.122,315.57 L54.122,317 L56.072,317 Z M50.664,315.908 C48.844,315.908 47.57,314.764 47.57,313.178 C47.57,311.566 48.844,310.422 50.664,310.422 C52.042,310.422 53.368,310.942 54.122,311.982 L54.122,314.348 C53.368,315.388 52.042,315.908 50.664,315.908 L50.664,315.908 Z M61.922,317 L61.922,308.108 C62.494,307.094 64.132,306.106 65.328,306.106 C65.64,306.106 65.874,306.132 66.108,306.184 L66.108,304.182 C64.392,304.182 62.936,305.144 61.922,306.47 L61.922,304.442 L59.972,304.442 L59.972,317 L61.922,317 Z M69.514,302.648 C70.242,302.648 70.84,302.076 70.84,301.348 C70.84,300.62 70.242,300.022 69.514,300.022 C68.812,300.022 68.214,300.62 68.214,301.348 C68.214,302.076 68.812,302.648 69.514,302.648 L69.514,302.648 Z M70.502,317 L70.502,304.442 L68.552,304.442 L68.552,317 L70.502,317 Z M76.898,317 L76.898,306.158 L79.446,306.158 L79.446,304.442 L76.898,304.442 L76.898,303.48 C76.898,301.894 77.6,301.01 78.874,301.01 C79.524,301.01 80.018,301.27 80.434,301.634 L81.24,300.36 C80.46,299.632 79.576,299.398 78.588,299.398 C76.352,299.398 74.948,300.906 74.948,303.48 L74.948,304.442 L72.868,304.442 L72.868,306.158 L74.948,306.158 L74.948,317 L76.898,317 Z M92.446,317.312 C95.696,317.312 97.386,315.622 97.386,313.516 C97.386,308.628 89.612,310.448 89.612,307.692 C89.612,306.574 90.678,305.716 92.394,305.716 C94.006,305.716 95.384,306.392 96.138,307.302 L97.048,305.95 C96.034,304.936 94.526,304.13 92.394,304.13 C89.404,304.13 87.714,305.794 87.714,307.744 C87.714,312.398 95.488,310.526 95.488,313.568 C95.488,314.816 94.448,315.726 92.524,315.726 C90.808,315.726 89.222,314.894 88.39,313.932 L87.376,315.336 C88.65,316.688 90.392,317.312 92.446,317.312 L92.446,317.312 Z M103.73,317.312 C104.874,317.312 105.576,316.974 106.07,316.506 L105.498,315.05 C105.238,315.336 104.718,315.57 104.172,315.57 C103.314,315.57 102.898,314.894 102.898,313.958 L102.898,306.158 L105.446,306.158 L105.446,304.442 L102.898,304.442 L102.898,301.01 L100.948,301.01 L100.948,304.442 L98.868,304.442 L98.868,306.158 L100.948,306.158 L100.948,314.374 C100.948,316.246 101.884,317.312 103.73,317.312 L103.73,317.312 Z M118.004,317 L118.004,308.368 C118.004,305.326 115.794,304.13 113.142,304.13 C111.088,304.13 109.476,304.806 108.124,306.21 L109.034,307.562 C110.152,306.366 111.374,305.82 112.882,305.82 C114.702,305.82 116.054,306.782 116.054,308.472 L116.054,310.734 C115.04,309.564 113.61,309.018 111.894,309.018 C109.762,309.018 107.5,310.344 107.5,313.152 C107.5,315.882 109.762,317.312 111.894,317.312 C113.584,317.312 115.014,316.714 116.054,315.57 L116.054,317 L118.004,317 Z M112.596,315.908 C110.776,315.908 109.502,314.764 109.502,313.178 C109.502,311.566 110.776,310.422 112.596,310.422 C113.974,310.422 115.3,310.942 116.054,311.982 L116.054,314.348 C115.3,315.388 113.974,315.908 112.596,315.908 L112.596,315.908 Z M132.33,317 L132.33,308.186 C132.33,305.456 130.952,304.13 128.326,304.13 C126.454,304.13 124.738,305.222 123.854,306.262 L123.854,304.442 L121.904,304.442 L121.904,317 L123.854,317 L123.854,307.822 C124.582,306.808 126.038,305.872 127.572,305.872 C129.262,305.872 130.38,306.574 130.38,308.784 L130.38,317 L132.33,317 Z M147.28,317 L147.28,299.658 L145.33,299.658 L145.33,306.34 C144.316,304.962 142.782,304.13 141.092,304.13 C137.79,304.13 135.502,306.73 135.502,310.734 C135.502,314.816 137.816,317.312 141.092,317.312 C142.86,317.312 144.394,316.402 145.33,315.128 L145.33,317 L147.28,317 Z M141.56,315.57 C139.038,315.57 137.53,313.516 137.53,310.734 C137.53,307.952 139.038,305.872 141.56,305.872 C143.12,305.872 144.628,306.808 145.33,307.9 L145.33,313.594 C144.628,314.686 143.12,315.57 141.56,315.57 L141.56,315.57 Z M160.982,317 L160.982,308.368 C160.982,305.326 158.772,304.13 156.12,304.13 C154.066,304.13 152.454,304.806 151.102,306.21 L152.012,307.562 C153.13,306.366 154.352,305.82 155.86,305.82 C157.68,305.82 159.032,306.782 159.032,308.472 L159.032,310.734 C158.018,309.564 156.588,309.018 154.872,309.018 C152.74,309.018 150.478,310.344 150.478,313.152 C150.478,315.882 152.74,317.312 154.872,317.312 C156.562,317.312 157.992,316.714 159.032,315.57 L159.032,317 L160.982,317 Z M155.574,315.908 C153.754,315.908 152.48,314.764 152.48,313.178 C152.48,311.566 153.754,310.422 155.574,310.422 C156.952,310.422 158.278,310.942 159.032,311.982 L159.032,314.348 C158.278,315.388 156.952,315.908 155.574,315.908 L155.574,315.908 Z M166.832,317 L166.832,308.108 C167.404,307.094 169.042,306.106 170.238,306.106 C170.55,306.106 170.784,306.132 171.018,306.184 L171.018,304.182 C169.302,304.182 167.846,305.144 166.832,306.47 L166.832,304.442 L164.882,304.442 L164.882,317 L166.832,317 Z M184.512,317 L184.512,299.658 L182.562,299.658 L182.562,306.34 C181.548,304.962 180.014,304.13 178.324,304.13 C175.022,304.13 172.734,306.73 172.734,310.734 C172.734,314.816 175.048,317.312 178.324,317.312 C180.092,317.312 181.626,316.402 182.562,315.128 L182.562,317 L184.512,317 Z M178.792,315.57 C176.27,315.57 174.762,313.516 174.762,310.734 C174.762,307.952 176.27,305.872 178.792,305.872 C180.352,305.872 181.86,306.808 182.562,307.9 L182.562,313.594 C181.86,314.686 180.352,315.57 178.792,315.57 L178.792,315.57 Z M36.286,393 L36.286,375.658 L34.388,375.658 L30.046,380.13 L31.346,381.456 L34.128,378.518 L34.128,393 L36.286,393 Z M52.64,393.312 C54.694,393.312 56.384,392.636 57.632,391.388 L56.696,390.114 C55.708,391.128 54.252,391.7 52.822,391.7 C50.118,391.7 48.454,389.724 48.298,387.358 L58.464,387.358 L58.464,386.864 C58.464,383.094 56.228,380.13 52.432,380.13 C48.844,380.13 46.244,383.068 46.244,386.708 C46.244,390.634 48.922,393.312 52.64,393.312 L52.64,393.312 Z M56.54,385.928 L48.298,385.928 C48.402,384.004 49.728,381.742 52.406,381.742 C55.266,381.742 56.514,384.056 56.54,385.928 L56.54,385.928 Z M72.036,393 L72.036,384.186 C72.036,381.456 70.658,380.13 68.032,380.13 C66.16,380.13 64.444,381.222 63.56,382.262 L63.56,380.442 L61.61,380.442 L61.61,393 L63.56,393 L63.56,383.822 C64.288,382.808 65.744,381.872 67.278,381.872 C68.968,381.872 70.086,382.574 70.086,384.784 L70.086,393 L72.036,393 Z M78.432,393 L78.432,382.158 L80.98,382.158 L80.98,380.442 L78.432,380.442 L78.432,379.48 C78.432,377.894 79.134,377.01 80.408,377.01 C81.058,377.01 81.552,377.27 81.968,377.634 L82.774,376.36 C81.994,375.632 81.11,375.398 80.122,375.398 C77.886,375.398 76.482,376.906 76.482,379.48 L76.482,380.442 L74.402,380.442 L74.402,382.158 L76.482,382.158 L76.482,393 L78.432,393 Z M93.096,393 L93.096,384.368 C93.096,381.326 90.886,380.13 88.234,380.13 C86.18,380.13 84.568,380.806 83.216,382.21 L84.126,383.562 C85.244,382.366 86.466,381.82 87.974,381.82 C89.794,381.82 91.146,382.782 91.146,384.472 L91.146,386.734 C90.132,385.564 88.702,385.018 86.986,385.018 C84.854,385.018 82.592,386.344 82.592,389.152 C82.592,391.882 84.854,393.312 86.986,393.312 C88.676,393.312 90.106,392.714 91.146,391.57 L91.146,393 L93.096,393 Z M87.688,391.908 C85.868,391.908 84.594,390.764 84.594,389.178 C84.594,387.566 85.868,386.422 87.688,386.422 C89.066,386.422 90.392,386.942 91.146,387.982 L91.146,390.348 C90.392,391.388 89.066,391.908 87.688,391.908 L87.688,391.908 Z M107.422,393 L107.422,384.186 C107.422,381.456 106.044,380.13 103.418,380.13 C101.546,380.13 99.83,381.222 98.946,382.262 L98.946,380.442 L96.996,380.442 L96.996,393 L98.946,393 L98.946,383.822 C99.674,382.808 101.13,381.872 102.664,381.872 C104.354,381.872 105.472,382.574 105.472,384.784 L105.472,393 L107.422,393 Z M114.494,393.312 C115.638,393.312 116.34,392.974 116.834,392.506 L116.262,391.05 C116.002,391.336 115.482,391.57 114.936,391.57 C114.078,391.57 113.662,390.894 113.662,389.958 L113.662,382.158 L116.21,382.158 L116.21,380.442 L113.662,380.442 L113.662,377.01 L111.712,377.01 L111.712,380.442 L109.632,380.442 L109.632,382.158 L111.712,382.158 L111.712,390.374 C111.712,392.246 112.648,393.312 114.494,393.312 L114.494,393.312 Z M42.812,425 L42.812,423.076 L34.31,423.076 C39.146,419.254 42.734,416.03 42.734,412.494 C42.734,409.036 39.796,407.398 36.91,407.398 C34.466,407.398 32.204,408.386 30.878,410.128 L32.204,411.506 C33.218,410.206 34.83,409.322 36.91,409.322 C38.704,409.322 40.524,410.284 40.524,412.494 C40.524,415.484 37.144,418.37 30.904,423.284 L30.904,425 L42.812,425 Z M63.248,425 L63.248,416.368 C63.248,413.326 61.038,412.13 58.386,412.13 C56.332,412.13 54.72,412.806 53.368,414.21 L54.278,415.562 C55.396,414.366 56.618,413.82 58.126,413.82 C59.946,413.82 61.298,414.782 61.298,416.472 L61.298,418.734 C60.284,417.564 58.854,417.018 57.138,417.018 C55.006,417.018 52.744,418.344 52.744,421.152 C52.744,423.882 55.006,425.312 57.138,425.312 C58.828,425.312 60.258,424.714 61.298,423.57 L61.298,425 L63.248,425 Z M57.84,423.908 C56.02,423.908 54.746,422.764 54.746,421.178 C54.746,419.566 56.02,418.422 57.84,418.422 C59.218,418.422 60.544,418.942 61.298,419.982 L61.298,422.348 C60.544,423.388 59.218,423.908 57.84,423.908 L57.84,423.908 Z M78.198,425 L78.198,407.658 L76.248,407.658 L76.248,414.34 C75.234,412.962 73.7,412.13 72.01,412.13 C68.708,412.13 66.42,414.73 66.42,418.734 C66.42,422.816 68.734,425.312 72.01,425.312 C73.778,425.312 75.312,424.402 76.248,423.128 L76.248,425 L78.198,425 Z M72.478,423.57 C69.956,423.57 68.448,421.516 68.448,418.734 C68.448,415.952 69.956,413.872 72.478,413.872 C74.038,413.872 75.546,414.808 76.248,415.9 L76.248,421.594 C75.546,422.686 74.038,423.57 72.478,423.57 L72.478,423.57 Z M92.524,425 L92.524,412.442 L90.574,412.442 L90.574,421.672 C89.846,422.686 88.39,423.57 86.856,423.57 C85.166,423.57 84.048,422.92 84.048,420.71 L84.048,412.442 L82.098,412.442 L82.098,421.308 C82.098,424.038 83.476,425.312 86.102,425.312 C87.974,425.312 89.612,424.324 90.574,423.232 L90.574,425 L92.524,425 Z M98.374,425 L98.374,407.658 L96.424,407.658 L96.424,425 L98.374,425 Z M105.446,425.312 C106.59,425.312 107.292,424.974 107.786,424.506 L107.214,423.05 C106.954,423.336 106.434,423.57 105.888,423.57 C105.03,423.57 104.614,422.894 104.614,421.958 L104.614,414.158 L107.162,414.158 L107.162,412.442 L104.614,412.442 L104.614,409.01 L102.664,409.01 L102.664,412.442 L100.584,412.442 L100.584,414.158 L102.664,414.158 L102.664,422.374 C102.664,424.246 103.6,425.312 105.446,425.312 L105.446,425.312 Z M115.586,425.312 C117.64,425.312 119.33,424.636 120.578,423.388 L119.642,422.114 C118.654,423.128 117.198,423.7 115.768,423.7 C113.064,423.7 111.4,421.724 111.244,419.358 L121.41,419.358 L121.41,418.864 C121.41,415.094 119.174,412.13 115.378,412.13 C111.79,412.13 109.19,415.068 109.19,418.708 C109.19,422.634 111.868,425.312 115.586,425.312 L115.586,425.312 Z M119.486,417.928 L111.244,417.928 C111.348,416.004 112.674,413.742 115.352,413.742 C118.212,413.742 119.46,416.056 119.486,417.928 L119.486,417.928 Z M128.534,425.312 C131.784,425.312 133.474,423.622 133.474,421.516 C133.474,416.628 125.7,418.448 125.7,415.692 C125.7,414.574 126.766,413.716 128.482,413.716 C130.094,413.716 131.472,414.392 132.226,415.302 L133.136,413.95 C132.122,412.936 130.614,412.13 128.482,412.13 C125.492,412.13 123.802,413.794 123.802,415.744 C123.802,420.398 131.576,418.526 131.576,421.568 C131.576,422.816 130.536,423.726 128.612,423.726 C126.896,423.726 125.31,422.894 124.478,421.932 L123.464,423.336 C124.738,424.688 126.48,425.312 128.534,425.312 L128.534,425.312 Z M32.398,472 L32.398,467.23 L35.728,467.23 C38.104,467.23 39.49,465.574 39.49,463.612 C39.49,461.65 38.14,459.994 35.728,459.994 L30.904,459.994 L30.904,472 L32.398,472 Z M35.548,465.898 L32.398,465.898 L32.398,461.326 L35.548,461.326 C36.97,461.326 37.942,462.262 37.942,463.612 C37.942,464.962 36.97,465.898 35.548,465.898 L35.548,465.898 Z M48.202,472 L48.202,466.024 C48.202,463.918 46.672,463.09 44.836,463.09 C43.414,463.09 42.298,463.558 41.362,464.53 L41.992,465.466 C42.766,464.638 43.612,464.26 44.656,464.26 C45.916,464.26 46.852,464.926 46.852,466.096 L46.852,467.662 C46.15,466.852 45.16,466.474 43.972,466.474 C42.496,466.474 40.93,467.392 40.93,469.336 C40.93,471.226 42.496,472.216 43.972,472.216 C45.142,472.216 46.132,471.802 46.852,471.01 L46.852,472 L48.202,472 Z M44.458,471.244 C43.198,471.244 42.316,470.452 42.316,469.354 C42.316,468.238 43.198,467.446 44.458,467.446 C45.412,467.446 46.33,467.806 46.852,468.526 L46.852,470.164 C46.33,470.884 45.412,471.244 44.458,471.244 L44.458,471.244 Z M53.656,472.216 C55.906,472.216 57.076,471.046 57.076,469.588 C57.076,466.204 51.694,467.464 51.694,465.556 C51.694,464.782 52.432,464.188 53.62,464.188 C54.736,464.188 55.69,464.656 56.212,465.286 L56.842,464.35 C56.14,463.648 55.096,463.09 53.62,463.09 C51.55,463.09 50.38,464.242 50.38,465.592 C50.38,468.814 55.762,467.518 55.762,469.624 C55.762,470.488 55.042,471.118 53.71,471.118 C52.522,471.118 51.424,470.542 50.848,469.876 L50.146,470.848 C51.028,471.784 52.234,472.216 53.656,472.216 L53.656,472.216 Z M71.566,472 L71.566,459.994 L70.216,459.994 L70.216,464.62 C69.514,463.666 68.452,463.09 67.282,463.09 C64.996,463.09 63.412,464.89 63.412,467.662 C63.412,470.488 65.014,472.216 67.282,472.216 C68.506,472.216 69.568,471.586 70.216,470.704 L70.216,472 L71.566,472 Z M67.606,471.01 C65.86,471.01 64.816,469.588 64.816,467.662 C64.816,465.736 65.86,464.296 67.606,464.296 C68.686,464.296 69.73,464.944 70.216,465.7 L70.216,469.642 C69.73,470.398 68.686,471.01 67.606,471.01 L67.606,471.01 Z M78.19,472.216 C79.612,472.216 80.782,471.748 81.646,470.884 L80.998,470.002 C80.314,470.704 79.306,471.1 78.316,471.1 C76.444,471.1 75.292,469.732 75.184,468.094 L82.222,468.094 L82.222,467.752 C82.222,465.142 80.674,463.09 78.046,463.09 C75.562,463.09 73.762,465.124 73.762,467.644 C73.762,470.362 75.616,472.216 78.19,472.216 L78.19,472.216 Z M80.89,467.104 L75.184,467.104 C75.256,465.772 76.174,464.206 78.028,464.206 C80.008,464.206 80.872,465.808 80.89,467.104 L80.89,467.104 Z M91.798,472.216 C94.048,472.216 95.218,471.046 95.218,469.588 C95.218,466.204 89.836,467.464 89.836,465.556 C89.836,464.782 90.574,464.188 91.762,464.188 C92.878,464.188 93.832,464.656 94.354,465.286 L94.984,464.35 C94.282,463.648 93.238,463.09 91.762,463.09 C89.692,463.09 88.522,464.242 88.522,465.592 C88.522,468.814 93.904,467.518 93.904,469.624 C93.904,470.488 93.184,471.118 91.852,471.118 C90.664,471.118 89.566,470.542 88.99,469.876 L88.288,470.848 C89.17,471.784 90.376,472.216 91.798,472.216 L91.798,472.216 Z M104.632,472 L104.632,463.306 L103.282,463.306 L103.282,469.696 C102.778,470.398 101.77,471.01 100.708,471.01 C99.538,471.01 98.764,470.56 98.764,469.03 L98.764,463.306 L97.414,463.306 L97.414,469.444 C97.414,471.334 98.368,472.216 100.186,472.216 C101.482,472.216 102.616,471.532 103.282,470.776 L103.282,472 L104.632,472 Z M111.616,472.216 C113.902,472.216 115.486,470.452 115.486,467.644 C115.486,464.818 113.902,463.09 111.616,463.09 C110.392,463.09 109.312,463.72 108.682,464.602 L108.682,463.306 L107.332,463.306 L107.332,475.312 L108.682,475.312 L108.682,470.686 C109.384,471.658 110.428,472.216 111.616,472.216 L111.616,472.216 Z M111.274,471.01 C110.212,471.01 109.15,470.362 108.682,469.606 L108.682,465.682 C109.15,464.926 110.212,464.296 111.274,464.296 C113.02,464.296 114.064,465.718 114.064,467.644 C114.064,469.57 113.02,471.01 111.274,471.01 L111.274,471.01 Z M121.912,472.216 C124.198,472.216 125.782,470.452 125.782,467.644 C125.782,464.818 124.198,463.09 121.912,463.09 C120.688,463.09 119.608,463.72 118.978,464.602 L118.978,463.306 L117.628,463.306 L117.628,475.312 L118.978,475.312 L118.978,470.686 C119.68,471.658 120.724,472.216 121.912,472.216 L121.912,472.216 Z M121.57,471.01 C120.508,471.01 119.446,470.362 118.978,469.606 L118.978,465.682 C119.446,464.926 120.508,464.296 121.57,464.296 C123.316,464.296 124.36,465.718 124.36,467.644 C124.36,469.57 123.316,471.01 121.57,471.01 L121.57,471.01 Z M129.274,472 L129.274,459.994 L127.924,459.994 L127.924,472 L129.274,472 Z M138.796,459.4 L137.392,459.4 L134.728,461.992 L135.754,461.992 L138.796,459.4 Z M135.898,472.216 C137.32,472.216 138.49,471.748 139.354,470.884 L138.706,470.002 C138.022,470.704 137.014,471.1 136.024,471.1 C134.152,471.1 133,469.732 132.892,468.094 L139.93,468.094 L139.93,467.752 C139.93,465.142 138.382,463.09 135.754,463.09 C133.27,463.09 131.47,465.124 131.47,467.644 C131.47,470.362 133.324,472.216 135.898,472.216 L135.898,472.216 Z M138.598,467.104 L132.892,467.104 C132.964,465.772 133.882,464.206 135.736,464.206 C137.716,464.206 138.58,465.808 138.598,467.104 L138.598,467.104 Z M153.952,472 L153.952,465.718 C153.952,463.972 153.106,463.09 151.522,463.09 C150.262,463.09 149.092,463.918 148.606,464.71 C148.354,463.81 147.598,463.09 146.266,463.09 C144.988,463.09 143.818,464.008 143.458,464.566 L143.458,463.306 L142.108,463.306 L142.108,472 L143.458,472 L143.458,465.646 C143.926,464.944 144.862,464.296 145.744,464.296 C146.878,464.296 147.346,464.998 147.346,466.096 L147.346,472 L148.696,472 L148.696,465.628 C149.146,464.944 150.1,464.296 151,464.296 C152.116,464.296 152.602,464.998 152.602,466.096 L152.602,472 L153.952,472 Z M160.576,472.216 C161.998,472.216 163.168,471.748 164.032,470.884 L163.384,470.002 C162.7,470.704 161.692,471.1 160.702,471.1 C158.83,471.1 157.678,469.732 157.57,468.094 L164.608,468.094 L164.608,467.752 C164.608,465.142 163.06,463.09 160.432,463.09 C157.948,463.09 156.148,465.124 156.148,467.644 C156.148,470.362 158.002,472.216 160.576,472.216 L160.576,472.216 Z M163.276,467.104 L157.57,467.104 C157.642,465.772 158.56,464.206 160.414,464.206 C162.394,464.206 163.258,465.808 163.276,467.104 L163.276,467.104 Z M174.004,472 L174.004,465.898 C174.004,464.008 173.05,463.09 171.232,463.09 C169.936,463.09 168.748,463.846 168.136,464.566 L168.136,463.306 L166.786,463.306 L166.786,472 L168.136,472 L168.136,465.646 C168.64,464.944 169.648,464.296 170.71,464.296 C171.88,464.296 172.654,464.782 172.654,466.312 L172.654,472 L174.004,472 Z M178.9,472.216 C179.692,472.216 180.178,471.982 180.52,471.658 L180.124,470.65 C179.944,470.848 179.584,471.01 179.206,471.01 C178.612,471.01 178.324,470.542 178.324,469.894 L178.324,464.494 L180.088,464.494 L180.088,463.306 L178.324,463.306 L178.324,460.93 L176.974,460.93 L176.974,463.306 L175.534,463.306 L175.534,464.494 L176.974,464.494 L176.974,470.182 C176.974,471.478 177.622,472.216 178.9,472.216 L178.9,472.216 Z" id="Bruxelles-›-Liège" fill="#FFFFFF" sketch:type="MSShapeGroup"></path>
            <path d="M379.642,622 L379.642,614.902 L383.59,614.902 L383.59,611.836 L379.642,611.836 L379.642,593.986 L374.854,593.986 L362.842,612.004 L362.842,614.902 L376.156,614.902 L376.156,622 L379.642,622 Z M376.156,611.836 L366.328,611.836 L376.156,597.22 L376.156,611.836 Z M397.576,622.504 C403.204,622.504 407.53,618.976 407.53,613.264 C407.53,607.51 403.288,604.318 398.626,604.318 C395.812,604.318 393.418,605.494 392.074,606.838 L392.074,597.094 L405.724,597.094 L405.724,593.986 L388.588,593.986 L388.588,609.106 L391.15,609.988 C393.04,608.14 395.14,607.342 397.618,607.342 C401.398,607.342 404.044,609.694 404.044,613.39 C404.044,616.792 401.398,619.396 397.576,619.396 C394.132,619.396 391.696,618.052 389.848,615.7 L387.706,618.01 C389.806,620.782 392.83,622.504 397.576,622.504 L397.576,622.504 Z M417.106,620.992 C417.106,618.976 415.846,617.8 414.46,617.8 C413.2,617.8 412.234,618.85 412.234,620.068 C412.234,621.328 413.074,622.21 414.25,622.21 C414.46,622.21 414.754,622.168 414.838,622.126 C414.67,623.512 413.452,625.15 412.108,626.032 L413.662,627.334 C415.594,625.948 417.106,623.554 417.106,620.992 L417.106,620.992 Z M430.714,613.222 L430.714,610.45 L420.634,610.45 L420.634,613.222 L430.714,613.222 Z M460.24,622.504 C465.196,622.504 468.556,620.152 470.908,616.96 L467.926,615.322 C466.33,617.716 463.432,619.396 460.24,619.396 C455.452,619.396 451.546,616.498 450.076,612.046 L462.802,612.046 L462.802,609.862 L449.572,609.862 C449.488,609.274 449.446,608.644 449.446,608.014 C449.446,607.342 449.488,606.712 449.572,606.082 L462.802,606.082 L462.802,603.898 L450.076,603.898 C451.588,599.488 455.452,596.632 460.24,596.632 C463.432,596.632 466.33,598.354 467.926,600.706 L470.866,599.068 C468.64,595.918 465.196,593.524 460.24,593.524 C453.52,593.524 448.018,597.598 446.338,603.898 L444.112,603.898 L444.112,606.082 L445.918,606.082 C445.876,606.712 445.834,607.384 445.834,608.014 C445.834,608.644 445.876,609.274 445.918,609.862 L444.112,609.862 L444.112,612.046 L446.338,612.046 C447.976,618.43 453.478,622.504 460.24,622.504 L460.24,622.504 Z" id="45,--€" fill="#FFFFFF" sketch:type="MSShapeGroup"></path>
            <path d="M545.296,206 L545.296,196.46 L551.956,196.46 C556.708,196.46 559.48,193.148 559.48,189.224 C559.48,185.3 556.78,181.988 551.956,181.988 L542.308,181.988 L542.308,206 L545.296,206 Z M551.596,193.796 L545.296,193.796 L545.296,184.652 L551.596,184.652 C554.44,184.652 556.384,186.524 556.384,189.224 C556.384,191.924 554.44,193.796 551.596,193.796 L551.596,193.796 Z M576.904,206 L576.904,194.048 C576.904,189.836 573.844,188.18 570.172,188.18 C567.328,188.18 565.096,189.116 563.224,191.06 L564.484,192.932 C566.032,191.276 567.724,190.52 569.812,190.52 C572.332,190.52 574.204,191.852 574.204,194.192 L574.204,197.324 C572.8,195.704 570.82,194.948 568.444,194.948 C565.492,194.948 562.36,196.784 562.36,200.672 C562.36,204.452 565.492,206.432 568.444,206.432 C570.784,206.432 572.764,205.604 574.204,204.02 L574.204,206 L576.904,206 Z M569.416,204.488 C566.896,204.488 565.132,202.904 565.132,200.708 C565.132,198.476 566.896,196.892 569.416,196.892 C571.324,196.892 573.16,197.612 574.204,199.052 L574.204,202.328 C573.16,203.768 571.324,204.488 569.416,204.488 L569.416,204.488 Z M581.332,212.804 C581.836,212.948 582.736,213.056 583.312,213.056 C585.616,213.02 587.38,212.048 588.424,209.528 L597.136,188.612 L594.184,188.612 L588.424,202.868 L582.628,188.612 L579.712,188.612 L586.984,206.18 L585.832,208.808 C585.22,210.248 584.428,210.644 583.24,210.644 C582.808,210.644 582.16,210.536 581.764,210.356 L581.332,212.804 Z M607.792,206.432 C610.636,206.432 612.976,205.496 614.704,203.768 L613.408,202.004 C612.04,203.408 610.024,204.2 608.044,204.2 C604.3,204.2 601.996,201.464 601.78,198.188 L615.856,198.188 L615.856,197.504 C615.856,192.284 612.76,188.18 607.504,188.18 C602.536,188.18 598.936,192.248 598.936,197.288 C598.936,202.724 602.644,206.432 607.792,206.432 L607.792,206.432 Z M613.192,196.208 L601.78,196.208 C601.924,193.544 603.76,190.412 607.468,190.412 C611.428,190.412 613.156,193.616 613.192,196.208 L613.192,196.208 Z M622.912,206 L622.912,193.688 C623.704,192.284 625.972,190.916 627.628,190.916 C628.06,190.916 628.384,190.952 628.708,191.024 L628.708,188.252 C626.332,188.252 624.316,189.584 622.912,191.42 L622.912,188.612 L620.212,188.612 L620.212,206 L622.912,206 Z" id="Payer" fill="#FFFFFF" sketch:type="MSShapeGroup"></path>
            <path d="M575.686,288 L575.686,281.11 L580.496,281.11 C583.928,281.11 585.93,278.718 585.93,275.884 C585.93,273.05 583.98,270.658 580.496,270.658 L573.528,270.658 L573.528,288 L575.686,288 Z M580.236,279.186 L575.686,279.186 L575.686,272.582 L580.236,272.582 C582.29,272.582 583.694,273.934 583.694,275.884 C583.694,277.834 582.29,279.186 580.236,279.186 L580.236,279.186 Z M598.514,288 L598.514,279.368 C598.514,276.326 596.304,275.13 593.652,275.13 C591.598,275.13 589.986,275.806 588.634,277.21 L589.544,278.562 C590.662,277.366 591.884,276.82 593.392,276.82 C595.212,276.82 596.564,277.782 596.564,279.472 L596.564,281.734 C595.55,280.564 594.12,280.018 592.404,280.018 C590.272,280.018 588.01,281.344 588.01,284.152 C588.01,286.882 590.272,288.312 592.404,288.312 C594.094,288.312 595.524,287.714 596.564,286.57 L596.564,288 L598.514,288 Z M593.106,286.908 C591.286,286.908 590.012,285.764 590.012,284.178 C590.012,282.566 591.286,281.422 593.106,281.422 C594.484,281.422 595.81,281.942 596.564,282.982 L596.564,285.348 C595.81,286.388 594.484,286.908 593.106,286.908 L593.106,286.908 Z M604.364,288 L604.364,279.108 C604.936,278.094 606.574,277.106 607.77,277.106 C608.082,277.106 608.316,277.132 608.55,277.184 L608.55,275.182 C606.834,275.182 605.378,276.144 604.364,277.47 L604.364,275.442 L602.414,275.442 L602.414,288 L604.364,288 Z M623.24,288.312 C625.528,288.312 626.88,287.376 627.842,286.128 L626.542,284.932 C625.71,286.05 624.644,286.57 623.344,286.57 C620.666,286.57 619.002,284.49 619.002,281.708 C619.002,278.926 620.666,276.872 623.344,276.872 C624.644,276.872 625.71,277.366 626.542,278.51 L627.842,277.314 C626.88,276.066 625.528,275.13 623.24,275.13 C619.496,275.13 616.974,277.99 616.974,281.708 C616.974,285.452 619.496,288.312 623.24,288.312 L623.24,288.312 Z M640.374,288 L640.374,279.368 C640.374,276.326 638.164,275.13 635.512,275.13 C633.458,275.13 631.846,275.806 630.494,277.21 L631.404,278.562 C632.522,277.366 633.744,276.82 635.252,276.82 C637.072,276.82 638.424,277.782 638.424,279.472 L638.424,281.734 C637.41,280.564 635.98,280.018 634.264,280.018 C632.132,280.018 629.87,281.344 629.87,284.152 C629.87,286.882 632.132,288.312 634.264,288.312 C635.954,288.312 637.384,287.714 638.424,286.57 L638.424,288 L640.374,288 Z M634.966,286.908 C633.146,286.908 631.872,285.764 631.872,284.178 C631.872,282.566 633.146,281.422 634.966,281.422 C636.344,281.422 637.67,281.942 638.424,282.982 L638.424,285.348 C637.67,286.388 636.344,286.908 634.966,286.908 L634.966,286.908 Z M646.224,288 L646.224,279.108 C646.796,278.094 648.434,277.106 649.63,277.106 C649.942,277.106 650.176,277.132 650.41,277.184 L650.41,275.182 C648.694,275.182 647.238,276.144 646.224,277.47 L646.224,275.442 L644.274,275.442 L644.274,288 L646.224,288 Z M656.026,288.312 C657.17,288.312 657.872,287.974 658.366,287.506 L657.794,286.05 C657.534,286.336 657.014,286.57 656.468,286.57 C655.61,286.57 655.194,285.894 655.194,284.958 L655.194,277.158 L657.742,277.158 L657.742,275.442 L655.194,275.442 L655.194,272.01 L653.244,272.01 L653.244,275.442 L651.164,275.442 L651.164,277.158 L653.244,277.158 L653.244,285.374 C653.244,287.246 654.18,288.312 656.026,288.312 L656.026,288.312 Z M666.166,288.312 C668.22,288.312 669.91,287.636 671.158,286.388 L670.222,285.114 C669.234,286.128 667.778,286.7 666.348,286.7 C663.644,286.7 661.98,284.724 661.824,282.358 L671.99,282.358 L671.99,281.864 C671.99,278.094 669.754,275.13 665.958,275.13 C662.37,275.13 659.77,278.068 659.77,281.708 C659.77,285.634 662.448,288.312 666.166,288.312 L666.166,288.312 Z M670.066,280.928 L661.824,280.928 C661.928,279.004 663.254,276.742 665.932,276.742 C668.792,276.742 670.04,279.056 670.066,280.928 L670.066,280.928 Z M578.376,313 C580.572,313 581.85,311.686 581.85,309.76 C581.85,308.32 580.788,307.006 579.51,306.808 C580.608,306.574 581.616,305.566 581.616,304.054 C581.616,302.254 580.338,300.994 578.25,300.994 L572.904,300.994 L572.904,313 L578.376,313 Z M577.998,306.196 L574.398,306.196 L574.398,302.326 L577.998,302.326 C579.348,302.326 580.068,303.19 580.068,304.27 C580.068,305.368 579.348,306.196 577.998,306.196 L577.998,306.196 Z M578.07,311.668 L574.398,311.668 L574.398,307.528 L578.07,307.528 C579.546,307.528 580.302,308.5 580.302,309.598 C580.302,310.876 579.474,311.668 578.07,311.668 L578.07,311.668 Z M590.958,313 L590.958,307.024 C590.958,304.918 589.428,304.09 587.592,304.09 C586.17,304.09 585.054,304.558 584.118,305.53 L584.748,306.466 C585.522,305.638 586.368,305.26 587.412,305.26 C588.672,305.26 589.608,305.926 589.608,307.096 L589.608,308.662 C588.906,307.852 587.916,307.474 586.728,307.474 C585.252,307.474 583.686,308.392 583.686,310.336 C583.686,312.226 585.252,313.216 586.728,313.216 C587.898,313.216 588.888,312.802 589.608,312.01 L589.608,313 L590.958,313 Z M587.214,312.244 C585.954,312.244 585.072,311.452 585.072,310.354 C585.072,309.238 585.954,308.446 587.214,308.446 C588.168,308.446 589.086,308.806 589.608,309.526 L589.608,311.164 C589.086,311.884 588.168,312.244 587.214,312.244 L587.214,312.244 Z M600.876,313 L600.876,306.898 C600.876,305.008 599.922,304.09 598.104,304.09 C596.808,304.09 595.62,304.846 595.008,305.566 L595.008,304.306 L593.658,304.306 L593.658,313 L595.008,313 L595.008,306.646 C595.512,305.944 596.52,305.296 597.582,305.296 C598.752,305.296 599.526,305.782 599.526,307.312 L599.526,313 L600.876,313 Z M607.41,313.216 C608.994,313.216 609.93,312.568 610.596,311.704 L609.696,310.876 C609.12,311.65 608.382,312.01 607.482,312.01 C605.628,312.01 604.476,310.57 604.476,308.644 C604.476,306.718 605.628,305.296 607.482,305.296 C608.382,305.296 609.12,305.638 609.696,306.43 L610.596,305.602 C609.93,304.738 608.994,304.09 607.41,304.09 C604.818,304.09 603.072,306.07 603.072,308.644 C603.072,311.236 604.818,313.216 607.41,313.216 L607.41,313.216 Z M616.284,313.216 C618.93,313.216 620.586,311.164 620.586,308.644 C620.586,306.124 618.93,304.09 616.284,304.09 C613.638,304.09 611.982,306.124 611.982,308.644 C611.982,311.164 613.638,313.216 616.284,313.216 L616.284,313.216 Z M616.284,312.01 C614.43,312.01 613.386,310.426 613.386,308.644 C613.386,306.88 614.43,305.296 616.284,305.296 C618.138,305.296 619.164,306.88 619.164,308.644 C619.164,310.426 618.138,312.01 616.284,312.01 L616.284,312.01 Z M630,313 L630,306.898 C630,305.008 629.046,304.09 627.228,304.09 C625.932,304.09 624.744,304.846 624.132,305.566 L624.132,304.306 L622.782,304.306 L622.782,313 L624.132,313 L624.132,306.646 C624.636,305.944 625.644,305.296 626.706,305.296 C627.876,305.296 628.65,305.782 628.65,307.312 L628.65,313 L630,313 Z M634.896,313.216 C635.688,313.216 636.174,312.982 636.516,312.658 L636.12,311.65 C635.94,311.848 635.58,312.01 635.202,312.01 C634.608,312.01 634.32,311.542 634.32,310.894 L634.32,305.494 L636.084,305.494 L636.084,304.306 L634.32,304.306 L634.32,301.93 L632.97,301.93 L632.97,304.306 L631.53,304.306 L631.53,305.494 L632.97,305.494 L632.97,311.182 C632.97,312.478 633.618,313.216 634.896,313.216 L634.896,313.216 Z M644.778,313 L644.778,307.024 C644.778,304.918 643.248,304.09 641.412,304.09 C639.99,304.09 638.874,304.558 637.938,305.53 L638.568,306.466 C639.342,305.638 640.188,305.26 641.232,305.26 C642.492,305.26 643.428,305.926 643.428,307.096 L643.428,308.662 C642.726,307.852 641.736,307.474 640.548,307.474 C639.072,307.474 637.506,308.392 637.506,310.336 C637.506,312.226 639.072,313.216 640.548,313.216 C641.718,313.216 642.708,312.802 643.428,312.01 L643.428,313 L644.778,313 Z M641.034,312.244 C639.774,312.244 638.892,311.452 638.892,310.354 C638.892,309.238 639.774,308.446 641.034,308.446 C641.988,308.446 642.906,308.806 643.428,309.526 L643.428,311.164 C642.906,311.884 641.988,312.244 641.034,312.244 L641.034,312.244 Z M651.312,313.216 C652.896,313.216 653.832,312.568 654.498,311.704 L653.598,310.876 C653.022,311.65 652.284,312.01 651.384,312.01 C649.53,312.01 648.378,310.57 648.378,308.644 C648.378,306.718 649.53,305.296 651.384,305.296 C652.284,305.296 653.022,305.638 653.598,306.43 L654.498,305.602 C653.832,304.738 652.896,304.09 651.312,304.09 C648.72,304.09 646.974,306.07 646.974,308.644 C646.974,311.236 648.72,313.216 651.312,313.216 L651.312,313.216 Z M658.584,313.216 C659.376,313.216 659.862,312.982 660.204,312.658 L659.808,311.65 C659.628,311.848 659.268,312.01 658.89,312.01 C658.296,312.01 658.008,311.542 658.008,310.894 L658.008,305.494 L659.772,305.494 L659.772,304.306 L658.008,304.306 L658.008,301.93 L656.658,301.93 L656.658,304.306 L655.218,304.306 L655.218,305.494 L656.658,305.494 L656.658,311.182 C656.658,312.478 657.306,313.216 658.584,313.216 L658.584,313.216 Z M663.498,312.568 C663.498,311.704 662.958,311.2 662.364,311.2 C661.824,311.2 661.41,311.65 661.41,312.172 C661.41,312.712 661.77,313.09 662.274,313.09 C662.364,313.09 662.49,313.072 662.526,313.054 C662.454,313.648 661.932,314.35 661.356,314.728 L662.022,315.286 C662.85,314.692 663.498,313.666 663.498,312.568 L663.498,312.568 Z M682.272,313 L682.272,300.994 L680.13,300.994 L676.386,310.03 L672.66,300.994 L670.518,300.994 L670.518,313 L672.012,313 L672.012,303.118 L676.08,313 L676.692,313 L680.778,303.118 L680.778,313 L682.272,313 Z M691.812,313 L691.812,307.024 C691.812,304.918 690.282,304.09 688.446,304.09 C687.024,304.09 685.908,304.558 684.972,305.53 L685.602,306.466 C686.376,305.638 687.222,305.26 688.266,305.26 C689.526,305.26 690.462,305.926 690.462,307.096 L690.462,308.662 C689.76,307.852 688.77,307.474 687.582,307.474 C686.106,307.474 684.54,308.392 684.54,310.336 C684.54,312.226 686.106,313.216 687.582,313.216 C688.752,313.216 689.742,312.802 690.462,312.01 L690.462,313 L691.812,313 Z M688.068,312.244 C686.808,312.244 685.926,311.452 685.926,310.354 C685.926,309.238 686.808,308.446 688.068,308.446 C689.022,308.446 689.94,308.806 690.462,309.526 L690.462,311.164 C689.94,311.884 689.022,312.244 688.068,312.244 L688.068,312.244 Z M697.266,313.216 C699.516,313.216 700.686,312.046 700.686,310.588 C700.686,307.204 695.304,308.464 695.304,306.556 C695.304,305.782 696.042,305.188 697.23,305.188 C698.346,305.188 699.3,305.656 699.822,306.286 L700.452,305.35 C699.75,304.648 698.706,304.09 697.23,304.09 C695.16,304.09 693.99,305.242 693.99,306.592 C693.99,309.814 699.372,308.518 699.372,310.624 C699.372,311.488 698.652,312.118 697.32,312.118 C696.132,312.118 695.034,311.542 694.458,310.876 L693.756,311.848 C694.638,312.784 695.844,313.216 697.266,313.216 L697.266,313.216 Z M705.078,313.216 C705.87,313.216 706.356,312.982 706.698,312.658 L706.302,311.65 C706.122,311.848 705.762,312.01 705.384,312.01 C704.79,312.01 704.502,311.542 704.502,310.894 L704.502,305.494 L706.266,305.494 L706.266,304.306 L704.502,304.306 L704.502,301.93 L703.152,301.93 L703.152,304.306 L701.712,304.306 L701.712,305.494 L703.152,305.494 L703.152,311.182 C703.152,312.478 703.8,313.216 705.078,313.216 L705.078,313.216 Z M712.098,313.216 C713.52,313.216 714.69,312.748 715.554,311.884 L714.906,311.002 C714.222,311.704 713.214,312.1 712.224,312.1 C710.352,312.1 709.2,310.732 709.092,309.094 L716.13,309.094 L716.13,308.752 C716.13,306.142 714.582,304.09 711.954,304.09 C709.47,304.09 707.67,306.124 707.67,308.644 C707.67,311.362 709.524,313.216 712.098,313.216 L712.098,313.216 Z M714.798,308.104 L709.092,308.104 C709.164,306.772 710.082,305.206 711.936,305.206 C713.916,305.206 714.78,306.808 714.798,308.104 L714.798,308.104 Z M719.658,313 L719.658,306.844 C720.054,306.142 721.188,305.458 722.016,305.458 C722.232,305.458 722.394,305.476 722.556,305.512 L722.556,304.126 C721.368,304.126 720.36,304.792 719.658,305.71 L719.658,304.306 L718.308,304.306 L718.308,313 L719.658,313 Z M728.082,313.216 C729.666,313.216 730.602,312.568 731.268,311.704 L730.368,310.876 C729.792,311.65 729.054,312.01 728.154,312.01 C726.3,312.01 725.148,310.57 725.148,308.644 C725.148,306.718 726.3,305.296 728.154,305.296 C729.054,305.296 729.792,305.638 730.368,306.43 L731.268,305.602 C730.602,304.738 729.666,304.09 728.082,304.09 C725.49,304.09 723.744,306.07 723.744,308.644 C723.744,311.236 725.49,313.216 728.082,313.216 L728.082,313.216 Z M739.944,313 L739.944,307.024 C739.944,304.918 738.414,304.09 736.578,304.09 C735.156,304.09 734.04,304.558 733.104,305.53 L733.734,306.466 C734.508,305.638 735.354,305.26 736.398,305.26 C737.658,305.26 738.594,305.926 738.594,307.096 L738.594,308.662 C737.892,307.852 736.902,307.474 735.714,307.474 C734.238,307.474 732.672,308.392 732.672,310.336 C732.672,312.226 734.238,313.216 735.714,313.216 C736.884,313.216 737.874,312.802 738.594,312.01 L738.594,313 L739.944,313 Z M736.2,312.244 C734.94,312.244 734.058,311.452 734.058,310.354 C734.058,309.238 734.94,308.446 736.2,308.446 C737.154,308.446 738.072,308.806 738.594,309.526 L738.594,311.164 C738.072,311.884 737.154,312.244 736.2,312.244 L736.2,312.244 Z M743.994,313 L743.994,306.844 C744.39,306.142 745.524,305.458 746.352,305.458 C746.568,305.458 746.73,305.476 746.892,305.512 L746.892,304.126 C745.704,304.126 744.696,304.792 743.994,305.71 L743.994,304.306 L742.644,304.306 L742.644,313 L743.994,313 Z M756.234,313 L756.234,300.994 L754.884,300.994 L754.884,305.62 C754.182,304.666 753.12,304.09 751.95,304.09 C749.664,304.09 748.08,305.89 748.08,308.662 C748.08,311.488 749.682,313.216 751.95,313.216 C753.174,313.216 754.236,312.586 754.884,311.704 L754.884,313 L756.234,313 Z M752.274,312.01 C750.528,312.01 749.484,310.588 749.484,308.662 C749.484,306.736 750.528,305.296 752.274,305.296 C753.354,305.296 754.398,305.944 754.884,306.7 L754.884,310.642 C754.398,311.398 753.354,312.01 752.274,312.01 L752.274,312.01 Z M760.752,312.568 C760.752,311.704 760.212,311.2 759.618,311.2 C759.078,311.2 758.664,311.65 758.664,312.172 C758.664,312.712 759.024,313.09 759.528,313.09 C759.618,313.09 759.744,313.072 759.78,313.054 C759.708,313.648 759.186,314.35 758.61,314.728 L759.276,315.286 C760.104,314.692 760.752,313.666 760.752,312.568 L760.752,312.568 Z M773.208,313 L778.05,300.994 L776.34,300.994 L772.29,311.362 L768.24,300.994 L766.53,300.994 L771.354,313 L773.208,313 Z M781.11,313 L781.11,300.994 L779.616,300.994 L779.616,313 L781.11,313 Z M787.806,313.216 C791.046,313.216 792.234,311.434 792.234,309.688 C792.234,305.206 785.124,306.754 785.124,304.054 C785.124,302.92 786.15,302.146 787.59,302.146 C788.904,302.146 790.164,302.596 791.064,303.586 L791.964,302.488 C790.956,301.426 789.534,300.814 787.698,300.814 C785.34,300.814 783.576,302.164 783.576,304.144 C783.576,308.428 790.686,306.718 790.686,309.814 C790.686,310.732 790.002,311.884 787.86,311.884 C786.168,311.884 784.872,311.056 784.08,310.174 L783.198,311.308 C784.188,312.424 785.718,313.216 787.806,313.216 L787.806,313.216 Z M804.744,313 L799.902,300.994 L798.048,300.994 L793.224,313 L794.934,313 L795.996,310.336 L801.972,310.336 L803.034,313 L804.744,313 Z M801.522,309.004 L796.428,309.004 L798.984,302.542 L801.522,309.004 Z" id="Par-carte" fill="#FFFFFF" sketch:type="MSShapeGroup"></path>
            <path d="M584.89,428 L584.89,426.076 L575.686,426.076 L575.686,420.096 L584.708,420.096 L584.708,418.172 L575.686,418.172 L575.686,412.582 L584.89,412.582 L584.89,410.658 L573.528,410.658 L573.528,428 L584.89,428 Z M598.67,428 L598.67,419.186 C598.67,416.456 597.292,415.13 594.666,415.13 C592.794,415.13 591.078,416.222 590.194,417.262 L590.194,415.442 L588.244,415.442 L588.244,428 L590.194,428 L590.194,418.822 C590.922,417.808 592.378,416.872 593.912,416.872 C595.602,416.872 596.72,417.574 596.72,419.784 L596.72,428 L598.67,428 Z M614.946,428.312 C617,428.312 618.69,427.636 619.938,426.388 L619.002,425.114 C618.014,426.128 616.558,426.7 615.128,426.7 C612.424,426.7 610.76,424.724 610.604,422.358 L620.77,422.358 L620.77,421.864 C620.77,418.094 618.534,415.13 614.738,415.13 C611.15,415.13 608.55,418.068 608.55,421.708 C608.55,425.634 611.228,428.312 614.946,428.312 L614.946,428.312 Z M618.846,420.928 L610.604,420.928 C610.708,419.004 612.034,416.742 614.712,416.742 C617.572,416.742 618.82,419.056 618.846,420.928 L618.846,420.928 Z M627.894,428.312 C631.144,428.312 632.834,426.622 632.834,424.516 C632.834,419.628 625.06,421.448 625.06,418.692 C625.06,417.574 626.126,416.716 627.842,416.716 C629.454,416.716 630.832,417.392 631.586,418.302 L632.496,416.95 C631.482,415.936 629.974,415.13 627.842,415.13 C624.852,415.13 623.162,416.794 623.162,418.744 C623.162,423.398 630.936,421.526 630.936,424.568 C630.936,425.816 629.896,426.726 627.972,426.726 C626.256,426.726 624.67,425.894 623.838,424.932 L622.824,426.336 C624.098,427.688 625.84,428.312 627.894,428.312 L627.894,428.312 Z M642.194,428.312 C645.496,428.312 647.784,425.764 647.784,421.708 C647.784,417.626 645.496,415.13 642.194,415.13 C640.426,415.13 638.866,416.04 637.956,417.314 L637.956,415.442 L636.006,415.442 L636.006,432.784 L637.956,432.784 L637.956,426.102 C638.97,427.506 640.478,428.312 642.194,428.312 L642.194,428.312 Z M641.7,426.57 C640.166,426.57 638.632,425.634 637.956,424.542 L637.956,418.874 C638.632,417.782 640.166,416.872 641.7,416.872 C644.222,416.872 645.73,418.926 645.73,421.708 C645.73,424.49 644.222,426.57 641.7,426.57 L641.7,426.57 Z M656.546,428.312 C658.6,428.312 660.29,427.636 661.538,426.388 L660.602,425.114 C659.614,426.128 658.158,426.7 656.728,426.7 C654.024,426.7 652.36,424.724 652.204,422.358 L662.37,422.358 L662.37,421.864 C662.37,418.094 660.134,415.13 656.338,415.13 C652.75,415.13 650.15,418.068 650.15,421.708 C650.15,425.634 652.828,428.312 656.546,428.312 L656.546,428.312 Z M660.446,420.928 L652.204,420.928 C652.308,419.004 653.634,416.742 656.312,416.742 C659.172,416.742 660.42,419.056 660.446,420.928 L660.446,420.928 Z M657.82,413.544 L653.972,409.8 L651.944,409.8 L656.338,413.544 L657.82,413.544 Z M671.054,428.312 C673.342,428.312 674.694,427.376 675.656,426.128 L674.356,424.932 C673.524,426.05 672.458,426.57 671.158,426.57 C668.48,426.57 666.816,424.49 666.816,421.708 C666.816,418.926 668.48,416.872 671.158,416.872 C672.458,416.872 673.524,417.366 674.356,418.51 L675.656,417.314 C674.694,416.066 673.342,415.13 671.054,415.13 C667.31,415.13 664.788,417.99 664.788,421.708 C664.788,425.452 667.31,428.312 671.054,428.312 L671.054,428.312 Z M684.054,428.312 C686.108,428.312 687.798,427.636 689.046,426.388 L688.11,425.114 C687.122,426.128 685.666,426.7 684.236,426.7 C681.532,426.7 679.868,424.724 679.712,422.358 L689.878,422.358 L689.878,421.864 C689.878,418.094 687.642,415.13 683.846,415.13 C680.258,415.13 677.658,418.068 677.658,421.708 C677.658,425.634 680.336,428.312 684.054,428.312 L684.054,428.312 Z M687.954,420.928 L679.712,420.928 C679.816,419.004 681.142,416.742 683.82,416.742 C686.68,416.742 687.928,419.056 687.954,420.928 L687.954,420.928 Z M574.398,453 L574.398,448.23 L577.728,448.23 C580.104,448.23 581.49,446.574 581.49,444.612 C581.49,442.65 580.14,440.994 577.728,440.994 L572.904,440.994 L572.904,453 L574.398,453 Z M577.548,446.898 L574.398,446.898 L574.398,442.326 L577.548,442.326 C578.97,442.326 579.942,443.262 579.942,444.612 C579.942,445.962 578.97,446.898 577.548,446.898 L577.548,446.898 Z M584.082,443.064 C584.586,443.064 585,442.668 585,442.164 C585,441.66 584.586,441.246 584.082,441.246 C583.596,441.246 583.182,441.66 583.182,442.164 C583.182,442.668 583.596,443.064 584.082,443.064 L584.082,443.064 Z M584.766,453 L584.766,444.306 L583.416,444.306 L583.416,453 L584.766,453 Z M591.39,453.216 C592.812,453.216 593.982,452.748 594.846,451.884 L594.198,451.002 C593.514,451.704 592.506,452.1 591.516,452.1 C589.644,452.1 588.492,450.732 588.384,449.094 L595.422,449.094 L595.422,448.752 C595.422,446.142 593.874,444.09 591.246,444.09 C588.762,444.09 586.962,446.124 586.962,448.644 C586.962,451.362 588.816,453.216 591.39,453.216 L591.39,453.216 Z M594.09,448.104 L588.384,448.104 C588.456,446.772 589.374,445.206 591.228,445.206 C593.208,445.206 594.072,446.808 594.09,448.104 L594.09,448.104 Z M592.272,442.992 L589.608,440.4 L588.204,440.4 L591.246,442.992 L592.272,442.992 Z M601.434,453.216 C603.018,453.216 603.954,452.568 604.62,451.704 L603.72,450.876 C603.144,451.65 602.406,452.01 601.506,452.01 C599.652,452.01 598.5,450.57 598.5,448.644 C598.5,446.718 599.652,445.296 601.506,445.296 C602.406,445.296 603.144,445.638 603.72,446.43 L604.62,445.602 C603.954,444.738 603.018,444.09 601.434,444.09 C598.842,444.09 597.096,446.07 597.096,448.644 C597.096,451.236 598.842,453.216 601.434,453.216 L601.434,453.216 Z M610.434,453.216 C611.856,453.216 613.026,452.748 613.89,451.884 L613.242,451.002 C612.558,451.704 611.55,452.1 610.56,452.1 C608.688,452.1 607.536,450.732 607.428,449.094 L614.466,449.094 L614.466,448.752 C614.466,446.142 612.918,444.09 610.29,444.09 C607.806,444.09 606.006,446.124 606.006,448.644 C606.006,451.362 607.86,453.216 610.434,453.216 L610.434,453.216 Z M613.134,448.104 L607.428,448.104 C607.5,446.772 608.418,445.206 610.272,445.206 C612.252,445.206 613.116,446.808 613.134,448.104 L613.134,448.104 Z M619.398,453.216 C621.648,453.216 622.818,452.046 622.818,450.588 C622.818,447.204 617.436,448.464 617.436,446.556 C617.436,445.782 618.174,445.188 619.362,445.188 C620.478,445.188 621.432,445.656 621.954,446.286 L622.584,445.35 C621.882,444.648 620.838,444.09 619.362,444.09 C617.292,444.09 616.122,445.242 616.122,446.592 C616.122,449.814 621.504,448.518 621.504,450.624 C621.504,451.488 620.784,452.118 619.452,452.118 C618.264,452.118 617.166,451.542 616.59,450.876 L615.888,451.848 C616.77,452.784 617.976,453.216 619.398,453.216 L619.398,453.216 Z M633.456,453.216 C636.102,453.216 637.758,451.164 637.758,448.644 C637.758,446.124 636.102,444.09 633.456,444.09 C630.81,444.09 629.154,446.124 629.154,448.644 C629.154,451.164 630.81,453.216 633.456,453.216 L633.456,453.216 Z M633.456,452.01 C631.602,452.01 630.558,450.426 630.558,448.644 C630.558,446.88 631.602,445.296 633.456,445.296 C635.31,445.296 636.336,446.88 636.336,448.644 C636.336,450.426 635.31,452.01 633.456,452.01 L633.456,452.01 Z M647.172,453 L647.172,444.306 L645.822,444.306 L645.822,450.696 C645.318,451.398 644.31,452.01 643.248,452.01 C642.078,452.01 641.304,451.56 641.304,450.03 L641.304,444.306 L639.954,444.306 L639.954,450.444 C639.954,452.334 640.908,453.216 642.726,453.216 C644.022,453.216 645.156,452.532 645.822,451.776 L645.822,453 L647.172,453 Z M655.866,450.642 L655.866,446.7 C656.334,445.944 657.396,445.296 658.458,445.296 C660.222,445.296 661.266,446.736 661.266,448.662 C661.266,450.588 660.222,452.01 658.458,452.01 C657.396,452.01 656.334,451.398 655.866,450.642 L655.866,450.642 Z M655.866,453 L655.866,451.704 C656.514,452.586 657.576,453.216 658.8,453.216 C661.068,453.216 662.67,451.488 662.67,448.662 C662.67,445.89 661.068,444.09 658.8,444.09 C657.612,444.09 656.568,444.666 655.866,445.62 L655.866,440.994 L654.516,440.994 L654.516,453 L655.866,453 Z M665.532,443.064 C666.036,443.064 666.45,442.668 666.45,442.164 C666.45,441.66 666.036,441.246 665.532,441.246 C665.046,441.246 664.632,441.66 664.632,442.164 C664.632,442.668 665.046,443.064 665.532,443.064 L665.532,443.064 Z M666.216,453 L666.216,444.306 L664.866,444.306 L664.866,453 L666.216,453 Z M670.266,453 L670.266,440.994 L668.916,440.994 L668.916,453 L670.266,453 Z M674.316,453 L674.316,440.994 L672.966,440.994 L672.966,453 L674.316,453 Z M680.94,453.216 C682.362,453.216 683.532,452.748 684.396,451.884 L683.748,451.002 C683.064,451.704 682.056,452.1 681.066,452.1 C679.194,452.1 678.042,450.732 677.934,449.094 L684.972,449.094 L684.972,448.752 C684.972,446.142 683.424,444.09 680.796,444.09 C678.312,444.09 676.512,446.124 676.512,448.644 C676.512,451.362 678.366,453.216 680.94,453.216 L680.94,453.216 Z M683.64,448.104 L677.934,448.104 C678.006,446.772 678.924,445.206 680.778,445.206 C682.758,445.206 683.622,446.808 683.64,448.104 L683.64,448.104 Z M689.346,453.216 C690.138,453.216 690.624,452.982 690.966,452.658 L690.57,451.65 C690.39,451.848 690.03,452.01 689.652,452.01 C689.058,452.01 688.77,451.542 688.77,450.894 L688.77,445.494 L690.534,445.494 L690.534,444.306 L688.77,444.306 L688.77,441.93 L687.42,441.93 L687.42,444.306 L685.98,444.306 L685.98,445.494 L687.42,445.494 L687.42,451.182 C687.42,452.478 688.068,453.216 689.346,453.216 L689.346,453.216 Z M695.196,453.216 C697.446,453.216 698.616,452.046 698.616,450.588 C698.616,447.204 693.234,448.464 693.234,446.556 C693.234,445.782 693.972,445.188 695.16,445.188 C696.276,445.188 697.23,445.656 697.752,446.286 L698.382,445.35 C697.68,444.648 696.636,444.09 695.16,444.09 C693.09,444.09 691.92,445.242 691.92,446.592 C691.92,449.814 697.302,448.518 697.302,450.624 C697.302,451.488 696.582,452.118 695.25,452.118 C694.062,452.118 692.964,451.542 692.388,450.876 L691.686,451.848 C692.568,452.784 693.774,453.216 695.196,453.216 L695.196,453.216 Z" id="En-espèce" fill="#FFFFFF" sketch:type="MSShapeGroup"></path>
            <path d="M581.38,567.448 L588.374,550.106 L585.904,550.106 L580.054,565.082 L574.204,550.106 L571.734,550.106 L578.702,567.448 L581.38,567.448 Z M591.52,553.096 C592.248,553.096 592.846,552.524 592.846,551.796 C592.846,551.068 592.248,550.47 591.52,550.47 C590.818,550.47 590.22,551.068 590.22,551.796 C590.22,552.524 590.818,553.096 591.52,553.096 L591.52,553.096 Z M592.508,567.448 L592.508,554.89 L590.558,554.89 L590.558,567.448 L592.508,567.448 Z M606.21,567.448 L606.21,558.816 C606.21,555.774 604,554.578 601.348,554.578 C599.294,554.578 597.682,555.254 596.33,556.658 L597.24,558.01 C598.358,556.814 599.58,556.268 601.088,556.268 C602.908,556.268 604.26,557.23 604.26,558.92 L604.26,561.182 C603.246,560.012 601.816,559.466 600.1,559.466 C597.968,559.466 595.706,560.792 595.706,563.6 C595.706,566.33 597.968,567.76 600.1,567.76 C601.79,567.76 603.22,567.162 604.26,566.018 L604.26,567.448 L606.21,567.448 Z M600.802,566.356 C598.982,566.356 597.708,565.212 597.708,563.626 C597.708,562.014 598.982,560.87 600.802,560.87 C602.18,560.87 603.506,561.39 604.26,562.43 L604.26,564.796 C603.506,565.836 602.18,566.356 600.802,566.356 L600.802,566.356 Z M620.796,567.76 C624.046,567.76 625.736,566.07 625.736,563.964 C625.736,559.076 617.962,560.896 617.962,558.14 C617.962,557.022 619.028,556.164 620.744,556.164 C622.356,556.164 623.734,556.84 624.488,557.75 L625.398,556.398 C624.384,555.384 622.876,554.578 620.744,554.578 C617.754,554.578 616.064,556.242 616.064,558.192 C616.064,562.846 623.838,560.974 623.838,564.016 C623.838,565.264 622.798,566.174 620.874,566.174 C619.158,566.174 617.572,565.342 616.74,564.38 L615.726,565.784 C617,567.136 618.742,567.76 620.796,567.76 L620.796,567.76 Z M646.016,567.448 L646.016,558.374 C646.016,555.852 644.794,554.578 642.506,554.578 C640.686,554.578 638.996,555.774 638.294,556.918 C637.93,555.618 636.838,554.578 634.914,554.578 C633.068,554.578 631.378,555.904 630.858,556.71 L630.858,554.89 L628.908,554.89 L628.908,567.448 L630.858,567.448 L630.858,558.27 C631.534,557.256 632.886,556.32 634.16,556.32 C635.798,556.32 636.474,557.334 636.474,558.92 L636.474,567.448 L638.424,567.448 L638.424,558.244 C639.074,557.256 640.452,556.32 641.752,556.32 C643.364,556.32 644.066,557.334 644.066,558.92 L644.066,567.448 L646.016,567.448 Z M659.718,567.448 L659.718,558.816 C659.718,555.774 657.508,554.578 654.856,554.578 C652.802,554.578 651.19,555.254 649.838,556.658 L650.748,558.01 C651.866,556.814 653.088,556.268 654.596,556.268 C656.416,556.268 657.768,557.23 657.768,558.92 L657.768,561.182 C656.754,560.012 655.324,559.466 653.608,559.466 C651.476,559.466 649.214,560.792 649.214,563.6 C649.214,566.33 651.476,567.76 653.608,567.76 C655.298,567.76 656.728,567.162 657.768,566.018 L657.768,567.448 L659.718,567.448 Z M654.31,566.356 C652.49,566.356 651.216,565.212 651.216,563.626 C651.216,562.014 652.49,560.87 654.31,560.87 C655.688,560.87 657.014,561.39 657.768,562.43 L657.768,564.796 C657.014,565.836 655.688,566.356 654.31,566.356 L654.31,566.356 Z M665.568,567.448 L665.568,558.556 C666.14,557.542 667.778,556.554 668.974,556.554 C669.286,556.554 669.52,556.58 669.754,556.632 L669.754,554.63 C668.038,554.63 666.582,555.592 665.568,556.918 L665.568,554.89 L663.618,554.89 L663.618,567.448 L665.568,567.448 Z M675.37,567.76 C676.514,567.76 677.216,567.422 677.71,566.954 L677.138,565.498 C676.878,565.784 676.358,566.018 675.812,566.018 C674.954,566.018 674.538,565.342 674.538,564.406 L674.538,556.606 L677.086,556.606 L677.086,554.89 L674.538,554.89 L674.538,551.458 L672.588,551.458 L672.588,554.89 L670.508,554.89 L670.508,556.606 L672.588,556.606 L672.588,564.822 C672.588,566.694 673.524,567.76 675.37,567.76 L675.37,567.76 Z M686.03,567.76 C689.332,567.76 691.62,565.212 691.62,561.156 C691.62,557.074 689.332,554.578 686.03,554.578 C684.262,554.578 682.702,555.488 681.792,556.762 L681.792,554.89 L679.842,554.89 L679.842,572.232 L681.792,572.232 L681.792,565.55 C682.806,566.954 684.314,567.76 686.03,567.76 L686.03,567.76 Z M685.536,566.018 C684.002,566.018 682.468,565.082 681.792,563.99 L681.792,558.322 C682.468,557.23 684.002,556.32 685.536,556.32 C688.058,556.32 689.566,558.374 689.566,561.156 C689.566,563.938 688.058,566.018 685.536,566.018 L685.536,566.018 Z M705.166,567.448 L705.166,558.582 C705.166,555.852 703.788,554.578 701.162,554.578 C699.264,554.578 697.548,555.67 696.664,556.71 L696.664,550.106 L694.714,550.106 L694.714,567.448 L696.664,567.448 L696.664,558.27 C697.418,557.256 698.874,556.32 700.382,556.32 C702.072,556.32 703.216,556.97 703.216,559.18 L703.216,567.448 L705.166,567.448 Z M714.552,567.76 C718.374,567.76 720.766,564.796 720.766,561.156 C720.766,557.516 718.374,554.578 714.552,554.578 C710.73,554.578 708.338,557.516 708.338,561.156 C708.338,564.796 710.73,567.76 714.552,567.76 L714.552,567.76 Z M714.552,566.018 C711.874,566.018 710.366,563.73 710.366,561.156 C710.366,558.608 711.874,556.32 714.552,556.32 C717.23,556.32 718.712,558.608 718.712,561.156 C718.712,563.73 717.23,566.018 714.552,566.018 L714.552,566.018 Z M734.364,567.448 L734.364,558.634 C734.364,555.904 732.986,554.578 730.36,554.578 C728.488,554.578 726.772,555.67 725.888,556.71 L725.888,554.89 L723.938,554.89 L723.938,567.448 L725.888,567.448 L725.888,558.27 C726.616,557.256 728.072,556.32 729.606,556.32 C731.296,556.32 732.414,557.022 732.414,559.232 L732.414,567.448 L734.364,567.448 Z M743.932,567.76 C745.986,567.76 747.676,567.084 748.924,565.836 L747.988,564.562 C747,565.576 745.544,566.148 744.114,566.148 C741.41,566.148 739.746,564.172 739.59,561.806 L749.756,561.806 L749.756,561.312 C749.756,557.542 747.52,554.578 743.724,554.578 C740.136,554.578 737.536,557.516 737.536,561.156 C737.536,565.082 740.214,567.76 743.932,567.76 L743.932,567.76 Z M747.832,560.376 L739.59,560.376 C739.694,558.452 741.02,556.19 743.698,556.19 C746.558,556.19 747.806,558.504 747.832,560.376 L747.832,560.376 Z M587.671875,580.864016 C586.330071,581.813239 585.65918,582.955806 585.65918,584.29175 C585.65918,585.891367 586.488273,587.118894 588.146484,587.974367 C587.70117,589.263436 587.056645,590.385495 586.212891,591.340578 C585.369136,592.295661 584.598636,592.773195 583.901367,592.773195 C583.573241,592.773195 583.125003,592.664798 582.556641,592.448 L582.28418,592.342531 C581.727536,592.125733 581.235354,592.017336 580.807617,592.017336 C580.403318,592.017336 579.96094,592.102296 579.480469,592.272219 L579.137695,592.395266 L578.707031,592.571047 C578.367186,592.705813 578.024416,592.773195 577.678711,592.773195 C576.864254,592.773195 575.964849,592.102304 574.980469,590.7605 C573.562493,588.838615 572.853516,586.74391 572.853516,584.47632 C572.853516,582.864984 573.295894,581.567146 574.180664,580.582766 C575.065434,579.598386 576.237297,579.106203 577.696289,579.106203 C578.241214,579.106203 578.750974,579.205812 579.225586,579.405031 L579.550781,579.536867 L579.893555,579.677492 C580.198244,579.806399 580.444335,579.870852 580.631836,579.870852 C580.872072,579.870852 581.13867,579.815188 581.431641,579.703859 L581.879883,579.528078 L582.213867,579.405031 C582.747073,579.211671 583.335934,579.114992 583.980469,579.114992 C585.509773,579.114992 586.74023,579.697994 587.671875,580.864016 L587.671875,580.864016 Z M584.050781,575.045656 C584.068359,575.250735 584.077148,575.408937 584.077148,575.520266 C584.077148,576.533943 583.708012,577.423094 582.969727,578.187746 C582.231442,578.952398 581.373052,579.334719 580.394531,579.334719 C580.365234,579.106202 580.350586,578.942141 580.350586,578.842531 C580.350586,577.981199 580.693356,577.172613 581.378906,576.41675 C582.064457,575.660887 582.858394,575.218508 583.760742,575.089602 C583.825196,575.077883 583.921874,575.063234 584.050781,575.045656 L584.050781,575.045656 Z M592.398,592.448 L592.398,587.678 L595.728,587.678 C598.104,587.678 599.49,586.022 599.49,584.06 C599.49,582.098 598.14,580.442 595.728,580.442 L590.904,580.442 L590.904,592.448 L592.398,592.448 Z M595.548,586.346 L592.398,586.346 L592.398,581.774 L595.548,581.774 C596.97,581.774 597.942,582.71 597.942,584.06 C597.942,585.41 596.97,586.346 595.548,586.346 L595.548,586.346 Z M608.202,592.448 L608.202,586.472 C608.202,584.366 606.672,583.538 604.836,583.538 C603.414,583.538 602.298,584.006 601.362,584.978 L601.992,585.914 C602.766,585.086 603.612,584.708 604.656,584.708 C605.916,584.708 606.852,585.374 606.852,586.544 L606.852,588.11 C606.15,587.3 605.16,586.922 603.972,586.922 C602.496,586.922 600.93,587.84 600.93,589.784 C600.93,591.674 602.496,592.664 603.972,592.664 C605.142,592.664 606.132,592.25 606.852,591.458 L606.852,592.448 L608.202,592.448 Z M604.458,591.692 C603.198,591.692 602.316,590.9 602.316,589.802 C602.316,588.686 603.198,587.894 604.458,587.894 C605.412,587.894 606.33,588.254 606.852,588.974 L606.852,590.612 C606.33,591.332 605.412,591.692 604.458,591.692 L604.458,591.692 Z M610.416,595.85 C610.668,595.922 611.118,595.976 611.406,595.976 C612.558,595.958 613.44,595.472 613.962,594.212 L618.318,583.754 L616.842,583.754 L613.962,590.882 L611.064,583.754 L609.606,583.754 L613.242,592.538 L612.666,593.852 C612.36,594.572 611.964,594.77 611.37,594.77 C611.154,594.77 610.83,594.716 610.632,594.626 L610.416,595.85 Z M621.54,592.016 C621.54,591.152 621,590.648 620.406,590.648 C619.866,590.648 619.452,591.098 619.452,591.62 C619.452,592.16 619.812,592.538 620.316,592.538 C620.406,592.538 620.532,592.52 620.568,592.502 C620.496,593.096 619.974,593.798 619.398,594.176 L620.064,594.734 C620.892,594.14 621.54,593.114 621.54,592.016 L621.54,592.016 Z M638.838,592.448 L633.996,580.442 L632.142,580.442 L627.318,592.448 L629.028,592.448 L630.09,589.784 L636.066,589.784 L637.128,592.448 L638.838,592.448 Z M635.616,588.452 L630.522,588.452 L633.078,581.99 L635.616,588.452 Z M647.568,592.448 L647.568,586.346 C647.568,584.456 646.614,583.538 644.796,583.538 C643.5,583.538 642.312,584.294 641.7,585.014 L641.7,583.754 L640.35,583.754 L640.35,592.448 L641.7,592.448 L641.7,586.094 C642.204,585.392 643.212,584.744 644.274,584.744 C645.444,584.744 646.218,585.23 646.218,586.76 L646.218,592.448 L647.568,592.448 Z M657.918,592.448 L657.918,580.442 L656.568,580.442 L656.568,585.068 C655.866,584.114 654.804,583.538 653.634,583.538 C651.348,583.538 649.764,585.338 649.764,588.11 C649.764,590.936 651.366,592.664 653.634,592.664 C654.858,592.664 655.92,592.034 656.568,591.152 L656.568,592.448 L657.918,592.448 Z M653.958,591.458 C652.212,591.458 651.168,590.036 651.168,588.11 C651.168,586.184 652.212,584.744 653.958,584.744 C655.038,584.744 656.082,585.392 656.568,586.148 L656.568,590.09 C656.082,590.846 655.038,591.458 653.958,591.458 L653.958,591.458 Z M661.968,592.448 L661.968,586.292 C662.364,585.59 663.498,584.906 664.326,584.906 C664.542,584.906 664.704,584.924 664.866,584.96 L664.866,583.574 C663.678,583.574 662.67,584.24 661.968,585.158 L661.968,583.754 L660.618,583.754 L660.618,592.448 L661.968,592.448 Z M670.356,592.664 C673.002,592.664 674.658,590.612 674.658,588.092 C674.658,585.572 673.002,583.538 670.356,583.538 C667.71,583.538 666.054,585.572 666.054,588.092 C666.054,590.612 667.71,592.664 670.356,592.664 L670.356,592.664 Z M670.356,591.458 C668.502,591.458 667.458,589.874 667.458,588.092 C667.458,586.328 668.502,584.744 670.356,584.744 C672.21,584.744 673.236,586.328 673.236,588.092 C673.236,589.874 672.21,591.458 670.356,591.458 L670.356,591.458 Z M677.52,582.512 C678.024,582.512 678.438,582.116 678.438,581.612 C678.438,581.108 678.024,580.694 677.52,580.694 C677.034,580.694 676.62,581.108 676.62,581.612 C676.62,582.116 677.034,582.512 677.52,582.512 L677.52,582.512 Z M678.204,592.448 L678.204,583.754 L676.854,583.754 L676.854,592.448 L678.204,592.448 Z M688.554,592.448 L688.554,580.442 L687.204,580.442 L687.204,585.068 C686.502,584.114 685.44,583.538 684.27,583.538 C681.984,583.538 680.4,585.338 680.4,588.11 C680.4,590.936 682.002,592.664 684.27,592.664 C685.494,592.664 686.556,592.034 687.204,591.152 L687.204,592.448 L688.554,592.448 Z M684.594,591.458 C682.848,591.458 681.804,590.036 681.804,588.11 C681.804,586.184 682.848,584.744 684.594,584.744 C685.674,584.744 686.718,585.392 687.204,586.148 L687.204,590.09 C686.718,590.846 685.674,591.458 684.594,591.458 L684.594,591.458 Z M692.802,592.448 L692.802,587.678 L696.132,587.678 C698.508,587.678 699.894,586.022 699.894,584.06 C699.894,582.098 698.544,580.442 696.132,580.442 L691.308,580.442 L691.308,592.448 L692.802,592.448 Z M695.952,586.346 L692.802,586.346 L692.802,581.774 L695.952,581.774 C697.374,581.774 698.346,582.71 698.346,584.06 C698.346,585.41 697.374,586.346 695.952,586.346 L695.952,586.346 Z M708.606,592.448 L708.606,586.472 C708.606,584.366 707.076,583.538 705.24,583.538 C703.818,583.538 702.702,584.006 701.766,584.978 L702.396,585.914 C703.17,585.086 704.016,584.708 705.06,584.708 C706.32,584.708 707.256,585.374 707.256,586.544 L707.256,588.11 C706.554,587.3 705.564,586.922 704.376,586.922 C702.9,586.922 701.334,587.84 701.334,589.784 C701.334,591.674 702.9,592.664 704.376,592.664 C705.546,592.664 706.536,592.25 707.256,591.458 L707.256,592.448 L708.606,592.448 Z M704.862,591.692 C703.602,591.692 702.72,590.9 702.72,589.802 C702.72,588.686 703.602,587.894 704.862,587.894 C705.816,587.894 706.734,588.254 707.256,588.974 L707.256,590.612 C706.734,591.332 705.816,591.692 704.862,591.692 L704.862,591.692 Z M710.82,595.85 C711.072,595.922 711.522,595.976 711.81,595.976 C712.962,595.958 713.844,595.472 714.366,594.212 L718.722,583.754 L717.246,583.754 L714.366,590.882 L711.468,583.754 L710.01,583.754 L713.646,592.538 L713.07,593.852 C712.764,594.572 712.368,594.77 711.774,594.77 C711.558,594.77 711.234,594.716 711.036,594.626 L710.82,595.85 Z" id="Via-smartphone" fill="#FFFFFF" sketch:type="MSShapeGroup"></path>
            <path d="M46.1125,722.625 L42.1125,718.125 L46.1125,713.7 L44.6875,713.7 L40.6875,718.125 L44.6875,722.625 L46.1125,722.625 Z M62.8375,724.2 L62.8375,717.275 L67.6625,717.275 C70.8375,717.275 72.6875,715.025 72.6875,712.4 C72.6875,709.775 70.8625,707.525 67.6625,707.525 L61.4125,707.525 L61.4125,724.2 L62.8375,724.2 Z M67.5125,715.975 L62.8375,715.975 L62.8375,708.825 L67.5125,708.825 C69.7125,708.825 71.1875,710.3 71.1875,712.4 C71.1875,714.5 69.7125,715.975 67.5125,715.975 L67.5125,715.975 Z M79.9375,724.2 L79.9375,715.4 C80.4875,714.35 82.1375,713.25 83.3625,713.25 C83.6125,713.25 83.7875,713.25 84.0125,713.3 L84.0125,711.875 C82.3375,711.875 80.9625,712.85 79.9375,714.2 L79.9375,712.125 L78.6375,712.125 L78.6375,724.2 L79.9375,724.2 Z M98.7375,706.7 L97.1875,706.7 L93.3375,710.3 L94.4375,710.3 L98.7375,706.7 Z M94.9125,724.5 C96.9125,724.5 98.4375,723.8 99.6375,722.55 L98.9625,721.7 C97.9375,722.8 96.5375,723.375 95.0125,723.375 C92.1625,723.375 90.4125,721.2 90.2875,718.575 L100.3875,718.575 L100.3875,718.225 C100.3875,714.75 98.3625,711.825 94.6875,711.825 C91.3375,711.825 88.8625,714.65 88.8625,718.15 C88.8625,721.875 91.3875,724.5 94.9125,724.5 L94.9125,724.5 Z M99.0625,717.55 L90.2875,717.55 C90.3875,715.45 91.8125,712.95 94.6625,712.95 C97.6875,712.95 99.0375,715.5 99.0625,717.55 L99.0625,717.55 Z M111.9125,724.5 C114.0125,724.5 115.2125,723.675 116.1875,722.425 L115.2875,721.625 C114.4125,722.825 113.3125,723.325 111.9875,723.325 C109.1625,723.325 107.4375,721.05 107.4375,718.15 C107.4375,715.25 109.1625,713 111.9875,713 C113.3125,713 114.4125,713.475 115.2875,714.675 L116.1875,713.875 C115.2125,712.65 114.0125,711.825 111.9125,711.825 C108.3625,711.825 106.0375,714.625 106.0375,718.15 C106.0375,721.675 108.3625,724.5 111.9125,724.5 L111.9125,724.5 Z M131.2625,706.7 L129.7125,706.7 L125.8625,710.3 L126.9625,710.3 L131.2625,706.7 Z M127.4375,724.5 C129.4375,724.5 130.9625,723.8 132.1625,722.55 L131.4875,721.7 C130.4625,722.8 129.0625,723.375 127.5375,723.375 C124.6875,723.375 122.9375,721.2 122.8125,718.575 L132.9125,718.575 L132.9125,718.225 C132.9125,714.75 130.8875,711.825 127.2125,711.825 C123.8625,711.825 121.3875,714.65 121.3875,718.15 C121.3875,721.875 123.9125,724.5 127.4375,724.5 L127.4375,724.5 Z M131.5875,717.55 L122.8125,717.55 C122.9125,715.45 124.3375,712.95 127.1875,712.95 C130.2125,712.95 131.5625,715.5 131.5875,717.55 L131.5875,717.55 Z M149.4875,724.2 L149.4875,707.525 L148.1625,707.525 L148.1625,714.075 C147.1875,712.7 145.6875,711.825 143.9625,711.825 C140.7625,711.825 138.5625,714.35 138.5625,718.175 C138.5625,722.05 140.7625,724.5 143.9625,724.5 C145.7625,724.5 147.3125,723.525 148.1625,722.275 L148.1625,724.2 L149.4875,724.2 Z M144.1875,723.325 C141.5125,723.325 139.9625,721.1 139.9625,718.175 C139.9625,715.25 141.5125,713 144.1875,713 C145.8875,713 147.4625,714.025 148.1625,715.2 L148.1625,721.175 C147.4625,722.325 145.8875,723.325 144.1875,723.325 L144.1875,723.325 Z M161.8875,724.5 C163.8875,724.5 165.4125,723.8 166.6125,722.55 L165.9375,721.7 C164.9125,722.8 163.5125,723.375 161.9875,723.375 C159.1375,723.375 157.3875,721.2 157.2625,718.575 L167.3625,718.575 L167.3625,718.225 C167.3625,714.75 165.3375,711.825 161.6625,711.825 C158.3125,711.825 155.8375,714.65 155.8375,718.15 C155.8375,721.875 158.3625,724.5 161.8875,724.5 L161.8875,724.5 Z M166.0375,717.55 L157.2625,717.55 C157.3625,715.45 158.7875,712.95 161.6375,712.95 C164.6625,712.95 166.0125,715.5 166.0375,717.55 L166.0375,717.55 Z M183.1625,724.2 L183.1625,715.75 C183.1625,713.025 181.8125,711.825 179.3625,711.825 C177.6125,711.825 175.8875,712.9 175.0125,713.95 L175.0125,712.125 L173.7125,712.125 L173.7125,724.2 L175.0125,724.2 L175.0125,715.075 C175.7875,713.975 177.3875,713 178.9375,713 C180.6875,713 181.8625,713.7 181.8625,716.025 L181.8625,724.2 L183.1625,724.2 Z M192.8375,724.5 C193.8375,724.5 194.4125,724.2 194.8875,723.75 L194.3875,722.75 C194.1125,723.05 193.6125,723.325 193.0375,723.325 C192.1875,723.325 191.7875,722.65 191.7875,721.675 L191.7875,713.275 L194.2375,713.275 L194.2375,712.125 L191.7875,712.125 L191.7875,708.825 L190.4625,708.825 L190.4625,712.125 L188.4625,712.125 L188.4625,713.275 L190.4625,713.275 L190.4625,721.875 C190.4625,723.525 191.2375,724.5 192.8375,724.5 L192.8375,724.5 Z" id="‹-Précédent-Copy-2" fill="#BEBEBE" sketch:type="MSShapeGroup"></path>
        </g>
    </g>
</svg>