<?xml version="1.0" encoding="UTF-8" standalone="no"?>
<svg width="1024px" height="768px" viewBox="0 0 1024 768" version="1.1" xmlns="http://www.w3.org/2000/svg" xmlns:xlink="http://www.w3.org/1999/xlink" xmlns:sketch="http://www.bohemiancoding.com/sketch/ns">
    <!-- Generator: Sketch 3.3.3 (12072) - http://www.bohemiancoding.com/sketch -->
    <title>iPad Landscape Copy 50</title>
    <desc>Created with Sketch.</desc>
    <defs></defs>
    <g id="Page-1" stroke="none" stroke-width="1" fill="none" fill-rule="evenodd" sketch:type="MSPage">
        <g id="iPad-Landscape-Copy-50" sketch:type="MSArtboardGroup">
            <rect id="Rectangle-242" fill="#FFFFFF" sketch:type="MSShapeGroup" x="0" y="0" width="1024" height="768"></rect>
            <rect id="Rectangle-42" fill="#3B3B48" sketch:type="MSShapeGroup" x="0" y="140" width="512" height="528"></rect>
            <rect id="Rectangle-42-Copy" fill="#0079FE" sketch:type="MSShapeGroup" x="512" y="140" width="512" height="528"></rect>
            <rect id="Rectangle-12-Copy-11" fill="#0079FE" sketch:type="MSShapeGroup" x="749" y="686" width="235" height="64" rx="40"></rect>
            <g id="Accueil-+-Group-+-‹" sketch:type="MSLayerGroup" transform="translate(43.500000, 37.500000)">
                <g id="Group" transform="translate(15.000000, -0.000000)" sketch:type="MSShapeGroup">
                    <path d="M29.1666667,4.269 L25,0.102333333 L16.6666667,8.43566667 L16.6666667,25.1023333 L33.3333333,25.1023333 L33.3333333,8.43566667 L29.1666667,4.269 L29.1666667,4.269 Z" id="Fill-3"></path>
                    <path d="M29.1666667,4.269 L25,0.102333333 L16.6666667,8.43566667 L16.6666667,25.1023333 L33.3333333,25.1023333 L33.3333333,8.43566667 L29.1666667,4.269 L29.1666667,4.269 Z" id="Stroke-4" stroke="#BEBEBE"></path>
                    <path d="M0,25.1023333 L16.6666667,25.1023333 L16.6666667,41.769 L0,41.769 L0,25.1023333 Z" id="Fill-5"></path>
                    <path d="M0,25.1023333 L16.6666667,25.1023333 L16.6666667,41.769 L0,41.769 L0,25.1023333 Z" id="Stroke-6" stroke="#BEBEBE"></path>
                    <path d="M16.6666667,25.1023333 L33.3333333,25.1023333 L33.3333333,41.769 L16.6666667,41.769 L16.6666667,25.1023333 Z" id="Fill-7"></path>
                    <path d="M16.6666667,25.1023333 L33.3333333,25.1023333 L33.3333333,41.769 L16.6666667,41.769 L16.6666667,25.1023333 Z" id="Stroke-8" stroke="#BEBEBE"></path>
                    <path d="M16.6666667,8.43566667 L33.3333333,8.43566667 L33.3333333,25.1023333 L16.6666667,25.1023333 L16.6666667,8.43566667 Z" id="Fill-9"></path>
                    <path d="M16.6666667,8.43566667 L33.3333333,8.43566667 L33.3333333,25.1023333 L16.6666667,25.1023333 L16.6666667,8.43566667 Z" id="Stroke-10" stroke="#BEBEBE"></path>
                    <path d="M50,25.1023333 L33.3333333,25.1023333 L33.3333333,16.769 L41.7276667,20.9051667 L50,25.1023333 L50,25.1023333 Z" id="Fill-11"></path>
                    <path d="M50,25.1023333 L33.3333333,25.1023333 L33.3333333,16.769 L41.7276667,20.9051667 L50,25.1023333 L50,25.1023333 Z" id="Stroke-12" stroke="#BEBEBE" stroke-linejoin="bevel"></path>
                    <path d="M0,25.1023333 L16.6666667,25.1023333 L16.6666667,16.769 L8.27233333,20.9051667 L0,25.1023333 L0,25.1023333 Z" id="Fill-13"></path>
                    <path d="M0,25.1023333 L16.6666667,25.1023333 L16.6666667,16.769 L8.27233333,20.9051667 L0,25.1023333 L0,25.1023333 Z" id="Stroke-14" stroke="#BEBEBE" stroke-linejoin="bevel"></path>
                    <path d="M33.3333333,25.1023333 L50,25.1023333 L50,41.769 L33.3333333,41.769 L33.3333333,25.1023333 Z" id="Fill-15"></path>
                    <path d="M33.3333333,25.1023333 L50,25.1023333 L50,41.769 L33.3333333,41.769 L33.3333333,25.1023333 Z" id="Stroke-16" stroke="#BEBEBE"></path>
                    <path d="M8.33333333,29.269 C6.03216667,29.269 4.16666667,31.1345 4.16666667,33.4356667 L4.16666667,41.769 L12.5,41.769 L12.5,33.4356667 C12.5,31.1345 10.6345,29.269 8.33333333,29.269 L8.33333333,29.269 Z" id="Fill-17"></path>
                    <path d="M8.33333333,29.269 C6.03216667,29.269 4.16666667,31.1345 4.16666667,33.4356667 L4.16666667,41.769 L12.5,41.769 L12.5,33.4356667 C12.5,31.1345 10.6345,29.269 8.33333333,29.269 L8.33333333,29.269 Z" id="Stroke-18" stroke="#BEBEBE"></path>
                    <path d="M25,29.269 C22.6988333,29.269 20.8333333,31.1345 20.8333333,33.4356667 L20.8333333,41.769 L29.1666667,41.769 L29.1666667,33.4356667 C29.1666667,31.1345 27.3011667,29.269 25,29.269 L25,29.269 Z" id="Fill-19"></path>
                    <path d="M25,29.269 C22.6988333,29.269 20.8333333,31.1345 20.8333333,33.4356667 L20.8333333,41.769 L29.1666667,41.769 L29.1666667,33.4356667 C29.1666667,31.1345 27.3011667,29.269 25,29.269 L25,29.269 Z" id="Stroke-20" stroke="#BEBEBE"></path>
                    <path d="M41.6666667,29.269 C39.3655,29.269 37.5,31.1345 37.5,33.4356667 L37.5,41.769 L45.8333333,41.769 L45.8333333,33.4356667 C45.8333333,31.1345 43.9678333,29.269 41.6666667,29.269 L41.6666667,29.269 Z" id="Fill-21"></path>
                    <path d="M41.6666667,29.269 C39.3655,29.269 37.5,31.1345 37.5,33.4356667 L37.5,41.769 L45.8333333,41.769 L45.8333333,33.4356667 C45.8333333,31.1345 43.9678333,29.269 41.6666667,29.269 L41.6666667,29.269 Z" id="Stroke-22" stroke="#BEBEBE"></path>
                    <path d="M29.1666667,16.769 C29.1666667,19.0701667 27.3011667,20.9356667 25,20.9356667 C22.6988333,20.9356667 20.8333333,19.0701667 20.8333333,16.769 C20.8333333,14.4678333 22.6988333,12.6023333 25,12.6023333 C27.3011667,12.6023333 29.1666667,14.4678333 29.1666667,16.769 L29.1666667,16.769 Z" id="Fill-23"></path>
                    <path d="M29.1666667,16.769 C29.1666667,19.0701667 27.3011667,20.9356667 25,20.9356667 C22.6988333,20.9356667 20.8333333,19.0701667 20.8333333,16.769 C20.8333333,14.4678333 22.6988333,12.6023333 25,12.6023333 C27.3011667,12.6023333 29.1666667,14.4678333 29.1666667,16.769 L29.1666667,16.769 Z" id="Stroke-24" stroke="#BEBEBE"></path>
                </g>
                <path d="M24.48,61 L20.385,50.995 L19.32,50.995 L15.225,61 L16.215,61 L17.205,58.54 L22.5,58.54 L23.49,61 L24.48,61 Z M22.215,57.76 L17.49,57.76 L19.845,51.91 L22.215,57.76 Z M29.225,61.18 C30.485,61.18 31.205,60.685 31.79,59.935 L31.25,59.455 C30.725,60.175 30.065,60.475 29.27,60.475 C27.575,60.475 26.54,59.11 26.54,57.37 C26.54,55.63 27.575,54.28 29.27,54.28 C30.065,54.28 30.725,54.565 31.25,55.285 L31.79,54.805 C31.205,54.07 30.485,53.575 29.225,53.575 C27.095,53.575 25.7,55.255 25.7,57.37 C25.7,59.485 27.095,61.18 29.225,61.18 L29.225,61.18 Z M36.835,61.18 C38.095,61.18 38.815,60.685 39.4,59.935 L38.86,59.455 C38.335,60.175 37.675,60.475 36.88,60.475 C35.185,60.475 34.15,59.11 34.15,57.37 C34.15,55.63 35.185,54.28 36.88,54.28 C37.675,54.28 38.335,54.565 38.86,55.285 L39.4,54.805 C38.815,54.07 38.095,53.575 36.835,53.575 C34.705,53.575 33.31,55.255 33.31,57.37 C33.31,59.485 34.705,61.18 36.835,61.18 L36.835,61.18 Z M47.01,61 L47.01,53.755 L46.23,53.755 L46.23,59.275 C45.75,59.92 44.805,60.475 43.875,60.475 C42.825,60.475 42.12,60.085 42.12,58.675 L42.12,53.755 L41.34,53.755 L41.34,58.855 C41.34,60.49 42.135,61.18 43.62,61.18 C44.67,61.18 45.63,60.595 46.23,59.935 L46.23,61 L47.01,61 Z M52.85,61.18 C54.05,61.18 54.965,60.76 55.685,60.01 L55.28,59.5 C54.665,60.16 53.825,60.505 52.91,60.505 C51.2,60.505 50.15,59.2 50.075,57.625 L56.135,57.625 L56.135,57.415 C56.135,55.33 54.92,53.575 52.715,53.575 C50.705,53.575 49.22,55.27 49.22,57.37 C49.22,59.605 50.735,61.18 52.85,61.18 L52.85,61.18 Z M55.34,57.01 L50.075,57.01 C50.135,55.75 50.99,54.25 52.7,54.25 C54.515,54.25 55.325,55.78 55.34,57.01 L55.34,57.01 Z M58.735,52.615 C59.065,52.615 59.335,52.345 59.335,52.015 C59.335,51.685 59.065,51.43 58.735,51.43 C58.42,51.43 58.135,51.685 58.135,52.015 C58.135,52.345 58.42,52.615 58.735,52.615 L58.735,52.615 Z M59.125,61 L59.125,53.755 L58.345,53.755 L58.345,61 L59.125,61 Z M62.535,61 L62.535,50.995 L61.755,50.995 L61.755,61 L62.535,61 Z" id="Accueil" fill="#BEBEBE" sketch:type="MSShapeGroup"></path>
                <path d="M4.446,36.866 L1.566,33.626 L4.446,30.44 L3.42,30.44 L0.54,33.626 L3.42,36.866 L4.446,36.866 Z" id="‹" fill="#BEBEBE" sketch:type="MSShapeGroup"></path>
            </g>
            <g id="Group" sketch:type="MSLayerGroup" transform="translate(632.000000, 414.000000)">
                <text id="‹" sketch:type="MSTextLayer" font-family="Proxima Nova" font-size="42" font-weight="260" fill="#FFFFFF">
                    <tspan x="12" y="68">‹</tspan>
                </text>
                <path d="M62.5,57.5 L57.5,57.5" id="Line" stroke="#FFFFFF" stroke-width="3" stroke-linecap="square" sketch:type="MSShapeGroup"></path>
                <path d="M37.5,57.5 L32.5,57.5" id="Line-Copy-2" stroke="#FFFFFF" stroke-width="3" stroke-linecap="square" sketch:type="MSShapeGroup"></path>
                <rect id="Rectangle-190" stroke="#FFFFFF" stroke-width="5" sketch:type="MSShapeGroup" x="0" y="0" width="273" height="171"></rect>
                <rect id="Rectangle-191" stroke="#FFFFFF" stroke-width="3" sketch:type="MSShapeGroup" x="30" y="40" width="35" height="35"></rect>
                <path d="M47.5,42.5 L47.5,47.5" id="Line" stroke="#FFFFFF" stroke-width="3" stroke-linecap="square" sketch:type="MSShapeGroup"></path>
                <path d="M47.5,67.5 L47.5,71.5" id="Line-Copy" stroke="#FFFFFF" stroke-width="3" stroke-linecap="square" sketch:type="MSShapeGroup"></path>
                <path d="M216.5,58.6255016 C213.725391,60.7426411 210.259531,62 206.5,62 C197.387302,62 190,54.6126984 190,45.5 C190,36.3873016 197.387302,29 206.5,29 C210.259531,29 213.725391,30.2573589 216.5,32.3744984 C212.549256,35.3890766 210,40.146833 210,45.5 C210,50.853167 212.549256,55.6109234 216.5,58.6255016 Z" id="Oval-3" stroke="#FFFFFF" stroke-width="3" sketch:type="MSShapeGroup"></path>
                <circle id="Oval-3-Copy" stroke="#FFFFFF" stroke-width="3" sketch:type="MSShapeGroup" cx="226.5" cy="45.5" r="16.5"></circle>
            </g>
            <path d="M483.288,83 C488.286,83 491.31,80.102 491.31,75.44 C491.31,72.122 488.832,69.014 485.85,68.552 C488.37,68.048 490.764,65.654 490.764,62.126 C490.764,57.716 487.74,54.986 483.036,54.986 L471.528,54.986 L471.528,83 L483.288,83 Z M482.742,67.544 L473.922,67.544 L473.922,57.17 L482.742,57.17 C486.354,57.17 488.244,59.522 488.244,62.378 C488.244,65.276 486.354,67.544 482.742,67.544 L482.742,67.544 Z M482.91,80.816 L473.922,80.816 L473.922,69.728 L482.91,69.728 C486.816,69.728 488.79,72.416 488.79,75.272 C488.79,78.674 486.606,80.816 482.91,80.816 L482.91,80.816 Z M498.324,59.522 C499.248,59.522 500.004,58.766 500.004,57.842 C500.004,56.918 499.248,56.204 498.324,56.204 C497.442,56.204 496.644,56.918 496.644,57.842 C496.644,58.766 497.442,59.522 498.324,59.522 L498.324,59.522 Z M499.416,83 L499.416,62.714 L497.232,62.714 L497.232,83 L499.416,83 Z M508.404,83 L508.404,54.986 L506.22,54.986 L506.22,83 L508.404,83 Z M517.392,83 L517.392,54.986 L515.208,54.986 L515.208,83 L517.392,83 Z M533.184,83.504 C536.544,83.504 539.106,82.328 541.122,80.228 L539.988,78.8 C538.266,80.648 535.914,81.614 533.352,81.614 C528.564,81.614 525.624,77.96 525.414,73.55 L542.382,73.55 L542.382,72.962 C542.382,67.124 538.98,62.21 532.806,62.21 C527.178,62.21 523.02,66.956 523.02,72.836 C523.02,79.094 527.262,83.504 533.184,83.504 L533.184,83.504 Z M540.156,71.828 L525.414,71.828 C525.582,68.3 527.976,64.1 532.764,64.1 C537.846,64.1 540.114,68.384 540.156,71.828 L540.156,71.828 Z M552.42,83.504 C554.1,83.504 555.066,83 555.864,82.244 L555.024,80.564 C554.562,81.068 553.722,81.53 552.756,81.53 C551.328,81.53 550.656,80.396 550.656,78.758 L550.656,64.646 L554.772,64.646 L554.772,62.714 L550.656,62.714 L550.656,57.17 L548.43,57.17 L548.43,62.714 L545.07,62.714 L545.07,64.646 L548.43,64.646 L548.43,79.094 C548.43,81.866 549.732,83.504 552.42,83.504 L552.42,83.504 Z" id="Billet" fill="#0079FE" sketch:type="MSShapeGroup"></path>
            <path d="M43.252,206 C47.644,206 50.2,203.372 50.2,199.52 C50.2,196.64 48.076,194.012 45.52,193.616 C47.716,193.148 49.732,191.132 49.732,188.108 C49.732,184.508 47.176,181.988 43,181.988 L32.308,181.988 L32.308,206 L43.252,206 Z M42.496,192.392 L35.296,192.392 L35.296,184.652 L42.496,184.652 C45.196,184.652 46.636,186.38 46.636,188.54 C46.636,190.736 45.196,192.392 42.496,192.392 L42.496,192.392 Z M42.64,203.336 L35.296,203.336 L35.296,195.056 L42.64,195.056 C45.592,195.056 47.104,197 47.104,199.196 C47.104,201.752 45.448,203.336 42.64,203.336 L42.64,203.336 Z M57.544,206 L57.544,193.688 C58.336,192.284 60.604,190.916 62.26,190.916 C62.692,190.916 63.016,190.952 63.34,191.024 L63.34,188.252 C60.964,188.252 58.948,189.584 57.544,191.42 L57.544,188.612 L54.844,188.612 L54.844,206 L57.544,206 Z M81.16,206 L81.16,188.612 L78.46,188.612 L78.46,201.392 C77.452,202.796 75.436,204.02 73.312,204.02 C70.972,204.02 69.424,203.12 69.424,200.06 L69.424,188.612 L66.724,188.612 L66.724,200.888 C66.724,204.668 68.632,206.432 72.268,206.432 C74.86,206.432 77.128,205.064 78.46,203.552 L78.46,206 L81.16,206 Z M100.96,206 L94.264,197.072 L100.564,188.612 L97.432,188.612 L92.608,195.236 L87.784,188.612 L84.652,188.612 L90.952,197.072 L84.292,206 L87.388,206 L92.608,198.872 L97.828,206 L100.96,206 Z M111.904,206.432 C114.748,206.432 117.088,205.496 118.816,203.768 L117.52,202.004 C116.152,203.408 114.136,204.2 112.156,204.2 C108.412,204.2 106.108,201.464 105.892,198.188 L119.968,198.188 L119.968,197.504 C119.968,192.284 116.872,188.18 111.616,188.18 C106.648,188.18 103.048,192.248 103.048,197.288 C103.048,202.724 106.756,206.432 111.904,206.432 L111.904,206.432 Z M117.304,196.208 L105.892,196.208 C106.036,193.544 107.872,190.412 111.58,190.412 C115.54,190.412 117.268,193.616 117.304,196.208 L117.304,196.208 Z M127.024,206 L127.024,181.988 L124.324,181.988 L124.324,206 L127.024,206 Z M135.124,206 L135.124,181.988 L132.424,181.988 L132.424,206 L135.124,206 Z M148.372,206.432 C151.216,206.432 153.556,205.496 155.284,203.768 L153.988,202.004 C152.62,203.408 150.604,204.2 148.624,204.2 C144.88,204.2 142.576,201.464 142.36,198.188 L156.436,198.188 L156.436,197.504 C156.436,192.284 153.34,188.18 148.084,188.18 C143.116,188.18 139.516,192.248 139.516,197.288 C139.516,202.724 143.224,206.432 148.372,206.432 L148.372,206.432 Z M153.772,196.208 L142.36,196.208 C142.504,193.544 144.34,190.412 148.048,190.412 C152.008,190.412 153.736,193.616 153.772,196.208 L153.772,196.208 Z M166.3,206.432 C170.8,206.432 173.14,204.092 173.14,201.176 C173.14,194.408 162.376,196.928 162.376,193.112 C162.376,191.564 163.852,190.376 166.228,190.376 C168.46,190.376 170.368,191.312 171.412,192.572 L172.672,190.7 C171.268,189.296 169.18,188.18 166.228,188.18 C162.088,188.18 159.748,190.484 159.748,193.184 C159.748,199.628 170.512,197.036 170.512,201.248 C170.512,202.976 169.072,204.236 166.408,204.236 C164.032,204.236 161.836,203.084 160.684,201.752 L159.28,203.696 C161.044,205.568 163.456,206.432 166.3,206.432 L166.3,206.432 Z M193.66,197.252 L187.9,190.88 L185.2,190.88 L190.96,197.252 L185.2,203.732 L187.9,203.732 L193.66,197.252 Z M220.984,206 L220.984,203.336 L209.824,203.336 L209.824,181.988 L206.836,181.988 L206.836,206 L220.984,206 Z M226.42,186.128 C227.428,186.128 228.256,185.336 228.256,184.328 C228.256,183.32 227.428,182.492 226.42,182.492 C225.448,182.492 224.62,183.32 224.62,184.328 C224.62,185.336 225.448,186.128 226.42,186.128 L226.42,186.128 Z M227.788,206 L227.788,188.612 L225.088,188.612 L225.088,206 L227.788,206 Z M241.036,206.432 C243.88,206.432 246.22,205.496 247.948,203.768 L246.652,202.004 C245.284,203.408 243.268,204.2 241.288,204.2 C237.544,204.2 235.24,201.464 235.024,198.188 L249.1,198.188 L249.1,197.504 C249.1,192.284 246.004,188.18 240.748,188.18 C235.78,188.18 232.18,192.248 232.18,197.288 C232.18,202.724 235.888,206.432 241.036,206.432 L241.036,206.432 Z M246.436,196.208 L235.024,196.208 C235.168,193.544 237.004,190.412 240.712,190.412 C244.672,190.412 246.4,193.616 246.436,196.208 L246.436,196.208 Z M242.8,185.984 L237.472,180.8 L234.664,180.8 L240.748,185.984 L242.8,185.984 Z M260.44,213.056 C264.688,213.056 268.72,211.256 268.72,205.496 L268.72,188.612 L266.02,188.612 L266.02,191.24 C264.616,189.332 262.528,188.18 260.188,188.18 C255.616,188.18 252.448,191.636 252.448,197.216 C252.448,202.832 255.652,206.216 260.188,206.216 C262.636,206.216 264.76,204.884 266.02,203.12 L266.02,205.604 C266.02,209.42 263.32,210.824 260.44,210.824 C257.956,210.824 256.228,210.176 254.788,208.448 L253.42,210.464 C255.472,212.48 257.488,213.056 260.44,213.056 L260.44,213.056 Z M260.836,203.84 C257.344,203.84 255.256,201.032 255.256,197.216 C255.256,193.364 257.344,190.592 260.836,190.592 C262.996,190.592 265.084,191.888 266.02,193.4 L266.02,200.996 C265.084,202.508 262.996,203.84 260.836,203.84 L260.836,203.84 Z M281.968,206.432 C284.812,206.432 287.152,205.496 288.88,203.768 L287.584,202.004 C286.216,203.408 284.2,204.2 282.22,204.2 C278.476,204.2 276.172,201.464 275.956,198.188 L290.032,198.188 L290.032,197.504 C290.032,192.284 286.936,188.18 281.68,188.18 C276.712,188.18 273.112,192.248 273.112,197.288 C273.112,202.724 276.82,206.432 281.968,206.432 L281.968,206.432 Z M287.368,196.208 L275.956,196.208 C276.1,193.544 277.936,190.412 281.644,190.412 C285.604,190.412 287.332,193.616 287.368,196.208 L287.368,196.208 Z M46.374,285 L39.38,267.658 L36.702,267.658 L29.734,285 L32.204,285 L33.738,281.152 L42.37,281.152 L43.904,285 L46.374,285 Z M41.72,279.228 L34.362,279.228 L38.054,269.894 L41.72,279.228 Z M50.508,285 L50.508,267.658 L48.558,267.658 L48.558,285 L50.508,285 Z M56.358,285 L56.358,267.658 L54.408,267.658 L54.408,285 L56.358,285 Z M65.926,285.312 C67.98,285.312 69.67,284.636 70.918,283.388 L69.982,282.114 C68.994,283.128 67.538,283.7 66.108,283.7 C63.404,283.7 61.74,281.724 61.584,279.358 L71.75,279.358 L71.75,278.864 C71.75,275.094 69.514,272.13 65.718,272.13 C62.13,272.13 59.53,275.068 59.53,278.708 C59.53,282.634 62.208,285.312 65.926,285.312 L65.926,285.312 Z M69.826,277.928 L61.584,277.928 C61.688,276.004 63.014,273.742 65.692,273.742 C68.552,273.742 69.8,276.056 69.826,277.928 L69.826,277.928 Z M76.846,285 L76.846,276.108 C77.418,275.094 79.056,274.106 80.252,274.106 C80.564,274.106 80.798,274.132 81.032,274.184 L81.032,272.182 C79.316,272.182 77.86,273.144 76.846,274.47 L76.846,272.442 L74.896,272.442 L74.896,285 L76.846,285 Z M94.162,285.312 C97.412,285.312 99.102,283.622 99.102,281.516 C99.102,276.628 91.328,278.448 91.328,275.692 C91.328,274.574 92.394,273.716 94.11,273.716 C95.722,273.716 97.1,274.392 97.854,275.302 L98.764,273.95 C97.75,272.936 96.242,272.13 94.11,272.13 C91.12,272.13 89.43,273.794 89.43,275.744 C89.43,280.398 97.204,278.526 97.204,281.568 C97.204,282.816 96.164,283.726 94.24,283.726 C92.524,283.726 90.938,282.894 90.106,281.932 L89.092,283.336 C90.366,284.688 92.108,285.312 94.162,285.312 L94.162,285.312 Z M103.236,270.648 C103.964,270.648 104.562,270.076 104.562,269.348 C104.562,268.62 103.964,268.022 103.236,268.022 C102.534,268.022 101.936,268.62 101.936,269.348 C101.936,270.076 102.534,270.648 103.236,270.648 L103.236,270.648 Z M104.224,285 L104.224,272.442 L102.274,272.442 L102.274,285 L104.224,285 Z M125.232,285 L125.232,275.926 C125.232,273.404 124.01,272.13 121.722,272.13 C119.902,272.13 118.212,273.326 117.51,274.47 C117.146,273.17 116.054,272.13 114.13,272.13 C112.284,272.13 110.594,273.456 110.074,274.262 L110.074,272.442 L108.124,272.442 L108.124,285 L110.074,285 L110.074,275.822 C110.75,274.808 112.102,273.872 113.376,273.872 C115.014,273.872 115.69,274.886 115.69,276.472 L115.69,285 L117.64,285 L117.64,275.796 C118.29,274.808 119.668,273.872 120.968,273.872 C122.58,273.872 123.282,274.886 123.282,276.472 L123.282,285 L125.232,285 Z M135.32,285.312 C138.622,285.312 140.91,282.764 140.91,278.708 C140.91,274.626 138.622,272.13 135.32,272.13 C133.552,272.13 131.992,273.04 131.082,274.314 L131.082,272.442 L129.132,272.442 L129.132,289.784 L131.082,289.784 L131.082,283.102 C132.096,284.506 133.604,285.312 135.32,285.312 L135.32,285.312 Z M134.826,283.57 C133.292,283.57 131.758,282.634 131.082,281.542 L131.082,275.874 C131.758,274.782 133.292,273.872 134.826,273.872 C137.348,273.872 138.856,275.926 138.856,278.708 C138.856,281.49 137.348,283.57 134.826,283.57 L134.826,283.57 Z M145.954,285 L145.954,267.658 L144.004,267.658 L144.004,285 L145.954,285 Z M155.522,285.312 C157.576,285.312 159.266,284.636 160.514,283.388 L159.578,282.114 C158.59,283.128 157.134,283.7 155.704,283.7 C153,283.7 151.336,281.724 151.18,279.358 L161.346,279.358 L161.346,278.864 C161.346,275.094 159.11,272.13 155.314,272.13 C151.726,272.13 149.126,275.068 149.126,278.708 C149.126,282.634 151.804,285.312 155.522,285.312 L155.522,285.312 Z M159.422,277.928 L151.18,277.928 C151.284,276.004 152.61,273.742 155.288,273.742 C158.148,273.742 159.396,276.056 159.422,277.928 L159.422,277.928 Z M37.976,317 L37.976,301.582 L43.488,301.582 L43.488,299.658 L30.332,299.658 L30.332,301.582 L35.818,301.582 L35.818,317 L37.976,317 Z M56.072,317 L56.072,308.368 C56.072,305.326 53.862,304.13 51.21,304.13 C49.156,304.13 47.544,304.806 46.192,306.21 L47.102,307.562 C48.22,306.366 49.442,305.82 50.95,305.82 C52.77,305.82 54.122,306.782 54.122,308.472 L54.122,310.734 C53.108,309.564 51.678,309.018 49.962,309.018 C47.83,309.018 45.568,310.344 45.568,313.152 C45.568,315.882 47.83,317.312 49.962,317.312 C51.652,317.312 53.082,316.714 54.122,315.57 L54.122,317 L56.072,317 Z M50.664,315.908 C48.844,315.908 47.57,314.764 47.57,313.178 C47.57,311.566 48.844,310.422 50.664,310.422 C52.042,310.422 53.368,310.942 54.122,311.982 L54.122,314.348 C53.368,315.388 52.042,315.908 50.664,315.908 L50.664,315.908 Z M61.922,317 L61.922,308.108 C62.494,307.094 64.132,306.106 65.328,306.106 C65.64,306.106 65.874,306.132 66.108,306.184 L66.108,304.182 C64.392,304.182 62.936,305.144 61.922,306.47 L61.922,304.442 L59.972,304.442 L59.972,317 L61.922,317 Z M69.514,302.648 C70.242,302.648 70.84,302.076 70.84,301.348 C70.84,300.62 70.242,300.022 69.514,300.022 C68.812,300.022 68.214,300.62 68.214,301.348 C68.214,302.076 68.812,302.648 69.514,302.648 L69.514,302.648 Z M70.502,317 L70.502,304.442 L68.552,304.442 L68.552,317 L70.502,317 Z M76.898,317 L76.898,306.158 L79.446,306.158 L79.446,304.442 L76.898,304.442 L76.898,303.48 C76.898,301.894 77.6,301.01 78.874,301.01 C79.524,301.01 80.018,301.27 80.434,301.634 L81.24,300.36 C80.46,299.632 79.576,299.398 78.588,299.398 C76.352,299.398 74.948,300.906 74.948,303.48 L74.948,304.442 L72.868,304.442 L72.868,306.158 L74.948,306.158 L74.948,317 L76.898,317 Z M92.446,317.312 C95.696,317.312 97.386,315.622 97.386,313.516 C97.386,308.628 89.612,310.448 89.612,307.692 C89.612,306.574 90.678,305.716 92.394,305.716 C94.006,305.716 95.384,306.392 96.138,307.302 L97.048,305.95 C96.034,304.936 94.526,304.13 92.394,304.13 C89.404,304.13 87.714,305.794 87.714,307.744 C87.714,312.398 95.488,310.526 95.488,313.568 C95.488,314.816 94.448,315.726 92.524,315.726 C90.808,315.726 89.222,314.894 88.39,313.932 L87.376,315.336 C88.65,316.688 90.392,317.312 92.446,317.312 L92.446,317.312 Z M103.73,317.312 C104.874,317.312 105.576,316.974 106.07,316.506 L105.498,315.05 C105.238,315.336 104.718,315.57 104.172,315.57 C103.314,315.57 102.898,314.894 102.898,313.958 L102.898,306.158 L105.446,306.158 L105.446,304.442 L102.898,304.442 L102.898,301.01 L100.948,301.01 L100.948,304.442 L98.868,304.442 L98.868,306.158 L100.948,306.158 L100.948,314.374 C100.948,316.246 101.884,317.312 103.73,317.312 L103.73,317.312 Z M118.004,317 L118.004,308.368 C118.004,305.326 115.794,304.13 113.142,304.13 C111.088,304.13 109.476,304.806 108.124,306.21 L109.034,307.562 C110.152,306.366 111.374,305.82 112.882,305.82 C114.702,305.82 116.054,306.782 116.054,308.472 L116.054,310.734 C115.04,309.564 113.61,309.018 111.894,309.018 C109.762,309.018 107.5,310.344 107.5,313.152 C107.5,315.882 109.762,317.312 111.894,317.312 C113.584,317.312 115.014,316.714 116.054,315.57 L116.054,317 L118.004,317 Z M112.596,315.908 C110.776,315.908 109.502,314.764 109.502,313.178 C109.502,311.566 110.776,310.422 112.596,310.422 C113.974,310.422 115.3,310.942 116.054,311.982 L116.054,314.348 C115.3,315.388 113.974,315.908 112.596,315.908 L112.596,315.908 Z M132.33,317 L132.33,308.186 C132.33,305.456 130.952,304.13 128.326,304.13 C126.454,304.13 124.738,305.222 123.854,306.262 L123.854,304.442 L121.904,304.442 L121.904,317 L123.854,317 L123.854,307.822 C124.582,306.808 126.038,305.872 127.572,305.872 C129.262,305.872 130.38,306.574 130.38,308.784 L130.38,317 L132.33,317 Z M147.28,317 L147.28,299.658 L145.33,299.658 L145.33,306.34 C144.316,304.962 142.782,304.13 141.092,304.13 C137.79,304.13 135.502,306.73 135.502,310.734 C135.502,314.816 137.816,317.312 141.092,317.312 C142.86,317.312 144.394,316.402 145.33,315.128 L145.33,317 L147.28,317 Z M141.56,315.57 C139.038,315.57 137.53,313.516 137.53,310.734 C137.53,307.952 139.038,305.872 141.56,305.872 C143.12,305.872 144.628,306.808 145.33,307.9 L145.33,313.594 C144.628,314.686 143.12,315.57 141.56,315.57 L141.56,315.57 Z M160.982,317 L160.982,308.368 C160.982,305.326 158.772,304.13 156.12,304.13 C154.066,304.13 152.454,304.806 151.102,306.21 L152.012,307.562 C153.13,306.366 154.352,305.82 155.86,305.82 C157.68,305.82 159.032,306.782 159.032,308.472 L159.032,310.734 C158.018,309.564 156.588,309.018 154.872,309.018 C152.74,309.018 150.478,310.344 150.478,313.152 C150.478,315.882 152.74,317.312 154.872,317.312 C156.562,317.312 157.992,316.714 159.032,315.57 L159.032,317 L160.982,317 Z M155.574,315.908 C153.754,315.908 152.48,314.764 152.48,313.178 C152.48,311.566 153.754,310.422 155.574,310.422 C156.952,310.422 158.278,310.942 159.032,311.982 L159.032,314.348 C158.278,315.388 156.952,315.908 155.574,315.908 L155.574,315.908 Z M166.832,317 L166.832,308.108 C167.404,307.094 169.042,306.106 170.238,306.106 C170.55,306.106 170.784,306.132 171.018,306.184 L171.018,304.182 C169.302,304.182 167.846,305.144 166.832,306.47 L166.832,304.442 L164.882,304.442 L164.882,317 L166.832,317 Z M184.512,317 L184.512,299.658 L182.562,299.658 L182.562,306.34 C181.548,304.962 180.014,304.13 178.324,304.13 C175.022,304.13 172.734,306.73 172.734,310.734 C172.734,314.816 175.048,317.312 178.324,317.312 C180.092,317.312 181.626,316.402 182.562,315.128 L182.562,317 L184.512,317 Z M178.792,315.57 C176.27,315.57 174.762,313.516 174.762,310.734 C174.762,307.952 176.27,305.872 178.792,305.872 C180.352,305.872 181.86,306.808 182.562,307.9 L182.562,313.594 C181.86,314.686 180.352,315.57 178.792,315.57 L178.792,315.57 Z M36.286,393 L36.286,375.658 L34.388,375.658 L30.046,380.13 L31.346,381.456 L34.128,378.518 L34.128,393 L36.286,393 Z M52.64,393.312 C54.694,393.312 56.384,392.636 57.632,391.388 L56.696,390.114 C55.708,391.128 54.252,391.7 52.822,391.7 C50.118,391.7 48.454,389.724 48.298,387.358 L58.464,387.358 L58.464,386.864 C58.464,383.094 56.228,380.13 52.432,380.13 C48.844,380.13 46.244,383.068 46.244,386.708 C46.244,390.634 48.922,393.312 52.64,393.312 L52.64,393.312 Z M56.54,385.928 L48.298,385.928 C48.402,384.004 49.728,381.742 52.406,381.742 C55.266,381.742 56.514,384.056 56.54,385.928 L56.54,385.928 Z M72.036,393 L72.036,384.186 C72.036,381.456 70.658,380.13 68.032,380.13 C66.16,380.13 64.444,381.222 63.56,382.262 L63.56,380.442 L61.61,380.442 L61.61,393 L63.56,393 L63.56,383.822 C64.288,382.808 65.744,381.872 67.278,381.872 C68.968,381.872 70.086,382.574 70.086,384.784 L70.086,393 L72.036,393 Z M78.432,393 L78.432,382.158 L80.98,382.158 L80.98,380.442 L78.432,380.442 L78.432,379.48 C78.432,377.894 79.134,377.01 80.408,377.01 C81.058,377.01 81.552,377.27 81.968,377.634 L82.774,376.36 C81.994,375.632 81.11,375.398 80.122,375.398 C77.886,375.398 76.482,376.906 76.482,379.48 L76.482,380.442 L74.402,380.442 L74.402,382.158 L76.482,382.158 L76.482,393 L78.432,393 Z M93.096,393 L93.096,384.368 C93.096,381.326 90.886,380.13 88.234,380.13 C86.18,380.13 84.568,380.806 83.216,382.21 L84.126,383.562 C85.244,382.366 86.466,381.82 87.974,381.82 C89.794,381.82 91.146,382.782 91.146,384.472 L91.146,386.734 C90.132,385.564 88.702,385.018 86.986,385.018 C84.854,385.018 82.592,386.344 82.592,389.152 C82.592,391.882 84.854,393.312 86.986,393.312 C88.676,393.312 90.106,392.714 91.146,391.57 L91.146,393 L93.096,393 Z M87.688,391.908 C85.868,391.908 84.594,390.764 84.594,389.178 C84.594,387.566 85.868,386.422 87.688,386.422 C89.066,386.422 90.392,386.942 91.146,387.982 L91.146,390.348 C90.392,391.388 89.066,391.908 87.688,391.908 L87.688,391.908 Z M107.422,393 L107.422,384.186 C107.422,381.456 106.044,380.13 103.418,380.13 C101.546,380.13 99.83,381.222 98.946,382.262 L98.946,380.442 L96.996,380.442 L96.996,393 L98.946,393 L98.946,383.822 C99.674,382.808 101.13,381.872 102.664,381.872 C104.354,381.872 105.472,382.574 105.472,384.784 L105.472,393 L107.422,393 Z M114.494,393.312 C115.638,393.312 116.34,392.974 116.834,392.506 L116.262,391.05 C116.002,391.336 115.482,391.57 114.936,391.57 C114.078,391.57 113.662,390.894 113.662,389.958 L113.662,382.158 L116.21,382.158 L116.21,380.442 L113.662,380.442 L113.662,377.01 L111.712,377.01 L111.712,380.442 L109.632,380.442 L109.632,382.158 L111.712,382.158 L111.712,390.374 C111.712,392.246 112.648,393.312 114.494,393.312 L114.494,393.312 Z M42.812,425 L42.812,423.076 L34.31,423.076 C39.146,419.254 42.734,416.03 42.734,412.494 C42.734,409.036 39.796,407.398 36.91,407.398 C34.466,407.398 32.204,408.386 30.878,410.128 L32.204,411.506 C33.218,410.206 34.83,409.322 36.91,409.322 C38.704,409.322 40.524,410.284 40.524,412.494 C40.524,415.484 37.144,418.37 30.904,423.284 L30.904,425 L42.812,425 Z M63.248,425 L63.248,416.368 C63.248,413.326 61.038,412.13 58.386,412.13 C56.332,412.13 54.72,412.806 53.368,414.21 L54.278,415.562 C55.396,414.366 56.618,413.82 58.126,413.82 C59.946,413.82 61.298,414.782 61.298,416.472 L61.298,418.734 C60.284,417.564 58.854,417.018 57.138,417.018 C55.006,417.018 52.744,418.344 52.744,421.152 C52.744,423.882 55.006,425.312 57.138,425.312 C58.828,425.312 60.258,424.714 61.298,423.57 L61.298,425 L63.248,425 Z M57.84,423.908 C56.02,423.908 54.746,422.764 54.746,421.178 C54.746,419.566 56.02,418.422 57.84,418.422 C59.218,418.422 60.544,418.942 61.298,419.982 L61.298,422.348 C60.544,423.388 59.218,423.908 57.84,423.908 L57.84,423.908 Z M78.198,425 L78.198,407.658 L76.248,407.658 L76.248,414.34 C75.234,412.962 73.7,412.13 72.01,412.13 C68.708,412.13 66.42,414.73 66.42,418.734 C66.42,422.816 68.734,425.312 72.01,425.312 C73.778,425.312 75.312,424.402 76.248,423.128 L76.248,425 L78.198,425 Z M72.478,423.57 C69.956,423.57 68.448,421.516 68.448,418.734 C68.448,415.952 69.956,413.872 72.478,413.872 C74.038,413.872 75.546,414.808 76.248,415.9 L76.248,421.594 C75.546,422.686 74.038,423.57 72.478,423.57 L72.478,423.57 Z M92.524,425 L92.524,412.442 L90.574,412.442 L90.574,421.672 C89.846,422.686 88.39,423.57 86.856,423.57 C85.166,423.57 84.048,422.92 84.048,420.71 L84.048,412.442 L82.098,412.442 L82.098,421.308 C82.098,424.038 83.476,425.312 86.102,425.312 C87.974,425.312 89.612,424.324 90.574,423.232 L90.574,425 L92.524,425 Z M98.374,425 L98.374,407.658 L96.424,407.658 L96.424,425 L98.374,425 Z M105.446,425.312 C106.59,425.312 107.292,424.974 107.786,424.506 L107.214,423.05 C106.954,423.336 106.434,423.57 105.888,423.57 C105.03,423.57 104.614,422.894 104.614,421.958 L104.614,414.158 L107.162,414.158 L107.162,412.442 L104.614,412.442 L104.614,409.01 L102.664,409.01 L102.664,412.442 L100.584,412.442 L100.584,414.158 L102.664,414.158 L102.664,422.374 C102.664,424.246 103.6,425.312 105.446,425.312 L105.446,425.312 Z M115.586,425.312 C117.64,425.312 119.33,424.636 120.578,423.388 L119.642,422.114 C118.654,423.128 117.198,423.7 115.768,423.7 C113.064,423.7 111.4,421.724 111.244,419.358 L121.41,419.358 L121.41,418.864 C121.41,415.094 119.174,412.13 115.378,412.13 C111.79,412.13 109.19,415.068 109.19,418.708 C109.19,422.634 111.868,425.312 115.586,425.312 L115.586,425.312 Z M119.486,417.928 L111.244,417.928 C111.348,416.004 112.674,413.742 115.352,413.742 C118.212,413.742 119.46,416.056 119.486,417.928 L119.486,417.928 Z M128.534,425.312 C131.784,425.312 133.474,423.622 133.474,421.516 C133.474,416.628 125.7,418.448 125.7,415.692 C125.7,414.574 126.766,413.716 128.482,413.716 C130.094,413.716 131.472,414.392 132.226,415.302 L133.136,413.95 C132.122,412.936 130.614,412.13 128.482,412.13 C125.492,412.13 123.802,413.794 123.802,415.744 C123.802,420.398 131.576,418.526 131.576,421.568 C131.576,422.816 130.536,423.726 128.612,423.726 C126.896,423.726 125.31,422.894 124.478,421.932 L123.464,423.336 C124.738,424.688 126.48,425.312 128.534,425.312 L128.534,425.312 Z M32.398,472 L32.398,467.23 L35.728,467.23 C38.104,467.23 39.49,465.574 39.49,463.612 C39.49,461.65 38.14,459.994 35.728,459.994 L30.904,459.994 L30.904,472 L32.398,472 Z M35.548,465.898 L32.398,465.898 L32.398,461.326 L35.548,461.326 C36.97,461.326 37.942,462.262 37.942,463.612 C37.942,464.962 36.97,465.898 35.548,465.898 L35.548,465.898 Z M48.202,472 L48.202,466.024 C48.202,463.918 46.672,463.09 44.836,463.09 C43.414,463.09 42.298,463.558 41.362,464.53 L41.992,465.466 C42.766,464.638 43.612,464.26 44.656,464.26 C45.916,464.26 46.852,464.926 46.852,466.096 L46.852,467.662 C46.15,466.852 45.16,466.474 43.972,466.474 C42.496,466.474 40.93,467.392 40.93,469.336 C40.93,471.226 42.496,472.216 43.972,472.216 C45.142,472.216 46.132,471.802 46.852,471.01 L46.852,472 L48.202,472 Z M44.458,471.244 C43.198,471.244 42.316,470.452 42.316,469.354 C42.316,468.238 43.198,467.446 44.458,467.446 C45.412,467.446 46.33,467.806 46.852,468.526 L46.852,470.164 C46.33,470.884 45.412,471.244 44.458,471.244 L44.458,471.244 Z M53.656,472.216 C55.906,472.216 57.076,471.046 57.076,469.588 C57.076,466.204 51.694,467.464 51.694,465.556 C51.694,464.782 52.432,464.188 53.62,464.188 C54.736,464.188 55.69,464.656 56.212,465.286 L56.842,464.35 C56.14,463.648 55.096,463.09 53.62,463.09 C51.55,463.09 50.38,464.242 50.38,465.592 C50.38,468.814 55.762,467.518 55.762,469.624 C55.762,470.488 55.042,471.118 53.71,471.118 C52.522,471.118 51.424,470.542 50.848,469.876 L50.146,470.848 C51.028,471.784 52.234,472.216 53.656,472.216 L53.656,472.216 Z M71.566,472 L71.566,459.994 L70.216,459.994 L70.216,464.62 C69.514,463.666 68.452,463.09 67.282,463.09 C64.996,463.09 63.412,464.89 63.412,467.662 C63.412,470.488 65.014,472.216 67.282,472.216 C68.506,472.216 69.568,471.586 70.216,470.704 L70.216,472 L71.566,472 Z M67.606,471.01 C65.86,471.01 64.816,469.588 64.816,467.662 C64.816,465.736 65.86,464.296 67.606,464.296 C68.686,464.296 69.73,464.944 70.216,465.7 L70.216,469.642 C69.73,470.398 68.686,471.01 67.606,471.01 L67.606,471.01 Z M78.19,472.216 C79.612,472.216 80.782,471.748 81.646,470.884 L80.998,470.002 C80.314,470.704 79.306,471.1 78.316,471.1 C76.444,471.1 75.292,469.732 75.184,468.094 L82.222,468.094 L82.222,467.752 C82.222,465.142 80.674,463.09 78.046,463.09 C75.562,463.09 73.762,465.124 73.762,467.644 C73.762,470.362 75.616,472.216 78.19,472.216 L78.19,472.216 Z M80.89,467.104 L75.184,467.104 C75.256,465.772 76.174,464.206 78.028,464.206 C80.008,464.206 80.872,465.808 80.89,467.104 L80.89,467.104 Z M91.798,472.216 C94.048,472.216 95.218,471.046 95.218,469.588 C95.218,466.204 89.836,467.464 89.836,465.556 C89.836,464.782 90.574,464.188 91.762,464.188 C92.878,464.188 93.832,464.656 94.354,465.286 L94.984,464.35 C94.282,463.648 93.238,463.09 91.762,463.09 C89.692,463.09 88.522,464.242 88.522,465.592 C88.522,468.814 93.904,467.518 93.904,469.624 C93.904,470.488 93.184,471.118 91.852,471.118 C90.664,471.118 89.566,470.542 88.99,469.876 L88.288,470.848 C89.17,471.784 90.376,472.216 91.798,472.216 L91.798,472.216 Z M104.632,472 L104.632,463.306 L103.282,463.306 L103.282,469.696 C102.778,470.398 101.77,471.01 100.708,471.01 C99.538,471.01 98.764,470.56 98.764,469.03 L98.764,463.306 L97.414,463.306 L97.414,469.444 C97.414,471.334 98.368,472.216 100.186,472.216 C101.482,472.216 102.616,471.532 103.282,470.776 L103.282,472 L104.632,472 Z M111.616,472.216 C113.902,472.216 115.486,470.452 115.486,467.644 C115.486,464.818 113.902,463.09 111.616,463.09 C110.392,463.09 109.312,463.72 108.682,464.602 L108.682,463.306 L107.332,463.306 L107.332,475.312 L108.682,475.312 L108.682,470.686 C109.384,471.658 110.428,472.216 111.616,472.216 L111.616,472.216 Z M111.274,471.01 C110.212,471.01 109.15,470.362 108.682,469.606 L108.682,465.682 C109.15,464.926 110.212,464.296 111.274,464.296 C113.02,464.296 114.064,465.718 114.064,467.644 C114.064,469.57 113.02,471.01 111.274,471.01 L111.274,471.01 Z M121.912,472.216 C124.198,472.216 125.782,470.452 125.782,467.644 C125.782,464.818 124.198,463.09 121.912,463.09 C120.688,463.09 119.608,463.72 118.978,464.602 L118.978,463.306 L117.628,463.306 L117.628,475.312 L118.978,475.312 L118.978,470.686 C119.68,471.658 120.724,472.216 121.912,472.216 L121.912,472.216 Z M121.57,471.01 C120.508,471.01 119.446,470.362 118.978,469.606 L118.978,465.682 C119.446,464.926 120.508,464.296 121.57,464.296 C123.316,464.296 124.36,465.718 124.36,467.644 C124.36,469.57 123.316,471.01 121.57,471.01 L121.57,471.01 Z M129.274,472 L129.274,459.994 L127.924,459.994 L127.924,472 L129.274,472 Z M138.796,459.4 L137.392,459.4 L134.728,461.992 L135.754,461.992 L138.796,459.4 Z M135.898,472.216 C137.32,472.216 138.49,471.748 139.354,470.884 L138.706,470.002 C138.022,470.704 137.014,471.1 136.024,471.1 C134.152,471.1 133,469.732 132.892,468.094 L139.93,468.094 L139.93,467.752 C139.93,465.142 138.382,463.09 135.754,463.09 C133.27,463.09 131.47,465.124 131.47,467.644 C131.47,470.362 133.324,472.216 135.898,472.216 L135.898,472.216 Z M138.598,467.104 L132.892,467.104 C132.964,465.772 133.882,464.206 135.736,464.206 C137.716,464.206 138.58,465.808 138.598,467.104 L138.598,467.104 Z M153.952,472 L153.952,465.718 C153.952,463.972 153.106,463.09 151.522,463.09 C150.262,463.09 149.092,463.918 148.606,464.71 C148.354,463.81 147.598,463.09 146.266,463.09 C144.988,463.09 143.818,464.008 143.458,464.566 L143.458,463.306 L142.108,463.306 L142.108,472 L143.458,472 L143.458,465.646 C143.926,464.944 144.862,464.296 145.744,464.296 C146.878,464.296 147.346,464.998 147.346,466.096 L147.346,472 L148.696,472 L148.696,465.628 C149.146,464.944 150.1,464.296 151,464.296 C152.116,464.296 152.602,464.998 152.602,466.096 L152.602,472 L153.952,472 Z M160.576,472.216 C161.998,472.216 163.168,471.748 164.032,470.884 L163.384,470.002 C162.7,470.704 161.692,471.1 160.702,471.1 C158.83,471.1 157.678,469.732 157.57,468.094 L164.608,468.094 L164.608,467.752 C164.608,465.142 163.06,463.09 160.432,463.09 C157.948,463.09 156.148,465.124 156.148,467.644 C156.148,470.362 158.002,472.216 160.576,472.216 L160.576,472.216 Z M163.276,467.104 L157.57,467.104 C157.642,465.772 158.56,464.206 160.414,464.206 C162.394,464.206 163.258,465.808 163.276,467.104 L163.276,467.104 Z M174.004,472 L174.004,465.898 C174.004,464.008 173.05,463.09 171.232,463.09 C169.936,463.09 168.748,463.846 168.136,464.566 L168.136,463.306 L166.786,463.306 L166.786,472 L168.136,472 L168.136,465.646 C168.64,464.944 169.648,464.296 170.71,464.296 C171.88,464.296 172.654,464.782 172.654,466.312 L172.654,472 L174.004,472 Z M178.9,472.216 C179.692,472.216 180.178,471.982 180.52,471.658 L180.124,470.65 C179.944,470.848 179.584,471.01 179.206,471.01 C178.612,471.01 178.324,470.542 178.324,469.894 L178.324,464.494 L180.088,464.494 L180.088,463.306 L178.324,463.306 L178.324,460.93 L176.974,460.93 L176.974,463.306 L175.534,463.306 L175.534,464.494 L176.974,464.494 L176.974,470.182 C176.974,471.478 177.622,472.216 178.9,472.216 L178.9,472.216 Z" id="Bruxelles-›-Liège" fill="#FFFFFF" sketch:type="MSShapeGroup"></path>
            <path d="M379.642,622 L379.642,614.902 L383.59,614.902 L383.59,611.836 L379.642,611.836 L379.642,593.986 L374.854,593.986 L362.842,612.004 L362.842,614.902 L376.156,614.902 L376.156,622 L379.642,622 Z M376.156,611.836 L366.328,611.836 L376.156,597.22 L376.156,611.836 Z M397.576,622.504 C403.204,622.504 407.53,618.976 407.53,613.264 C407.53,607.51 403.288,604.318 398.626,604.318 C395.812,604.318 393.418,605.494 392.074,606.838 L392.074,597.094 L405.724,597.094 L405.724,593.986 L388.588,593.986 L388.588,609.106 L391.15,609.988 C393.04,608.14 395.14,607.342 397.618,607.342 C401.398,607.342 404.044,609.694 404.044,613.39 C404.044,616.792 401.398,619.396 397.576,619.396 C394.132,619.396 391.696,618.052 389.848,615.7 L387.706,618.01 C389.806,620.782 392.83,622.504 397.576,622.504 L397.576,622.504 Z M417.106,620.992 C417.106,618.976 415.846,617.8 414.46,617.8 C413.2,617.8 412.234,618.85 412.234,620.068 C412.234,621.328 413.074,622.21 414.25,622.21 C414.46,622.21 414.754,622.168 414.838,622.126 C414.67,623.512 413.452,625.15 412.108,626.032 L413.662,627.334 C415.594,625.948 417.106,623.554 417.106,620.992 L417.106,620.992 Z M430.714,613.222 L430.714,610.45 L420.634,610.45 L420.634,613.222 L430.714,613.222 Z M460.24,622.504 C465.196,622.504 468.556,620.152 470.908,616.96 L467.926,615.322 C466.33,617.716 463.432,619.396 460.24,619.396 C455.452,619.396 451.546,616.498 450.076,612.046 L462.802,612.046 L462.802,609.862 L449.572,609.862 C449.488,609.274 449.446,608.644 449.446,608.014 C449.446,607.342 449.488,606.712 449.572,606.082 L462.802,606.082 L462.802,603.898 L450.076,603.898 C451.588,599.488 455.452,596.632 460.24,596.632 C463.432,596.632 466.33,598.354 467.926,600.706 L470.866,599.068 C468.64,595.918 465.196,593.524 460.24,593.524 C453.52,593.524 448.018,597.598 446.338,603.898 L444.112,603.898 L444.112,606.082 L445.918,606.082 C445.876,606.712 445.834,607.384 445.834,608.014 C445.834,608.644 445.876,609.274 445.918,609.862 L444.112,609.862 L444.112,612.046 L446.338,612.046 C447.976,618.43 453.478,622.504 460.24,622.504 L460.24,622.504 Z" id="45,--€" fill="#FFFFFF" sketch:type="MSShapeGroup"></path>
            <path d="M46.1125,722.625 L42.1125,718.125 L46.1125,713.7 L44.6875,713.7 L40.6875,718.125 L44.6875,722.625 L46.1125,722.625 Z M62.8375,724.2 L62.8375,717.275 L67.6625,717.275 C70.8375,717.275 72.6875,715.025 72.6875,712.4 C72.6875,709.775 70.8625,707.525 67.6625,707.525 L61.4125,707.525 L61.4125,724.2 L62.8375,724.2 Z M67.5125,715.975 L62.8375,715.975 L62.8375,708.825 L67.5125,708.825 C69.7125,708.825 71.1875,710.3 71.1875,712.4 C71.1875,714.5 69.7125,715.975 67.5125,715.975 L67.5125,715.975 Z M79.9375,724.2 L79.9375,715.4 C80.4875,714.35 82.1375,713.25 83.3625,713.25 C83.6125,713.25 83.7875,713.25 84.0125,713.3 L84.0125,711.875 C82.3375,711.875 80.9625,712.85 79.9375,714.2 L79.9375,712.125 L78.6375,712.125 L78.6375,724.2 L79.9375,724.2 Z M98.7375,706.7 L97.1875,706.7 L93.3375,710.3 L94.4375,710.3 L98.7375,706.7 Z M94.9125,724.5 C96.9125,724.5 98.4375,723.8 99.6375,722.55 L98.9625,721.7 C97.9375,722.8 96.5375,723.375 95.0125,723.375 C92.1625,723.375 90.4125,721.2 90.2875,718.575 L100.3875,718.575 L100.3875,718.225 C100.3875,714.75 98.3625,711.825 94.6875,711.825 C91.3375,711.825 88.8625,714.65 88.8625,718.15 C88.8625,721.875 91.3875,724.5 94.9125,724.5 L94.9125,724.5 Z M99.0625,717.55 L90.2875,717.55 C90.3875,715.45 91.8125,712.95 94.6625,712.95 C97.6875,712.95 99.0375,715.5 99.0625,717.55 L99.0625,717.55 Z M111.9125,724.5 C114.0125,724.5 115.2125,723.675 116.1875,722.425 L115.2875,721.625 C114.4125,722.825 113.3125,723.325 111.9875,723.325 C109.1625,723.325 107.4375,721.05 107.4375,718.15 C107.4375,715.25 109.1625,713 111.9875,713 C113.3125,713 114.4125,713.475 115.2875,714.675 L116.1875,713.875 C115.2125,712.65 114.0125,711.825 111.9125,711.825 C108.3625,711.825 106.0375,714.625 106.0375,718.15 C106.0375,721.675 108.3625,724.5 111.9125,724.5 L111.9125,724.5 Z M131.2625,706.7 L129.7125,706.7 L125.8625,710.3 L126.9625,710.3 L131.2625,706.7 Z M127.4375,724.5 C129.4375,724.5 130.9625,723.8 132.1625,722.55 L131.4875,721.7 C130.4625,722.8 129.0625,723.375 127.5375,723.375 C124.6875,723.375 122.9375,721.2 122.8125,718.575 L132.9125,718.575 L132.9125,718.225 C132.9125,714.75 130.8875,711.825 127.2125,711.825 C123.8625,711.825 121.3875,714.65 121.3875,718.15 C121.3875,721.875 123.9125,724.5 127.4375,724.5 L127.4375,724.5 Z M131.5875,717.55 L122.8125,717.55 C122.9125,715.45 124.3375,712.95 127.1875,712.95 C130.2125,712.95 131.5625,715.5 131.5875,717.55 L131.5875,717.55 Z M149.4875,724.2 L149.4875,707.525 L148.1625,707.525 L148.1625,714.075 C147.1875,712.7 145.6875,711.825 143.9625,711.825 C140.7625,711.825 138.5625,714.35 138.5625,718.175 C138.5625,722.05 140.7625,724.5 143.9625,724.5 C145.7625,724.5 147.3125,723.525 148.1625,722.275 L148.1625,724.2 L149.4875,724.2 Z M144.1875,723.325 C141.5125,723.325 139.9625,721.1 139.9625,718.175 C139.9625,715.25 141.5125,713 144.1875,713 C145.8875,713 147.4625,714.025 148.1625,715.2 L148.1625,721.175 C147.4625,722.325 145.8875,723.325 144.1875,723.325 L144.1875,723.325 Z M161.8875,724.5 C163.8875,724.5 165.4125,723.8 166.6125,722.55 L165.9375,721.7 C164.9125,722.8 163.5125,723.375 161.9875,723.375 C159.1375,723.375 157.3875,721.2 157.2625,718.575 L167.3625,718.575 L167.3625,718.225 C167.3625,714.75 165.3375,711.825 161.6625,711.825 C158.3125,711.825 155.8375,714.65 155.8375,718.15 C155.8375,721.875 158.3625,724.5 161.8875,724.5 L161.8875,724.5 Z M166.0375,717.55 L157.2625,717.55 C157.3625,715.45 158.7875,712.95 161.6375,712.95 C164.6625,712.95 166.0125,715.5 166.0375,717.55 L166.0375,717.55 Z M183.1625,724.2 L183.1625,715.75 C183.1625,713.025 181.8125,711.825 179.3625,711.825 C177.6125,711.825 175.8875,712.9 175.0125,713.95 L175.0125,712.125 L173.7125,712.125 L173.7125,724.2 L175.0125,724.2 L175.0125,715.075 C175.7875,713.975 177.3875,713 178.9375,713 C180.6875,713 181.8625,713.7 181.8625,716.025 L181.8625,724.2 L183.1625,724.2 Z M192.8375,724.5 C193.8375,724.5 194.4125,724.2 194.8875,723.75 L194.3875,722.75 C194.1125,723.05 193.6125,723.325 193.0375,723.325 C192.1875,723.325 191.7875,722.65 191.7875,721.675 L191.7875,713.275 L194.2375,713.275 L194.2375,712.125 L191.7875,712.125 L191.7875,708.825 L190.4625,708.825 L190.4625,712.125 L188.4625,712.125 L188.4625,713.275 L190.4625,713.275 L190.4625,721.875 C190.4625,723.525 191.2375,724.5 192.8375,724.5 L192.8375,724.5 Z" id="‹-Précédent-Copy-2" fill="#BEBEBE" sketch:type="MSShapeGroup"></path>
            <path d="M545.296,206 L545.296,196.46 L551.956,196.46 C556.708,196.46 559.48,193.148 559.48,189.224 C559.48,185.3 556.78,181.988 551.956,181.988 L542.308,181.988 L542.308,206 L545.296,206 Z M551.596,193.796 L545.296,193.796 L545.296,184.652 L551.596,184.652 C554.44,184.652 556.384,186.524 556.384,189.224 C556.384,191.924 554.44,193.796 551.596,193.796 L551.596,193.796 Z M576.904,206 L576.904,194.048 C576.904,189.836 573.844,188.18 570.172,188.18 C567.328,188.18 565.096,189.116 563.224,191.06 L564.484,192.932 C566.032,191.276 567.724,190.52 569.812,190.52 C572.332,190.52 574.204,191.852 574.204,194.192 L574.204,197.324 C572.8,195.704 570.82,194.948 568.444,194.948 C565.492,194.948 562.36,196.784 562.36,200.672 C562.36,204.452 565.492,206.432 568.444,206.432 C570.784,206.432 572.764,205.604 574.204,204.02 L574.204,206 L576.904,206 Z M569.416,204.488 C566.896,204.488 565.132,202.904 565.132,200.708 C565.132,198.476 566.896,196.892 569.416,196.892 C571.324,196.892 573.16,197.612 574.204,199.052 L574.204,202.328 C573.16,203.768 571.324,204.488 569.416,204.488 L569.416,204.488 Z M585.004,206 L585.004,193.688 C585.796,192.284 588.064,190.916 589.72,190.916 C590.152,190.916 590.476,190.952 590.8,191.024 L590.8,188.252 C588.424,188.252 586.408,189.584 585.004,191.42 L585.004,188.612 L582.304,188.612 L582.304,206 L585.004,206 Z M611.14,206.432 C614.308,206.432 616.18,205.136 617.512,203.408 L615.712,201.752 C614.56,203.3 613.084,204.02 611.284,204.02 C607.576,204.02 605.272,201.14 605.272,197.288 C605.272,193.436 607.576,190.592 611.284,190.592 C613.084,190.592 614.56,191.276 615.712,192.86 L617.512,191.204 C616.18,189.476 614.308,188.18 611.14,188.18 C605.956,188.18 602.464,192.14 602.464,197.288 C602.464,202.472 605.956,206.432 611.14,206.432 L611.14,206.432 Z M634.864,206 L634.864,194.048 C634.864,189.836 631.804,188.18 628.132,188.18 C625.288,188.18 623.056,189.116 621.184,191.06 L622.444,192.932 C623.992,191.276 625.684,190.52 627.772,190.52 C630.292,190.52 632.164,191.852 632.164,194.192 L632.164,197.324 C630.76,195.704 628.78,194.948 626.404,194.948 C623.452,194.948 620.32,196.784 620.32,200.672 C620.32,204.452 623.452,206.432 626.404,206.432 C628.744,206.432 630.724,205.604 632.164,204.02 L632.164,206 L634.864,206 Z M627.376,204.488 C624.856,204.488 623.092,202.904 623.092,200.708 C623.092,198.476 624.856,196.892 627.376,196.892 C629.284,196.892 631.12,197.612 632.164,199.052 L632.164,202.328 C631.12,203.768 629.284,204.488 627.376,204.488 L627.376,204.488 Z M642.964,206 L642.964,193.688 C643.756,192.284 646.024,190.916 647.68,190.916 C648.112,190.916 648.436,190.952 648.76,191.024 L648.76,188.252 C646.384,188.252 644.368,189.584 642.964,191.42 L642.964,188.612 L640.264,188.612 L640.264,206 L642.964,206 Z M656.536,206.432 C658.12,206.432 659.092,205.964 659.776,205.316 L658.984,203.3 C658.624,203.696 657.904,204.02 657.148,204.02 C655.96,204.02 655.384,203.084 655.384,201.788 L655.384,190.988 L658.912,190.988 L658.912,188.612 L655.384,188.612 L655.384,183.86 L652.684,183.86 L652.684,188.612 L649.804,188.612 L649.804,190.988 L652.684,190.988 L652.684,202.364 C652.684,204.956 653.98,206.432 656.536,206.432 L656.536,206.432 Z M670.576,206.432 C673.42,206.432 675.76,205.496 677.488,203.768 L676.192,202.004 C674.824,203.408 672.808,204.2 670.828,204.2 C667.084,204.2 664.78,201.464 664.564,198.188 L678.64,198.188 L678.64,197.504 C678.64,192.284 675.544,188.18 670.288,188.18 C665.32,188.18 661.72,192.248 661.72,197.288 C661.72,202.724 665.428,206.432 670.576,206.432 L670.576,206.432 Z M675.976,196.208 L664.564,196.208 C664.708,193.544 666.544,190.412 670.252,190.412 C674.212,190.412 675.94,193.616 675.976,196.208 L675.976,196.208 Z M549.38,285 L556.374,267.658 L553.904,267.658 L548.054,282.634 L542.204,267.658 L539.734,267.658 L546.702,285 L549.38,285 Z M564.226,285.312 C566.28,285.312 567.97,284.636 569.218,283.388 L568.282,282.114 C567.294,283.128 565.838,283.7 564.408,283.7 C561.704,283.7 560.04,281.724 559.884,279.358 L570.05,279.358 L570.05,278.864 C570.05,275.094 567.814,272.13 564.018,272.13 C560.43,272.13 557.83,275.068 557.83,278.708 C557.83,282.634 560.508,285.312 564.226,285.312 L564.226,285.312 Z M568.126,277.928 L559.884,277.928 C559.988,276.004 561.314,273.742 563.992,273.742 C566.852,273.742 568.1,276.056 568.126,277.928 L568.126,277.928 Z M583.622,285 L583.622,272.442 L581.672,272.442 L581.672,281.672 C580.944,282.686 579.488,283.57 577.954,283.57 C576.264,283.57 575.146,282.92 575.146,280.71 L575.146,272.442 L573.196,272.442 L573.196,281.308 C573.196,284.038 574.574,285.312 577.2,285.312 C579.072,285.312 580.71,284.324 581.672,283.232 L581.672,285 L583.622,285 Z M588.484,270.648 C589.212,270.648 589.81,270.076 589.81,269.348 C589.81,268.62 589.212,268.022 588.484,268.022 C587.782,268.022 587.184,268.62 587.184,269.348 C587.184,270.076 587.782,270.648 588.484,270.648 L588.484,270.648 Z M589.472,285 L589.472,272.442 L587.522,272.442 L587.522,285 L589.472,285 Z M595.322,285 L595.322,267.658 L593.372,267.658 L593.372,285 L595.322,285 Z M604.89,285.312 C606.944,285.312 608.634,284.636 609.882,283.388 L608.946,282.114 C607.958,283.128 606.502,283.7 605.072,283.7 C602.368,283.7 600.704,281.724 600.548,279.358 L610.714,279.358 L610.714,278.864 C610.714,275.094 608.478,272.13 604.682,272.13 C601.094,272.13 598.494,275.068 598.494,278.708 C598.494,282.634 601.172,285.312 604.89,285.312 L604.89,285.312 Z M608.79,277.928 L600.548,277.928 C600.652,276.004 601.978,273.742 604.656,273.742 C607.516,273.742 608.764,276.056 608.79,277.928 L608.79,277.928 Z M622.83,285 L622.83,283.31 L615.758,283.31 L622.726,273.924 L622.726,272.442 L613.262,272.442 L613.262,274.158 L620.178,274.158 L613.262,283.492 L613.262,285 L622.83,285 Z M633.802,270.648 C634.53,270.648 635.128,270.076 635.128,269.348 C635.128,268.62 634.53,268.022 633.802,268.022 C633.1,268.022 632.502,268.62 632.502,269.348 C632.502,270.076 633.1,270.648 633.802,270.648 L633.802,270.648 Z M634.79,285 L634.79,272.442 L632.84,272.442 L632.84,285 L634.79,285 Z M649.116,285 L649.116,276.186 C649.116,273.456 647.738,272.13 645.112,272.13 C643.24,272.13 641.524,273.222 640.64,274.262 L640.64,272.442 L638.69,272.442 L638.69,285 L640.64,285 L640.64,275.822 C641.368,274.808 642.824,273.872 644.358,273.872 C646.048,273.872 647.166,274.574 647.166,276.784 L647.166,285 L649.116,285 Z M656.994,285.312 C660.244,285.312 661.934,283.622 661.934,281.516 C661.934,276.628 654.16,278.448 654.16,275.692 C654.16,274.574 655.226,273.716 656.942,273.716 C658.554,273.716 659.932,274.392 660.686,275.302 L661.596,273.95 C660.582,272.936 659.074,272.13 656.942,272.13 C653.952,272.13 652.262,273.794 652.262,275.744 C652.262,280.398 660.036,278.526 660.036,281.568 C660.036,282.816 658.996,283.726 657.072,283.726 C655.356,283.726 653.77,282.894 652.938,281.932 L651.924,283.336 C653.198,284.688 654.94,285.312 656.994,285.312 L656.994,285.312 Z M674.96,266.8 L672.932,266.8 L669.084,270.544 L670.566,270.544 L674.96,266.8 Z M670.774,285.312 C672.828,285.312 674.518,284.636 675.766,283.388 L674.83,282.114 C673.842,283.128 672.386,283.7 670.956,283.7 C668.252,283.7 666.588,281.724 666.432,279.358 L676.598,279.358 L676.598,278.864 C676.598,275.094 674.362,272.13 670.566,272.13 C666.978,272.13 664.378,275.068 664.378,278.708 C664.378,282.634 667.056,285.312 670.774,285.312 L670.774,285.312 Z M674.674,277.928 L666.432,277.928 C666.536,276.004 667.862,273.742 670.54,273.742 C673.4,273.742 674.648,276.056 674.674,277.928 L674.674,277.928 Z M681.694,285 L681.694,276.108 C682.266,275.094 683.904,274.106 685.1,274.106 C685.412,274.106 685.646,274.132 685.88,274.184 L685.88,272.182 C684.164,272.182 682.708,273.144 681.694,274.47 L681.694,272.442 L679.744,272.442 L679.744,285 L681.694,285 Z M693.992,285.312 C696.046,285.312 697.736,284.636 698.984,283.388 L698.048,282.114 C697.06,283.128 695.604,283.7 694.174,283.7 C691.47,283.7 689.806,281.724 689.65,279.358 L699.816,279.358 L699.816,278.864 C699.816,275.094 697.58,272.13 693.784,272.13 C690.196,272.13 687.596,275.068 687.596,278.708 C687.596,282.634 690.274,285.312 693.992,285.312 L693.992,285.312 Z M697.892,277.928 L689.65,277.928 C689.754,276.004 691.08,273.742 693.758,273.742 C696.618,273.742 697.866,276.056 697.892,277.928 L697.892,277.928 Z M704.912,285 L704.912,276.108 C705.484,275.094 707.122,274.106 708.318,274.106 C708.63,274.106 708.864,274.132 709.098,274.184 L709.098,272.182 C707.382,272.182 705.926,273.144 704.912,274.47 L704.912,272.442 L702.962,272.442 L702.962,285 L704.912,285 Z M723.736,285 L728.962,272.442 L726.83,272.442 L722.67,282.738 L718.484,272.442 L716.378,272.442 L721.604,285 L723.736,285 Z M736.476,285.312 C740.298,285.312 742.69,282.348 742.69,278.708 C742.69,275.068 740.298,272.13 736.476,272.13 C732.654,272.13 730.262,275.068 730.262,278.708 C730.262,282.348 732.654,285.312 736.476,285.312 L736.476,285.312 Z M736.476,283.57 C733.798,283.57 732.29,281.282 732.29,278.708 C732.29,276.16 733.798,273.872 736.476,273.872 C739.154,273.872 740.636,276.16 740.636,278.708 C740.636,281.282 739.154,283.57 736.476,283.57 L736.476,283.57 Z M749.034,285.312 C750.178,285.312 750.88,284.974 751.374,284.506 L750.802,283.05 C750.542,283.336 750.022,283.57 749.476,283.57 C748.618,283.57 748.202,282.894 748.202,281.958 L748.202,274.158 L750.75,274.158 L750.75,272.442 L748.202,272.442 L748.202,269.01 L746.252,269.01 L746.252,272.442 L744.172,272.442 L744.172,274.158 L746.252,274.158 L746.252,282.374 C746.252,284.246 747.188,285.312 749.034,285.312 L749.034,285.312 Z M755.456,285 L755.456,276.108 C756.028,275.094 757.666,274.106 758.862,274.106 C759.174,274.106 759.408,274.132 759.642,274.184 L759.642,272.182 C757.926,272.182 756.47,273.144 755.456,274.47 L755.456,272.442 L753.506,272.442 L753.506,285 L755.456,285 Z M767.754,285.312 C769.808,285.312 771.498,284.636 772.746,283.388 L771.81,282.114 C770.822,283.128 769.366,283.7 767.936,283.7 C765.232,283.7 763.568,281.724 763.412,279.358 L773.578,279.358 L773.578,278.864 C773.578,275.094 771.342,272.13 767.546,272.13 C763.958,272.13 761.358,275.068 761.358,278.708 C761.358,282.634 764.036,285.312 767.754,285.312 L767.754,285.312 Z M771.654,277.928 L763.412,277.928 C763.516,276.004 764.842,273.742 767.52,273.742 C770.38,273.742 771.628,276.056 771.654,277.928 L771.654,277.928 Z M788.97,285.312 C791.258,285.312 792.61,284.376 793.572,283.128 L792.272,281.932 C791.44,283.05 790.374,283.57 789.074,283.57 C786.396,283.57 784.732,281.49 784.732,278.708 C784.732,275.926 786.396,273.872 789.074,273.872 C790.374,273.872 791.44,274.366 792.272,275.51 L793.572,274.314 C792.61,273.066 791.258,272.13 788.97,272.13 C785.226,272.13 782.704,274.99 782.704,278.708 C782.704,282.452 785.226,285.312 788.97,285.312 L788.97,285.312 Z M806.104,285 L806.104,276.368 C806.104,273.326 803.894,272.13 801.242,272.13 C799.188,272.13 797.576,272.806 796.224,274.21 L797.134,275.562 C798.252,274.366 799.474,273.82 800.982,273.82 C802.802,273.82 804.154,274.782 804.154,276.472 L804.154,278.734 C803.14,277.564 801.71,277.018 799.994,277.018 C797.862,277.018 795.6,278.344 795.6,281.152 C795.6,283.882 797.862,285.312 799.994,285.312 C801.684,285.312 803.114,284.714 804.154,283.57 L804.154,285 L806.104,285 Z M800.696,283.908 C798.876,283.908 797.602,282.764 797.602,281.178 C797.602,279.566 798.876,278.422 800.696,278.422 C802.074,278.422 803.4,278.942 804.154,279.982 L804.154,282.348 C803.4,283.388 802.074,283.908 800.696,283.908 L800.696,283.908 Z M811.954,285 L811.954,276.108 C812.526,275.094 814.164,274.106 815.36,274.106 C815.672,274.106 815.906,274.132 816.14,274.184 L816.14,272.182 C814.424,272.182 812.968,273.144 811.954,274.47 L811.954,272.442 L810.004,272.442 L810.004,285 L811.954,285 Z M821.756,285.312 C822.9,285.312 823.602,284.974 824.096,284.506 L823.524,283.05 C823.264,283.336 822.744,283.57 822.198,283.57 C821.34,283.57 820.924,282.894 820.924,281.958 L820.924,274.158 L823.472,274.158 L823.472,272.442 L820.924,272.442 L820.924,269.01 L818.974,269.01 L818.974,272.442 L816.894,272.442 L816.894,274.158 L818.974,274.158 L818.974,282.374 C818.974,284.246 819.91,285.312 821.756,285.312 L821.756,285.312 Z M831.896,285.312 C833.95,285.312 835.64,284.636 836.888,283.388 L835.952,282.114 C834.964,283.128 833.508,283.7 832.078,283.7 C829.374,283.7 827.71,281.724 827.554,279.358 L837.72,279.358 L837.72,278.864 C837.72,275.094 835.484,272.13 831.688,272.13 C828.1,272.13 825.5,275.068 825.5,278.708 C825.5,282.634 828.178,285.312 831.896,285.312 L831.896,285.312 Z M835.796,277.928 L827.554,277.928 C827.658,276.004 828.984,273.742 831.662,273.742 C834.522,273.742 835.77,276.056 835.796,277.928 L835.796,277.928 Z M543.4,313.594 L543.4,307.9 C544.076,306.808 545.61,305.872 547.144,305.872 C549.692,305.872 551.2,307.952 551.2,310.734 C551.2,313.516 549.692,315.57 547.144,315.57 C545.61,315.57 544.076,314.686 543.4,313.594 L543.4,313.594 Z M543.4,317 L543.4,315.128 C544.336,316.402 545.87,317.312 547.638,317.312 C550.914,317.312 553.228,314.816 553.228,310.734 C553.228,306.73 550.914,304.13 547.638,304.13 C545.922,304.13 544.414,304.962 543.4,306.34 L543.4,299.658 L541.45,299.658 L541.45,317 L543.4,317 Z M566.202,317 L566.202,308.368 C566.202,305.326 563.992,304.13 561.34,304.13 C559.286,304.13 557.674,304.806 556.322,306.21 L557.232,307.562 C558.35,306.366 559.572,305.82 561.08,305.82 C562.9,305.82 564.252,306.782 564.252,308.472 L564.252,310.734 C563.238,309.564 561.808,309.018 560.092,309.018 C557.96,309.018 555.698,310.344 555.698,313.152 C555.698,315.882 557.96,317.312 560.092,317.312 C561.782,317.312 563.212,316.714 564.252,315.57 L564.252,317 L566.202,317 Z M560.794,315.908 C558.974,315.908 557.7,314.764 557.7,313.178 C557.7,311.566 558.974,310.422 560.794,310.422 C562.172,310.422 563.498,310.942 564.252,311.982 L564.252,314.348 C563.498,315.388 562.172,315.908 560.794,315.908 L560.794,315.908 Z M580.528,317 L580.528,308.186 C580.528,305.456 579.15,304.13 576.524,304.13 C574.652,304.13 572.936,305.222 572.052,306.262 L572.052,304.442 L570.102,304.442 L570.102,317 L572.052,317 L572.052,307.822 C572.78,306.808 574.236,305.872 575.77,305.872 C577.46,305.872 578.578,306.574 578.578,308.784 L578.578,317 L580.528,317 Z M589.966,317.312 C592.254,317.312 593.606,316.376 594.568,315.128 L593.268,313.932 C592.436,315.05 591.37,315.57 590.07,315.57 C587.392,315.57 585.728,313.49 585.728,310.708 C585.728,307.926 587.392,305.872 590.07,305.872 C591.37,305.872 592.436,306.366 593.268,307.51 L594.568,306.314 C593.606,305.066 592.254,304.13 589.966,304.13 C586.222,304.13 583.7,306.99 583.7,310.708 C583.7,314.452 586.222,317.312 589.966,317.312 L589.966,317.312 Z M607.1,317 L607.1,308.368 C607.1,305.326 604.89,304.13 602.238,304.13 C600.184,304.13 598.572,304.806 597.22,306.21 L598.13,307.562 C599.248,306.366 600.47,305.82 601.978,305.82 C603.798,305.82 605.15,306.782 605.15,308.472 L605.15,310.734 C604.136,309.564 602.706,309.018 600.99,309.018 C598.858,309.018 596.596,310.344 596.596,313.152 C596.596,315.882 598.858,317.312 600.99,317.312 C602.68,317.312 604.11,316.714 605.15,315.57 L605.15,317 L607.1,317 Z M601.692,315.908 C599.872,315.908 598.598,314.764 598.598,313.178 C598.598,311.566 599.872,310.422 601.692,310.422 C603.07,310.422 604.396,310.942 605.15,311.982 L605.15,314.348 C604.396,315.388 603.07,315.908 601.692,315.908 L601.692,315.908 Z M611.962,302.648 C612.69,302.648 613.288,302.076 613.288,301.348 C613.288,300.62 612.69,300.022 611.962,300.022 C611.26,300.022 610.662,300.62 610.662,301.348 C610.662,302.076 611.26,302.648 611.962,302.648 L611.962,302.648 Z M612.95,317 L612.95,304.442 L611,304.442 L611,317 L612.95,317 Z M618.8,317 L618.8,308.108 C619.372,307.094 621.01,306.106 622.206,306.106 C622.518,306.106 622.752,306.132 622.986,306.184 L622.986,304.182 C621.27,304.182 619.814,305.144 618.8,306.47 L618.8,304.442 L616.85,304.442 L616.85,317 L618.8,317 Z M631.098,317.312 C633.152,317.312 634.842,316.636 636.09,315.388 L635.154,314.114 C634.166,315.128 632.71,315.7 631.28,315.7 C628.576,315.7 626.912,313.724 626.756,311.358 L636.922,311.358 L636.922,310.864 C636.922,307.094 634.686,304.13 630.89,304.13 C627.302,304.13 624.702,307.068 624.702,310.708 C624.702,314.634 627.38,317.312 631.098,317.312 L631.098,317.312 Z M634.998,309.928 L626.756,309.928 C626.86,308.004 628.186,305.742 630.864,305.742 C633.724,305.742 634.972,308.056 634.998,309.928 L634.998,309.928 Z M642.694,316.376 C642.694,315.128 641.914,314.4 641.056,314.4 C640.276,314.4 639.678,315.05 639.678,315.804 C639.678,316.584 640.198,317.13 640.926,317.13 C641.056,317.13 641.238,317.104 641.29,317.078 C641.186,317.936 640.432,318.95 639.6,319.496 L640.562,320.302 C641.758,319.444 642.694,317.962 642.694,316.376 L642.694,316.376 Z M658.242,317 L663.468,304.442 L661.336,304.442 L657.176,314.738 L652.99,304.442 L650.884,304.442 L656.11,317 L658.242,317 Z M666.458,302.648 C667.186,302.648 667.784,302.076 667.784,301.348 C667.784,300.62 667.186,300.022 666.458,300.022 C665.756,300.022 665.158,300.62 665.158,301.348 C665.158,302.076 665.756,302.648 666.458,302.648 L666.458,302.648 Z M667.446,317 L667.446,304.442 L665.496,304.442 L665.496,317 L667.446,317 Z M675.324,317.312 C678.574,317.312 680.264,315.622 680.264,313.516 C680.264,308.628 672.49,310.448 672.49,307.692 C672.49,306.574 673.556,305.716 675.272,305.716 C676.884,305.716 678.262,306.392 679.016,307.302 L679.926,305.95 C678.912,304.936 677.404,304.13 675.272,304.13 C672.282,304.13 670.592,305.794 670.592,307.744 C670.592,312.398 678.366,310.526 678.366,313.568 C678.366,314.816 677.326,315.726 675.402,315.726 C673.686,315.726 672.1,314.894 671.268,313.932 L670.254,315.336 C671.528,316.688 673.27,317.312 675.324,317.312 L675.324,317.312 Z M693.238,317 L693.238,308.368 C693.238,305.326 691.028,304.13 688.376,304.13 C686.322,304.13 684.71,304.806 683.358,306.21 L684.268,307.562 C685.386,306.366 686.608,305.82 688.116,305.82 C689.936,305.82 691.288,306.782 691.288,308.472 L691.288,310.734 C690.274,309.564 688.844,309.018 687.128,309.018 C684.996,309.018 682.734,310.344 682.734,313.152 C682.734,315.882 684.996,317.312 687.128,317.312 C688.818,317.312 690.248,316.714 691.288,315.57 L691.288,317 L693.238,317 Z M687.83,315.908 C686.01,315.908 684.736,314.764 684.736,313.178 C684.736,311.566 686.01,310.422 687.83,310.422 C689.208,310.422 690.534,310.942 691.288,311.982 L691.288,314.348 C690.534,315.388 689.208,315.908 687.83,315.908 L687.83,315.908 Z M709.332,317.312 C713.154,317.312 715.546,314.348 715.546,310.708 C715.546,307.068 713.154,304.13 709.332,304.13 C705.51,304.13 703.118,307.068 703.118,310.708 C703.118,314.348 705.51,317.312 709.332,317.312 L709.332,317.312 Z M709.332,315.57 C706.654,315.57 705.146,313.282 705.146,310.708 C705.146,308.16 706.654,305.872 709.332,305.872 C712.01,305.872 713.492,308.16 713.492,310.708 C713.492,313.282 712.01,315.57 709.332,315.57 L709.332,315.57 Z M729.144,317 L729.144,304.442 L727.194,304.442 L727.194,313.672 C726.466,314.686 725.01,315.57 723.476,315.57 C721.786,315.57 720.668,314.92 720.668,312.71 L720.668,304.442 L718.718,304.442 L718.718,313.308 C718.718,316.038 720.096,317.312 722.722,317.312 C724.594,317.312 726.232,316.324 727.194,315.232 L727.194,317 L729.144,317 Z M756.86,317 L756.86,307.926 C756.86,305.404 755.638,304.13 753.35,304.13 C751.53,304.13 749.84,305.326 749.138,306.47 C748.774,305.17 747.682,304.13 745.758,304.13 C743.912,304.13 742.222,305.456 741.702,306.262 L741.702,304.442 L739.752,304.442 L739.752,317 L741.702,317 L741.702,307.822 C742.378,306.808 743.73,305.872 745.004,305.872 C746.642,305.872 747.318,306.886 747.318,308.472 L747.318,317 L749.268,317 L749.268,307.796 C749.918,306.808 751.296,305.872 752.596,305.872 C754.208,305.872 754.91,306.886 754.91,308.472 L754.91,317 L756.86,317 Z M770.562,317 L770.562,308.368 C770.562,305.326 768.352,304.13 765.7,304.13 C763.646,304.13 762.034,304.806 760.682,306.21 L761.592,307.562 C762.71,306.366 763.932,305.82 765.44,305.82 C767.26,305.82 768.612,306.782 768.612,308.472 L768.612,310.734 C767.598,309.564 766.168,309.018 764.452,309.018 C762.32,309.018 760.058,310.344 760.058,313.152 C760.058,315.882 762.32,317.312 764.452,317.312 C766.142,317.312 767.572,316.714 768.612,315.57 L768.612,317 L770.562,317 Z M765.154,315.908 C763.334,315.908 762.06,314.764 762.06,313.178 C762.06,311.566 763.334,310.422 765.154,310.422 C766.532,310.422 767.858,310.942 768.612,311.982 L768.612,314.348 C767.858,315.388 766.532,315.908 765.154,315.908 L765.154,315.908 Z M778.44,317.312 C781.69,317.312 783.38,315.622 783.38,313.516 C783.38,308.628 775.606,310.448 775.606,307.692 C775.606,306.574 776.672,305.716 778.388,305.716 C780,305.716 781.378,306.392 782.132,307.302 L783.042,305.95 C782.028,304.936 780.52,304.13 778.388,304.13 C775.398,304.13 773.708,305.794 773.708,307.744 C773.708,312.398 781.482,310.526 781.482,313.568 C781.482,314.816 780.442,315.726 778.518,315.726 C776.802,315.726 775.216,314.894 774.384,313.932 L773.37,315.336 C774.644,316.688 776.386,317.312 778.44,317.312 L778.44,317.312 Z M789.724,317.312 C790.868,317.312 791.57,316.974 792.064,316.506 L791.492,315.05 C791.232,315.336 790.712,315.57 790.166,315.57 C789.308,315.57 788.892,314.894 788.892,313.958 L788.892,306.158 L791.44,306.158 L791.44,304.442 L788.892,304.442 L788.892,301.01 L786.942,301.01 L786.942,304.442 L784.862,304.442 L784.862,306.158 L786.942,306.158 L786.942,314.374 C786.942,316.246 787.878,317.312 789.724,317.312 L789.724,317.312 Z M799.864,317.312 C801.918,317.312 803.608,316.636 804.856,315.388 L803.92,314.114 C802.932,315.128 801.476,315.7 800.046,315.7 C797.342,315.7 795.678,313.724 795.522,311.358 L805.688,311.358 L805.688,310.864 C805.688,307.094 803.452,304.13 799.656,304.13 C796.068,304.13 793.468,307.068 793.468,310.708 C793.468,314.634 796.146,317.312 799.864,317.312 L799.864,317.312 Z M803.764,309.928 L795.522,309.928 C795.626,308.004 796.952,305.742 799.63,305.742 C802.49,305.742 803.738,308.056 803.764,309.928 L803.764,309.928 Z M810.784,317 L810.784,308.108 C811.356,307.094 812.994,306.106 814.19,306.106 C814.502,306.106 814.736,306.132 814.97,306.184 L814.97,304.182 C813.254,304.182 811.798,305.144 810.784,306.47 L810.784,304.442 L808.834,304.442 L808.834,317 L810.784,317 Z M822.952,317.312 C825.24,317.312 826.592,316.376 827.554,315.128 L826.254,313.932 C825.422,315.05 824.356,315.57 823.056,315.57 C820.378,315.57 818.714,313.49 818.714,310.708 C818.714,307.926 820.378,305.872 823.056,305.872 C824.356,305.872 825.422,306.366 826.254,307.51 L827.554,306.314 C826.592,305.066 825.24,304.13 822.952,304.13 C819.208,304.13 816.686,306.99 816.686,310.708 C816.686,314.452 819.208,317.312 822.952,317.312 L822.952,317.312 Z M840.086,317 L840.086,308.368 C840.086,305.326 837.876,304.13 835.224,304.13 C833.17,304.13 831.558,304.806 830.206,306.21 L831.116,307.562 C832.234,306.366 833.456,305.82 834.964,305.82 C836.784,305.82 838.136,306.782 838.136,308.472 L838.136,310.734 C837.122,309.564 835.692,309.018 833.976,309.018 C831.844,309.018 829.582,310.344 829.582,313.152 C829.582,315.882 831.844,317.312 833.976,317.312 C835.666,317.312 837.096,316.714 838.136,315.57 L838.136,317 L840.086,317 Z M834.678,315.908 C832.858,315.908 831.584,314.764 831.584,313.178 C831.584,311.566 832.858,310.422 834.678,310.422 C836.056,310.422 837.382,310.942 838.136,311.982 L838.136,314.348 C837.382,315.388 836.056,315.908 834.678,315.908 L834.678,315.908 Z M845.936,317 L845.936,308.108 C846.508,307.094 848.146,306.106 849.342,306.106 C849.654,306.106 849.888,306.132 850.122,306.184 L850.122,304.182 C848.406,304.182 846.95,305.144 845.936,306.47 L845.936,304.442 L843.986,304.442 L843.986,317 L845.936,317 Z M863.616,317 L863.616,299.658 L861.666,299.658 L861.666,306.34 C860.652,304.962 859.118,304.13 857.428,304.13 C854.126,304.13 851.838,306.73 851.838,310.734 C851.838,314.816 854.152,317.312 857.428,317.312 C859.196,317.312 860.73,316.402 861.666,315.128 L861.666,317 L863.616,317 Z M857.896,315.57 C855.374,315.57 853.866,313.516 853.866,310.734 C853.866,307.952 855.374,305.872 857.896,305.872 C859.456,305.872 860.964,306.808 861.666,307.9 L861.666,313.594 C860.964,314.686 859.456,315.57 857.896,315.57 L857.896,315.57 Z M558.558,349 L558.558,339.926 C558.558,337.404 557.336,336.13 555.048,336.13 C553.228,336.13 551.538,337.326 550.836,338.47 C550.472,337.17 549.38,336.13 547.456,336.13 C545.61,336.13 543.92,337.456 543.4,338.262 L543.4,336.442 L541.45,336.442 L541.45,349 L543.4,349 L543.4,339.822 C544.076,338.808 545.428,337.872 546.702,337.872 C548.34,337.872 549.016,338.886 549.016,340.472 L549.016,349 L550.966,349 L550.966,339.796 C551.616,338.808 552.994,337.872 554.294,337.872 C555.906,337.872 556.608,338.886 556.608,340.472 L556.608,349 L558.558,349 Z M572.26,349 L572.26,340.368 C572.26,337.326 570.05,336.13 567.398,336.13 C565.344,336.13 563.732,336.806 562.38,338.21 L563.29,339.562 C564.408,338.366 565.63,337.82 567.138,337.82 C568.958,337.82 570.31,338.782 570.31,340.472 L570.31,342.734 C569.296,341.564 567.866,341.018 566.15,341.018 C564.018,341.018 561.756,342.344 561.756,345.152 C561.756,347.882 564.018,349.312 566.15,349.312 C567.84,349.312 569.27,348.714 570.31,347.57 L570.31,349 L572.26,349 Z M566.852,347.908 C565.032,347.908 563.758,346.764 563.758,345.178 C563.758,343.566 565.032,342.422 566.852,342.422 C568.23,342.422 569.556,342.942 570.31,343.982 L570.31,346.348 C569.556,347.388 568.23,347.908 566.852,347.908 L566.852,347.908 Z M577.122,334.648 C577.85,334.648 578.448,334.076 578.448,333.348 C578.448,332.62 577.85,332.022 577.122,332.022 C576.42,332.022 575.822,332.62 575.822,333.348 C575.822,334.076 576.42,334.648 577.122,334.648 L577.122,334.648 Z M578.11,349 L578.11,336.442 L576.16,336.442 L576.16,349 L578.11,349 Z M592.436,349 L592.436,340.186 C592.436,337.456 591.058,336.13 588.432,336.13 C586.56,336.13 584.844,337.222 583.96,338.262 L583.96,336.442 L582.01,336.442 L582.01,349 L583.96,349 L583.96,339.822 C584.688,338.808 586.144,337.872 587.678,337.872 C589.368,337.872 590.486,338.574 590.486,340.784 L590.486,349 L592.436,349 Z M599.508,349.312 C600.652,349.312 601.354,348.974 601.848,348.506 L601.276,347.05 C601.016,347.336 600.496,347.57 599.95,347.57 C599.092,347.57 598.676,346.894 598.676,345.958 L598.676,338.158 L601.224,338.158 L601.224,336.442 L598.676,336.442 L598.676,333.01 L596.726,333.01 L596.726,336.442 L594.646,336.442 L594.646,338.158 L596.726,338.158 L596.726,346.374 C596.726,348.246 597.662,349.312 599.508,349.312 L599.508,349.312 Z M609.648,349.312 C611.702,349.312 613.392,348.636 614.64,347.388 L613.704,346.114 C612.716,347.128 611.26,347.7 609.83,347.7 C607.126,347.7 605.462,345.724 605.306,343.358 L615.472,343.358 L615.472,342.864 C615.472,339.094 613.236,336.13 609.44,336.13 C605.852,336.13 603.252,339.068 603.252,342.708 C603.252,346.634 605.93,349.312 609.648,349.312 L609.648,349.312 Z M613.548,341.928 L605.306,341.928 C605.41,340.004 606.736,337.742 609.414,337.742 C612.274,337.742 613.522,340.056 613.548,341.928 L613.548,341.928 Z M629.044,349 L629.044,340.186 C629.044,337.456 627.666,336.13 625.04,336.13 C623.168,336.13 621.452,337.222 620.568,338.262 L620.568,336.442 L618.618,336.442 L618.618,349 L620.568,349 L620.568,339.822 C621.296,338.808 622.752,337.872 624.286,337.872 C625.976,337.872 627.094,338.574 627.094,340.784 L627.094,349 L629.044,349 Z M642.746,349 L642.746,340.368 C642.746,337.326 640.536,336.13 637.884,336.13 C635.83,336.13 634.218,336.806 632.866,338.21 L633.776,339.562 C634.894,338.366 636.116,337.82 637.624,337.82 C639.444,337.82 640.796,338.782 640.796,340.472 L640.796,342.734 C639.782,341.564 638.352,341.018 636.636,341.018 C634.504,341.018 632.242,342.344 632.242,345.152 C632.242,347.882 634.504,349.312 636.636,349.312 C638.326,349.312 639.756,348.714 640.796,347.57 L640.796,349 L642.746,349 Z M637.338,347.908 C635.518,347.908 634.244,346.764 634.244,345.178 C634.244,343.566 635.518,342.422 637.338,342.422 C638.716,342.422 640.042,342.942 640.796,343.982 L640.796,346.348 C640.042,347.388 638.716,347.908 637.338,347.908 L637.338,347.908 Z M657.072,349 L657.072,340.186 C657.072,337.456 655.694,336.13 653.068,336.13 C651.196,336.13 649.48,337.222 648.596,338.262 L648.596,336.442 L646.646,336.442 L646.646,349 L648.596,349 L648.596,339.822 C649.324,338.808 650.78,337.872 652.314,337.872 C654.004,337.872 655.122,338.574 655.122,340.784 L655.122,349 L657.072,349 Z M664.144,349.312 C665.288,349.312 665.99,348.974 666.484,348.506 L665.912,347.05 C665.652,347.336 665.132,347.57 664.586,347.57 C663.728,347.57 663.312,346.894 663.312,345.958 L663.312,338.158 L665.86,338.158 L665.86,336.442 L663.312,336.442 L663.312,333.01 L661.362,333.01 L661.362,336.442 L659.282,336.442 L659.282,338.158 L661.362,338.158 L661.362,346.374 C661.362,348.246 662.298,349.312 664.144,349.312 L664.144,349.312 Z M669.656,349.26 C670.436,349.26 671.086,348.61 671.086,347.83 C671.086,347.05 670.436,346.4 669.656,346.4 C668.876,346.4 668.226,347.05 668.226,347.83 C668.226,348.61 668.876,349.26 669.656,349.26 L669.656,349.26 Z" id="Par-carte" fill="#FFFFFF" sketch:type="MSShapeGroup"></path>
            <path d="M832.0375,724.2 L832.0375,717.275 L836.8625,717.275 C840.0375,717.275 841.8875,715.025 841.8875,712.4 C841.8875,709.775 840.0625,707.525 836.8625,707.525 L830.6125,707.525 L830.6125,724.2 L832.0375,724.2 Z M836.7125,715.975 L832.0375,715.975 L832.0375,708.825 L836.7125,708.825 C838.9125,708.825 840.3875,710.3 840.3875,712.4 C840.3875,714.5 838.9125,715.975 836.7125,715.975 L836.7125,715.975 Z M856.3125,724.2 L856.3125,715.7 C856.3125,713 854.3625,711.825 851.9125,711.825 C849.9125,711.825 848.5125,712.5 847.2625,713.85 L847.9875,714.75 C849.0875,713.5 850.2625,712.975 851.7625,712.975 C853.5625,712.975 855.0125,713.95 855.0125,715.75 L855.0125,718.2 C853.9625,717.025 852.5875,716.475 850.9125,716.475 C848.8125,716.475 846.6875,717.85 846.6875,720.475 C846.6875,723.075 848.8375,724.5 850.9125,724.5 C852.5875,724.5 853.9375,723.95 855.0125,722.775 L855.0125,724.2 L856.3125,724.2 Z M851.3625,723.475 C849.3625,723.475 848.0625,722.2 848.0625,720.5 C848.0625,718.775 849.3625,717.5 851.3625,717.5 C852.8125,717.5 854.1625,718.075 855.0125,719.175 L855.0125,721.825 C854.1625,722.925 852.8125,723.475 851.3625,723.475 L851.3625,723.475 Z M862.5625,728.925 C862.8875,729.025 863.4375,729.1 863.8375,729.1 C865.2625,729.1 866.2875,728.375 866.9375,726.85 L873.1875,712.125 L871.7125,712.125 L867.3625,722.675 L862.9625,712.125 L861.5125,712.125 L866.6125,724.3 L865.6625,726.45 C865.1875,727.6 864.6375,727.925 863.8375,727.925 C863.5375,727.925 863.0625,727.85 862.7875,727.725 L862.5625,728.925 Z M883.7375,724.5 C885.7375,724.5 887.2625,723.8 888.4625,722.55 L887.7875,721.7 C886.7625,722.8 885.3625,723.375 883.8375,723.375 C880.9875,723.375 879.2375,721.2 879.1125,718.575 L889.2125,718.575 L889.2125,718.225 C889.2125,714.75 887.1875,711.825 883.5125,711.825 C880.1625,711.825 877.6875,714.65 877.6875,718.15 C877.6875,721.875 880.2125,724.5 883.7375,724.5 L883.7375,724.5 Z M887.8875,717.55 L879.1125,717.55 C879.2125,715.45 880.6375,712.95 883.4875,712.95 C886.5125,712.95 887.8625,715.5 887.8875,717.55 L887.8875,717.55 Z M896.8625,724.2 L896.8625,715.4 C897.4125,714.35 899.0625,713.25 900.2875,713.25 C900.5375,713.25 900.7125,713.25 900.9375,713.3 L900.9375,711.875 C899.2625,711.875 897.8875,712.85 896.8625,714.2 L896.8625,712.125 L895.5625,712.125 L895.5625,724.2 L896.8625,724.2 Z" id="Payer" fill="#FFFFFF" sketch:type="MSShapeGroup"></path>
        </g>
    </g>
</svg>