<?xml version="1.0" encoding="UTF-8" standalone="no"?>
<svg width="1024px" height="768px" viewBox="0 0 1024 768" version="1.1" xmlns="http://www.w3.org/2000/svg" xmlns:xlink="http://www.w3.org/1999/xlink" xmlns:sketch="http://www.bohemiancoding.com/sketch/ns">
    <!-- Generator: Sketch 3.3.3 (12072) - http://www.bohemiancoding.com/sketch -->
    <title>iPad Landscape Copy 49</title>
    <desc>Created with Sketch.</desc>
    <defs></defs>
    <g id="Page-1" stroke="none" stroke-width="1" fill="none" fill-rule="evenodd" sketch:type="MSPage">
        <g id="iPad-Landscape-Copy-49" sketch:type="MSArtboardGroup">
            <rect id="Rectangle-42" fill="#2F8BFF" sketch:type="MSShapeGroup" x="0" y="119.922044" width="512" height="648.077956"></rect>
            <rect id="Rectangle-242" fill="#FFFFFF" sketch:type="MSShapeGroup" x="0" y="0" width="1024" height="120"></rect>
            <text id="Abonnement-Copy" sketch:type="MSTextLayer" font-family="Proxima Nova" font-size="36" font-weight="normal" sketch:alignment="middle" fill="#FFFFFF">
                <tspan x="665.893226" y="454.22082">Abonnement</tspan>
            </text>
            <rect id="Rectangle-42-Copy-3" fill="#0079FE" sketch:type="MSShapeGroup" x="512" y="551.929775" width="512.001293" height="216.070225"></rect>
            <rect id="Rectangle-42-Copy-7" opacity="0.3" fill="#000000" sketch:type="MSShapeGroup" x="512" y="551.929775" width="512.001293" height="216.070225"></rect>
            <rect id="Rectangle-42-Copy-4" fill="#0079FE" sketch:type="MSShapeGroup" x="512" y="335.925909" width="512.001293" height="216.070225"></rect>
            <rect id="Rectangle-42-Copy-6" opacity="0.2" fill="#000000" sketch:type="MSShapeGroup" x="512" y="335.925909" width="512.001293" height="216.070225"></rect>
            <rect id="Rectangle-42-Copy-5" fill="#0079FE" sketch:type="MSShapeGroup" x="512" y="119.922044" width="512.001293" height="216.070225"></rect>
            <path d="M419.978,76 C424.976,76 428,73.102 428,68.44 C428,65.122 425.522,62.014 422.54,61.552 C425.06,61.048 427.454,58.654 427.454,55.126 C427.454,50.716 424.43,47.986 419.726,47.986 L408.218,47.986 L408.218,76 L419.978,76 Z M419.432,60.544 L410.612,60.544 L410.612,50.17 L419.432,50.17 C423.044,50.17 424.934,52.522 424.934,55.378 C424.934,58.276 423.044,60.544 419.432,60.544 L419.432,60.544 Z M419.6,73.816 L410.612,73.816 L410.612,62.728 L419.6,62.728 C423.506,62.728 425.48,65.416 425.48,68.272 C425.48,71.674 423.296,73.816 419.6,73.816 L419.6,73.816 Z M435.014,52.522 C435.938,52.522 436.694,51.766 436.694,50.842 C436.694,49.918 435.938,49.204 435.014,49.204 C434.132,49.204 433.334,49.918 433.334,50.842 C433.334,51.766 434.132,52.522 435.014,52.522 L435.014,52.522 Z M436.106,76 L436.106,55.714 L433.922,55.714 L433.922,76 L436.106,76 Z M451.898,76.504 C455.258,76.504 457.82,75.328 459.836,73.228 L458.702,71.8 C456.98,73.648 454.628,74.614 452.066,74.614 C447.278,74.614 444.338,70.96 444.128,66.55 L461.096,66.55 L461.096,65.962 C461.096,60.124 457.694,55.21 451.52,55.21 C445.892,55.21 441.734,59.956 441.734,65.836 C441.734,72.094 445.976,76.504 451.898,76.504 L451.898,76.504 Z M458.87,64.828 L444.128,64.828 C444.296,61.3 446.69,57.1 451.478,57.1 C456.56,57.1 458.828,61.384 458.87,64.828 L458.87,64.828 Z M482.6,76 L482.6,61.804 C482.6,57.226 480.332,55.21 476.216,55.21 C473.276,55.21 470.378,57.016 468.908,58.78 L468.908,55.714 L466.724,55.714 L466.724,76 L468.908,76 L468.908,60.67 C470.21,58.822 472.898,57.184 475.502,57.184 C478.442,57.184 480.416,58.36 480.416,62.266 L480.416,76 L482.6,76 Z M497.342,76 L505.91,55.714 L503.432,55.714 L496.124,73.438 L488.732,55.714 L486.296,55.714 L494.864,76 L497.342,76 Z M518.594,76.504 C521.954,76.504 524.516,75.328 526.532,73.228 L525.398,71.8 C523.676,73.648 521.324,74.614 518.762,74.614 C513.974,74.614 511.034,70.96 510.824,66.55 L527.792,66.55 L527.792,65.962 C527.792,60.124 524.39,55.21 518.216,55.21 C512.588,55.21 508.43,59.956 508.43,65.836 C508.43,72.094 512.672,76.504 518.594,76.504 L518.594,76.504 Z M525.566,64.828 L510.824,64.828 C510.992,61.3 513.386,57.1 518.174,57.1 C523.256,57.1 525.524,61.384 525.566,64.828 L525.566,64.828 Z M549.296,76 L549.296,61.804 C549.296,57.226 547.028,55.21 542.912,55.21 C539.972,55.21 537.074,57.016 535.604,58.78 L535.604,55.714 L533.42,55.714 L533.42,76 L535.604,76 L535.604,60.67 C536.906,58.822 539.594,57.184 542.198,57.184 C545.138,57.184 547.112,58.36 547.112,62.266 L547.112,76 L549.296,76 Z M571.976,76 L571.976,55.714 L569.792,55.714 L569.792,71.17 C568.448,72.976 565.802,74.53 563.198,74.53 C560.258,74.53 558.284,73.438 558.284,69.49 L558.284,55.714 L556.1,55.714 L556.1,69.994 C556.1,74.572 558.326,76.504 562.484,76.504 C565.424,76.504 568.112,74.866 569.792,73.018 L569.792,76 L571.976,76 Z M587.768,76.504 C591.128,76.504 593.69,75.328 595.706,73.228 L594.572,71.8 C592.85,73.648 590.498,74.614 587.936,74.614 C583.148,74.614 580.208,70.96 579.998,66.55 L596.966,66.55 L596.966,65.962 C596.966,60.124 593.564,55.21 587.39,55.21 C581.762,55.21 577.604,59.956 577.604,65.836 C577.604,72.094 581.846,76.504 587.768,76.504 L587.768,76.504 Z M594.74,64.828 L579.998,64.828 C580.166,61.3 582.56,57.1 587.348,57.1 C592.43,57.1 594.698,61.384 594.74,64.828 L594.74,64.828 Z M615.53,68.692 L616.076,47.986 L613.262,47.986 L613.808,68.692 L615.53,68.692 Z M614.648,76.378 C615.656,76.378 616.538,75.538 616.538,74.53 C616.538,73.564 615.656,72.724 614.648,72.724 C613.64,72.724 612.842,73.564 612.842,74.53 C612.842,75.538 613.64,76.378 614.648,76.378 L614.648,76.378 Z" id="Bienvenue-!" fill="#3B3B48" sketch:type="MSShapeGroup"></path>
            <path d="M147.357898,452.208715 C151.749898,452.208715 154.305898,449.580715 154.305898,445.728715 C154.305898,442.848715 152.181898,440.220715 149.625898,439.824715 C151.821898,439.356715 153.837898,437.340715 153.837898,434.316715 C153.837898,430.716715 151.281898,428.196715 147.105898,428.196715 L136.413898,428.196715 L136.413898,452.208715 L147.357898,452.208715 Z M146.601898,438.600715 L139.401898,438.600715 L139.401898,430.860715 L146.601898,430.860715 C149.301898,430.860715 150.741898,432.588715 150.741898,434.748715 C150.741898,436.944715 149.301898,438.600715 146.601898,438.600715 L146.601898,438.600715 Z M146.745898,449.544715 L139.401898,449.544715 L139.401898,441.264715 L146.745898,441.264715 C149.697898,441.264715 151.209898,443.208715 151.209898,445.404715 C151.209898,447.960715 149.553898,449.544715 146.745898,449.544715 L146.745898,449.544715 Z M160.281898,432.336715 C161.289898,432.336715 162.117898,431.544715 162.117898,430.536715 C162.117898,429.528715 161.289898,428.700715 160.281898,428.700715 C159.309898,428.700715 158.481898,429.528715 158.481898,430.536715 C158.481898,431.544715 159.309898,432.336715 160.281898,432.336715 L160.281898,432.336715 Z M161.649898,452.208715 L161.649898,434.820715 L158.949898,434.820715 L158.949898,452.208715 L161.649898,452.208715 Z M169.749898,452.208715 L169.749898,428.196715 L167.049898,428.196715 L167.049898,452.208715 L169.749898,452.208715 Z M177.849898,452.208715 L177.849898,428.196715 L175.149898,428.196715 L175.149898,452.208715 L177.849898,452.208715 Z M191.097898,452.640715 C193.941898,452.640715 196.281898,451.704715 198.009898,449.976715 L196.713898,448.212715 C195.345898,449.616715 193.329898,450.408715 191.349898,450.408715 C187.605898,450.408715 185.301898,447.672715 185.085898,444.396715 L199.161898,444.396715 L199.161898,443.712715 C199.161898,438.492715 196.065898,434.388715 190.809898,434.388715 C185.841898,434.388715 182.241898,438.456715 182.241898,443.496715 C182.241898,448.932715 185.949898,452.640715 191.097898,452.640715 L191.097898,452.640715 Z M196.497898,442.416715 L185.085898,442.416715 C185.229898,439.752715 187.065898,436.620715 190.773898,436.620715 C194.733898,436.620715 196.461898,439.824715 196.497898,442.416715 L196.497898,442.416715 Z M207.909898,452.640715 C209.493898,452.640715 210.465898,452.172715 211.149898,451.524715 L210.357898,449.508715 C209.997898,449.904715 209.277898,450.228715 208.521898,450.228715 C207.333898,450.228715 206.757898,449.292715 206.757898,447.996715 L206.757898,437.196715 L210.285898,437.196715 L210.285898,434.820715 L206.757898,434.820715 L206.757898,430.068715 L204.057898,430.068715 L204.057898,434.820715 L201.177898,434.820715 L201.177898,437.196715 L204.057898,437.196715 L204.057898,448.572715 C204.057898,451.164715 205.353898,452.640715 207.909898,452.640715 L207.909898,452.640715 Z M228.897898,452.640715 C233.397898,452.640715 235.737898,450.300715 235.737898,447.384715 C235.737898,440.616715 224.973898,443.136715 224.973898,439.320715 C224.973898,437.772715 226.449898,436.584715 228.825898,436.584715 C231.057898,436.584715 232.965898,437.520715 234.009898,438.780715 L235.269898,436.908715 C233.865898,435.504715 231.777898,434.388715 228.825898,434.388715 C224.685898,434.388715 222.345898,436.692715 222.345898,439.392715 C222.345898,445.836715 233.109898,443.244715 233.109898,447.456715 C233.109898,449.184715 231.669898,450.444715 229.005898,450.444715 C226.629898,450.444715 224.433898,449.292715 223.281898,447.960715 L221.877898,449.904715 C223.641898,451.776715 226.053898,452.640715 228.897898,452.640715 L228.897898,452.640715 Z M244.521898,452.640715 C246.105898,452.640715 247.077898,452.172715 247.761898,451.524715 L246.969898,449.508715 C246.609898,449.904715 245.889898,450.228715 245.133898,450.228715 C243.945898,450.228715 243.369898,449.292715 243.369898,447.996715 L243.369898,437.196715 L246.897898,437.196715 L246.897898,434.820715 L243.369898,434.820715 L243.369898,430.068715 L240.669898,430.068715 L240.669898,434.820715 L237.789898,434.820715 L237.789898,437.196715 L240.669898,437.196715 L240.669898,448.572715 C240.669898,451.164715 241.965898,452.640715 244.521898,452.640715 L244.521898,452.640715 Z M264.285898,452.208715 L264.285898,440.256715 C264.285898,436.044715 261.225898,434.388715 257.553898,434.388715 C254.709898,434.388715 252.477898,435.324715 250.605898,437.268715 L251.865898,439.140715 C253.413898,437.484715 255.105898,436.728715 257.193898,436.728715 C259.713898,436.728715 261.585898,438.060715 261.585898,440.400715 L261.585898,443.532715 C260.181898,441.912715 258.201898,441.156715 255.825898,441.156715 C252.873898,441.156715 249.741898,442.992715 249.741898,446.880715 C249.741898,450.660715 252.873898,452.640715 255.825898,452.640715 C258.165898,452.640715 260.145898,451.812715 261.585898,450.228715 L261.585898,452.208715 L264.285898,452.208715 Z M256.797898,450.696715 C254.277898,450.696715 252.513898,449.112715 252.513898,446.916715 C252.513898,444.684715 254.277898,443.100715 256.797898,443.100715 C258.705898,443.100715 260.541898,443.820715 261.585898,445.260715 L261.585898,448.536715 C260.541898,449.976715 258.705898,450.696715 256.797898,450.696715 L256.797898,450.696715 Z M284.121898,452.208715 L284.121898,440.004715 C284.121898,436.224715 282.213898,434.388715 278.577898,434.388715 C275.985898,434.388715 273.609898,435.900715 272.385898,437.340715 L272.385898,434.820715 L269.685898,434.820715 L269.685898,452.208715 L272.385898,452.208715 L272.385898,439.500715 C273.393898,438.096715 275.409898,436.800715 277.533898,436.800715 C279.873898,436.800715 281.421898,437.772715 281.421898,440.832715 L281.421898,452.208715 L284.121898,452.208715 Z M304.821898,452.208715 L304.821898,428.196715 L302.121898,428.196715 L302.121898,437.448715 C300.717898,435.540715 298.593898,434.388715 296.253898,434.388715 C291.681898,434.388715 288.513898,437.988715 288.513898,443.532715 C288.513898,449.184715 291.717898,452.640715 296.253898,452.640715 C298.701898,452.640715 300.825898,451.380715 302.121898,449.616715 L302.121898,452.208715 L304.821898,452.208715 Z M296.901898,450.228715 C293.409898,450.228715 291.321898,447.384715 291.321898,443.532715 C291.321898,439.680715 293.409898,436.800715 296.901898,436.800715 C299.061898,436.800715 301.149898,438.096715 302.121898,439.608715 L302.121898,447.492715 C301.149898,449.004715 299.061898,450.228715 296.901898,450.228715 L296.901898,450.228715 Z M323.793898,452.208715 L323.793898,440.256715 C323.793898,436.044715 320.733898,434.388715 317.061898,434.388715 C314.217898,434.388715 311.985898,435.324715 310.113898,437.268715 L311.373898,439.140715 C312.921898,437.484715 314.613898,436.728715 316.701898,436.728715 C319.221898,436.728715 321.093898,438.060715 321.093898,440.400715 L321.093898,443.532715 C319.689898,441.912715 317.709898,441.156715 315.333898,441.156715 C312.381898,441.156715 309.249898,442.992715 309.249898,446.880715 C309.249898,450.660715 312.381898,452.640715 315.333898,452.640715 C317.673898,452.640715 319.653898,451.812715 321.093898,450.228715 L321.093898,452.208715 L323.793898,452.208715 Z M316.305898,450.696715 C313.785898,450.696715 312.021898,449.112715 312.021898,446.916715 C312.021898,444.684715 313.785898,443.100715 316.305898,443.100715 C318.213898,443.100715 320.049898,443.820715 321.093898,445.260715 L321.093898,448.536715 C320.049898,449.976715 318.213898,450.696715 316.305898,450.696715 L316.305898,450.696715 Z M331.893898,452.208715 L331.893898,439.896715 C332.685898,438.492715 334.953898,437.124715 336.609898,437.124715 C337.041898,437.124715 337.365898,437.160715 337.689898,437.232715 L337.689898,434.460715 C335.313898,434.460715 333.297898,435.792715 331.893898,437.628715 L331.893898,434.820715 L329.193898,434.820715 L329.193898,452.208715 L331.893898,452.208715 Z M356.373898,452.208715 L356.373898,428.196715 L353.673898,428.196715 L353.673898,437.448715 C352.269898,435.540715 350.145898,434.388715 347.805898,434.388715 C343.233898,434.388715 340.065898,437.988715 340.065898,443.532715 C340.065898,449.184715 343.269898,452.640715 347.805898,452.640715 C350.253898,452.640715 352.377898,451.380715 353.673898,449.616715 L353.673898,452.208715 L356.373898,452.208715 Z M348.453898,450.228715 C344.961898,450.228715 342.873898,447.384715 342.873898,443.532715 C342.873898,439.680715 344.961898,436.800715 348.453898,436.800715 C350.613898,436.800715 352.701898,438.096715 353.673898,439.608715 L353.673898,447.492715 C352.701898,449.004715 350.613898,450.228715 348.453898,450.228715 L348.453898,450.228715 Z" id="Billet-standard" fill="#FFFFFF" sketch:type="MSShapeGroup"></path>
            <path d="M692.562939,236.159775 L682.878939,212.147775 L679.170939,212.147775 L669.522939,236.159775 L672.942939,236.159775 L675.066939,230.831775 L687.018939,230.831775 L689.142939,236.159775 L692.562939,236.159775 Z M686.118939,228.167775 L675.930939,228.167775 L681.042939,215.243775 L686.118939,228.167775 Z M698.286939,231.443775 L698.286939,223.559775 C699.222939,222.047775 701.346939,220.751775 703.470939,220.751775 C706.998939,220.751775 709.086939,223.631775 709.086939,227.483775 C709.086939,231.335775 706.998939,234.179775 703.470939,234.179775 C701.346939,234.179775 699.222939,232.955775 698.286939,231.443775 L698.286939,231.443775 Z M698.286939,236.159775 L698.286939,233.567775 C699.582939,235.331775 701.706939,236.591775 704.154939,236.591775 C708.690939,236.591775 711.894939,233.135775 711.894939,227.483775 C711.894939,221.939775 708.690939,218.339775 704.154939,218.339775 C701.778939,218.339775 699.690939,219.491775 698.286939,221.399775 L698.286939,212.147775 L695.586939,212.147775 L695.586939,236.159775 L698.286939,236.159775 Z M723.882939,236.591775 C729.174939,236.591775 732.486939,232.487775 732.486939,227.447775 C732.486939,222.407775 729.174939,218.339775 723.882939,218.339775 C718.590939,218.339775 715.278939,222.407775 715.278939,227.447775 C715.278939,232.487775 718.590939,236.591775 723.882939,236.591775 L723.882939,236.591775 Z M723.882939,234.179775 C720.174939,234.179775 718.086939,231.011775 718.086939,227.447775 C718.086939,223.919775 720.174939,220.751775 723.882939,220.751775 C727.590939,220.751775 729.642939,223.919775 729.642939,227.447775 C729.642939,231.011775 727.590939,234.179775 723.882939,234.179775 L723.882939,234.179775 Z M751.314939,236.159775 L751.314939,223.955775 C751.314939,220.175775 749.406939,218.339775 745.770939,218.339775 C743.178939,218.339775 740.802939,219.851775 739.578939,221.291775 L739.578939,218.771775 L736.878939,218.771775 L736.878939,236.159775 L739.578939,236.159775 L739.578939,223.451775 C740.586939,222.047775 742.602939,220.751775 744.726939,220.751775 C747.066939,220.751775 748.614939,221.723775 748.614939,224.783775 L748.614939,236.159775 L751.314939,236.159775 Z M771.150939,236.159775 L771.150939,223.955775 C771.150939,220.175775 769.242939,218.339775 765.606939,218.339775 C763.014939,218.339775 760.638939,219.851775 759.414939,221.291775 L759.414939,218.771775 L756.714939,218.771775 L756.714939,236.159775 L759.414939,236.159775 L759.414939,223.451775 C760.422939,222.047775 762.438939,220.751775 764.562939,220.751775 C766.902939,220.751775 768.450939,221.723775 768.450939,224.783775 L768.450939,236.159775 L771.150939,236.159775 Z M784.398939,236.591775 C787.242939,236.591775 789.582939,235.655775 791.310939,233.927775 L790.014939,232.163775 C788.646939,233.567775 786.630939,234.359775 784.650939,234.359775 C780.906939,234.359775 778.602939,231.623775 778.386939,228.347775 L792.462939,228.347775 L792.462939,227.663775 C792.462939,222.443775 789.366939,218.339775 784.110939,218.339775 C779.142939,218.339775 775.542939,222.407775 775.542939,227.447775 C775.542939,232.883775 779.250939,236.591775 784.398939,236.591775 L784.398939,236.591775 Z M789.798939,226.367775 L778.386939,226.367775 C778.530939,223.703775 780.366939,220.571775 784.074939,220.571775 C788.034939,220.571775 789.762939,223.775775 789.798939,226.367775 L789.798939,226.367775 Z M820.506939,236.159775 L820.506939,223.595775 C820.506939,220.103775 818.814939,218.339775 815.646939,218.339775 C813.126939,218.339775 810.786939,219.995775 809.814939,221.579775 C809.310939,219.779775 807.798939,218.339775 805.134939,218.339775 C802.578939,218.339775 800.238939,220.175775 799.518939,221.291775 L799.518939,218.771775 L796.818939,218.771775 L796.818939,236.159775 L799.518939,236.159775 L799.518939,223.451775 C800.454939,222.047775 802.326939,220.751775 804.090939,220.751775 C806.358939,220.751775 807.294939,222.155775 807.294939,224.351775 L807.294939,236.159775 L809.994939,236.159775 L809.994939,223.415775 C810.894939,222.047775 812.802939,220.751775 814.602939,220.751775 C816.834939,220.751775 817.806939,222.155775 817.806939,224.351775 L817.806939,236.159775 L820.506939,236.159775 Z M833.754939,236.591775 C836.598939,236.591775 838.938939,235.655775 840.666939,233.927775 L839.370939,232.163775 C838.002939,233.567775 835.986939,234.359775 834.006939,234.359775 C830.262939,234.359775 827.958939,231.623775 827.742939,228.347775 L841.818939,228.347775 L841.818939,227.663775 C841.818939,222.443775 838.722939,218.339775 833.466939,218.339775 C828.498939,218.339775 824.898939,222.407775 824.898939,227.447775 C824.898939,232.883775 828.606939,236.591775 833.754939,236.591775 L833.754939,236.591775 Z M839.154939,226.367775 L827.742939,226.367775 C827.886939,223.703775 829.722939,220.571775 833.430939,220.571775 C837.390939,220.571775 839.118939,223.775775 839.154939,226.367775 L839.154939,226.367775 Z M860.610939,236.159775 L860.610939,223.955775 C860.610939,220.175775 858.702939,218.339775 855.066939,218.339775 C852.474939,218.339775 850.098939,219.851775 848.874939,221.291775 L848.874939,218.771775 L846.174939,218.771775 L846.174939,236.159775 L848.874939,236.159775 L848.874939,223.451775 C849.882939,222.047775 851.898939,220.751775 854.022939,220.751775 C856.362939,220.751775 857.910939,221.723775 857.910939,224.783775 L857.910939,236.159775 L860.610939,236.159775 Z M870.402939,236.591775 C871.986939,236.591775 872.958939,236.123775 873.642939,235.475775 L872.850939,233.459775 C872.490939,233.855775 871.770939,234.179775 871.014939,234.179775 C869.826939,234.179775 869.250939,233.243775 869.250939,231.947775 L869.250939,221.147775 L872.778939,221.147775 L872.778939,218.771775 L869.250939,218.771775 L869.250939,214.019775 L866.550939,214.019775 L866.550939,218.771775 L863.670939,218.771775 L863.670939,221.147775 L866.550939,221.147775 L866.550939,232.523775 C866.550939,235.115775 867.846939,236.591775 870.402939,236.591775 L870.402939,236.591775 Z" id="Abonnement-Copy-4" fill="#FFFFFF" sketch:type="MSShapeGroup"></path>
            <path d="M740.715375,452.16364 L740.715375,442.62364 L747.375375,442.62364 C752.127375,442.62364 754.899375,439.31164 754.899375,435.38764 C754.899375,431.46364 752.199375,428.15164 747.375375,428.15164 L737.727375,428.15164 L737.727375,452.16364 L740.715375,452.16364 Z M747.015375,439.95964 L740.715375,439.95964 L740.715375,430.81564 L747.015375,430.81564 C749.859375,430.81564 751.803375,432.68764 751.803375,435.38764 C751.803375,438.08764 749.859375,439.95964 747.015375,439.95964 L747.015375,439.95964 Z M772.323375,452.16364 L772.323375,440.21164 C772.323375,435.99964 769.263375,434.34364 765.591375,434.34364 C762.747375,434.34364 760.515375,435.27964 758.643375,437.22364 L759.903375,439.09564 C761.451375,437.43964 763.143375,436.68364 765.231375,436.68364 C767.751375,436.68364 769.623375,438.01564 769.623375,440.35564 L769.623375,443.48764 C768.219375,441.86764 766.239375,441.11164 763.863375,441.11164 C760.911375,441.11164 757.779375,442.94764 757.779375,446.83564 C757.779375,450.61564 760.911375,452.59564 763.863375,452.59564 C766.203375,452.59564 768.183375,451.76764 769.623375,450.18364 L769.623375,452.16364 L772.323375,452.16364 Z M764.835375,450.65164 C762.315375,450.65164 760.551375,449.06764 760.551375,446.87164 C760.551375,444.63964 762.315375,443.05564 764.835375,443.05564 C766.743375,443.05564 768.579375,443.77564 769.623375,445.21564 L769.623375,448.49164 C768.579375,449.93164 766.743375,450.65164 764.835375,450.65164 L764.835375,450.65164 Z M783.231375,452.59564 C787.731375,452.59564 790.071375,450.25564 790.071375,447.33964 C790.071375,440.57164 779.307375,443.09164 779.307375,439.27564 C779.307375,437.72764 780.783375,436.53964 783.159375,436.53964 C785.391375,436.53964 787.299375,437.47564 788.343375,438.73564 L789.603375,436.86364 C788.199375,435.45964 786.111375,434.34364 783.159375,434.34364 C779.019375,434.34364 776.679375,436.64764 776.679375,439.34764 C776.679375,445.79164 787.443375,443.19964 787.443375,447.41164 C787.443375,449.13964 786.003375,450.39964 783.339375,450.39964 C780.963375,450.39964 778.767375,449.24764 777.615375,447.91564 L776.211375,449.85964 C777.975375,451.73164 780.387375,452.59564 783.231375,452.59564 L783.231375,452.59564 Z M799.971375,452.59564 C804.471375,452.59564 806.811375,450.25564 806.811375,447.33964 C806.811375,440.57164 796.047375,443.09164 796.047375,439.27564 C796.047375,437.72764 797.523375,436.53964 799.899375,436.53964 C802.131375,436.53964 804.039375,437.47564 805.083375,438.73564 L806.343375,436.86364 C804.939375,435.45964 802.851375,434.34364 799.899375,434.34364 C795.759375,434.34364 793.419375,436.64764 793.419375,439.34764 C793.419375,445.79164 804.183375,443.19964 804.183375,447.41164 C804.183375,449.13964 802.743375,450.39964 800.079375,450.39964 C797.703375,450.39964 795.507375,449.24764 794.355375,447.91564 L792.951375,449.85964 C794.715375,451.73164 797.127375,452.59564 799.971375,452.59564 L799.971375,452.59564 Z" id="Pass" fill="#FFFFFF" sketch:type="MSShapeGroup"></path>
            <path d="M692.349375,668.167506 C696.741375,668.167506 699.297375,665.539506 699.297375,661.687506 C699.297375,658.807506 697.173375,656.179506 694.617375,655.783506 C696.813375,655.315506 698.829375,653.299506 698.829375,650.275506 C698.829375,646.675506 696.273375,644.155506 692.097375,644.155506 L681.405375,644.155506 L681.405375,668.167506 L692.349375,668.167506 Z M691.593375,654.559506 L684.393375,654.559506 L684.393375,646.819506 L691.593375,646.819506 C694.293375,646.819506 695.733375,648.547506 695.733375,650.707506 C695.733375,652.903506 694.293375,654.559506 691.593375,654.559506 L691.593375,654.559506 Z M691.737375,665.503506 L684.393375,665.503506 L684.393375,657.223506 L691.737375,657.223506 C694.689375,657.223506 696.201375,659.167506 696.201375,661.363506 C696.201375,663.919506 694.545375,665.503506 691.737375,665.503506 L691.737375,665.503506 Z M710.961375,660.643506 L710.961375,658.267506 L702.321375,658.267506 L702.321375,660.643506 L710.961375,660.643506 Z M730.581375,668.167506 L730.581375,665.503506 L717.837375,665.503506 L717.837375,657.223506 L730.329375,657.223506 L730.329375,654.559506 L717.837375,654.559506 L717.837375,646.819506 L730.581375,646.819506 L730.581375,644.155506 L714.849375,644.155506 L714.849375,668.167506 L730.581375,668.167506 Z M749.625375,668.167506 L742.929375,659.239506 L749.229375,650.779506 L746.097375,650.779506 L741.273375,657.403506 L736.449375,650.779506 L733.317375,650.779506 L739.617375,659.239506 L732.957375,668.167506 L736.053375,668.167506 L741.273375,661.039506 L746.493375,668.167506 L749.625375,668.167506 Z M760.389375,668.599506 C763.557375,668.599506 765.429375,667.303506 766.761375,665.575506 L764.961375,663.919506 C763.809375,665.467506 762.333375,666.187506 760.533375,666.187506 C756.825375,666.187506 754.521375,663.307506 754.521375,659.455506 C754.521375,655.603506 756.825375,652.759506 760.533375,652.759506 C762.333375,652.759506 763.809375,653.443506 764.961375,655.027506 L766.761375,653.371506 C765.429375,651.643506 763.557375,650.347506 760.389375,650.347506 C755.205375,650.347506 751.713375,654.307506 751.713375,659.455506 C751.713375,664.639506 755.205375,668.599506 760.389375,668.599506 L760.389375,668.599506 Z M784.977375,668.167506 L784.977375,650.779506 L782.277375,650.779506 L782.277375,663.559506 C781.269375,664.963506 779.253375,666.187506 777.129375,666.187506 C774.789375,666.187506 773.241375,665.287506 773.241375,662.227506 L773.241375,650.779506 L770.541375,650.779506 L770.541375,663.055506 C770.541375,666.835506 772.449375,668.599506 776.085375,668.599506 C778.677375,668.599506 780.945375,667.231506 782.277375,665.719506 L782.277375,668.167506 L784.977375,668.167506 Z M793.077375,668.167506 L793.077375,655.855506 C793.869375,654.451506 796.137375,653.083506 797.793375,653.083506 C798.225375,653.083506 798.549375,653.119506 798.873375,653.191506 L798.873375,650.419506 C796.497375,650.419506 794.481375,651.751506 793.077375,653.587506 L793.077375,650.779506 L790.377375,650.779506 L790.377375,668.167506 L793.077375,668.167506 Z M807.765375,668.599506 C812.265375,668.599506 814.605375,666.259506 814.605375,663.343506 C814.605375,656.575506 803.841375,659.095506 803.841375,655.279506 C803.841375,653.731506 805.317375,652.543506 807.693375,652.543506 C809.925375,652.543506 811.833375,653.479506 812.877375,654.739506 L814.137375,652.867506 C812.733375,651.463506 810.645375,650.347506 807.693375,650.347506 C803.553375,650.347506 801.213375,652.651506 801.213375,655.351506 C801.213375,661.795506 811.977375,659.203506 811.977375,663.415506 C811.977375,665.143506 810.537375,666.403506 807.873375,666.403506 C805.497375,666.403506 803.301375,665.251506 802.149375,663.919506 L800.745375,665.863506 C802.509375,667.735506 804.921375,668.599506 807.765375,668.599506 L807.765375,668.599506 Z M820.329375,648.295506 C821.337375,648.295506 822.165375,647.503506 822.165375,646.495506 C822.165375,645.487506 821.337375,644.659506 820.329375,644.659506 C819.357375,644.659506 818.529375,645.487506 818.529375,646.495506 C818.529375,647.503506 819.357375,648.295506 820.329375,648.295506 L820.329375,648.295506 Z M821.697375,668.167506 L821.697375,650.779506 L818.997375,650.779506 L818.997375,668.167506 L821.697375,668.167506 Z M834.693375,668.599506 C839.985375,668.599506 843.297375,664.495506 843.297375,659.455506 C843.297375,654.415506 839.985375,650.347506 834.693375,650.347506 C829.401375,650.347506 826.089375,654.415506 826.089375,659.455506 C826.089375,664.495506 829.401375,668.599506 834.693375,668.599506 L834.693375,668.599506 Z M834.693375,666.187506 C830.985375,666.187506 828.897375,663.019506 828.897375,659.455506 C828.897375,655.927506 830.985375,652.759506 834.693375,652.759506 C838.401375,652.759506 840.453375,655.927506 840.453375,659.455506 C840.453375,663.019506 838.401375,666.187506 834.693375,666.187506 L834.693375,666.187506 Z M862.125375,668.167506 L862.125375,655.963506 C862.125375,652.183506 860.217375,650.347506 856.581375,650.347506 C853.989375,650.347506 851.613375,651.859506 850.389375,653.299506 L850.389375,650.779506 L847.689375,650.779506 L847.689375,668.167506 L850.389375,668.167506 L850.389375,655.459506 C851.397375,654.055506 853.413375,652.759506 855.537375,652.759506 C857.877375,652.759506 859.425375,653.731506 859.425375,656.791506 L859.425375,668.167506 L862.125375,668.167506 Z" id="B-Excursion" fill="#FFFFFF" sketch:type="MSShapeGroup"></path>
        </g>
    </g>
</svg>