<?xml version="1.0" encoding="UTF-8" standalone="no"?>
<svg width="375px" height="667px" viewBox="0 0 375 667" version="1.1" xmlns="http://www.w3.org/2000/svg" xmlns:xlink="http://www.w3.org/1999/xlink" xmlns:sketch="http://www.bohemiancoding.com/sketch/ns">
    <!-- Generator: Sketch 3.3.3 (12072) - http://www.bohemiancoding.com/sketch -->
    <title>iPhone 6 Copy 18</title>
    <desc>Created with Sketch.</desc>
    <defs></defs>
    <g id="Page-1" stroke="none" stroke-width="1" fill="none" fill-rule="evenodd" sketch:type="MSPage">
        <g id="iPhone-6-Copy-18" sketch:type="MSArtboardGroup">
            <rect id="Rectangle-2-Copy-10" fill="#FAFAFA" sketch:type="MSShapeGroup" x="0" y="65" width="375" height="582"></rect>
            <rect id="Rectangle-2-Copy-9" fill-opacity="0.200000018" fill="#FAFAFA" sketch:type="MSShapeGroup" x="0" y="0" width="375" height="667"></rect>
            <rect id="Rectangle-22-Copy-2" fill="#0075FF" sketch:type="MSShapeGroup" x="20" y="111" width="335" height="230" rx="3"></rect>
            <rect id="Rectangle-22-Copy-3" fill="#0075FF" sketch:type="MSShapeGroup" x="20" y="361" width="335" height="90" rx="3"></rect>
            <rect id="Rectangle-22-Copy-4" fill="#0075FF" sketch:type="MSShapeGroup" x="20" y="471" width="335" height="90" rx="3"></rect>
            <rect id="Rectangle-22-Copy-5" stroke="#FFFFFF" stroke-width="0.5" sketch:type="MSShapeGroup" x="30" y="286" width="315" height="45" rx="3"></rect>
            <g id="Imported-EPS-Copy-3" sketch:type="MSLayerGroup" transform="translate(-1.000000, 617.000000)">
                <g id="Page-1" sketch:type="MSShapeGroup">
                    <path d="M0,0 L376,0 L376,52 L0,52 L0,0 Z" id="Fill-1" fill="#FFFFFF"></path>
                    <path d="M320.39467,10.575 C320.39467,14.1205 317.509159,16.995 313.948956,16.995 C310.389255,16.995 307.503744,14.1205 307.503744,10.575 C307.503744,7.029 310.389255,4.155 313.948956,4.155 C317.509159,4.155 320.39467,7.029 320.39467,10.575 L320.39467,10.575 L320.39467,10.575 Z M303.73772,29.125 C303.73772,23.508 308.309458,18.9545 313.948956,18.9545 C319.588454,18.9545 324.160192,23.508 324.160192,29.125 M172.688919,7 L172.688919,14.329 C174.194927,14.329 175.079455,15.395 175.079455,16.7095 C175.079455,18.0245 174.194927,19.0905 172.688919,19.0905 L172.688919,27 L203.311081,27 L203.311081,7 L172.688919,7 L172.688919,7 Z" id="Stroke-2" stroke="#0075FF" stroke-width="1.00400534"></path>
                    <path d="M183.732977,12.5 L199.29506,12.5 M183.732977,17 L199.29506,17 M183.732977,21.5 L199.29506,21.5 M69.7783712,8.5 L53.2818406,8.5 L45.1802403,8.5 L45.1802403,15.829 C46.6862483,15.829 47.570777,16.895 47.570777,18.2095 C47.570777,19.5245 46.6862483,20.5905 45.1802403,20.5905 L45.1802403,28.5 L75.8024032,28.5 L75.8024032,14" id="Stroke-4" stroke="#0075FF" stroke-width="1.00400534"></path>
                    <path d="M52.5,8.49793082 L52.5,28.5020695" id="Stroke-5" stroke="#0075FF" stroke-dasharray="2,3,2,2"></path>
                    <path d="M180.188919,6.63793082 L180.188919,26.6420695" id="Stroke-5-Copy" stroke="#0075FF" stroke-dasharray="2,3,2,2"></path>
                    <path d="M56.2242991,14 L71.7863818,14 M56.2242991,18.5 L71.7863818,18.5 M56.2242991,23 L71.7863818,23 M75.8024032,11.5 L75.8024032,5.5 M72.7903872,8.5 L78.8144192,8.5" id="Stroke-6" stroke="#0075FF" stroke-width="1.00400534"></path>
                </g>
            </g>
            <rect id="Rectangle-1-Copy" fill="#0075FF" sketch:type="MSShapeGroup" x="0" y="0" width="375" height="85"></rect>
            <path d="M152.212,64 L152.916,64 L152.916,49.326 L151.794,49.326 L146.382,62.46 L140.97,49.326 L139.848,49.326 L139.848,64 L140.552,64 L140.552,50.162 L146.272,64 L146.492,64 L152.212,50.162 L152.212,64 Z M156.172,58.676 C156.172,61.91 158.306,64.264 161.386,64.264 C163.168,64.264 164.4,63.604 165.478,62.482 L165.082,62.064 C164.092,63.12 162.882,63.67 161.386,63.67 C158.68,63.67 156.986,61.492 156.92,58.896 L166.094,58.896 L166.094,58.676 C166.094,55.728 164.422,53.11 161.166,53.11 C158.306,53.11 156.172,55.596 156.172,58.676 L156.172,58.676 Z M161.144,53.704 C164.048,53.704 165.39,56.256 165.39,58.302 L156.92,58.302 C156.986,56.212 158.416,53.704 161.144,53.704 L161.144,53.704 Z M168.382,62.57 C169.438,63.78 170.604,64.264 172.276,64.264 C174.85,64.264 176.082,62.856 176.082,61.206 C176.082,59.05 174.124,58.544 172.298,58.082 C170.736,57.664 169.262,57.312 169.262,55.926 C169.262,54.672 170.362,53.704 172.21,53.704 C173.64,53.704 174.762,54.276 175.378,55.156 L175.862,54.716 C175.18,53.836 174.036,53.11 172.21,53.11 C169.922,53.11 168.602,54.364 168.602,55.926 C168.602,57.862 170.45,58.324 172.21,58.786 C173.838,59.226 175.422,59.644 175.422,61.206 C175.422,62.614 174.234,63.67 172.276,63.67 C170.714,63.67 169.57,62.966 168.91,62.086 L168.382,62.57 Z M185.014,64 L185.674,64 L185.674,62.218 C186.4,63.318 187.83,64.264 189.502,64.264 C192.362,64.264 194.254,62.064 194.254,58.698 C194.254,55.354 192.362,53.11 189.502,53.11 C187.918,53.11 186.532,53.946 185.674,55.2 L185.674,49.326 L185.014,49.326 L185.014,64 Z M185.674,61.558 L185.674,55.86 C186.334,54.738 187.852,53.704 189.502,53.704 C192.098,53.704 193.528,55.904 193.528,58.698 C193.528,61.492 192.098,63.67 189.502,63.67 C187.852,63.67 186.334,62.68 185.674,61.558 L185.674,61.558 Z M197.796,51.548 C198.148,51.548 198.434,51.262 198.434,50.91 C198.434,50.558 198.148,50.272 197.796,50.272 C197.466,50.272 197.158,50.558 197.158,50.91 C197.158,51.262 197.466,51.548 197.796,51.548 L197.796,51.548 Z M197.466,64 L198.126,64 L198.126,53.374 L197.466,53.374 L197.466,64 Z M201.91,64 L202.57,64 L202.57,49.326 L201.91,49.326 L201.91,64 Z M206.354,64 L207.014,64 L207.014,49.326 L206.354,49.326 L206.354,64 Z M210.226,58.676 C210.226,61.91 212.36,64.264 215.44,64.264 C217.222,64.264 218.454,63.604 219.532,62.482 L219.136,62.064 C218.146,63.12 216.936,63.67 215.44,63.67 C212.734,63.67 211.04,61.492 210.974,58.896 L220.148,58.896 L220.148,58.676 C220.148,55.728 218.476,53.11 215.22,53.11 C212.36,53.11 210.226,55.596 210.226,58.676 L210.226,58.676 Z M215.198,53.704 C218.102,53.704 219.444,56.256 219.444,58.302 L210.974,58.302 C211.04,56.212 212.47,53.704 215.198,53.704 L215.198,53.704 Z M225.296,64.264 C226.088,64.264 226.528,64 226.946,63.604 L226.55,63.098 C226.286,63.406 225.824,63.67 225.296,63.67 C224.504,63.67 224.152,63.032 224.152,62.13 L224.152,53.968 L226.308,53.968 L226.308,53.374 L224.152,53.374 L224.152,50.47 L223.492,50.47 L223.492,53.374 L221.732,53.374 L221.732,53.968 L223.492,53.968 L223.492,62.13 C223.492,63.45 224.064,64.264 225.296,64.264 L225.296,64.264 Z M228.068,62.57 C229.124,63.78 230.29,64.264 231.962,64.264 C234.536,64.264 235.768,62.856 235.768,61.206 C235.768,59.05 233.81,58.544 231.984,58.082 C230.422,57.664 228.948,57.312 228.948,55.926 C228.948,54.672 230.048,53.704 231.896,53.704 C233.326,53.704 234.448,54.276 235.064,55.156 L235.548,54.716 C234.866,53.836 233.722,53.11 231.896,53.11 C229.608,53.11 228.288,54.364 228.288,55.926 C228.288,57.862 230.136,58.324 231.896,58.786 C233.524,59.226 235.108,59.644 235.108,61.206 C235.108,62.614 233.92,63.67 231.962,63.67 C230.4,63.67 229.256,62.966 228.596,62.086 L228.068,62.57 Z" id="Mes-billets" fill="#FFFFFF" sketch:type="MSShapeGroup"></path>
            <path d="M104.3,162 L104.3,144.658 L102.818,144.658 L102.818,159.348 L91.95,144.658 L90.442,144.658 L90.442,162 L91.924,162 L91.924,147.102 L102.844,162 L104.3,162 Z M117.898,162 L117.898,153.16 C117.898,150.352 115.87,149.13 113.322,149.13 C111.242,149.13 109.786,149.832 108.486,151.236 L109.24,152.172 C110.384,150.872 111.606,150.326 113.166,150.326 C115.038,150.326 116.546,151.34 116.546,153.212 L116.546,155.76 C115.454,154.538 114.024,153.966 112.282,153.966 C110.098,153.966 107.888,155.396 107.888,158.126 C107.888,160.83 110.124,162.312 112.282,162.312 C114.024,162.312 115.428,161.74 116.546,160.518 L116.546,162 L117.898,162 Z M112.75,161.246 C110.67,161.246 109.318,159.92 109.318,158.152 C109.318,156.358 110.67,155.032 112.75,155.032 C114.258,155.032 115.662,155.63 116.546,156.774 L116.546,159.53 C115.662,160.674 114.258,161.246 112.75,161.246 L112.75,161.246 Z M138.412,162 L138.412,152.952 C138.412,150.43 137.294,149.13 134.98,149.13 C133.212,149.13 131.522,150.326 130.82,151.496 C130.508,150.274 129.468,149.13 127.518,149.13 C125.698,149.13 123.982,150.534 123.462,151.34 L123.462,149.442 L122.11,149.442 L122.11,162 L123.462,162 L123.462,152.51 C124.216,151.366 125.724,150.352 127.05,150.352 C128.844,150.352 129.572,151.444 129.572,153.212 L129.572,162 L130.95,162 L130.95,152.484 C131.652,151.34 133.186,150.352 134.538,150.352 C136.306,150.352 137.06,151.444 137.06,153.212 L137.06,162 L138.412,162 Z M152.452,162 L152.452,149.442 L151.1,149.442 L151.1,159.01 C150.268,160.128 148.63,161.09 147.018,161.09 C145.198,161.09 143.976,160.414 143.976,157.97 L143.976,149.442 L142.624,149.442 L142.624,158.282 C142.624,161.116 144.002,162.312 146.576,162.312 C148.396,162.312 150.06,161.298 151.1,160.154 L151.1,162 L152.452,162 Z M158.016,162 L158.016,152.848 C158.588,151.756 160.304,150.612 161.578,150.612 C161.838,150.612 162.02,150.612 162.254,150.664 L162.254,149.182 C160.512,149.182 159.082,150.196 158.016,151.6 L158.016,149.442 L156.664,149.442 L156.664,162 L158.016,162 Z M175.956,155.682 L171.796,151.08 L170.314,151.08 L174.474,155.682 L170.314,160.362 L171.796,160.362 L175.956,155.682 Z M192.908,162 C196.002,162 197.874,160.206 197.874,157.32 C197.874,155.266 196.34,153.342 194.494,153.056 C196.054,152.744 197.536,151.262 197.536,149.078 C197.536,146.348 195.664,144.658 192.752,144.658 L185.628,144.658 L185.628,162 L192.908,162 Z M192.57,152.432 L187.11,152.432 L187.11,146.01 L192.57,146.01 C194.806,146.01 195.976,147.466 195.976,149.234 C195.976,151.028 194.806,152.432 192.57,152.432 L192.57,152.432 Z M192.674,160.648 L187.11,160.648 L187.11,153.784 L192.674,153.784 C195.092,153.784 196.314,155.448 196.314,157.216 C196.314,159.322 194.962,160.648 192.674,160.648 L192.674,160.648 Z M202.892,162 L202.892,152.848 C203.464,151.756 205.18,150.612 206.454,150.612 C206.714,150.612 206.896,150.612 207.13,150.664 L207.13,149.182 C205.388,149.182 203.958,150.196 202.892,151.6 L202.892,149.442 L201.54,149.442 L201.54,162 L202.892,162 Z M219.61,162 L219.61,149.442 L218.258,149.442 L218.258,159.01 C217.426,160.128 215.788,161.09 214.176,161.09 C212.356,161.09 211.134,160.414 211.134,157.97 L211.134,149.442 L209.782,149.442 L209.782,158.282 C209.782,161.116 211.16,162.312 213.734,162.312 C215.554,162.312 217.218,161.298 218.258,160.154 L218.258,162 L219.61,162 Z M233.728,162 L228.762,155.552 L233.442,149.442 L231.83,149.442 L227.956,154.616 L224.056,149.442 L222.444,149.442 L227.124,155.552 L222.158,162 L223.77,162 L227.956,156.462 L232.116,162 L233.728,162 Z M241.84,162.312 C243.92,162.312 245.506,161.584 246.754,160.284 L246.052,159.4 C244.986,160.544 243.53,161.142 241.944,161.142 C238.98,161.142 237.16,158.88 237.03,156.15 L247.534,156.15 L247.534,155.786 C247.534,152.172 245.428,149.13 241.606,149.13 C238.122,149.13 235.548,152.068 235.548,155.708 C235.548,159.582 238.174,162.312 241.84,162.312 L241.84,162.312 Z M246.156,155.084 L237.03,155.084 C237.134,152.9 238.616,150.3 241.58,150.3 C244.726,150.3 246.13,152.952 246.156,155.084 L246.156,155.084 Z M252.37,162 L252.37,144.658 L251.018,144.658 L251.018,162 L252.37,162 Z M257.934,162 L257.934,144.658 L256.582,144.658 L256.582,162 L257.934,162 Z M267.71,162.312 C269.79,162.312 271.376,161.584 272.624,160.284 L271.922,159.4 C270.856,160.544 269.4,161.142 267.814,161.142 C264.85,161.142 263.03,158.88 262.9,156.15 L273.404,156.15 L273.404,155.786 C273.404,152.172 271.298,149.13 267.476,149.13 C263.992,149.13 261.418,152.068 261.418,155.708 C261.418,159.582 264.044,162.312 267.71,162.312 L267.71,162.312 Z M272.026,155.084 L262.9,155.084 C263.004,152.9 264.486,150.3 267.45,150.3 C270.596,150.3 272,152.952 272.026,155.084 L272.026,155.084 Z M280.632,162.312 C283.778,162.312 285.338,160.648 285.338,158.62 C285.338,153.784 277.408,155.708 277.408,152.562 C277.408,151.262 278.604,150.274 280.554,150.274 C282.218,150.274 283.57,150.95 284.298,151.938 L285.052,150.976 C284.142,149.962 282.712,149.13 280.554,149.13 C277.72,149.13 276.082,150.69 276.082,152.614 C276.082,157.112 284.012,155.188 284.012,158.62 C284.012,160.076 282.764,161.168 280.658,161.168 C278.89,161.168 277.408,160.336 276.602,159.322 L275.796,160.336 C277.044,161.714 278.604,162.312 280.632,162.312 L280.632,162.312 Z" id="Namur-›-Bruxelles" fill="#FFFFFF" sketch:type="MSShapeGroup"></path>
            <path d="M97.168,314 L103.174,299.326 L101.722,299.326 L96.376,312.592 L91.052,299.326 L89.6,299.326 L95.606,314 L97.168,314 Z M109.774,314.264 C112.92,314.264 114.9,311.778 114.9,308.676 C114.9,305.574 112.92,303.11 109.774,303.11 C106.672,303.11 104.67,305.574 104.67,308.676 C104.67,311.778 106.672,314.264 109.774,314.264 L109.774,314.264 Z M109.774,313.23 C107.31,313.23 105.902,311.052 105.902,308.676 C105.902,306.322 107.31,304.144 109.774,304.144 C112.282,304.144 113.668,306.322 113.668,308.676 C113.668,311.052 112.282,313.23 109.774,313.23 L109.774,313.23 Z M118.42,301.702 C118.904,301.702 119.3,301.306 119.3,300.822 C119.3,300.338 118.904,299.964 118.42,299.964 C117.958,299.964 117.54,300.338 117.54,300.822 C117.54,301.306 117.958,301.702 118.42,301.702 L118.42,301.702 Z M118.992,314 L118.992,303.374 L117.848,303.374 L117.848,314 L118.992,314 Z M123.7,314 L123.7,306.256 C124.184,305.332 125.636,304.364 126.714,304.364 C126.934,304.364 127.088,304.364 127.286,304.408 L127.286,303.154 C125.812,303.154 124.602,304.012 123.7,305.2 L123.7,303.374 L122.556,303.374 L122.556,314 L123.7,314 Z M136.372,314 L136.372,299.326 L135.228,299.326 L135.228,314 L136.372,314 Z M144.644,314.264 C146.404,314.264 147.746,313.648 148.802,312.548 L148.208,311.8 C147.306,312.768 146.074,313.274 144.732,313.274 C142.224,313.274 140.684,311.36 140.574,309.05 L149.462,309.05 L149.462,308.742 C149.462,305.684 147.68,303.11 144.446,303.11 C141.498,303.11 139.32,305.596 139.32,308.676 C139.32,311.954 141.542,314.264 144.644,314.264 L144.644,314.264 Z M148.296,308.148 L140.574,308.148 C140.662,306.3 141.916,304.1 144.424,304.1 C147.086,304.1 148.274,306.344 148.296,308.148 L148.296,308.148 Z M155.578,314.264 C158.24,314.264 159.56,312.856 159.56,311.14 C159.56,307.048 152.85,308.676 152.85,306.014 C152.85,304.914 153.862,304.078 155.512,304.078 C156.92,304.078 158.064,304.65 158.68,305.486 L159.318,304.672 C158.548,303.814 157.338,303.11 155.512,303.11 C153.114,303.11 151.728,304.43 151.728,306.058 C151.728,309.864 158.438,308.236 158.438,311.14 C158.438,312.372 157.382,313.296 155.6,313.296 C154.104,313.296 152.85,312.592 152.168,311.734 L151.486,312.592 C152.542,313.758 153.862,314.264 155.578,314.264 L155.578,314.264 Z M173.046,314.264 C175.884,314.264 177.798,312.064 177.798,308.676 C177.798,305.266 175.884,303.11 173.046,303.11 C171.462,303.11 170.098,303.968 169.35,305.046 L169.35,303.374 L168.206,303.374 L168.206,318.048 L169.35,318.048 L169.35,312.284 C170.208,313.494 171.55,314.264 173.046,314.264 L173.046,314.264 Z M172.848,313.23 C171.374,313.23 169.966,312.306 169.35,311.294 L169.35,306.036 C169.966,305.024 171.374,304.144 172.848,304.144 C175.224,304.144 176.566,306.102 176.566,308.676 C176.566,311.25 175.224,313.23 172.848,313.23 L172.848,313.23 Z M181.824,314 L181.824,299.326 L180.68,299.326 L180.68,314 L181.824,314 Z M193.286,314 L193.286,306.52 C193.286,304.144 191.57,303.11 189.414,303.11 C187.654,303.11 186.422,303.704 185.322,304.892 L185.96,305.684 C186.928,304.584 187.962,304.122 189.282,304.122 C190.866,304.122 192.142,304.98 192.142,306.564 L192.142,308.72 C191.218,307.686 190.008,307.202 188.534,307.202 C186.686,307.202 184.816,308.412 184.816,310.722 C184.816,313.01 186.708,314.264 188.534,314.264 C190.008,314.264 191.196,313.78 192.142,312.746 L192.142,314 L193.286,314 Z M188.93,313.362 C187.17,313.362 186.026,312.24 186.026,310.744 C186.026,309.226 187.17,308.104 188.93,308.104 C190.206,308.104 191.394,308.61 192.142,309.578 L192.142,311.91 C191.394,312.878 190.206,313.362 188.93,313.362 L188.93,313.362 Z M201.404,314.264 C203.252,314.264 204.308,313.538 205.166,312.438 L204.374,311.734 C203.604,312.79 202.636,313.23 201.47,313.23 C198.984,313.23 197.466,311.228 197.466,308.676 C197.466,306.124 198.984,304.144 201.47,304.144 C202.636,304.144 203.604,304.562 204.374,305.618 L205.166,304.914 C204.308,303.836 203.252,303.11 201.404,303.11 C198.28,303.11 196.234,305.574 196.234,308.676 C196.234,311.778 198.28,314.264 201.404,314.264 L201.404,314.264 Z M212.426,314.264 C214.186,314.264 215.528,313.648 216.584,312.548 L215.99,311.8 C215.088,312.768 213.856,313.274 212.514,313.274 C210.006,313.274 208.466,311.36 208.356,309.05 L217.244,309.05 L217.244,308.742 C217.244,305.684 215.462,303.11 212.228,303.11 C209.28,303.11 207.102,305.596 207.102,308.676 C207.102,311.954 209.324,314.264 212.426,314.264 L212.426,314.264 Z M216.078,308.148 L208.356,308.148 C208.444,306.3 209.698,304.1 212.206,304.1 C214.868,304.1 216.056,306.344 216.078,308.148 L216.078,308.148 Z M223.36,314.264 C226.022,314.264 227.342,312.856 227.342,311.14 C227.342,307.048 220.632,308.676 220.632,306.014 C220.632,304.914 221.644,304.078 223.294,304.078 C224.702,304.078 225.846,304.65 226.462,305.486 L227.1,304.672 C226.33,303.814 225.12,303.11 223.294,303.11 C220.896,303.11 219.51,304.43 219.51,306.058 C219.51,309.864 226.22,308.236 226.22,311.14 C226.22,312.372 225.164,313.296 223.382,313.296 C221.886,313.296 220.632,312.592 219.95,311.734 L219.268,312.592 C220.324,313.758 221.644,314.264 223.36,314.264 L223.36,314.264 Z M237.132,314 L237.132,299.326 L235.988,299.326 L235.988,314 L237.132,314 Z M241.268,301.702 C241.752,301.702 242.148,301.306 242.148,300.822 C242.148,300.338 241.752,299.964 241.268,299.964 C240.806,299.964 240.388,300.338 240.388,300.822 C240.388,301.306 240.806,301.702 241.268,301.702 L241.268,301.702 Z M241.84,314 L241.84,303.374 L240.696,303.374 L240.696,314 L241.84,314 Z M246.548,311.338 L246.548,306.08 C247.164,305.068 248.572,304.144 250.046,304.144 C252.422,304.144 253.764,306.124 253.764,308.698 C253.764,311.272 252.422,313.23 250.046,313.23 C248.572,313.23 247.164,312.35 246.548,311.338 L246.548,311.338 Z M246.548,314 L246.548,312.306 C247.296,313.406 248.66,314.264 250.244,314.264 C253.06,314.264 254.996,312.108 254.996,308.698 C254.996,305.332 253.082,303.11 250.244,303.11 C248.748,303.11 247.406,303.88 246.548,305.09 L246.548,299.326 L245.404,299.326 L245.404,314 L246.548,314 Z M259.11,314 L259.11,306.256 C259.594,305.332 261.046,304.364 262.124,304.364 C262.344,304.364 262.498,304.364 262.696,304.408 L262.696,303.154 C261.222,303.154 260.012,304.012 259.11,305.2 L259.11,303.374 L257.966,303.374 L257.966,314 L259.11,314 Z M269.648,314.264 C271.408,314.264 272.75,313.648 273.806,312.548 L273.212,311.8 C272.31,312.768 271.078,313.274 269.736,313.274 C267.228,313.274 265.688,311.36 265.578,309.05 L274.466,309.05 L274.466,308.742 C274.466,305.684 272.684,303.11 269.45,303.11 C266.502,303.11 264.324,305.596 264.324,308.676 C264.324,311.954 266.546,314.264 269.648,314.264 L269.648,314.264 Z M273.3,308.148 L265.578,308.148 C265.666,306.3 266.92,304.1 269.428,304.1 C272.09,304.1 273.278,306.344 273.3,308.148 L273.3,308.148 Z M280.582,314.264 C283.244,314.264 284.564,312.856 284.564,311.14 C284.564,307.048 277.854,308.676 277.854,306.014 C277.854,304.914 278.866,304.078 280.516,304.078 C281.924,304.078 283.068,304.65 283.684,305.486 L284.322,304.672 C283.552,303.814 282.342,303.11 280.516,303.11 C278.118,303.11 276.732,304.43 276.732,306.058 C276.732,309.864 283.442,308.236 283.442,311.14 C283.442,312.372 282.386,313.296 280.604,313.296 C279.108,313.296 277.854,312.592 277.172,311.734 L276.49,312.592 C277.546,313.758 278.866,314.264 280.582,314.264 L280.582,314.264 Z" id="Voir-les-places-libr" fill="#FFFFFF" sketch:type="MSShapeGroup"></path>
            <path d="M114.687,412 L114.687,410.648 L106.289,410.648 L106.289,394.658 L104.807,394.658 L104.807,412 L114.687,412 Z M118.535,397.466 C119.107,397.466 119.575,396.998 119.575,396.426 C119.575,395.854 119.107,395.412 118.535,395.412 C117.989,395.412 117.495,395.854 117.495,396.426 C117.495,396.998 117.989,397.466 118.535,397.466 L118.535,397.466 Z M119.211,412 L119.211,399.442 L117.859,399.442 L117.859,412 L119.211,412 Z M128.987,412.312 C131.067,412.312 132.653,411.584 133.901,410.284 L133.199,409.4 C132.133,410.544 130.677,411.142 129.091,411.142 C126.127,411.142 124.307,408.88 124.177,406.15 L134.681,406.15 L134.681,405.786 C134.681,402.172 132.575,399.13 128.753,399.13 C125.269,399.13 122.695,402.068 122.695,405.708 C122.695,409.582 125.321,412.312 128.987,412.312 L128.987,412.312 Z M133.303,405.084 L124.177,405.084 C124.281,402.9 125.763,400.3 128.727,400.3 C131.873,400.3 133.277,402.952 133.303,405.084 L133.303,405.084 Z M130.183,397.544 L126.179,393.8 L124.567,393.8 L129.039,397.544 L130.183,397.544 Z M143.131,417.096 C146.199,417.096 148.799,415.718 148.799,411.87 L148.799,399.442 L147.421,399.442 L147.421,401.47 C146.407,400.04 144.847,399.13 143.053,399.13 C139.725,399.13 137.437,401.73 137.437,405.708 C137.437,409.738 139.725,412.26 143.053,412.26 C144.925,412.26 146.537,411.194 147.421,409.92 L147.421,411.896 C147.421,414.782 145.419,415.926 143.131,415.926 C141.259,415.926 140.063,415.458 138.971,414.158 L138.191,415.198 C139.673,416.706 141.025,417.096 143.131,417.096 L143.131,417.096 Z M143.287,411.038 C140.505,411.038 138.893,408.75 138.893,405.708 C138.893,402.666 140.505,400.352 143.287,400.352 C145.029,400.352 146.693,401.418 147.421,402.64 L147.421,408.75 C146.693,409.972 145.029,411.038 143.287,411.038 L143.287,411.038 Z M158.549,412.312 C160.629,412.312 162.215,411.584 163.463,410.284 L162.761,409.4 C161.695,410.544 160.239,411.142 158.653,411.142 C155.689,411.142 153.869,408.88 153.739,406.15 L164.243,406.15 L164.243,405.786 C164.243,402.172 162.137,399.13 158.315,399.13 C154.831,399.13 152.257,402.068 152.257,405.708 C152.257,409.582 154.883,412.312 158.549,412.312 L158.549,412.312 Z M162.865,405.084 L153.739,405.084 C153.843,402.9 155.325,400.3 158.289,400.3 C161.435,400.3 162.839,402.952 162.865,405.084 L162.865,405.084 Z M178.777,405.682 L174.617,401.08 L173.135,401.08 L177.295,405.682 L173.135,410.362 L174.617,410.362 L178.777,405.682 Z M193.831,412.312 C198.511,412.312 199.993,409.634 199.993,407.398 C199.993,400.924 189.593,403.368 189.593,398.922 C189.593,397.05 191.335,395.724 193.649,395.724 C195.599,395.724 197.367,396.4 198.615,397.908 L199.603,396.816 C198.251,395.282 196.327,394.372 193.727,394.372 C190.581,394.372 188.033,396.166 188.033,399 C188.033,405.058 198.433,402.406 198.433,407.502 C198.433,408.984 197.419,410.96 193.857,410.96 C191.387,410.96 189.567,409.738 188.449,408.438 L187.487,409.556 C188.813,411.168 190.971,412.312 193.831,412.312 L193.831,412.312 Z M209.067,412.312 C211.147,412.312 212.733,411.584 213.981,410.284 L213.279,409.4 C212.213,410.544 210.757,411.142 209.171,411.142 C206.207,411.142 204.387,408.88 204.257,406.15 L214.761,406.15 L214.761,405.786 C214.761,402.172 212.655,399.13 208.833,399.13 C205.349,399.13 202.775,402.068 202.775,405.708 C202.775,409.582 205.401,412.312 209.067,412.312 L209.067,412.312 Z M213.383,405.084 L204.257,405.084 C204.361,402.9 205.843,400.3 208.807,400.3 C211.953,400.3 213.357,402.952 213.383,405.084 L213.383,405.084 Z M219.597,412 L219.597,402.848 C220.169,401.756 221.885,400.612 223.159,400.612 C223.419,400.612 223.601,400.612 223.835,400.664 L223.835,399.182 C222.093,399.182 220.663,400.196 219.597,401.6 L219.597,399.442 L218.245,399.442 L218.245,412 L219.597,412 Z M235.821,412 L235.821,403.16 C235.821,400.352 233.793,399.13 231.245,399.13 C229.165,399.13 227.709,399.832 226.409,401.236 L227.163,402.172 C228.307,400.872 229.529,400.326 231.089,400.326 C232.961,400.326 234.469,401.34 234.469,403.212 L234.469,405.76 C233.377,404.538 231.947,403.966 230.205,403.966 C228.021,403.966 225.811,405.396 225.811,408.126 C225.811,410.83 228.047,412.312 230.205,412.312 C231.947,412.312 233.351,411.74 234.469,410.518 L234.469,412 L235.821,412 Z M230.673,411.246 C228.593,411.246 227.241,409.92 227.241,408.152 C227.241,406.358 228.593,405.032 230.673,405.032 C232.181,405.032 233.585,405.63 234.469,406.774 L234.469,409.53 C233.585,410.674 232.181,411.246 230.673,411.246 L230.673,411.246 Z M240.709,397.466 C241.281,397.466 241.749,396.998 241.749,396.426 C241.749,395.854 241.281,395.412 240.709,395.412 C240.163,395.412 239.669,395.854 239.669,396.426 C239.669,396.998 240.163,397.466 240.709,397.466 L240.709,397.466 Z M241.385,412 L241.385,399.442 L240.033,399.442 L240.033,412 L241.385,412 Z M255.425,412 L255.425,403.212 C255.425,400.378 254.021,399.13 251.473,399.13 C249.653,399.13 247.859,400.248 246.949,401.34 L246.949,399.442 L245.597,399.442 L245.597,412 L246.949,412 L246.949,402.51 C247.755,401.366 249.419,400.352 251.031,400.352 C252.851,400.352 254.073,401.08 254.073,403.498 L254.073,412 L255.425,412 Z M264.603,417.096 C267.671,417.096 270.271,415.718 270.271,411.87 L270.271,399.442 L268.893,399.442 L268.893,401.47 C267.879,400.04 266.319,399.13 264.525,399.13 C261.197,399.13 258.909,401.73 258.909,405.708 C258.909,409.738 261.197,412.26 264.525,412.26 C266.397,412.26 268.009,411.194 268.893,409.92 L268.893,411.896 C268.893,414.782 266.891,415.926 264.603,415.926 C262.731,415.926 261.535,415.458 260.443,414.158 L259.663,415.198 C261.145,416.706 262.497,417.096 264.603,417.096 L264.603,417.096 Z M264.759,411.038 C261.977,411.038 260.365,408.75 260.365,405.708 C260.365,402.666 261.977,400.352 264.759,400.352 C266.501,400.352 268.165,401.418 268.893,402.64 L268.893,408.75 C268.165,409.972 266.501,411.038 264.759,411.038 L264.759,411.038 Z" id="Liège-›-Seraing" fill="#FFFFFF" sketch:type="MSShapeGroup"></path>
            <path d="M93.913,522 L93.913,513.784 L103.247,513.784 L103.247,512.432 L93.913,512.432 L93.913,506.01 L103.429,506.01 L103.429,504.658 L92.431,504.658 L92.431,522 L93.913,522 Z M107.823,522 L107.823,504.658 L106.471,504.658 L106.471,522 L107.823,522 Z M121.577,503.8 L119.965,503.8 L115.961,507.544 L117.105,507.544 L121.577,503.8 Z M117.599,522.312 C119.679,522.312 121.265,521.584 122.513,520.284 L121.811,519.4 C120.745,520.544 119.289,521.142 117.703,521.142 C114.739,521.142 112.919,518.88 112.789,516.15 L123.293,516.15 L123.293,515.786 C123.293,512.172 121.187,509.13 117.365,509.13 C113.881,509.13 111.307,512.068 111.307,515.708 C111.307,519.582 113.933,522.312 117.599,522.312 L117.599,522.312 Z M121.915,515.084 L112.789,515.084 C112.893,512.9 114.375,510.3 117.339,510.3 C120.485,510.3 121.889,512.952 121.915,515.084 L121.915,515.084 Z M143.079,522 L143.079,512.952 C143.079,510.43 141.961,509.13 139.647,509.13 C137.879,509.13 136.189,510.326 135.487,511.496 C135.175,510.274 134.135,509.13 132.185,509.13 C130.365,509.13 128.649,510.534 128.129,511.34 L128.129,509.442 L126.777,509.442 L126.777,522 L128.129,522 L128.129,512.51 C128.883,511.366 130.391,510.352 131.717,510.352 C133.511,510.352 134.239,511.444 134.239,513.212 L134.239,522 L135.617,522 L135.617,512.484 C136.319,511.34 137.853,510.352 139.205,510.352 C140.973,510.352 141.727,511.444 141.727,513.212 L141.727,522 L143.079,522 Z M156.625,522 L156.625,513.16 C156.625,510.352 154.597,509.13 152.049,509.13 C149.969,509.13 148.513,509.832 147.213,511.236 L147.967,512.172 C149.111,510.872 150.333,510.326 151.893,510.326 C153.765,510.326 155.273,511.34 155.273,513.212 L155.273,515.76 C154.181,514.538 152.751,513.966 151.009,513.966 C148.825,513.966 146.615,515.396 146.615,518.126 C146.615,520.83 148.851,522.312 151.009,522.312 C152.751,522.312 154.155,521.74 155.273,520.518 L155.273,522 L156.625,522 Z M151.477,521.246 C149.397,521.246 148.045,519.92 148.045,518.152 C148.045,516.358 149.397,515.032 151.477,515.032 C152.985,515.032 154.389,515.63 155.273,516.774 L155.273,519.53 C154.389,520.674 152.985,521.246 151.477,521.246 L151.477,521.246 Z M162.189,522 L162.189,504.658 L160.837,504.658 L160.837,522 L162.189,522 Z M167.753,522 L167.753,504.658 L166.401,504.658 L166.401,522 L167.753,522 Z M177.529,522.312 C179.609,522.312 181.195,521.584 182.443,520.284 L181.741,519.4 C180.675,520.544 179.219,521.142 177.633,521.142 C174.669,521.142 172.849,518.88 172.719,516.15 L183.223,516.15 L183.223,515.786 C183.223,512.172 181.117,509.13 177.295,509.13 C173.811,509.13 171.237,512.068 171.237,515.708 C171.237,519.582 173.863,522.312 177.529,522.312 L177.529,522.312 Z M181.845,515.084 L172.719,515.084 C172.823,512.9 174.305,510.3 177.269,510.3 C180.415,510.3 181.819,512.952 181.845,515.084 L181.845,515.084 Z M197.757,515.682 L193.597,511.08 L192.115,511.08 L196.275,515.682 L192.115,520.362 L193.597,520.362 L197.757,515.682 Z M221.417,522 L221.417,504.658 L219.909,504.658 L219.909,512.406 L208.911,512.406 L208.911,504.658 L207.429,504.658 L207.429,522 L208.911,522 L208.911,513.758 L219.909,513.758 L219.909,522 L221.417,522 Z M231.219,522.312 C233.299,522.312 234.885,521.584 236.133,520.284 L235.431,519.4 C234.365,520.544 232.909,521.142 231.323,521.142 C228.359,521.142 226.539,518.88 226.409,516.15 L236.913,516.15 L236.913,515.786 C236.913,512.172 234.807,509.13 230.985,509.13 C227.501,509.13 224.927,512.068 224.927,515.708 C224.927,519.582 227.553,522.312 231.219,522.312 L231.219,522.312 Z M235.535,515.084 L226.409,515.084 C226.513,512.9 227.995,510.3 230.959,510.3 C234.105,510.3 235.509,512.952 235.535,515.084 L235.535,515.084 Z M241.749,522 L241.749,512.848 C242.321,511.756 244.037,510.612 245.311,510.612 C245.571,510.612 245.753,510.612 245.987,510.664 L245.987,509.182 C244.245,509.182 242.815,510.196 241.749,511.6 L241.749,509.442 L240.397,509.442 L240.397,522 L241.749,522 Z M252.383,522.312 C255.529,522.312 257.089,520.648 257.089,518.62 C257.089,513.784 249.159,515.708 249.159,512.562 C249.159,511.262 250.355,510.274 252.305,510.274 C253.969,510.274 255.321,510.95 256.049,511.938 L256.803,510.976 C255.893,509.962 254.463,509.13 252.305,509.13 C249.471,509.13 247.833,510.69 247.833,512.614 C247.833,517.112 255.763,515.188 255.763,518.62 C255.763,520.076 254.515,521.168 252.409,521.168 C250.641,521.168 249.159,520.336 248.353,519.322 L247.547,520.336 C248.795,521.714 250.355,522.312 252.383,522.312 L252.383,522.312 Z M263.303,522.312 C264.343,522.312 264.941,522 265.435,521.532 L264.915,520.492 C264.629,520.804 264.109,521.09 263.511,521.09 C262.627,521.09 262.211,520.388 262.211,519.374 L262.211,510.638 L264.759,510.638 L264.759,509.442 L262.211,509.442 L262.211,506.01 L260.833,506.01 L260.833,509.442 L258.753,509.442 L258.753,510.638 L260.833,510.638 L260.833,519.582 C260.833,521.298 261.639,522.312 263.303,522.312 L263.303,522.312 Z M277.057,522 L277.057,513.16 C277.057,510.352 275.029,509.13 272.481,509.13 C270.401,509.13 268.945,509.832 267.645,511.236 L268.399,512.172 C269.543,510.872 270.765,510.326 272.325,510.326 C274.197,510.326 275.705,511.34 275.705,513.212 L275.705,515.76 C274.613,514.538 273.183,513.966 271.441,513.966 C269.257,513.966 267.047,515.396 267.047,518.126 C267.047,520.83 269.283,522.312 271.441,522.312 C273.183,522.312 274.587,521.74 275.705,520.518 L275.705,522 L277.057,522 Z M271.909,521.246 C269.829,521.246 268.477,519.92 268.477,518.152 C268.477,516.358 269.829,515.032 271.909,515.032 C273.417,515.032 274.821,515.63 275.705,516.774 L275.705,519.53 C274.821,520.674 273.417,521.246 271.909,521.246 L271.909,521.246 Z M282.621,522 L282.621,504.658 L281.269,504.658 L281.269,522 L282.621,522 Z" id="Flémalle-›-Herstal" fill="#FFFFFF" sketch:type="MSShapeGroup"></path>
            <path d="M30.721,661 L31.128,661 L28.07,653.663 L27.652,653.663 L24.594,661 L25.001,661 L25.815,659.031 L29.907,659.031 L30.721,661 Z M27.861,654.07 L29.775,658.701 L25.947,658.701 L27.861,654.07 Z M32.019,658.338 C32.019,659.867 32.987,661.132 34.527,661.132 C35.396,661.132 35.891,660.802 36.342,660.241 L36.1,660.032 C35.671,660.615 35.165,660.835 34.549,660.835 C33.185,660.835 32.382,659.724 32.382,658.338 C32.382,656.952 33.185,655.852 34.549,655.852 C35.165,655.852 35.671,656.061 36.1,656.644 L36.342,656.446 C35.891,655.885 35.396,655.555 34.527,655.555 C32.987,655.555 32.019,656.809 32.019,658.338 L32.019,658.338 Z M41.314,661 L41.644,661 L41.644,657.271 C41.644,656.017 41.039,655.555 39.983,655.555 C39.246,655.555 38.454,656.039 38.058,656.523 L38.058,653.663 L37.728,653.663 L37.728,661 L38.058,661 L38.058,656.853 C38.432,656.325 39.213,655.852 39.939,655.852 C40.764,655.852 41.314,656.16 41.314,657.271 L41.314,661 Z M43.25,658.338 C43.25,659.955 44.317,661.132 45.857,661.132 C46.748,661.132 47.364,660.802 47.903,660.241 L47.705,660.032 C47.21,660.56 46.605,660.835 45.857,660.835 C44.504,660.835 43.657,659.746 43.624,658.448 L48.211,658.448 L48.211,658.338 C48.211,656.864 47.375,655.555 45.747,655.555 C44.317,655.555 43.25,656.798 43.25,658.338 L43.25,658.338 Z M45.736,655.852 C47.188,655.852 47.859,657.128 47.859,658.151 L43.624,658.151 C43.657,657.106 44.372,655.852 45.736,655.852 L45.736,655.852 Z M50.785,661.132 C51.181,661.132 51.401,661 51.61,660.802 L51.412,660.549 C51.28,660.703 51.049,660.835 50.785,660.835 C50.389,660.835 50.213,660.516 50.213,660.065 L50.213,655.984 L51.291,655.984 L51.291,655.687 L50.213,655.687 L50.213,654.235 L49.883,654.235 L49.883,655.687 L49.003,655.687 L49.003,655.984 L49.883,655.984 L49.883,660.065 C49.883,660.725 50.169,661.132 50.785,661.132 L50.785,661.132 Z M52.347,658.338 C52.347,659.955 53.414,661.132 54.954,661.132 C55.845,661.132 56.461,660.802 57,660.241 L56.802,660.032 C56.307,660.56 55.702,660.835 54.954,660.835 C53.601,660.835 52.754,659.746 52.721,658.448 L57.308,658.448 L57.308,658.338 C57.308,656.864 56.472,655.555 54.844,655.555 C53.414,655.555 52.347,656.798 52.347,658.338 L52.347,658.338 Z M54.833,655.852 C56.285,655.852 56.956,657.128 56.956,658.151 L52.721,658.151 C52.754,657.106 53.469,655.852 54.833,655.852 L54.833,655.852 Z M58.914,661 L59.244,661 L59.244,657.018 C59.486,656.523 60.245,655.973 60.806,655.973 C60.905,655.973 60.971,655.973 61.07,655.984 L61.07,655.588 C60.3,655.588 59.717,656.028 59.244,656.655 L59.244,655.687 L58.914,655.687 L58.914,661 Z M68.704,661 L69.034,661 L69.034,655.687 L68.704,655.687 L68.704,659.867 C68.33,660.395 67.549,660.835 66.823,660.835 C65.998,660.835 65.448,660.527 65.448,659.416 L65.448,655.687 L65.118,655.687 L65.118,659.416 C65.118,660.67 65.723,661.132 66.779,661.132 C67.516,661.132 68.253,660.692 68.704,660.186 L68.704,661 Z M74.512,661 L74.842,661 L74.842,657.293 C74.842,656.039 74.237,655.555 73.181,655.555 C72.444,655.555 71.652,656.039 71.256,656.523 L71.256,655.687 L70.926,655.687 L70.926,661 L71.256,661 L71.256,656.853 C71.63,656.325 72.411,655.852 73.137,655.852 C73.962,655.852 74.512,656.182 74.512,657.293 L74.512,661 Z M79.594,661 L79.924,661 L79.924,660.109 C80.287,660.659 81.002,661.132 81.838,661.132 C83.268,661.132 84.214,660.032 84.214,658.349 C84.214,656.677 83.268,655.555 81.838,655.555 C81.046,655.555 80.353,655.973 79.924,656.6 L79.924,653.663 L79.594,653.663 L79.594,661 Z M79.924,659.779 L79.924,656.93 C80.254,656.369 81.013,655.852 81.838,655.852 C83.136,655.852 83.851,656.952 83.851,658.349 C83.851,659.746 83.136,660.835 81.838,660.835 C81.013,660.835 80.254,660.34 79.924,659.779 L79.924,659.779 Z M85.985,654.774 C86.161,654.774 86.304,654.631 86.304,654.455 C86.304,654.279 86.161,654.136 85.985,654.136 C85.82,654.136 85.666,654.279 85.666,654.455 C85.666,654.631 85.82,654.774 85.985,654.774 L85.985,654.774 Z M85.82,661 L86.15,661 L86.15,655.687 L85.82,655.687 L85.82,661 Z M88.042,661 L88.372,661 L88.372,653.663 L88.042,653.663 L88.042,661 Z M90.264,661 L90.594,661 L90.594,653.663 L90.264,653.663 L90.264,661 Z M92.2,658.338 C92.2,659.955 93.267,661.132 94.807,661.132 C95.698,661.132 96.314,660.802 96.853,660.241 L96.655,660.032 C96.16,660.56 95.555,660.835 94.807,660.835 C93.454,660.835 92.607,659.746 92.574,658.448 L97.161,658.448 L97.161,658.338 C97.161,656.864 96.325,655.555 94.697,655.555 C93.267,655.555 92.2,656.798 92.2,658.338 L92.2,658.338 Z M94.686,655.852 C96.138,655.852 96.809,657.128 96.809,658.151 L92.574,658.151 C92.607,657.106 93.322,655.852 94.686,655.852 L94.686,655.852 Z M99.735,661.132 C100.131,661.132 100.351,661 100.56,660.802 L100.362,660.549 C100.23,660.703 99.999,660.835 99.735,660.835 C99.339,660.835 99.163,660.516 99.163,660.065 L99.163,655.984 L100.241,655.984 L100.241,655.687 L99.163,655.687 L99.163,654.235 L98.833,654.235 L98.833,655.687 L97.953,655.687 L97.953,655.984 L98.833,655.984 L98.833,660.065 C98.833,660.725 99.119,661.132 99.735,661.132 L99.735,661.132 Z" id="Acheter-un-billet" fill="#6D4040" sketch:type="MSShapeGroup"></path>
            <path d="M169.856,661 L170.208,661 L170.208,653.663 L169.647,653.663 L166.941,660.23 L164.235,653.663 L163.674,653.663 L163.674,661 L164.026,661 L164.026,654.081 L166.886,661 L166.996,661 L169.856,654.081 L169.856,661 Z M171.836,658.338 C171.836,659.955 172.903,661.132 174.443,661.132 C175.334,661.132 175.95,660.802 176.489,660.241 L176.291,660.032 C175.796,660.56 175.191,660.835 174.443,660.835 C173.09,660.835 172.243,659.746 172.21,658.448 L176.797,658.448 L176.797,658.338 C176.797,656.864 175.961,655.555 174.333,655.555 C172.903,655.555 171.836,656.798 171.836,658.338 L171.836,658.338 Z M174.322,655.852 C175.774,655.852 176.445,657.128 176.445,658.151 L172.21,658.151 C172.243,657.106 172.958,655.852 174.322,655.852 L174.322,655.852 Z M177.941,660.285 C178.469,660.89 179.052,661.132 179.888,661.132 C181.175,661.132 181.791,660.428 181.791,659.603 C181.791,658.525 180.812,658.272 179.899,658.041 C179.118,657.832 178.381,657.656 178.381,656.963 C178.381,656.336 178.931,655.852 179.855,655.852 C180.57,655.852 181.131,656.138 181.439,656.578 L181.681,656.358 C181.34,655.918 180.768,655.555 179.855,655.555 C178.711,655.555 178.051,656.182 178.051,656.963 C178.051,657.931 178.975,658.162 179.855,658.393 C180.669,658.613 181.461,658.822 181.461,659.603 C181.461,660.307 180.867,660.835 179.888,660.835 C179.107,660.835 178.535,660.483 178.205,660.043 L177.941,660.285 Z M186.257,661 L186.587,661 L186.587,660.109 C186.95,660.659 187.665,661.132 188.501,661.132 C189.931,661.132 190.877,660.032 190.877,658.349 C190.877,656.677 189.931,655.555 188.501,655.555 C187.709,655.555 187.016,655.973 186.587,656.6 L186.587,653.663 L186.257,653.663 L186.257,661 Z M186.587,659.779 L186.587,656.93 C186.917,656.369 187.676,655.852 188.501,655.852 C189.799,655.852 190.514,656.952 190.514,658.349 C190.514,659.746 189.799,660.835 188.501,660.835 C187.676,660.835 186.917,660.34 186.587,659.779 L186.587,659.779 Z M192.648,654.774 C192.824,654.774 192.967,654.631 192.967,654.455 C192.967,654.279 192.824,654.136 192.648,654.136 C192.483,654.136 192.329,654.279 192.329,654.455 C192.329,654.631 192.483,654.774 192.648,654.774 L192.648,654.774 Z M192.483,661 L192.813,661 L192.813,655.687 L192.483,655.687 L192.483,661 Z M194.705,661 L195.035,661 L195.035,653.663 L194.705,653.663 L194.705,661 Z M196.927,661 L197.257,661 L197.257,653.663 L196.927,653.663 L196.927,661 Z M198.863,658.338 C198.863,659.955 199.93,661.132 201.47,661.132 C202.361,661.132 202.977,660.802 203.516,660.241 L203.318,660.032 C202.823,660.56 202.218,660.835 201.47,660.835 C200.117,660.835 199.27,659.746 199.237,658.448 L203.824,658.448 L203.824,658.338 C203.824,656.864 202.988,655.555 201.36,655.555 C199.93,655.555 198.863,656.798 198.863,658.338 L198.863,658.338 Z M201.349,655.852 C202.801,655.852 203.472,657.128 203.472,658.151 L199.237,658.151 C199.27,657.106 199.985,655.852 201.349,655.852 L201.349,655.852 Z M206.398,661.132 C206.794,661.132 207.014,661 207.223,660.802 L207.025,660.549 C206.893,660.703 206.662,660.835 206.398,660.835 C206.002,660.835 205.826,660.516 205.826,660.065 L205.826,655.984 L206.904,655.984 L206.904,655.687 L205.826,655.687 L205.826,654.235 L205.496,654.235 L205.496,655.687 L204.616,655.687 L204.616,655.984 L205.496,655.984 L205.496,660.065 C205.496,660.725 205.782,661.132 206.398,661.132 L206.398,661.132 Z M207.784,660.285 C208.312,660.89 208.895,661.132 209.731,661.132 C211.018,661.132 211.634,660.428 211.634,659.603 C211.634,658.525 210.655,658.272 209.742,658.041 C208.961,657.832 208.224,657.656 208.224,656.963 C208.224,656.336 208.774,655.852 209.698,655.852 C210.413,655.852 210.974,656.138 211.282,656.578 L211.524,656.358 C211.183,655.918 210.611,655.555 209.698,655.555 C208.554,655.555 207.894,656.182 207.894,656.963 C207.894,657.931 208.818,658.162 209.698,658.393 C210.512,658.613 211.304,658.822 211.304,659.603 C211.304,660.307 210.71,660.835 209.731,660.835 C208.95,660.835 208.378,660.483 208.048,660.043 L207.784,660.285 Z" id="Mes-billets" fill="#6D4040" sketch:type="MSShapeGroup"></path>
            <path d="M290.203,661 L290.555,661 L290.555,653.663 L289.994,653.663 L287.288,660.23 L284.582,653.663 L284.021,653.663 L284.021,661 L284.373,661 L284.373,654.081 L287.233,661 L287.343,661 L290.203,654.081 L290.203,661 Z M294.658,661.132 C296.165,661.132 297.133,659.9 297.133,658.338 C297.133,656.776 296.165,655.555 294.658,655.555 C293.162,655.555 292.183,656.776 292.183,658.338 C292.183,659.9 293.162,661.132 294.658,661.132 L294.658,661.132 Z M294.658,660.835 C293.305,660.835 292.546,659.636 292.546,658.338 C292.546,657.051 293.305,655.852 294.658,655.852 C296.022,655.852 296.77,657.051 296.77,658.338 C296.77,659.636 296.022,660.835 294.658,660.835 L294.658,660.835 Z M302.325,661 L302.655,661 L302.655,657.293 C302.655,656.039 302.05,655.555 300.994,655.555 C300.257,655.555 299.465,656.039 299.069,656.523 L299.069,655.687 L298.739,655.687 L298.739,661 L299.069,661 L299.069,656.853 C299.443,656.325 300.224,655.852 300.95,655.852 C301.775,655.852 302.325,656.182 302.325,657.293 L302.325,661 Z M307.121,658.338 C307.121,659.867 308.089,661.132 309.629,661.132 C310.498,661.132 310.993,660.802 311.444,660.241 L311.202,660.032 C310.773,660.615 310.267,660.835 309.651,660.835 C308.287,660.835 307.484,659.724 307.484,658.338 C307.484,656.952 308.287,655.852 309.651,655.852 C310.267,655.852 310.773,656.061 311.202,656.644 L311.444,656.446 C310.993,655.885 310.498,655.555 309.629,655.555 C308.089,655.555 307.121,656.809 307.121,658.338 L307.121,658.338 Z M315.019,661.132 C316.526,661.132 317.494,659.9 317.494,658.338 C317.494,656.776 316.526,655.555 315.019,655.555 C313.523,655.555 312.544,656.776 312.544,658.338 C312.544,659.9 313.523,661.132 315.019,661.132 L315.019,661.132 Z M315.019,660.835 C313.666,660.835 312.907,659.636 312.907,658.338 C312.907,657.051 313.666,655.852 315.019,655.852 C316.383,655.852 317.131,657.051 317.131,658.338 C317.131,659.636 316.383,660.835 315.019,660.835 L315.019,660.835 Z M325.348,661 L325.678,661 L325.678,657.172 C325.678,656.116 325.227,655.555 324.259,655.555 C323.522,655.555 322.807,656.072 322.51,656.567 C322.4,656.072 321.971,655.555 321.135,655.555 C320.376,655.555 319.65,656.171 319.43,656.523 L319.43,655.687 L319.1,655.687 L319.1,661 L319.43,661 L319.43,656.853 C319.782,656.314 320.486,655.852 321.08,655.852 C321.883,655.852 322.224,656.347 322.224,657.172 L322.224,661 L322.554,661 L322.554,656.842 C322.884,656.303 323.61,655.852 324.204,655.852 C325.007,655.852 325.348,656.347 325.348,657.172 L325.348,661 Z M327.9,663.024 L327.9,660.087 C328.329,660.714 329.022,661.132 329.814,661.132 C331.244,661.132 332.19,660.01 332.19,658.338 C332.19,656.655 331.244,655.555 329.814,655.555 C328.978,655.555 328.263,656.028 327.9,656.578 L327.9,655.687 L327.57,655.687 L327.57,663.024 L327.9,663.024 Z M331.827,658.338 C331.827,659.735 331.112,660.835 329.814,660.835 C328.989,660.835 328.23,660.318 327.9,659.757 L327.9,656.908 C328.23,656.347 328.989,655.852 329.814,655.852 C331.112,655.852 331.827,656.941 331.827,658.338 L331.827,658.338 Z M334.764,661.132 C335.16,661.132 335.38,661 335.589,660.802 L335.391,660.549 C335.259,660.703 335.028,660.835 334.764,660.835 C334.368,660.835 334.192,660.516 334.192,660.065 L334.192,655.984 L335.27,655.984 L335.27,655.687 L334.192,655.687 L334.192,654.235 L333.862,654.235 L333.862,655.687 L332.982,655.687 L332.982,655.984 L333.862,655.984 L333.862,660.065 C333.862,660.725 334.148,661.132 334.764,661.132 L334.764,661.132 Z M336.326,658.338 C336.326,659.955 337.393,661.132 338.933,661.132 C339.824,661.132 340.44,660.802 340.979,660.241 L340.781,660.032 C340.286,660.56 339.681,660.835 338.933,660.835 C337.58,660.835 336.733,659.746 336.7,658.448 L341.287,658.448 L341.287,658.338 C341.287,656.864 340.451,655.555 338.823,655.555 C337.393,655.555 336.326,656.798 336.326,658.338 L336.326,658.338 Z M338.812,655.852 C340.264,655.852 340.935,657.128 340.935,658.151 L336.7,658.151 C336.733,657.106 337.448,655.852 338.812,655.852 L338.812,655.852 Z" id="Mon-compte" fill="#6D4040" sketch:type="MSShapeGroup"></path>
            <path d="M258.59,237 C261.695,237 263.72,234.855 263.72,232.005 C263.72,229.17 261.695,226.995 258.59,226.995 L255.17,226.995 L255.17,237 L258.59,237 Z M258.59,235.89 L256.415,235.89 L256.415,228.105 L258.59,228.105 C261.065,228.105 262.43,229.845 262.43,232.005 C262.43,234.15 261.02,235.89 258.59,235.89 L258.59,235.89 Z M271.28,237 L271.28,232.02 C271.28,230.265 270.005,229.575 268.475,229.575 C267.29,229.575 266.36,229.965 265.58,230.775 L266.105,231.555 C266.75,230.865 267.455,230.55 268.325,230.55 C269.375,230.55 270.155,231.105 270.155,232.08 L270.155,233.385 C269.57,232.71 268.745,232.395 267.755,232.395 C266.525,232.395 265.22,233.16 265.22,234.78 C265.22,236.355 266.525,237.18 267.755,237.18 C268.73,237.18 269.555,236.835 270.155,236.175 L270.155,237 L271.28,237 Z M268.16,236.37 C267.11,236.37 266.375,235.71 266.375,234.795 C266.375,233.865 267.11,233.205 268.16,233.205 C268.955,233.205 269.72,233.505 270.155,234.105 L270.155,235.47 C269.72,236.07 268.955,236.37 268.16,236.37 L268.16,236.37 Z M279.545,237 L279.545,231.915 C279.545,230.34 278.75,229.575 277.235,229.575 C276.155,229.575 275.165,230.205 274.655,230.805 L274.655,229.755 L273.53,229.755 L273.53,237 L274.655,237 L274.655,231.705 C275.075,231.12 275.915,230.58 276.8,230.58 C277.775,230.58 278.42,230.985 278.42,232.26 L278.42,237 L279.545,237 Z M284.09,237.18 C285.965,237.18 286.94,236.205 286.94,234.99 C286.94,232.17 282.455,233.22 282.455,231.63 C282.455,230.985 283.07,230.49 284.06,230.49 C284.99,230.49 285.785,230.88 286.22,231.405 L286.745,230.625 C286.16,230.04 285.29,229.575 284.06,229.575 C282.335,229.575 281.36,230.535 281.36,231.66 C281.36,234.345 285.845,233.265 285.845,235.02 C285.845,235.74 285.245,236.265 284.135,236.265 C283.145,236.265 282.23,235.785 281.75,235.23 L281.165,236.04 C281.9,236.82 282.905,237.18 284.09,237.18 L284.09,237.18 Z" id="Dans" fill="#FFFFFF" sketch:type="MSShapeGroup"></path>
            <path d="M229.725,260.476 L235.995,246.682 L235.995,245.802 L226.381,245.802 L226.381,246.946 L234.499,246.946 L228.339,260.476 L229.725,260.476 Z M257.973,260.476 L257.973,252.82 C257.973,250.686 257.027,249.586 255.069,249.586 C253.573,249.586 252.143,250.598 251.549,251.588 C251.285,250.554 250.405,249.586 248.755,249.586 C247.215,249.586 245.763,250.774 245.323,251.456 L245.323,249.85 L244.179,249.85 L244.179,260.476 L245.323,260.476 L245.323,252.446 C245.961,251.478 247.237,250.62 248.359,250.62 C249.877,250.62 250.493,251.544 250.493,253.04 L250.493,260.476 L251.659,260.476 L251.659,252.424 C252.253,251.456 253.551,250.62 254.695,250.62 C256.191,250.62 256.829,251.544 256.829,253.04 L256.829,260.476 L257.973,260.476 Z M262.109,248.178 C262.593,248.178 262.989,247.782 262.989,247.298 C262.989,246.814 262.593,246.44 262.109,246.44 C261.647,246.44 261.229,246.814 261.229,247.298 C261.229,247.782 261.647,248.178 262.109,248.178 L262.109,248.178 Z M262.681,260.476 L262.681,249.85 L261.537,249.85 L261.537,260.476 L262.681,260.476 Z M274.561,260.476 L274.561,253.04 C274.561,250.642 273.373,249.586 271.217,249.586 C269.677,249.586 268.159,250.532 267.389,251.456 L267.389,249.85 L266.245,249.85 L266.245,260.476 L267.389,260.476 L267.389,252.446 C268.071,251.478 269.479,250.62 270.843,250.62 C272.383,250.62 273.417,251.236 273.417,253.282 L273.417,260.476 L274.561,260.476 Z M286.441,260.476 L286.441,249.85 L285.297,249.85 L285.297,257.946 C284.593,258.892 283.207,259.706 281.843,259.706 C280.303,259.706 279.269,259.134 279.269,257.066 L279.269,249.85 L278.125,249.85 L278.125,257.33 C278.125,259.728 279.291,260.74 281.469,260.74 C283.009,260.74 284.417,259.882 285.297,258.914 L285.297,260.476 L286.441,260.476 Z M292.315,260.74 C293.195,260.74 293.701,260.476 294.119,260.08 L293.679,259.2 C293.437,259.464 292.997,259.706 292.491,259.706 C291.743,259.706 291.391,259.112 291.391,258.254 L291.391,250.862 L293.547,250.862 L293.547,249.85 L291.391,249.85 L291.391,246.946 L290.225,246.946 L290.225,249.85 L288.465,249.85 L288.465,250.862 L290.225,250.862 L290.225,258.43 C290.225,259.882 290.907,260.74 292.315,260.74 L292.315,260.74 Z M300.763,260.74 C302.523,260.74 303.865,260.124 304.921,259.024 L304.327,258.276 C303.425,259.244 302.193,259.75 300.851,259.75 C298.343,259.75 296.803,257.836 296.693,255.526 L305.581,255.526 L305.581,255.218 C305.581,252.16 303.799,249.586 300.565,249.586 C297.617,249.586 295.439,252.072 295.439,255.152 C295.439,258.43 297.661,260.74 300.763,260.74 L300.763,260.74 Z M304.415,254.624 L296.693,254.624 C296.781,252.776 298.035,250.576 300.543,250.576 C303.205,250.576 304.393,252.82 304.415,254.624 L304.415,254.624 Z M311.697,260.74 C314.359,260.74 315.679,259.332 315.679,257.616 C315.679,253.524 308.969,255.152 308.969,252.49 C308.969,251.39 309.981,250.554 311.631,250.554 C313.039,250.554 314.183,251.126 314.799,251.962 L315.437,251.148 C314.667,250.29 313.457,249.586 311.631,249.586 C309.233,249.586 307.847,250.906 307.847,252.534 C307.847,256.34 314.557,254.712 314.557,257.616 C314.557,258.848 313.501,259.772 311.719,259.772 C310.223,259.772 308.969,259.068 308.287,258.21 L307.605,259.068 C308.661,260.234 309.981,260.74 311.697,260.74 L311.697,260.74 Z" id="Dans" fill="#FFFFFF" sketch:type="MSShapeGroup"></path>
            <path d="M94.7,237 L98.735,226.995 L97.31,226.995 L93.935,235.635 L90.56,226.995 L89.135,226.995 L93.155,237 L94.7,237 Z M102.26,237.18 C104.465,237.18 105.845,235.47 105.845,233.37 C105.845,231.27 104.465,229.575 102.26,229.575 C100.055,229.575 98.675,231.27 98.675,233.37 C98.675,235.47 100.055,237.18 102.26,237.18 L102.26,237.18 Z M102.26,236.175 C100.715,236.175 99.845,234.855 99.845,233.37 C99.845,231.9 100.715,230.58 102.26,230.58 C103.805,230.58 104.66,231.9 104.66,233.37 C104.66,234.855 103.805,236.175 102.26,236.175 L102.26,236.175 Z M108.23,228.72 C108.65,228.72 108.995,228.39 108.995,227.97 C108.995,227.55 108.65,227.205 108.23,227.205 C107.825,227.205 107.48,227.55 107.48,227.97 C107.48,228.39 107.825,228.72 108.23,228.72 L108.23,228.72 Z M108.8,237 L108.8,229.755 L107.675,229.755 L107.675,237 L108.8,237 Z M114.32,237.18 C115.505,237.18 116.48,236.79 117.2,236.07 L116.66,235.335 C116.09,235.92 115.25,236.25 114.425,236.25 C112.865,236.25 111.905,235.11 111.815,233.745 L117.68,233.745 L117.68,233.46 C117.68,231.285 116.39,229.575 114.2,229.575 C112.13,229.575 110.63,231.27 110.63,233.37 C110.63,235.635 112.175,237.18 114.32,237.18 L114.32,237.18 Z M116.57,232.92 L111.815,232.92 C111.875,231.81 112.64,230.505 114.185,230.505 C115.835,230.505 116.555,231.84 116.57,232.92 L116.57,232.92 Z" id="Voie" fill="#FFFFFF" sketch:type="MSShapeGroup"></path>
            <path d="M106.775,259.5 L106.775,255.496 L108.931,255.496 L108.931,254.352 L106.775,254.352 L106.775,244.826 L105.081,244.826 L98.569,254.374 L98.569,255.496 L105.521,255.496 L105.521,259.5 L106.775,259.5 Z M105.521,254.352 L99.867,254.352 L105.521,246.08 L105.521,254.352 Z" id="Voie" fill="#FFFFFF" sketch:type="MSShapeGroup"></path>
        </g>
    </g>
</svg>