<?xml version="1.0" encoding="UTF-8" standalone="no"?>
<svg width="375px" height="667px" viewBox="0 0 375 667" version="1.1" xmlns="http://www.w3.org/2000/svg" xmlns:xlink="http://www.w3.org/1999/xlink" xmlns:sketch="http://www.bohemiancoding.com/sketch/ns">
    <!-- Generator: Sketch 3.3.3 (12072) - http://www.bohemiancoding.com/sketch -->
    <title>iPhone 6 Copy 13</title>
    <desc>Created with Sketch.</desc>
    <defs></defs>
    <g id="Page-1" stroke="none" stroke-width="1" fill="none" fill-rule="evenodd" sketch:type="MSPage">
        <g id="iPhone-6-Copy-13" sketch:type="MSArtboardGroup">
            <rect id="Rectangle-2-Copy-9" fill="#FAFAFA" sketch:type="MSShapeGroup" x="0" y="85" width="376" height="584"></rect>
            <rect id="Rectangle-1" fill="#0075FF" sketch:type="MSShapeGroup" x="0" y="0" width="375" height="85"></rect>
            <g id="Rectangle-42-Copy-13-+-Rectangle-42-Copy-14" sketch:type="MSLayerGroup" transform="translate(31.000000, 261.000000)">
                <path d="M329.263522,20.266 C329.263522,31.3865267 320.253441,40.4014948 309.134712,40.4014948 L164.939304,40.4014948 L164.909284,0.130505231 L309.131034,0.130505231 C320.2499,0.130505231 329.263522,9.14302821 329.263522,20.266 L329.263522,20.266 Z" id="Rectangle-42-Copy-13" stroke-opacity="0.1" stroke="#000000" stroke-width="0.5" fill="#FFFFFF" sketch:type="MSShapeGroup"></path>
                <path d="M0.738943612,20.266 C0.738943612,9.14547331 9.74902429,0.130505231 20.867754,0.130505231 L165.063162,0.130505231 L165.093182,40.4014948 L20.8714312,40.4014948 C9.75256535,40.4014948 0.738943612,31.3889718 0.738943612,20.266 L0.738943612,20.266 Z" id="Rectangle-42-Copy-14" fill-opacity="0.1" fill="#000000" sketch:type="MSShapeGroup"></path>
            </g>
            <rect id="Rectangle-2-Copy-7" stroke-opacity="0.1" stroke="#000000" stroke-width="0.5" fill="#FFFFFF" sketch:type="MSShapeGroup" x="0" y="121.766" width="384.001233" height="50"></rect>
            <rect id="Rectangle-2-Copy-23" stroke-opacity="0.1" stroke="#000000" stroke-width="0.5" fill="#FFFFFF" sketch:type="MSShapeGroup" x="0" y="170.766" width="384.001233" height="50"></rect>
            <circle id="Oval-5-Copy-6" stroke-opacity="0.1" stroke="#000000" stroke-width="0.5" fill="#FFFFFF" sketch:type="MSShapeGroup" cx="349.401233" cy="170.766" r="15"></circle>
            <rect id="Rectangle-22-Copy-2" fill="#0075FF" sketch:type="MSShapeGroup" x="20.6" y="533" width="335" height="45" rx="3"></rect>
            <path d="M195.516243,361.672484 L339.634712,361.672484 C350.753441,361.672484 359.763522,352.657516 359.763522,341.53699 C359.763522,330.414018 350.7499,321.401495 339.631034,321.401495 L195.486223,321.401495 L51.367754,321.401495 C40.2490243,321.401495 31.2389436,330.416463 31.2389436,341.53699 C31.2389436,352.659961 40.2525653,361.672484 51.3714312,361.672484 L195.516243,361.672484 Z" id="Rectangle-42-Copy-16" stroke-opacity="0.1" stroke="#000000" stroke-width="0.5" fill="#FFFFFF" sketch:type="MSShapeGroup"></path>
            <g id="Imported-EPS-Copy-3" sketch:type="MSLayerGroup" transform="translate(-1.000000, 617.000000)">
                <g id="Page-1" sketch:type="MSShapeGroup">
                    <path d="M0,0 L376,0 L376,52 L0,52 L0,0 Z" id="Fill-1" fill="#FFFFFF"></path>
                    <path d="M320.39467,10.575 C320.39467,14.1205 317.509159,16.995 313.948956,16.995 C310.389255,16.995 307.503744,14.1205 307.503744,10.575 C307.503744,7.029 310.389255,4.155 313.948956,4.155 C317.509159,4.155 320.39467,7.029 320.39467,10.575 L320.39467,10.575 L320.39467,10.575 Z M303.73772,29.125 C303.73772,23.508 308.309458,18.9545 313.948956,18.9545 C319.588454,18.9545 324.160192,23.508 324.160192,29.125 M172.688919,7 L172.688919,14.329 C174.194927,14.329 175.079455,15.395 175.079455,16.7095 C175.079455,18.0245 174.194927,19.0905 172.688919,19.0905 L172.688919,27 L203.311081,27 L203.311081,7 L172.688919,7 L172.688919,7 Z" id="Stroke-2" stroke="#0075FF" stroke-width="1.00400534"></path>
                    <path d="M183.732977,12.5 L199.29506,12.5 M183.732977,17 L199.29506,17 M183.732977,21.5 L199.29506,21.5 M69.7783712,8.5 L53.2818406,8.5 L45.1802403,8.5 L45.1802403,15.829 C46.6862483,15.829 47.570777,16.895 47.570777,18.2095 C47.570777,19.5245 46.6862483,20.5905 45.1802403,20.5905 L45.1802403,28.5 L75.8024032,28.5 L75.8024032,14" id="Stroke-4" stroke="#0075FF" stroke-width="1.00400534"></path>
                    <path d="M52.5,8.49793082 L52.5,28.5020695" id="Stroke-5" stroke="#0075FF" stroke-dasharray="2,3,2,2"></path>
                    <path d="M180.188919,6.63793082 L180.188919,26.6420695" id="Stroke-5-Copy" stroke="#0075FF" stroke-dasharray="2,3,2,2"></path>
                    <path d="M56.2242991,14 L71.7863818,14 M56.2242991,18.5 L71.7863818,18.5 M56.2242991,23 L71.7863818,23 M75.8024032,11.5 L75.8024032,5.5 M72.7903872,8.5 L78.8144192,8.5" id="Stroke-6" stroke="#0075FF" stroke-width="1.00400534"></path>
                </g>
            </g>
            <path d="M123.942,64 L124.756,64 L118.64,49.326 L117.804,49.326 L111.688,64 L112.502,64 L114.13,60.062 L122.314,60.062 L123.942,64 Z M118.222,50.14 L122.05,59.402 L114.394,59.402 L118.222,50.14 Z M126.538,58.676 C126.538,61.734 128.474,64.264 131.554,64.264 C133.292,64.264 134.282,63.604 135.184,62.482 L134.7,62.064 C133.842,63.23 132.83,63.67 131.598,63.67 C128.87,63.67 127.264,61.448 127.264,58.676 C127.264,55.904 128.87,53.704 131.598,53.704 C132.83,53.704 133.842,54.122 134.7,55.288 L135.184,54.892 C134.282,53.77 133.292,53.11 131.554,53.11 C128.474,53.11 126.538,55.618 126.538,58.676 L126.538,58.676 Z M145.128,64 L145.788,64 L145.788,56.542 C145.788,54.034 144.578,53.11 142.466,53.11 C140.992,53.11 139.408,54.078 138.616,55.046 L138.616,49.326 L137.956,49.326 L137.956,64 L138.616,64 L138.616,55.706 C139.364,54.65 140.926,53.704 142.378,53.704 C144.028,53.704 145.128,54.32 145.128,56.542 L145.128,64 Z M149,58.676 C149,61.91 151.134,64.264 154.214,64.264 C155.996,64.264 157.228,63.604 158.306,62.482 L157.91,62.064 C156.92,63.12 155.71,63.67 154.214,63.67 C151.508,63.67 149.814,61.492 149.748,58.896 L158.922,58.896 L158.922,58.676 C158.922,55.728 157.25,53.11 153.994,53.11 C151.134,53.11 149,55.596 149,58.676 L149,58.676 Z M153.972,53.704 C156.876,53.704 158.218,56.256 158.218,58.302 L149.748,58.302 C149.814,56.212 151.244,53.704 153.972,53.704 L153.972,53.704 Z M164.07,64.264 C164.862,64.264 165.302,64 165.72,63.604 L165.324,63.098 C165.06,63.406 164.598,63.67 164.07,63.67 C163.278,63.67 162.926,63.032 162.926,62.13 L162.926,53.968 L165.082,53.968 L165.082,53.374 L162.926,53.374 L162.926,50.47 L162.266,50.47 L162.266,53.374 L160.506,53.374 L160.506,53.968 L162.266,53.968 L162.266,62.13 C162.266,63.45 162.838,64.264 164.07,64.264 L164.07,64.264 Z M167.194,58.676 C167.194,61.91 169.328,64.264 172.408,64.264 C174.19,64.264 175.422,63.604 176.5,62.482 L176.104,62.064 C175.114,63.12 173.904,63.67 172.408,63.67 C169.702,63.67 168.008,61.492 167.942,58.896 L177.116,58.896 L177.116,58.676 C177.116,55.728 175.444,53.11 172.188,53.11 C169.328,53.11 167.194,55.596 167.194,58.676 L167.194,58.676 Z M172.166,53.704 C175.07,53.704 176.412,56.256 176.412,58.302 L167.942,58.302 C168.008,56.212 169.438,53.704 172.166,53.704 L172.166,53.704 Z M180.328,64 L180.988,64 L180.988,56.036 C181.472,55.046 182.99,53.946 184.112,53.946 C184.31,53.946 184.442,53.946 184.64,53.968 L184.64,53.176 C183.1,53.176 181.934,54.056 180.988,55.31 L180.988,53.374 L180.328,53.374 L180.328,64 Z M199.908,64 L200.568,64 L200.568,53.374 L199.908,53.374 L199.908,61.734 C199.16,62.79 197.598,63.67 196.146,63.67 C194.496,63.67 193.396,63.054 193.396,60.832 L193.396,53.374 L192.736,53.374 L192.736,60.832 C192.736,63.34 193.946,64.264 196.058,64.264 C197.532,64.264 199.006,63.384 199.908,62.372 L199.908,64 Z M211.524,64 L212.184,64 L212.184,56.586 C212.184,54.078 210.974,53.11 208.862,53.11 C207.388,53.11 205.804,54.078 205.012,55.046 L205.012,53.374 L204.352,53.374 L204.352,64 L205.012,64 L205.012,55.706 C205.76,54.65 207.322,53.704 208.774,53.704 C210.424,53.704 211.524,54.364 211.524,56.586 L211.524,64 Z M221.688,64 L222.348,64 L222.348,62.218 C223.074,63.318 224.504,64.264 226.176,64.264 C229.036,64.264 230.928,62.064 230.928,58.698 C230.928,55.354 229.036,53.11 226.176,53.11 C224.592,53.11 223.206,53.946 222.348,55.2 L222.348,49.326 L221.688,49.326 L221.688,64 Z M222.348,61.558 L222.348,55.86 C223.008,54.738 224.526,53.704 226.176,53.704 C228.772,53.704 230.202,55.904 230.202,58.698 C230.202,61.492 228.772,63.67 226.176,63.67 C224.526,63.67 223.008,62.68 222.348,61.558 L222.348,61.558 Z M234.47,51.548 C234.822,51.548 235.108,51.262 235.108,50.91 C235.108,50.558 234.822,50.272 234.47,50.272 C234.14,50.272 233.832,50.558 233.832,50.91 C233.832,51.262 234.14,51.548 234.47,51.548 L234.47,51.548 Z M234.14,64 L234.8,64 L234.8,53.374 L234.14,53.374 L234.14,64 Z M238.584,64 L239.244,64 L239.244,49.326 L238.584,49.326 L238.584,64 Z M243.028,64 L243.688,64 L243.688,49.326 L243.028,49.326 L243.028,64 Z M246.9,58.676 C246.9,61.91 249.034,64.264 252.114,64.264 C253.896,64.264 255.128,63.604 256.206,62.482 L255.81,62.064 C254.82,63.12 253.61,63.67 252.114,63.67 C249.408,63.67 247.714,61.492 247.648,58.896 L256.822,58.896 L256.822,58.676 C256.822,55.728 255.15,53.11 251.894,53.11 C249.034,53.11 246.9,55.596 246.9,58.676 L246.9,58.676 Z M251.872,53.704 C254.776,53.704 256.118,56.256 256.118,58.302 L247.648,58.302 C247.714,56.212 249.144,53.704 251.872,53.704 L251.872,53.704 Z M261.97,64.264 C262.762,64.264 263.202,64 263.62,63.604 L263.224,63.098 C262.96,63.406 262.498,63.67 261.97,63.67 C261.178,63.67 260.826,63.032 260.826,62.13 L260.826,53.968 L262.982,53.968 L262.982,53.374 L260.826,53.374 L260.826,50.47 L260.166,50.47 L260.166,53.374 L258.406,53.374 L258.406,53.968 L260.166,53.968 L260.166,62.13 C260.166,63.45 260.738,64.264 261.97,64.264 L261.97,64.264 Z" id="Acheter-un-billet" fill="#FFFFFF" sketch:type="MSShapeGroup"></path>
            <path d="M12.85,66.055 L13.435,66.055 L11.035,63.355 L13.435,60.7 L12.85,60.7 L10.45,63.355 L12.85,66.055 Z M25.03,67 L25.645,67 L22.555,62.68 C24.175,62.68 25.51,61.66 25.51,59.83 C25.51,58 24.175,56.995 22.555,56.995 L19.105,56.995 L19.105,67 L19.585,67 L19.585,62.68 L21.985,62.68 L25.03,67 Z M24.985,59.83 C24.985,61.21 24.025,62.23 22.555,62.23 L19.585,62.23 L19.585,57.445 L22.555,57.445 C24.025,57.445 24.985,58.45 24.985,59.83 L24.985,59.83 Z M27.37,63.37 C27.37,65.575 28.825,67.18 30.925,67.18 C32.14,67.18 32.98,66.73 33.715,65.965 L33.445,65.68 C32.77,66.4 31.945,66.775 30.925,66.775 C29.08,66.775 27.925,65.29 27.88,63.52 L34.135,63.52 L34.135,63.37 C34.135,61.36 32.995,59.575 30.775,59.575 C28.825,59.575 27.37,61.27 27.37,63.37 L27.37,63.37 Z M30.76,59.98 C32.74,59.98 33.655,61.72 33.655,63.115 L27.88,63.115 C27.925,61.69 28.9,59.98 30.76,59.98 L30.76,59.98 Z M37.645,67.18 C38.185,67.18 38.485,67 38.77,66.73 L38.5,66.385 C38.32,66.595 38.005,66.775 37.645,66.775 C37.105,66.775 36.865,66.34 36.865,65.725 L36.865,60.16 L38.335,60.16 L38.335,59.755 L36.865,59.755 L36.865,57.775 L36.415,57.775 L36.415,59.755 L35.215,59.755 L35.215,60.16 L36.415,60.16 L36.415,65.725 C36.415,66.625 36.805,67.18 37.645,67.18 L37.645,67.18 Z M43.15,67.18 C45.205,67.18 46.525,65.5 46.525,63.37 C46.525,61.24 45.205,59.575 43.15,59.575 C41.11,59.575 39.775,61.24 39.775,63.37 C39.775,65.5 41.11,67.18 43.15,67.18 L43.15,67.18 Z M43.15,66.775 C41.305,66.775 40.27,65.14 40.27,63.37 C40.27,61.615 41.305,59.98 43.15,59.98 C45.01,59.98 46.03,61.615 46.03,63.37 C46.03,65.14 45.01,66.775 43.15,66.775 L43.15,66.775 Z M53.605,67 L54.055,67 L54.055,59.755 L53.605,59.755 L53.605,65.455 C53.095,66.175 52.03,66.775 51.04,66.775 C49.915,66.775 49.165,66.355 49.165,64.84 L49.165,59.755 L48.715,59.755 L48.715,64.84 C48.715,66.55 49.54,67.18 50.98,67.18 C51.985,67.18 52.99,66.58 53.605,65.89 L53.605,67 Z M56.635,67 L57.085,67 L57.085,61.57 C57.415,60.895 58.45,60.145 59.215,60.145 C59.35,60.145 59.44,60.145 59.575,60.16 L59.575,59.62 C58.525,59.62 57.73,60.22 57.085,61.075 L57.085,59.755 L56.635,59.755 L56.635,67 Z" id="‹-Retour" fill="#FFFFFF" sketch:type="MSShapeGroup"></path>
            <path d="M24.665,112.766 L24.665,103.541 L27.935,103.541 L27.935,102.761 L20.525,102.761 L20.525,103.541 L23.795,103.541 L23.795,112.766 L24.665,112.766 Z M29.06,112.766 L29.06,107.486 C29.39,106.856 30.38,106.196 31.115,106.196 C31.265,106.196 31.37,106.196 31.505,106.226 L31.505,105.371 C30.5,105.371 29.675,105.956 29.06,106.766 L29.06,105.521 L28.28,105.521 L28.28,112.766 L29.06,112.766 Z M38.42,112.766 L38.42,107.666 C38.42,106.046 37.25,105.341 35.78,105.341 C34.58,105.341 33.74,105.746 32.99,106.556 L33.425,107.096 C34.085,106.346 34.79,106.031 35.69,106.031 C36.77,106.031 37.64,106.616 37.64,107.696 L37.64,109.166 C37.01,108.461 36.185,108.131 35.18,108.131 C33.92,108.131 32.645,108.956 32.645,110.531 C32.645,112.091 33.935,112.946 35.18,112.946 C36.185,112.946 36.995,112.616 37.64,111.911 L37.64,112.766 L38.42,112.766 Z M35.45,112.331 C34.25,112.331 33.47,111.566 33.47,110.546 C33.47,109.511 34.25,108.746 35.45,108.746 C36.32,108.746 37.13,109.091 37.64,109.751 L37.64,111.341 C37.13,112.001 36.32,112.331 35.45,112.331 L35.45,112.331 Z M41.24,104.381 C41.57,104.381 41.84,104.111 41.84,103.781 C41.84,103.451 41.57,103.196 41.24,103.196 C40.925,103.196 40.64,103.451 40.64,103.781 C40.64,104.111 40.925,104.381 41.24,104.381 L41.24,104.381 Z M39.665,115.706 C40.91,115.706 41.63,115.031 41.63,113.696 L41.63,105.521 L40.85,105.521 L40.85,113.696 C40.85,114.641 40.295,115.031 39.59,115.031 C39.125,115.031 38.765,114.791 38.525,114.536 L38.18,115.151 C38.615,115.526 39.005,115.706 39.665,115.706 L39.665,115.706 Z M47.27,112.946 C48.47,112.946 49.385,112.526 50.105,111.776 L49.7,111.266 C49.085,111.926 48.245,112.271 47.33,112.271 C45.62,112.271 44.57,110.966 44.495,109.391 L50.555,109.391 L50.555,109.181 C50.555,107.096 49.34,105.341 47.135,105.341 C45.125,105.341 43.64,107.036 43.64,109.136 C43.64,111.371 45.155,112.946 47.27,112.946 L47.27,112.946 Z M49.76,108.776 L44.495,108.776 C44.555,107.516 45.41,106.016 47.12,106.016 C48.935,106.016 49.745,107.546 49.76,108.776 L49.76,108.776 Z M54.14,112.946 C54.74,112.946 55.085,112.766 55.37,112.496 L55.07,111.896 C54.905,112.076 54.605,112.241 54.26,112.241 C53.75,112.241 53.51,111.836 53.51,111.251 L53.51,106.211 L54.98,106.211 L54.98,105.521 L53.51,105.521 L53.51,103.541 L52.715,103.541 L52.715,105.521 L51.515,105.521 L51.515,106.211 L52.715,106.211 L52.715,111.371 C52.715,112.361 53.18,112.946 54.14,112.946 L54.14,112.946 Z" id="Trajet" fill-opacity="0.3" fill="#000000" sketch:type="MSShapeGroup"></path>
            <path d="M83.5292328,153 C85.4192328,153 87.0212328,152.19 88.0832328,151.002 L88.0832328,146.808 L82.5212328,146.808 L82.5212328,147.726 L87.0572328,147.726 L87.0572328,150.606 C86.3912328,151.272 85.1312328,152.064 83.5292328,152.064 C80.7032328,152.064 78.5252328,149.868 78.5252328,146.772 C78.5252328,143.64 80.7032328,141.498 83.5292328,141.498 C85.0592328,141.498 86.4272328,142.164 87.2732328,143.172 L88.0472328,142.614 C86.9492328,141.354 85.5092328,140.562 83.5292328,140.562 C80.1632328,140.562 77.4452328,143.064 77.4452328,146.772 C77.4452328,150.48 80.1632328,153 83.5292328,153 L83.5292328,153 Z M97.1192328,152.766 L97.1192328,146.646 C97.1192328,144.702 95.7152328,143.856 93.9512328,143.856 C92.5112328,143.856 91.5032328,144.342 90.6032328,145.314 L91.1252328,145.962 C91.9172328,145.062 92.7632328,144.684 93.8432328,144.684 C95.1392328,144.684 96.1832328,145.386 96.1832328,146.682 L96.1832328,148.446 C95.4272328,147.6 94.4372328,147.204 93.2312328,147.204 C91.7192328,147.204 90.1892328,148.194 90.1892328,150.084 C90.1892328,151.956 91.7372328,152.982 93.2312328,152.982 C94.4372328,152.982 95.4092328,152.586 96.1832328,151.74 L96.1832328,152.766 L97.1192328,152.766 Z M93.5552328,152.244 C92.1152328,152.244 91.1792328,151.326 91.1792328,150.102 C91.1792328,148.86 92.1152328,147.942 93.5552328,147.942 C94.5992328,147.942 95.5712328,148.356 96.1832328,149.148 L96.1832328,151.056 C95.5712328,151.848 94.5992328,152.244 93.5552328,152.244 L93.5552328,152.244 Z M100.971233,152.766 L100.971233,146.43 C101.367233,145.674 102.555233,144.882 103.437233,144.882 C103.617233,144.882 103.743233,144.882 103.905233,144.918 L103.905233,143.892 C102.699233,143.892 101.709233,144.594 100.971233,145.566 L100.971233,144.072 L100.035233,144.072 L100.035233,152.766 L100.971233,152.766 Z M109.593233,152.982 C111.033233,152.982 112.131233,152.478 112.995233,151.578 L112.509233,150.966 C111.771233,151.758 110.763233,152.172 109.665233,152.172 C107.613233,152.172 106.353233,150.606 106.263233,148.716 L113.535233,148.716 L113.535233,148.464 C113.535233,145.962 112.077233,143.856 109.431233,143.856 C107.019233,143.856 105.237233,145.89 105.237233,148.41 C105.237233,151.092 107.055233,152.982 109.593233,152.982 L109.593233,152.982 Z M112.581233,147.978 L106.263233,147.978 C106.335233,146.466 107.361233,144.666 109.413233,144.666 C111.591233,144.666 112.563233,146.502 112.581233,147.978 L112.581233,147.978 Z M121.545233,152.766 L121.545233,140.76 L120.609233,140.76 L120.609233,152.766 L121.545233,152.766 Z M130.923233,152.766 L130.923233,146.646 C130.923233,144.702 129.519233,143.856 127.755233,143.856 C126.315233,143.856 125.307233,144.342 124.407233,145.314 L124.929233,145.962 C125.721233,145.062 126.567233,144.684 127.647233,144.684 C128.943233,144.684 129.987233,145.386 129.987233,146.682 L129.987233,148.446 C129.231233,147.6 128.241233,147.204 127.035233,147.204 C125.523233,147.204 123.993233,148.194 123.993233,150.084 C123.993233,151.956 125.541233,152.982 127.035233,152.982 C128.241233,152.982 129.213233,152.586 129.987233,151.74 L129.987233,152.766 L130.923233,152.766 Z M127.359233,152.244 C125.919233,152.244 124.983233,151.326 124.983233,150.102 C124.983233,148.86 125.919233,147.942 127.359233,147.942 C128.403233,147.942 129.375233,148.356 129.987233,149.148 L129.987233,151.056 C129.375233,151.848 128.403233,152.244 127.359233,152.244 L127.359233,152.244 Z M142.461233,152.982 C144.783233,152.982 146.349233,151.182 146.349233,148.41 C146.349233,145.62 144.783233,143.856 142.461233,143.856 C141.165233,143.856 140.049233,144.558 139.437233,145.44 L139.437233,144.072 L138.501233,144.072 L138.501233,156.078 L139.437233,156.078 L139.437233,151.362 C140.139233,152.352 141.237233,152.982 142.461233,152.982 L142.461233,152.982 Z M142.299233,152.136 C141.093233,152.136 139.941233,151.38 139.437233,150.552 L139.437233,146.25 C139.941233,145.422 141.093233,144.702 142.299233,144.702 C144.243233,144.702 145.341233,146.304 145.341233,148.41 C145.341233,150.516 144.243233,152.136 142.299233,152.136 L142.299233,152.136 Z M149.643233,152.766 L149.643233,140.76 L148.707233,140.76 L148.707233,152.766 L149.643233,152.766 Z M159.363233,152.766 L159.363233,144.072 L158.427233,144.072 L158.427233,150.696 C157.851233,151.47 156.717233,152.136 155.601233,152.136 C154.341233,152.136 153.495233,151.668 153.495233,149.976 L153.495233,144.072 L152.559233,144.072 L152.559233,150.192 C152.559233,152.154 153.513233,152.982 155.295233,152.982 C156.555233,152.982 157.707233,152.28 158.427233,151.488 L158.427233,152.766 L159.363233,152.766 Z M164.871233,152.982 C167.049233,152.982 168.129233,151.83 168.129233,150.426 C168.129233,147.078 162.639233,148.41 162.639233,146.232 C162.639233,145.332 163.467233,144.648 164.817233,144.648 C165.969233,144.648 166.905233,145.116 167.409233,145.8 L167.931233,145.134 C167.301233,144.432 166.311233,143.856 164.817233,143.856 C162.855233,143.856 161.721233,144.936 161.721233,146.268 C161.721233,149.382 167.211233,148.05 167.211233,150.426 C167.211233,151.434 166.347233,152.19 164.889233,152.19 C163.665233,152.19 162.639233,151.614 162.081233,150.912 L161.523233,151.614 C162.387233,152.568 163.467233,152.982 164.871233,152.982 L164.871233,152.982 Z M179.163233,152.982 C181.485233,152.982 183.051233,151.182 183.051233,148.41 C183.051233,145.62 181.485233,143.856 179.163233,143.856 C177.867233,143.856 176.751233,144.558 176.139233,145.44 L176.139233,144.072 L175.203233,144.072 L175.203233,156.078 L176.139233,156.078 L176.139233,151.362 C176.841233,152.352 177.939233,152.982 179.163233,152.982 L179.163233,152.982 Z M179.001233,152.136 C177.795233,152.136 176.643233,151.38 176.139233,150.552 L176.139233,146.25 C176.643233,145.422 177.795233,144.702 179.001233,144.702 C180.945233,144.702 182.043233,146.304 182.043233,148.41 C182.043233,150.516 180.945233,152.136 179.001233,152.136 L179.001233,152.136 Z M186.345233,152.766 L186.345233,146.43 C186.741233,145.674 187.929233,144.882 188.811233,144.882 C188.991233,144.882 189.117233,144.882 189.279233,144.918 L189.279233,143.892 C188.073233,143.892 187.083233,144.594 186.345233,145.566 L186.345233,144.072 L185.409233,144.072 L185.409233,152.766 L186.345233,152.766 Z M194.787233,152.982 C197.361233,152.982 198.981233,150.948 198.981233,148.41 C198.981233,145.872 197.361233,143.856 194.787233,143.856 C192.249233,143.856 190.611233,145.872 190.611233,148.41 C190.611233,150.948 192.249233,152.982 194.787233,152.982 L194.787233,152.982 Z M194.787233,152.136 C192.771233,152.136 191.619233,150.354 191.619233,148.41 C191.619233,146.484 192.771233,144.702 194.787233,144.702 C196.839233,144.702 197.973233,146.484 197.973233,148.41 C197.973233,150.354 196.839233,152.136 194.787233,152.136 L194.787233,152.136 Z M205.119233,152.982 C206.631233,152.982 207.495233,152.388 208.197233,151.488 L207.549233,150.912 C206.919233,151.776 206.127233,152.136 205.173233,152.136 C203.139233,152.136 201.897233,150.498 201.897233,148.41 C201.897233,146.322 203.139233,144.702 205.173233,144.702 C206.127233,144.702 206.919233,145.044 207.549233,145.908 L208.197233,145.332 C207.495233,144.45 206.631233,143.856 205.119233,143.856 C202.563233,143.856 200.889233,145.872 200.889233,148.41 C200.889233,150.948 202.563233,152.982 205.119233,152.982 L205.119233,152.982 Z M217.089233,152.766 L217.089233,146.646 C217.089233,144.684 216.117233,143.856 214.353233,143.856 C213.093233,143.856 211.851233,144.63 211.221233,145.386 L211.221233,140.76 L210.285233,140.76 L210.285233,152.766 L211.221233,152.766 L211.221233,146.196 C211.779233,145.404 212.931233,144.702 214.047233,144.702 C215.307233,144.702 216.153233,145.17 216.153233,146.844 L216.153233,152.766 L217.089233,152.766 Z M223.857233,152.982 C225.297233,152.982 226.395233,152.478 227.259233,151.578 L226.773233,150.966 C226.035233,151.758 225.027233,152.172 223.929233,152.172 C221.877233,152.172 220.617233,150.606 220.527233,148.716 L227.799233,148.716 L227.799233,148.464 C227.799233,145.962 226.341233,143.856 223.695233,143.856 C221.283233,143.856 219.501233,145.89 219.501233,148.41 C219.501233,151.092 221.319233,152.982 223.857233,152.982 L223.857233,152.982 Z M226.845233,147.978 L220.527233,147.978 C220.599233,146.466 221.625233,144.666 223.677233,144.666 C225.855233,144.666 226.827233,146.502 226.845233,147.978 L226.845233,147.978 Z" id="Gare-la-plus-proche-Copy" fill="#404040" sketch:type="MSShapeGroup"></path>
            <path d="M38.9532328,151.766 C41.4372328,151.766 42.9972328,149.99 42.9972328,147.77 C42.9972328,145.574 41.4372328,143.762 38.9532328,143.762 L36.3972328,143.762 L36.3972328,151.766 L38.9532328,151.766 Z M38.9532328,151.142 L37.0812328,151.142 L37.0812328,144.386 L38.9532328,144.386 C41.0772328,144.386 42.2772328,145.898 42.2772328,147.77 C42.2772328,149.642 41.0652328,151.142 38.9532328,151.142 L38.9532328,151.142 Z M47.2452328,151.91 C48.2052328,151.91 48.9372328,151.574 49.5132328,150.974 L49.1892328,150.566 C48.6972328,151.094 48.0252328,151.37 47.2932328,151.37 C45.9252328,151.37 45.0852328,150.326 45.0252328,149.066 L49.8732328,149.066 L49.8732328,148.898 C49.8732328,147.23 48.9012328,145.826 47.1372328,145.826 C45.5292328,145.826 44.3412328,147.182 44.3412328,148.862 C44.3412328,150.65 45.5532328,151.91 47.2452328,151.91 L47.2452328,151.91 Z M49.2372328,148.574 L45.0252328,148.574 C45.0732328,147.566 45.7572328,146.366 47.1252328,146.366 C48.5772328,146.366 49.2252328,147.59 49.2372328,148.574 L49.2372328,148.574 Z" id="De-Copy" fill="#DEDEDE" sketch:type="MSShapeGroup"></path>
            <path d="M83.5292328,201.488 C85.4192328,201.488 87.0212328,200.678 88.0832328,199.49 L88.0832328,195.296 L82.5212328,195.296 L82.5212328,196.214 L87.0572328,196.214 L87.0572328,199.094 C86.3912328,199.76 85.1312328,200.552 83.5292328,200.552 C80.7032328,200.552 78.5252328,198.356 78.5252328,195.26 C78.5252328,192.128 80.7032328,189.986 83.5292328,189.986 C85.0592328,189.986 86.4272328,190.652 87.2732328,191.66 L88.0472328,191.102 C86.9492328,189.842 85.5092328,189.05 83.5292328,189.05 C80.1632328,189.05 77.4452328,191.552 77.4452328,195.26 C77.4452328,198.968 80.1632328,201.488 83.5292328,201.488 L83.5292328,201.488 Z M97.1192328,201.254 L97.1192328,195.134 C97.1192328,193.19 95.7152328,192.344 93.9512328,192.344 C92.5112328,192.344 91.5032328,192.83 90.6032328,193.802 L91.1252328,194.45 C91.9172328,193.55 92.7632328,193.172 93.8432328,193.172 C95.1392328,193.172 96.1832328,193.874 96.1832328,195.17 L96.1832328,196.934 C95.4272328,196.088 94.4372328,195.692 93.2312328,195.692 C91.7192328,195.692 90.1892328,196.682 90.1892328,198.572 C90.1892328,200.444 91.7372328,201.47 93.2312328,201.47 C94.4372328,201.47 95.4092328,201.074 96.1832328,200.228 L96.1832328,201.254 L97.1192328,201.254 Z M93.5552328,200.732 C92.1152328,200.732 91.1792328,199.814 91.1792328,198.59 C91.1792328,197.348 92.1152328,196.43 93.5552328,196.43 C94.5992328,196.43 95.5712328,196.844 96.1832328,197.636 L96.1832328,199.544 C95.5712328,200.336 94.5992328,200.732 93.5552328,200.732 L93.5552328,200.732 Z M100.971233,201.254 L100.971233,194.918 C101.367233,194.162 102.555233,193.37 103.437233,193.37 C103.617233,193.37 103.743233,193.37 103.905233,193.406 L103.905233,192.38 C102.699233,192.38 101.709233,193.082 100.971233,194.054 L100.971233,192.56 L100.035233,192.56 L100.035233,201.254 L100.971233,201.254 Z M109.593233,201.47 C111.033233,201.47 112.131233,200.966 112.995233,200.066 L112.509233,199.454 C111.771233,200.246 110.763233,200.66 109.665233,200.66 C107.613233,200.66 106.353233,199.094 106.263233,197.204 L113.535233,197.204 L113.535233,196.952 C113.535233,194.45 112.077233,192.344 109.431233,192.344 C107.019233,192.344 105.237233,194.378 105.237233,196.898 C105.237233,199.58 107.055233,201.47 109.593233,201.47 L109.593233,201.47 Z M112.581233,196.466 L106.263233,196.466 C106.335233,194.954 107.361233,193.154 109.413233,193.154 C111.591233,193.154 112.563233,194.99 112.581233,196.466 L112.581233,196.466 Z M121.545233,201.254 L121.545233,189.248 L120.609233,189.248 L120.609233,201.254 L121.545233,201.254 Z M130.923233,201.254 L130.923233,195.134 C130.923233,193.19 129.519233,192.344 127.755233,192.344 C126.315233,192.344 125.307233,192.83 124.407233,193.802 L124.929233,194.45 C125.721233,193.55 126.567233,193.172 127.647233,193.172 C128.943233,193.172 129.987233,193.874 129.987233,195.17 L129.987233,196.934 C129.231233,196.088 128.241233,195.692 127.035233,195.692 C125.523233,195.692 123.993233,196.682 123.993233,198.572 C123.993233,200.444 125.541233,201.47 127.035233,201.47 C128.241233,201.47 129.213233,201.074 129.987233,200.228 L129.987233,201.254 L130.923233,201.254 Z M127.359233,200.732 C125.919233,200.732 124.983233,199.814 124.983233,198.59 C124.983233,197.348 125.919233,196.43 127.359233,196.43 C128.403233,196.43 129.375233,196.844 129.987233,197.636 L129.987233,199.544 C129.375233,200.336 128.403233,200.732 127.359233,200.732 L127.359233,200.732 Z M142.461233,201.47 C144.783233,201.47 146.349233,199.67 146.349233,196.898 C146.349233,194.108 144.783233,192.344 142.461233,192.344 C141.165233,192.344 140.049233,193.046 139.437233,193.928 L139.437233,192.56 L138.501233,192.56 L138.501233,204.566 L139.437233,204.566 L139.437233,199.85 C140.139233,200.84 141.237233,201.47 142.461233,201.47 L142.461233,201.47 Z M142.299233,200.624 C141.093233,200.624 139.941233,199.868 139.437233,199.04 L139.437233,194.738 C139.941233,193.91 141.093233,193.19 142.299233,193.19 C144.243233,193.19 145.341233,194.792 145.341233,196.898 C145.341233,199.004 144.243233,200.624 142.299233,200.624 L142.299233,200.624 Z M149.643233,201.254 L149.643233,189.248 L148.707233,189.248 L148.707233,201.254 L149.643233,201.254 Z M159.363233,201.254 L159.363233,192.56 L158.427233,192.56 L158.427233,199.184 C157.851233,199.958 156.717233,200.624 155.601233,200.624 C154.341233,200.624 153.495233,200.156 153.495233,198.464 L153.495233,192.56 L152.559233,192.56 L152.559233,198.68 C152.559233,200.642 153.513233,201.47 155.295233,201.47 C156.555233,201.47 157.707233,200.768 158.427233,199.976 L158.427233,201.254 L159.363233,201.254 Z M164.871233,201.47 C167.049233,201.47 168.129233,200.318 168.129233,198.914 C168.129233,195.566 162.639233,196.898 162.639233,194.72 C162.639233,193.82 163.467233,193.136 164.817233,193.136 C165.969233,193.136 166.905233,193.604 167.409233,194.288 L167.931233,193.622 C167.301233,192.92 166.311233,192.344 164.817233,192.344 C162.855233,192.344 161.721233,193.424 161.721233,194.756 C161.721233,197.87 167.211233,196.538 167.211233,198.914 C167.211233,199.922 166.347233,200.678 164.889233,200.678 C163.665233,200.678 162.639233,200.102 162.081233,199.4 L161.523233,200.102 C162.387233,201.056 163.467233,201.47 164.871233,201.47 L164.871233,201.47 Z M177.795233,201.47 C179.973233,201.47 181.053233,200.318 181.053233,198.914 C181.053233,195.566 175.563233,196.898 175.563233,194.72 C175.563233,193.82 176.391233,193.136 177.741233,193.136 C178.893233,193.136 179.829233,193.604 180.333233,194.288 L180.855233,193.622 C180.225233,192.92 179.235233,192.344 177.741233,192.344 C175.779233,192.344 174.645233,193.424 174.645233,194.756 C174.645233,197.87 180.135233,196.538 180.135233,198.914 C180.135233,199.922 179.271233,200.678 177.813233,200.678 C176.589233,200.678 175.563233,200.102 175.005233,199.4 L174.447233,200.102 C175.311233,201.056 176.391233,201.47 177.795233,201.47 L177.795233,201.47 Z M187.137233,201.47 C189.711233,201.47 191.331233,199.436 191.331233,196.898 C191.331233,194.36 189.711233,192.344 187.137233,192.344 C184.599233,192.344 182.961233,194.36 182.961233,196.898 C182.961233,199.436 184.599233,201.47 187.137233,201.47 L187.137233,201.47 Z M187.137233,200.624 C185.121233,200.624 183.969233,198.842 183.969233,196.898 C183.969233,194.972 185.121233,193.19 187.137233,193.19 C189.189233,193.19 190.323233,194.972 190.323233,196.898 C190.323233,198.842 189.189233,200.624 187.137233,200.624 L187.137233,200.624 Z M200.547233,201.254 L200.547233,192.56 L199.611233,192.56 L199.611233,199.184 C199.035233,199.958 197.901233,200.624 196.785233,200.624 C195.525233,200.624 194.679233,200.156 194.679233,198.464 L194.679233,192.56 L193.743233,192.56 L193.743233,198.68 C193.743233,200.642 194.697233,201.47 196.479233,201.47 C197.739233,201.47 198.891233,200.768 199.611233,199.976 L199.611233,201.254 L200.547233,201.254 Z M206.865233,201.254 L210.537233,192.56 L209.475233,192.56 L206.343233,200.156 L203.175233,192.56 L202.131233,192.56 L205.803233,201.254 L206.865233,201.254 Z M215.973233,201.47 C217.413233,201.47 218.511233,200.966 219.375233,200.066 L218.889233,199.454 C218.151233,200.246 217.143233,200.66 216.045233,200.66 C213.993233,200.66 212.733233,199.094 212.643233,197.204 L219.915233,197.204 L219.915233,196.952 C219.915233,194.45 218.457233,192.344 215.811233,192.344 C213.399233,192.344 211.617233,194.378 211.617233,196.898 C211.617233,199.58 213.435233,201.47 215.973233,201.47 L215.973233,201.47 Z M218.961233,196.466 L212.643233,196.466 C212.715233,194.954 213.741233,193.154 215.793233,193.154 C217.971233,193.154 218.943233,194.99 218.961233,196.466 L218.961233,196.466 Z M229.131233,201.254 L229.131233,195.17 C229.131233,193.208 228.159233,192.344 226.395233,192.344 C225.135233,192.344 223.893233,193.118 223.263233,193.874 L223.263233,192.56 L222.327233,192.56 L222.327233,201.254 L223.263233,201.254 L223.263233,194.684 C223.821233,193.892 224.973233,193.19 226.089233,193.19 C227.349233,193.19 228.195233,193.694 228.195233,195.368 L228.195233,201.254 L229.131233,201.254 Z M233.937233,201.47 C234.657233,201.47 235.071233,201.254 235.413233,200.93 L235.053233,200.21 C234.855233,200.426 234.495233,200.624 234.081233,200.624 C233.469233,200.624 233.181233,200.138 233.181233,199.436 L233.181233,193.388 L234.945233,193.388 L234.945233,192.56 L233.181233,192.56 L233.181233,190.184 L232.227233,190.184 L232.227233,192.56 L230.787233,192.56 L230.787233,193.388 L232.227233,193.388 L232.227233,199.58 C232.227233,200.768 232.785233,201.47 233.937233,201.47 L233.937233,201.47 Z M248.463233,201.254 L248.463233,192.56 L247.527233,192.56 L247.527233,199.184 C246.951233,199.958 245.817233,200.624 244.701233,200.624 C243.441233,200.624 242.595233,200.156 242.595233,198.464 L242.595233,192.56 L241.659233,192.56 L241.659233,198.68 C241.659233,200.642 242.613233,201.47 244.395233,201.47 C245.655233,201.47 246.807233,200.768 247.527233,199.976 L247.527233,201.254 L248.463233,201.254 Z M253.269233,201.47 C253.989233,201.47 254.403233,201.254 254.745233,200.93 L254.385233,200.21 C254.187233,200.426 253.827233,200.624 253.413233,200.624 C252.801233,200.624 252.513233,200.138 252.513233,199.436 L252.513233,193.388 L254.277233,193.388 L254.277233,192.56 L252.513233,192.56 L252.513233,190.184 L251.559233,190.184 L251.559233,192.56 L250.119233,192.56 L250.119233,193.388 L251.559233,193.388 L251.559233,199.58 C251.559233,200.768 252.117233,201.47 253.269233,201.47 L253.269233,201.47 Z M256.797233,191.192 C257.193233,191.192 257.517233,190.868 257.517233,190.472 C257.517233,190.076 257.193233,189.77 256.797233,189.77 C256.419233,189.77 256.077233,190.076 256.077233,190.472 C256.077233,190.868 256.419233,191.192 256.797233,191.192 L256.797233,191.192 Z M257.265233,201.254 L257.265233,192.56 L256.329233,192.56 L256.329233,201.254 L257.265233,201.254 Z M261.117233,201.254 L261.117233,189.248 L260.181233,189.248 L260.181233,201.254 L261.117233,201.254 Z M264.501233,191.192 C264.897233,191.192 265.221233,190.868 265.221233,190.472 C265.221233,190.076 264.897233,189.77 264.501233,189.77 C264.123233,189.77 263.781233,190.076 263.781233,190.472 C263.781233,190.868 264.123233,191.192 264.501233,191.192 L264.501233,191.192 Z M264.969233,201.254 L264.969233,192.56 L264.033233,192.56 L264.033233,201.254 L264.969233,201.254 Z M270.477233,201.47 C272.655233,201.47 273.735233,200.318 273.735233,198.914 C273.735233,195.566 268.245233,196.898 268.245233,194.72 C268.245233,193.82 269.073233,193.136 270.423233,193.136 C271.575233,193.136 272.511233,193.604 273.015233,194.288 L273.537233,193.622 C272.907233,192.92 271.917233,192.344 270.423233,192.344 C268.461233,192.344 267.327233,193.424 267.327233,194.756 C267.327233,197.87 272.817233,196.538 272.817233,198.914 C272.817233,199.922 271.953233,200.678 270.495233,200.678 C269.271233,200.678 268.245233,200.102 267.687233,199.4 L267.129233,200.102 C267.993233,201.056 269.073233,201.47 270.477233,201.47 L270.477233,201.47 Z M282.753233,188.654 L281.637233,188.654 L278.865233,191.246 L279.657233,191.246 L282.753233,188.654 Z M279.999233,201.47 C281.439233,201.47 282.537233,200.966 283.401233,200.066 L282.915233,199.454 C282.177233,200.246 281.169233,200.66 280.071233,200.66 C278.019233,200.66 276.759233,199.094 276.669233,197.204 L283.941233,197.204 L283.941233,196.952 C283.941233,194.45 282.483233,192.344 279.837233,192.344 C277.425233,192.344 275.643233,194.378 275.643233,196.898 C275.643233,199.58 277.461233,201.47 279.999233,201.47 L279.999233,201.47 Z M282.987233,196.466 L276.669233,196.466 C276.741233,194.954 277.767233,193.154 279.819233,193.154 C281.997233,193.154 282.969233,194.99 282.987233,196.466 L282.987233,196.466 Z M290.205233,201.47 C291.645233,201.47 292.743233,200.966 293.607233,200.066 L293.121233,199.454 C292.383233,200.246 291.375233,200.66 290.277233,200.66 C288.225233,200.66 286.965233,199.094 286.875233,197.204 L294.147233,197.204 L294.147233,196.952 C294.147233,194.45 292.689233,192.344 290.043233,192.344 C287.631233,192.344 285.849233,194.378 285.849233,196.898 C285.849233,199.58 287.667233,201.47 290.205233,201.47 L290.205233,201.47 Z M293.193233,196.466 L286.875233,196.466 C286.947233,194.954 287.973233,193.154 290.025233,193.154 C292.203233,193.154 293.175233,194.99 293.193233,196.466 L293.193233,196.466 Z" id="Gare-la-plus-souvent" fill="#404040" sketch:type="MSShapeGroup"></path>
            <path d="M346.847233,174.632 L343.967233,171.392 L346.847233,168.206 L345.821233,168.206 L342.941233,171.392 L345.821233,174.632 L346.847233,174.632 Z M356.495233,171.392 L353.615233,168.206 L352.589233,168.206 L355.469233,171.392 L352.589233,174.632 L353.615233,174.632 L356.495233,171.392 Z" id="‹-›-copy" fill="#404040" sketch:type="MSShapeGroup" transform="translate(349.718233, 171.419000) rotate(-270.000000) translate(-349.718233, -171.419000) "></path>
            <path d="M42.9852328,199.766 L39.7092328,191.762 L38.8572328,191.762 L35.5812328,199.766 L36.3732328,199.766 L37.1652328,197.798 L41.4012328,197.798 L42.1932328,199.766 L42.9852328,199.766 Z M41.1732328,197.174 L37.3932328,197.174 L39.2772328,192.494 L41.1732328,197.174 Z M39.9372328,191.09 L38.0892328,189.362 L37.3452328,189.362 L39.4092328,191.09 L39.9372328,191.09 Z" id="À-Copy" fill="#DEDEDE" sketch:type="MSShapeGroup"></path>
            <path d="M74.6390882,287.266 L69.7250882,275.26 L68.4470882,275.26 L63.5330882,287.266 L64.7210882,287.266 L65.9090882,284.314 L72.2630882,284.314 L73.4510882,287.266 L74.6390882,287.266 Z M71.9210882,283.378 L66.2510882,283.378 L69.0770882,276.358 L71.9210882,283.378 Z M77.3030882,287.266 L77.3030882,275.26 L76.3670882,275.26 L76.3670882,287.266 L77.3030882,287.266 Z M81.1550882,287.266 L81.1550882,275.26 L80.2190882,275.26 L80.2190882,287.266 L81.1550882,287.266 Z M87.9230882,287.482 C89.3630882,287.482 90.4610882,286.978 91.3250882,286.078 L90.8390882,285.466 C90.1010882,286.258 89.0930882,286.672 87.9950882,286.672 C85.9430882,286.672 84.6830882,285.106 84.5930882,283.216 L91.8650882,283.216 L91.8650882,282.964 C91.8650882,280.462 90.4070882,278.356 87.7610882,278.356 C85.3490882,278.356 83.5670882,280.39 83.5670882,282.91 C83.5670882,285.592 85.3850882,287.482 87.9230882,287.482 L87.9230882,287.482 Z M90.9110882,282.478 L84.5930882,282.478 C84.6650882,280.966 85.6910882,279.166 87.7430882,279.166 C89.9210882,279.166 90.8930882,281.002 90.9110882,282.478 L90.9110882,282.478 Z M95.2130882,287.266 L95.2130882,280.93 C95.6090882,280.174 96.7970882,279.382 97.6790882,279.382 C97.8590882,279.382 97.9850882,279.382 98.1470882,279.418 L98.1470882,278.392 C96.9410882,278.392 95.9510882,279.094 95.2130882,280.066 L95.2130882,278.572 L94.2770882,278.572 L94.2770882,287.266 L95.2130882,287.266 Z M103.997088,287.626 L108.263088,274.9 L107.453088,274.9 L103.187088,287.626 L103.997088,287.626 Z M122.699088,287.266 L119.225088,282.226 C121.007088,282.154 122.555088,280.948 122.555088,278.77 C122.555088,276.574 120.971088,275.26 118.901088,275.26 L114.419088,275.26 L114.419088,287.266 L115.445088,287.266 L115.445088,282.298 L118.091088,282.298 L121.457088,287.266 L122.699088,287.266 Z M118.811088,281.362 L115.445088,281.362 L115.445088,276.196 L118.811088,276.196 C120.395088,276.196 121.475088,277.258 121.475088,278.77 C121.475088,280.282 120.395088,281.362 118.811088,281.362 L118.811088,281.362 Z M128.927088,287.482 C130.367088,287.482 131.465088,286.978 132.329088,286.078 L131.843088,285.466 C131.105088,286.258 130.097088,286.672 128.999088,286.672 C126.947088,286.672 125.687088,285.106 125.597088,283.216 L132.869088,283.216 L132.869088,282.964 C132.869088,280.462 131.411088,278.356 128.765088,278.356 C126.353088,278.356 124.571088,280.39 124.571088,282.91 C124.571088,285.592 126.389088,287.482 128.927088,287.482 L128.927088,287.482 Z M131.915088,282.478 L125.597088,282.478 C125.669088,280.966 126.695088,279.166 128.747088,279.166 C130.925088,279.166 131.897088,281.002 131.915088,282.478 L131.915088,282.478 Z M137.171088,287.482 C137.891088,287.482 138.305088,287.266 138.647088,286.942 L138.287088,286.222 C138.089088,286.438 137.729088,286.636 137.315088,286.636 C136.703088,286.636 136.415088,286.15 136.415088,285.448 L136.415088,279.4 L138.179088,279.4 L138.179088,278.572 L136.415088,278.572 L136.415088,276.196 L135.461088,276.196 L135.461088,278.572 L134.021088,278.572 L134.021088,279.4 L135.461088,279.4 L135.461088,285.592 C135.461088,286.78 136.019088,287.482 137.171088,287.482 L137.171088,287.482 Z M143.903088,287.482 C146.477088,287.482 148.097088,285.448 148.097088,282.91 C148.097088,280.372 146.477088,278.356 143.903088,278.356 C141.365088,278.356 139.727088,280.372 139.727088,282.91 C139.727088,285.448 141.365088,287.482 143.903088,287.482 L143.903088,287.482 Z M143.903088,286.636 C141.887088,286.636 140.735088,284.854 140.735088,282.91 C140.735088,280.984 141.887088,279.202 143.903088,279.202 C145.955088,279.202 147.089088,280.984 147.089088,282.91 C147.089088,284.854 145.955088,286.636 143.903088,286.636 L143.903088,286.636 Z M157.313088,287.266 L157.313088,278.572 L156.377088,278.572 L156.377088,285.196 C155.801088,285.97 154.667088,286.636 153.551088,286.636 C152.291088,286.636 151.445088,286.168 151.445088,284.476 L151.445088,278.572 L150.509088,278.572 L150.509088,284.692 C150.509088,286.654 151.463088,287.482 153.245088,287.482 C154.505088,287.482 155.657088,286.78 156.377088,285.988 L156.377088,287.266 L157.313088,287.266 Z M161.165088,287.266 L161.165088,280.93 C161.561088,280.174 162.749088,279.382 163.631088,279.382 C163.811088,279.382 163.937088,279.382 164.099088,279.418 L164.099088,278.392 C162.893088,278.392 161.903088,279.094 161.165088,280.066 L161.165088,278.572 L160.229088,278.572 L160.229088,287.266 L161.165088,287.266 Z" id="Aller-/-Retour" fill="#FFFFFF" sketch:type="MSShapeGroup"></path>
            <path d="M244.256377,287.266 L239.342377,275.26 L238.064377,275.26 L233.150377,287.266 L234.338377,287.266 L235.526377,284.314 L241.880377,284.314 L243.068377,287.266 L244.256377,287.266 Z M241.538377,283.378 L235.868377,283.378 L238.694377,276.358 L241.538377,283.378 Z M246.920377,287.266 L246.920377,275.26 L245.984377,275.26 L245.984377,287.266 L246.920377,287.266 Z M250.772377,287.266 L250.772377,275.26 L249.836377,275.26 L249.836377,287.266 L250.772377,287.266 Z M257.540377,287.482 C258.980377,287.482 260.078377,286.978 260.942377,286.078 L260.456377,285.466 C259.718377,286.258 258.710377,286.672 257.612377,286.672 C255.560377,286.672 254.300377,285.106 254.210377,283.216 L261.482377,283.216 L261.482377,282.964 C261.482377,280.462 260.024377,278.356 257.378377,278.356 C254.966377,278.356 253.184377,280.39 253.184377,282.91 C253.184377,285.592 255.002377,287.482 257.540377,287.482 L257.540377,287.482 Z M260.528377,282.478 L254.210377,282.478 C254.282377,280.966 255.308377,279.166 257.360377,279.166 C259.538377,279.166 260.510377,281.002 260.528377,282.478 L260.528377,282.478 Z M264.830377,287.266 L264.830377,280.93 C265.226377,280.174 266.414377,279.382 267.296377,279.382 C267.476377,279.382 267.602377,279.382 267.764377,279.418 L267.764377,278.392 C266.558377,278.392 265.568377,279.094 264.830377,280.066 L264.830377,278.572 L263.894377,278.572 L263.894377,287.266 L264.830377,287.266 Z M276.854377,287.482 C279.032377,287.482 280.112377,286.33 280.112377,284.926 C280.112377,281.578 274.622377,282.91 274.622377,280.732 C274.622377,279.832 275.450377,279.148 276.800377,279.148 C277.952377,279.148 278.888377,279.616 279.392377,280.3 L279.914377,279.634 C279.284377,278.932 278.294377,278.356 276.800377,278.356 C274.838377,278.356 273.704377,279.436 273.704377,280.768 C273.704377,283.882 279.194377,282.55 279.194377,284.926 C279.194377,285.934 278.330377,286.69 276.872377,286.69 C275.648377,286.69 274.622377,286.114 274.064377,285.412 L273.506377,286.114 C274.370377,287.068 275.450377,287.482 276.854377,287.482 L276.854377,287.482 Z M282.992377,277.204 C283.388377,277.204 283.712377,276.88 283.712377,276.484 C283.712377,276.088 283.388377,275.782 282.992377,275.782 C282.614377,275.782 282.272377,276.088 282.272377,276.484 C282.272377,276.88 282.614377,277.204 282.992377,277.204 L282.992377,277.204 Z M283.460377,287.266 L283.460377,278.572 L282.524377,278.572 L282.524377,287.266 L283.460377,287.266 Z M297.662377,287.266 L297.662377,281.002 C297.662377,279.256 296.888377,278.356 295.286377,278.356 C294.062377,278.356 292.892377,279.184 292.406377,279.994 C292.190377,279.148 291.470377,278.356 290.120377,278.356 C288.860377,278.356 287.672377,279.328 287.312377,279.886 L287.312377,278.572 L286.376377,278.572 L286.376377,287.266 L287.312377,287.266 L287.312377,280.696 C287.834377,279.904 288.878377,279.202 289.796377,279.202 C291.038377,279.202 291.542377,279.958 291.542377,281.182 L291.542377,287.266 L292.496377,287.266 L292.496377,280.678 C292.982377,279.886 294.044377,279.202 294.980377,279.202 C296.204377,279.202 296.726377,279.958 296.726377,281.182 L296.726377,287.266 L297.662377,287.266 Z M304.538377,287.482 C306.860377,287.482 308.426377,285.682 308.426377,282.91 C308.426377,280.12 306.860377,278.356 304.538377,278.356 C303.242377,278.356 302.126377,279.058 301.514377,279.94 L301.514377,278.572 L300.578377,278.572 L300.578377,290.578 L301.514377,290.578 L301.514377,285.862 C302.216377,286.852 303.314377,287.482 304.538377,287.482 L304.538377,287.482 Z M304.376377,286.636 C303.170377,286.636 302.018377,285.88 301.514377,285.052 L301.514377,280.75 C302.018377,279.922 303.170377,279.202 304.376377,279.202 C306.320377,279.202 307.418377,280.804 307.418377,282.91 C307.418377,285.016 306.320377,286.636 304.376377,286.636 L304.376377,286.636 Z M311.720377,287.266 L311.720377,275.26 L310.784377,275.26 L310.784377,287.266 L311.720377,287.266 Z M318.488377,287.482 C319.928377,287.482 321.026377,286.978 321.890377,286.078 L321.404377,285.466 C320.666377,286.258 319.658377,286.672 318.560377,286.672 C316.508377,286.672 315.248377,285.106 315.158377,283.216 L322.430377,283.216 L322.430377,282.964 C322.430377,280.462 320.972377,278.356 318.326377,278.356 C315.914377,278.356 314.132377,280.39 314.132377,282.91 C314.132377,285.592 315.950377,287.482 318.488377,287.482 L318.488377,287.482 Z M321.476377,282.478 L315.158377,282.478 C315.230377,280.966 316.256377,279.166 318.308377,279.166 C320.486377,279.166 321.458377,281.002 321.476377,282.478 L321.476377,282.478 Z" id="Aller-simple" fill="#404040" sketch:type="MSShapeGroup"></path>
            <path d="M146.618233,341.078 L146.618233,340.322 L143.090233,340.322 L143.090233,336.524 L142.280233,336.524 L142.280233,340.322 L138.734233,340.322 L138.734233,341.078 L142.280233,341.078 L142.280233,344.984 L143.090233,344.984 L143.090233,341.078 L146.618233,341.078 Z M157.022233,346.982 C160.262233,346.982 161.288233,345.128 161.288233,343.58 C161.288233,339.098 154.088233,340.79 154.088233,337.712 C154.088233,336.416 155.294233,335.498 156.896233,335.498 C158.246233,335.498 159.470233,335.966 160.334233,337.01 L161.018233,336.254 C160.082233,335.192 158.750233,334.562 156.950233,334.562 C154.772233,334.562 153.008233,335.804 153.008233,337.766 C153.008233,341.96 160.208233,340.124 160.208233,343.652 C160.208233,344.678 159.506233,346.046 157.040233,346.046 C155.330233,346.046 154.070233,345.2 153.296233,344.3 L152.630233,345.074 C153.548233,346.19 155.042233,346.982 157.022233,346.982 L157.022233,346.982 Z M170.522233,346.766 L170.522233,338.072 L169.586233,338.072 L169.586233,344.696 C169.010233,345.47 167.876233,346.136 166.760233,346.136 C165.500233,346.136 164.654233,345.668 164.654233,343.976 L164.654233,338.072 L163.718233,338.072 L163.718233,344.192 C163.718233,346.154 164.672233,346.982 166.454233,346.982 C167.714233,346.982 168.866233,346.28 169.586233,345.488 L169.586233,346.766 L170.522233,346.766 Z M177.398233,346.982 C179.720233,346.982 181.286233,345.182 181.286233,342.41 C181.286233,339.62 179.720233,337.856 177.398233,337.856 C176.102233,337.856 174.986233,338.558 174.374233,339.44 L174.374233,338.072 L173.438233,338.072 L173.438233,350.078 L174.374233,350.078 L174.374233,345.362 C175.076233,346.352 176.174233,346.982 177.398233,346.982 L177.398233,346.982 Z M177.236233,346.136 C176.030233,346.136 174.878233,345.38 174.374233,344.552 L174.374233,340.25 C174.878233,339.422 176.030233,338.702 177.236233,338.702 C179.180233,338.702 180.278233,340.304 180.278233,342.41 C180.278233,344.516 179.180233,346.136 177.236233,346.136 L177.236233,346.136 Z M187.604233,346.982 C189.926233,346.982 191.492233,345.182 191.492233,342.41 C191.492233,339.62 189.926233,337.856 187.604233,337.856 C186.308233,337.856 185.192233,338.558 184.580233,339.44 L184.580233,338.072 L183.644233,338.072 L183.644233,350.078 L184.580233,350.078 L184.580233,345.362 C185.282233,346.352 186.380233,346.982 187.604233,346.982 L187.604233,346.982 Z M187.442233,346.136 C186.236233,346.136 185.084233,345.38 184.580233,344.552 L184.580233,340.25 C185.084233,339.422 186.236233,338.702 187.442233,338.702 C189.386233,338.702 190.484233,340.304 190.484233,342.41 C190.484233,344.516 189.386233,346.136 187.442233,346.136 L187.442233,346.136 Z M194.786233,346.766 L194.786233,334.76 L193.850233,334.76 L193.850233,346.766 L194.786233,346.766 Z M204.308233,334.166 L203.192233,334.166 L200.420233,336.758 L201.212233,336.758 L204.308233,334.166 Z M201.554233,346.982 C202.994233,346.982 204.092233,346.478 204.956233,345.578 L204.470233,344.966 C203.732233,345.758 202.724233,346.172 201.626233,346.172 C199.574233,346.172 198.314233,344.606 198.224233,342.716 L205.496233,342.716 L205.496233,342.464 C205.496233,339.962 204.038233,337.856 201.392233,337.856 C198.980233,337.856 197.198233,339.89 197.198233,342.41 C197.198233,345.092 199.016233,346.982 201.554233,346.982 L201.554233,346.982 Z M204.542233,341.978 L198.224233,341.978 C198.296233,340.466 199.322233,338.666 201.374233,338.666 C203.552233,338.666 204.524233,340.502 204.542233,341.978 L204.542233,341.978 Z M219.194233,346.766 L219.194233,340.502 C219.194233,338.756 218.420233,337.856 216.818233,337.856 C215.594233,337.856 214.424233,338.684 213.938233,339.494 C213.722233,338.648 213.002233,337.856 211.652233,337.856 C210.392233,337.856 209.204233,338.828 208.844233,339.386 L208.844233,338.072 L207.908233,338.072 L207.908233,346.766 L208.844233,346.766 L208.844233,340.196 C209.366233,339.404 210.410233,338.702 211.328233,338.702 C212.570233,338.702 213.074233,339.458 213.074233,340.682 L213.074233,346.766 L214.028233,346.766 L214.028233,340.178 C214.514233,339.386 215.576233,338.702 216.512233,338.702 C217.736233,338.702 218.258233,339.458 218.258233,340.682 L218.258233,346.766 L219.194233,346.766 Z M225.962233,346.982 C227.402233,346.982 228.500233,346.478 229.364233,345.578 L228.878233,344.966 C228.140233,345.758 227.132233,346.172 226.034233,346.172 C223.982233,346.172 222.722233,344.606 222.632233,342.716 L229.904233,342.716 L229.904233,342.464 C229.904233,339.962 228.446233,337.856 225.800233,337.856 C223.388233,337.856 221.606233,339.89 221.606233,342.41 C221.606233,345.092 223.424233,346.982 225.962233,346.982 L225.962233,346.982 Z M228.950233,341.978 L222.632233,341.978 C222.704233,340.466 223.730233,338.666 225.782233,338.666 C227.960233,338.666 228.932233,340.502 228.950233,341.978 L228.950233,341.978 Z M239.120233,346.766 L239.120233,340.682 C239.120233,338.72 238.148233,337.856 236.384233,337.856 C235.124233,337.856 233.882233,338.63 233.252233,339.386 L233.252233,338.072 L232.316233,338.072 L232.316233,346.766 L233.252233,346.766 L233.252233,340.196 C233.810233,339.404 234.962233,338.702 236.078233,338.702 C237.338233,338.702 238.184233,339.206 238.184233,340.88 L238.184233,346.766 L239.120233,346.766 Z M243.926233,346.982 C244.646233,346.982 245.060233,346.766 245.402233,346.442 L245.042233,345.722 C244.844233,345.938 244.484233,346.136 244.070233,346.136 C243.458233,346.136 243.170233,345.65 243.170233,344.948 L243.170233,338.9 L244.934233,338.9 L244.934233,338.072 L243.170233,338.072 L243.170233,335.696 L242.216233,335.696 L242.216233,338.072 L240.776233,338.072 L240.776233,338.9 L242.216233,338.9 L242.216233,345.092 C242.216233,346.28 242.774233,346.982 243.926233,346.982 L243.926233,346.982 Z M249.578233,346.982 C251.756233,346.982 252.836233,345.83 252.836233,344.426 C252.836233,341.078 247.346233,342.41 247.346233,340.232 C247.346233,339.332 248.174233,338.648 249.524233,338.648 C250.676233,338.648 251.612233,339.116 252.116233,339.8 L252.638233,339.134 C252.008233,338.432 251.018233,337.856 249.524233,337.856 C247.562233,337.856 246.428233,338.936 246.428233,340.268 C246.428233,343.382 251.918233,342.05 251.918233,344.426 C251.918233,345.434 251.054233,346.19 249.596233,346.19 C248.372233,346.19 247.346233,345.614 246.788233,344.912 L246.230233,345.614 C247.094233,346.568 248.174233,346.982 249.578233,346.982 L249.578233,346.982 Z" id="+-Suppléments" fill="#DEDEDE" sketch:type="MSShapeGroup"></path>
            <path d="M162.437,561 L168.443,546.326 L166.991,546.326 L161.645,559.592 L156.321,546.326 L154.869,546.326 L160.875,561 L162.437,561 Z M178.453,561 L178.453,553.52 C178.453,551.144 176.737,550.11 174.581,550.11 C172.821,550.11 171.589,550.704 170.489,551.892 L171.127,552.684 C172.095,551.584 173.129,551.122 174.449,551.122 C176.033,551.122 177.309,551.98 177.309,553.564 L177.309,555.72 C176.385,554.686 175.175,554.202 173.701,554.202 C171.853,554.202 169.983,555.412 169.983,557.722 C169.983,560.01 171.875,561.264 173.701,561.264 C175.175,561.264 176.363,560.78 177.309,559.746 L177.309,561 L178.453,561 Z M174.097,560.362 C172.337,560.362 171.193,559.24 171.193,557.744 C171.193,556.226 172.337,555.104 174.097,555.104 C175.373,555.104 176.561,555.61 177.309,556.578 L177.309,558.91 C176.561,559.878 175.373,560.362 174.097,560.362 L174.097,560.362 Z M183.161,561 L183.161,546.326 L182.017,546.326 L182.017,561 L183.161,561 Z M187.297,548.702 C187.781,548.702 188.177,548.306 188.177,547.822 C188.177,547.338 187.781,546.964 187.297,546.964 C186.835,546.964 186.417,547.338 186.417,547.822 C186.417,548.306 186.835,548.702 187.297,548.702 L187.297,548.702 Z M187.869,561 L187.869,550.374 L186.725,550.374 L186.725,561 L187.869,561 Z M200.431,561 L200.431,546.326 L199.265,546.326 L199.265,552.09 C198.407,550.88 197.087,550.11 195.569,550.11 C192.753,550.11 190.817,552.332 190.817,555.698 C190.817,559.108 192.753,561.264 195.569,561.264 C197.153,561.264 198.517,560.406 199.265,559.306 L199.265,561 L200.431,561 Z M195.767,560.23 C193.413,560.23 192.049,558.272 192.049,555.698 C192.049,553.124 193.413,551.144 195.767,551.144 C197.263,551.144 198.649,552.046 199.265,553.08 L199.265,558.338 C198.649,559.35 197.263,560.23 195.767,560.23 L195.767,560.23 Z M208.703,561.264 C210.463,561.264 211.805,560.648 212.861,559.548 L212.267,558.8 C211.365,559.768 210.133,560.274 208.791,560.274 C206.283,560.274 204.743,558.36 204.633,556.05 L213.521,556.05 L213.521,555.742 C213.521,552.684 211.739,550.11 208.505,550.11 C205.557,550.11 203.379,552.596 203.379,555.676 C203.379,558.954 205.601,561.264 208.703,561.264 L208.703,561.264 Z M212.355,555.148 L204.633,555.148 C204.721,553.3 205.975,551.1 208.483,551.1 C211.145,551.1 212.333,553.344 212.355,555.148 L212.355,555.148 Z M217.613,561 L217.613,553.256 C218.097,552.332 219.549,551.364 220.627,551.364 C220.847,551.364 221.001,551.364 221.199,551.408 L221.199,550.154 C219.725,550.154 218.515,551.012 217.613,552.2 L217.613,550.374 L216.469,550.374 L216.469,561 L217.613,561 Z" id="Valider-Copy" fill="#FFFFFF" sketch:type="MSShapeGroup"></path>
            <path d="M30.721,661 L31.128,661 L28.07,653.663 L27.652,653.663 L24.594,661 L25.001,661 L25.815,659.031 L29.907,659.031 L30.721,661 Z M27.861,654.07 L29.775,658.701 L25.947,658.701 L27.861,654.07 Z M32.019,658.338 C32.019,659.867 32.987,661.132 34.527,661.132 C35.396,661.132 35.891,660.802 36.342,660.241 L36.1,660.032 C35.671,660.615 35.165,660.835 34.549,660.835 C33.185,660.835 32.382,659.724 32.382,658.338 C32.382,656.952 33.185,655.852 34.549,655.852 C35.165,655.852 35.671,656.061 36.1,656.644 L36.342,656.446 C35.891,655.885 35.396,655.555 34.527,655.555 C32.987,655.555 32.019,656.809 32.019,658.338 L32.019,658.338 Z M41.314,661 L41.644,661 L41.644,657.271 C41.644,656.017 41.039,655.555 39.983,655.555 C39.246,655.555 38.454,656.039 38.058,656.523 L38.058,653.663 L37.728,653.663 L37.728,661 L38.058,661 L38.058,656.853 C38.432,656.325 39.213,655.852 39.939,655.852 C40.764,655.852 41.314,656.16 41.314,657.271 L41.314,661 Z M43.25,658.338 C43.25,659.955 44.317,661.132 45.857,661.132 C46.748,661.132 47.364,660.802 47.903,660.241 L47.705,660.032 C47.21,660.56 46.605,660.835 45.857,660.835 C44.504,660.835 43.657,659.746 43.624,658.448 L48.211,658.448 L48.211,658.338 C48.211,656.864 47.375,655.555 45.747,655.555 C44.317,655.555 43.25,656.798 43.25,658.338 L43.25,658.338 Z M45.736,655.852 C47.188,655.852 47.859,657.128 47.859,658.151 L43.624,658.151 C43.657,657.106 44.372,655.852 45.736,655.852 L45.736,655.852 Z M50.785,661.132 C51.181,661.132 51.401,661 51.61,660.802 L51.412,660.549 C51.28,660.703 51.049,660.835 50.785,660.835 C50.389,660.835 50.213,660.516 50.213,660.065 L50.213,655.984 L51.291,655.984 L51.291,655.687 L50.213,655.687 L50.213,654.235 L49.883,654.235 L49.883,655.687 L49.003,655.687 L49.003,655.984 L49.883,655.984 L49.883,660.065 C49.883,660.725 50.169,661.132 50.785,661.132 L50.785,661.132 Z M52.347,658.338 C52.347,659.955 53.414,661.132 54.954,661.132 C55.845,661.132 56.461,660.802 57,660.241 L56.802,660.032 C56.307,660.56 55.702,660.835 54.954,660.835 C53.601,660.835 52.754,659.746 52.721,658.448 L57.308,658.448 L57.308,658.338 C57.308,656.864 56.472,655.555 54.844,655.555 C53.414,655.555 52.347,656.798 52.347,658.338 L52.347,658.338 Z M54.833,655.852 C56.285,655.852 56.956,657.128 56.956,658.151 L52.721,658.151 C52.754,657.106 53.469,655.852 54.833,655.852 L54.833,655.852 Z M58.914,661 L59.244,661 L59.244,657.018 C59.486,656.523 60.245,655.973 60.806,655.973 C60.905,655.973 60.971,655.973 61.07,655.984 L61.07,655.588 C60.3,655.588 59.717,656.028 59.244,656.655 L59.244,655.687 L58.914,655.687 L58.914,661 Z M68.704,661 L69.034,661 L69.034,655.687 L68.704,655.687 L68.704,659.867 C68.33,660.395 67.549,660.835 66.823,660.835 C65.998,660.835 65.448,660.527 65.448,659.416 L65.448,655.687 L65.118,655.687 L65.118,659.416 C65.118,660.67 65.723,661.132 66.779,661.132 C67.516,661.132 68.253,660.692 68.704,660.186 L68.704,661 Z M74.512,661 L74.842,661 L74.842,657.293 C74.842,656.039 74.237,655.555 73.181,655.555 C72.444,655.555 71.652,656.039 71.256,656.523 L71.256,655.687 L70.926,655.687 L70.926,661 L71.256,661 L71.256,656.853 C71.63,656.325 72.411,655.852 73.137,655.852 C73.962,655.852 74.512,656.182 74.512,657.293 L74.512,661 Z M79.594,661 L79.924,661 L79.924,660.109 C80.287,660.659 81.002,661.132 81.838,661.132 C83.268,661.132 84.214,660.032 84.214,658.349 C84.214,656.677 83.268,655.555 81.838,655.555 C81.046,655.555 80.353,655.973 79.924,656.6 L79.924,653.663 L79.594,653.663 L79.594,661 Z M79.924,659.779 L79.924,656.93 C80.254,656.369 81.013,655.852 81.838,655.852 C83.136,655.852 83.851,656.952 83.851,658.349 C83.851,659.746 83.136,660.835 81.838,660.835 C81.013,660.835 80.254,660.34 79.924,659.779 L79.924,659.779 Z M85.985,654.774 C86.161,654.774 86.304,654.631 86.304,654.455 C86.304,654.279 86.161,654.136 85.985,654.136 C85.82,654.136 85.666,654.279 85.666,654.455 C85.666,654.631 85.82,654.774 85.985,654.774 L85.985,654.774 Z M85.82,661 L86.15,661 L86.15,655.687 L85.82,655.687 L85.82,661 Z M88.042,661 L88.372,661 L88.372,653.663 L88.042,653.663 L88.042,661 Z M90.264,661 L90.594,661 L90.594,653.663 L90.264,653.663 L90.264,661 Z M92.2,658.338 C92.2,659.955 93.267,661.132 94.807,661.132 C95.698,661.132 96.314,660.802 96.853,660.241 L96.655,660.032 C96.16,660.56 95.555,660.835 94.807,660.835 C93.454,660.835 92.607,659.746 92.574,658.448 L97.161,658.448 L97.161,658.338 C97.161,656.864 96.325,655.555 94.697,655.555 C93.267,655.555 92.2,656.798 92.2,658.338 L92.2,658.338 Z M94.686,655.852 C96.138,655.852 96.809,657.128 96.809,658.151 L92.574,658.151 C92.607,657.106 93.322,655.852 94.686,655.852 L94.686,655.852 Z M99.735,661.132 C100.131,661.132 100.351,661 100.56,660.802 L100.362,660.549 C100.23,660.703 99.999,660.835 99.735,660.835 C99.339,660.835 99.163,660.516 99.163,660.065 L99.163,655.984 L100.241,655.984 L100.241,655.687 L99.163,655.687 L99.163,654.235 L98.833,654.235 L98.833,655.687 L97.953,655.687 L97.953,655.984 L98.833,655.984 L98.833,660.065 C98.833,660.725 99.119,661.132 99.735,661.132 L99.735,661.132 Z" id="Acheter-un-billet" fill="#6D4040" sketch:type="MSShapeGroup"></path>
            <path d="M169.856,661 L170.208,661 L170.208,653.663 L169.647,653.663 L166.941,660.23 L164.235,653.663 L163.674,653.663 L163.674,661 L164.026,661 L164.026,654.081 L166.886,661 L166.996,661 L169.856,654.081 L169.856,661 Z M171.836,658.338 C171.836,659.955 172.903,661.132 174.443,661.132 C175.334,661.132 175.95,660.802 176.489,660.241 L176.291,660.032 C175.796,660.56 175.191,660.835 174.443,660.835 C173.09,660.835 172.243,659.746 172.21,658.448 L176.797,658.448 L176.797,658.338 C176.797,656.864 175.961,655.555 174.333,655.555 C172.903,655.555 171.836,656.798 171.836,658.338 L171.836,658.338 Z M174.322,655.852 C175.774,655.852 176.445,657.128 176.445,658.151 L172.21,658.151 C172.243,657.106 172.958,655.852 174.322,655.852 L174.322,655.852 Z M177.941,660.285 C178.469,660.89 179.052,661.132 179.888,661.132 C181.175,661.132 181.791,660.428 181.791,659.603 C181.791,658.525 180.812,658.272 179.899,658.041 C179.118,657.832 178.381,657.656 178.381,656.963 C178.381,656.336 178.931,655.852 179.855,655.852 C180.57,655.852 181.131,656.138 181.439,656.578 L181.681,656.358 C181.34,655.918 180.768,655.555 179.855,655.555 C178.711,655.555 178.051,656.182 178.051,656.963 C178.051,657.931 178.975,658.162 179.855,658.393 C180.669,658.613 181.461,658.822 181.461,659.603 C181.461,660.307 180.867,660.835 179.888,660.835 C179.107,660.835 178.535,660.483 178.205,660.043 L177.941,660.285 Z M186.257,661 L186.587,661 L186.587,660.109 C186.95,660.659 187.665,661.132 188.501,661.132 C189.931,661.132 190.877,660.032 190.877,658.349 C190.877,656.677 189.931,655.555 188.501,655.555 C187.709,655.555 187.016,655.973 186.587,656.6 L186.587,653.663 L186.257,653.663 L186.257,661 Z M186.587,659.779 L186.587,656.93 C186.917,656.369 187.676,655.852 188.501,655.852 C189.799,655.852 190.514,656.952 190.514,658.349 C190.514,659.746 189.799,660.835 188.501,660.835 C187.676,660.835 186.917,660.34 186.587,659.779 L186.587,659.779 Z M192.648,654.774 C192.824,654.774 192.967,654.631 192.967,654.455 C192.967,654.279 192.824,654.136 192.648,654.136 C192.483,654.136 192.329,654.279 192.329,654.455 C192.329,654.631 192.483,654.774 192.648,654.774 L192.648,654.774 Z M192.483,661 L192.813,661 L192.813,655.687 L192.483,655.687 L192.483,661 Z M194.705,661 L195.035,661 L195.035,653.663 L194.705,653.663 L194.705,661 Z M196.927,661 L197.257,661 L197.257,653.663 L196.927,653.663 L196.927,661 Z M198.863,658.338 C198.863,659.955 199.93,661.132 201.47,661.132 C202.361,661.132 202.977,660.802 203.516,660.241 L203.318,660.032 C202.823,660.56 202.218,660.835 201.47,660.835 C200.117,660.835 199.27,659.746 199.237,658.448 L203.824,658.448 L203.824,658.338 C203.824,656.864 202.988,655.555 201.36,655.555 C199.93,655.555 198.863,656.798 198.863,658.338 L198.863,658.338 Z M201.349,655.852 C202.801,655.852 203.472,657.128 203.472,658.151 L199.237,658.151 C199.27,657.106 199.985,655.852 201.349,655.852 L201.349,655.852 Z M206.398,661.132 C206.794,661.132 207.014,661 207.223,660.802 L207.025,660.549 C206.893,660.703 206.662,660.835 206.398,660.835 C206.002,660.835 205.826,660.516 205.826,660.065 L205.826,655.984 L206.904,655.984 L206.904,655.687 L205.826,655.687 L205.826,654.235 L205.496,654.235 L205.496,655.687 L204.616,655.687 L204.616,655.984 L205.496,655.984 L205.496,660.065 C205.496,660.725 205.782,661.132 206.398,661.132 L206.398,661.132 Z M207.784,660.285 C208.312,660.89 208.895,661.132 209.731,661.132 C211.018,661.132 211.634,660.428 211.634,659.603 C211.634,658.525 210.655,658.272 209.742,658.041 C208.961,657.832 208.224,657.656 208.224,656.963 C208.224,656.336 208.774,655.852 209.698,655.852 C210.413,655.852 210.974,656.138 211.282,656.578 L211.524,656.358 C211.183,655.918 210.611,655.555 209.698,655.555 C208.554,655.555 207.894,656.182 207.894,656.963 C207.894,657.931 208.818,658.162 209.698,658.393 C210.512,658.613 211.304,658.822 211.304,659.603 C211.304,660.307 210.71,660.835 209.731,660.835 C208.95,660.835 208.378,660.483 208.048,660.043 L207.784,660.285 Z" id="Mes-billets" fill="#6D4040" sketch:type="MSShapeGroup"></path>
            <path d="M290.203,661 L290.555,661 L290.555,653.663 L289.994,653.663 L287.288,660.23 L284.582,653.663 L284.021,653.663 L284.021,661 L284.373,661 L284.373,654.081 L287.233,661 L287.343,661 L290.203,654.081 L290.203,661 Z M294.658,661.132 C296.165,661.132 297.133,659.9 297.133,658.338 C297.133,656.776 296.165,655.555 294.658,655.555 C293.162,655.555 292.183,656.776 292.183,658.338 C292.183,659.9 293.162,661.132 294.658,661.132 L294.658,661.132 Z M294.658,660.835 C293.305,660.835 292.546,659.636 292.546,658.338 C292.546,657.051 293.305,655.852 294.658,655.852 C296.022,655.852 296.77,657.051 296.77,658.338 C296.77,659.636 296.022,660.835 294.658,660.835 L294.658,660.835 Z M302.325,661 L302.655,661 L302.655,657.293 C302.655,656.039 302.05,655.555 300.994,655.555 C300.257,655.555 299.465,656.039 299.069,656.523 L299.069,655.687 L298.739,655.687 L298.739,661 L299.069,661 L299.069,656.853 C299.443,656.325 300.224,655.852 300.95,655.852 C301.775,655.852 302.325,656.182 302.325,657.293 L302.325,661 Z M307.121,658.338 C307.121,659.867 308.089,661.132 309.629,661.132 C310.498,661.132 310.993,660.802 311.444,660.241 L311.202,660.032 C310.773,660.615 310.267,660.835 309.651,660.835 C308.287,660.835 307.484,659.724 307.484,658.338 C307.484,656.952 308.287,655.852 309.651,655.852 C310.267,655.852 310.773,656.061 311.202,656.644 L311.444,656.446 C310.993,655.885 310.498,655.555 309.629,655.555 C308.089,655.555 307.121,656.809 307.121,658.338 L307.121,658.338 Z M315.019,661.132 C316.526,661.132 317.494,659.9 317.494,658.338 C317.494,656.776 316.526,655.555 315.019,655.555 C313.523,655.555 312.544,656.776 312.544,658.338 C312.544,659.9 313.523,661.132 315.019,661.132 L315.019,661.132 Z M315.019,660.835 C313.666,660.835 312.907,659.636 312.907,658.338 C312.907,657.051 313.666,655.852 315.019,655.852 C316.383,655.852 317.131,657.051 317.131,658.338 C317.131,659.636 316.383,660.835 315.019,660.835 L315.019,660.835 Z M325.348,661 L325.678,661 L325.678,657.172 C325.678,656.116 325.227,655.555 324.259,655.555 C323.522,655.555 322.807,656.072 322.51,656.567 C322.4,656.072 321.971,655.555 321.135,655.555 C320.376,655.555 319.65,656.171 319.43,656.523 L319.43,655.687 L319.1,655.687 L319.1,661 L319.43,661 L319.43,656.853 C319.782,656.314 320.486,655.852 321.08,655.852 C321.883,655.852 322.224,656.347 322.224,657.172 L322.224,661 L322.554,661 L322.554,656.842 C322.884,656.303 323.61,655.852 324.204,655.852 C325.007,655.852 325.348,656.347 325.348,657.172 L325.348,661 Z M327.9,663.024 L327.9,660.087 C328.329,660.714 329.022,661.132 329.814,661.132 C331.244,661.132 332.19,660.01 332.19,658.338 C332.19,656.655 331.244,655.555 329.814,655.555 C328.978,655.555 328.263,656.028 327.9,656.578 L327.9,655.687 L327.57,655.687 L327.57,663.024 L327.9,663.024 Z M331.827,658.338 C331.827,659.735 331.112,660.835 329.814,660.835 C328.989,660.835 328.23,660.318 327.9,659.757 L327.9,656.908 C328.23,656.347 328.989,655.852 329.814,655.852 C331.112,655.852 331.827,656.941 331.827,658.338 L331.827,658.338 Z M334.764,661.132 C335.16,661.132 335.38,661 335.589,660.802 L335.391,660.549 C335.259,660.703 335.028,660.835 334.764,660.835 C334.368,660.835 334.192,660.516 334.192,660.065 L334.192,655.984 L335.27,655.984 L335.27,655.687 L334.192,655.687 L334.192,654.235 L333.862,654.235 L333.862,655.687 L332.982,655.687 L332.982,655.984 L333.862,655.984 L333.862,660.065 C333.862,660.725 334.148,661.132 334.764,661.132 L334.764,661.132 Z M336.326,658.338 C336.326,659.955 337.393,661.132 338.933,661.132 C339.824,661.132 340.44,660.802 340.979,660.241 L340.781,660.032 C340.286,660.56 339.681,660.835 338.933,660.835 C337.58,660.835 336.733,659.746 336.7,658.448 L341.287,658.448 L341.287,658.338 C341.287,656.864 340.451,655.555 338.823,655.555 C337.393,655.555 336.326,656.798 336.326,658.338 L336.326,658.338 Z M338.812,655.852 C340.264,655.852 340.935,657.128 340.935,658.151 L336.7,658.151 C336.733,657.106 337.448,655.852 338.812,655.852 L338.812,655.852 Z" id="Mon-compte" fill="#6D4040" sketch:type="MSShapeGroup"></path>
        </g>
    </g>
</svg>