<?xml version="1.0" encoding="UTF-8" standalone="no"?>
<svg width="375px" height="667px" viewBox="0 0 375 667" version="1.1" xmlns="http://www.w3.org/2000/svg" xmlns:xlink="http://www.w3.org/1999/xlink" xmlns:sketch="http://www.bohemiancoding.com/sketch/ns">
    <!-- Generator: Sketch 3.3.3 (12072) - http://www.bohemiancoding.com/sketch -->
    <title>iPhone 6 Copy 17</title>
    <desc>Created with Sketch.</desc>
    <defs></defs>
    <g id="Page-1" stroke="none" stroke-width="1" fill="none" fill-rule="evenodd" sketch:type="MSPage">
        <g id="iPhone-6-Copy-17" sketch:type="MSArtboardGroup">
            <rect id="Rectangle-2-Copy-9" fill="#FAFAFA" sketch:type="MSShapeGroup" x="0" y="85" width="375" height="582"></rect>
            <rect id="Rectangle-1" fill="#0075FF" sketch:type="MSShapeGroup" x="0" y="0" width="375" height="85"></rect>
            <rect id="Rectangle-22-Copy-2" fill="#0075FF" sketch:type="MSShapeGroup" x="20" y="501" width="335" height="90" rx="3"></rect>
            <g id="Imported-EPS-Copy-3" sketch:type="MSLayerGroup" transform="translate(-1.000000, 617.000000)">
                <g id="Page-1" sketch:type="MSShapeGroup">
                    <path d="M0,0 L376,0 L376,52 L0,52 L0,0 Z" id="Fill-1" fill="#FFFFFF"></path>
                    <path d="M320.39467,10.575 C320.39467,14.1205 317.509159,16.995 313.948956,16.995 C310.389255,16.995 307.503744,14.1205 307.503744,10.575 C307.503744,7.029 310.389255,4.155 313.948956,4.155 C317.509159,4.155 320.39467,7.029 320.39467,10.575 L320.39467,10.575 L320.39467,10.575 Z M303.73772,29.125 C303.73772,23.508 308.309458,18.9545 313.948956,18.9545 C319.588454,18.9545 324.160192,23.508 324.160192,29.125 M172.688919,7 L172.688919,14.329 C174.194927,14.329 175.079455,15.395 175.079455,16.7095 C175.079455,18.0245 174.194927,19.0905 172.688919,19.0905 L172.688919,27 L203.311081,27 L203.311081,7 L172.688919,7 L172.688919,7 Z" id="Stroke-2" stroke="#0075FF" stroke-width="1.00400534"></path>
                    <path d="M183.732977,12.5 L199.29506,12.5 M183.732977,17 L199.29506,17 M183.732977,21.5 L199.29506,21.5 M69.7783712,8.5 L53.2818406,8.5 L45.1802403,8.5 L45.1802403,15.829 C46.6862483,15.829 47.570777,16.895 47.570777,18.2095 C47.570777,19.5245 46.6862483,20.5905 45.1802403,20.5905 L45.1802403,28.5 L75.8024032,28.5 L75.8024032,14" id="Stroke-4" stroke="#0075FF" stroke-width="1.00400534"></path>
                    <path d="M52.5,8.49793082 L52.5,28.5020695" id="Stroke-5" stroke="#0075FF" stroke-dasharray="2,3,2,2"></path>
                    <path d="M180.188919,6.63793082 L180.188919,26.6420695" id="Stroke-5-Copy" stroke="#0075FF" stroke-dasharray="2,3,2,2"></path>
                    <path d="M56.2242991,14 L71.7863818,14 M56.2242991,18.5 L71.7863818,18.5 M56.2242991,23 L71.7863818,23 M75.8024032,11.5 L75.8024032,5.5 M72.7903872,8.5 L78.8144192,8.5" id="Stroke-6" stroke="#0075FF" stroke-width="1.00400534"></path>
                </g>
            </g>
            <path d="M141.707,64 L142.609,64 L138.077,57.664 C140.453,57.664 142.411,56.168 142.411,53.484 C142.411,50.8 140.453,49.326 138.077,49.326 L133.017,49.326 L133.017,64 L133.721,64 L133.721,57.664 L137.241,57.664 L141.707,64 Z M141.641,53.484 C141.641,55.508 140.233,57.004 138.077,57.004 L133.721,57.004 L133.721,49.986 L138.077,49.986 C140.233,49.986 141.641,51.46 141.641,53.484 L141.641,53.484 Z M149.671,51.768 L153.521,48.6 L152.531,48.6 L149.011,51.768 L149.671,51.768 Z M145.139,58.676 C145.139,61.91 147.273,64.264 150.353,64.264 C152.135,64.264 153.367,63.604 154.445,62.482 L154.049,62.064 C153.059,63.12 151.849,63.67 150.353,63.67 C147.647,63.67 145.953,61.492 145.887,58.896 L155.061,58.896 L155.061,58.676 C155.061,55.728 153.389,53.11 150.133,53.11 C147.273,53.11 145.139,55.596 145.139,58.676 L145.139,58.676 Z M150.111,53.704 C153.015,53.704 154.357,56.256 154.357,58.302 L145.887,58.302 C145.953,56.212 147.383,53.704 150.111,53.704 L150.111,53.704 Z M157.701,58.676 C157.701,61.734 159.637,64.264 162.717,64.264 C164.455,64.264 165.445,63.604 166.347,62.482 L165.863,62.064 C165.005,63.23 163.993,63.67 162.761,63.67 C160.033,63.67 158.427,61.448 158.427,58.676 C158.427,55.904 160.033,53.704 162.761,53.704 C163.993,53.704 165.005,54.122 165.863,55.288 L166.347,54.892 C165.445,53.77 164.455,53.11 162.717,53.11 C159.637,53.11 157.701,55.618 157.701,58.676 L157.701,58.676 Z M175.983,64 L176.643,64 L176.643,56.322 C176.643,54.166 175.081,53.11 172.991,53.11 C171.209,53.11 170.109,53.726 169.075,54.936 L169.581,55.376 C170.571,54.188 171.605,53.704 172.991,53.704 C174.619,53.704 175.983,54.628 175.983,56.344 L175.983,58.742 C174.993,57.664 173.805,57.18 172.309,57.18 C170.417,57.18 168.591,58.456 168.591,60.722 C168.591,62.988 170.439,64.264 172.309,64.264 C173.805,64.264 174.993,63.78 175.983,62.702 L175.983,64 Z M175.983,62.042 C175.169,63.12 173.871,63.67 172.485,63.67 C170.549,63.67 169.317,62.372 169.317,60.722 C169.317,59.072 170.549,57.774 172.485,57.774 C173.871,57.774 175.169,58.324 175.983,59.402 L175.983,62.042 Z M181.087,68.048 L181.087,62.174 C181.945,63.428 183.331,64.264 184.915,64.264 C187.775,64.264 189.667,62.02 189.667,58.676 C189.667,55.31 187.775,53.11 184.915,53.11 C183.243,53.11 181.813,54.056 181.087,55.156 L181.087,53.374 L180.427,53.374 L180.427,68.048 L181.087,68.048 Z M188.941,58.676 C188.941,61.47 187.511,63.67 184.915,63.67 C183.265,63.67 181.747,62.636 181.087,61.514 L181.087,55.816 C181.747,54.694 183.265,53.704 184.915,53.704 C187.511,53.704 188.941,55.882 188.941,58.676 L188.941,58.676 Z M193.209,51.548 C193.561,51.548 193.847,51.262 193.847,50.91 C193.847,50.558 193.561,50.272 193.209,50.272 C192.879,50.272 192.571,50.558 192.571,50.91 C192.571,51.262 192.879,51.548 193.209,51.548 L193.209,51.548 Z M192.879,64 L193.539,64 L193.539,53.374 L192.879,53.374 L192.879,64 Z M199.259,64.264 C200.051,64.264 200.491,64 200.909,63.604 L200.513,63.098 C200.249,63.406 199.787,63.67 199.259,63.67 C198.467,63.67 198.115,63.032 198.115,62.13 L198.115,53.968 L200.271,53.968 L200.271,53.374 L198.115,53.374 L198.115,50.47 L197.455,50.47 L197.455,53.374 L195.695,53.374 L195.695,53.968 L197.455,53.968 L197.455,62.13 C197.455,63.45 198.027,64.264 199.259,64.264 L199.259,64.264 Z M210.127,64 L210.787,64 L210.787,53.374 L210.127,53.374 L210.127,61.734 C209.379,62.79 207.817,63.67 206.365,63.67 C204.715,63.67 203.615,63.054 203.615,60.832 L203.615,53.374 L202.955,53.374 L202.955,60.832 C202.955,63.34 204.165,64.264 206.277,64.264 C207.751,64.264 209.225,63.384 210.127,62.372 L210.127,64 Z M214.571,64 L215.231,64 L215.231,49.326 L214.571,49.326 L214.571,64 Z M225.879,64 L226.539,64 L226.539,56.322 C226.539,54.166 224.977,53.11 222.887,53.11 C221.105,53.11 220.005,53.726 218.971,54.936 L219.477,55.376 C220.467,54.188 221.501,53.704 222.887,53.704 C224.515,53.704 225.879,54.628 225.879,56.344 L225.879,58.742 C224.889,57.664 223.701,57.18 222.205,57.18 C220.313,57.18 218.487,58.456 218.487,60.722 C218.487,62.988 220.335,64.264 222.205,64.264 C223.701,64.264 224.889,63.78 225.879,62.702 L225.879,64 Z M225.879,62.042 C225.065,63.12 223.767,63.67 222.381,63.67 C220.445,63.67 219.213,62.372 219.213,60.722 C219.213,59.072 220.445,57.774 222.381,57.774 C223.767,57.774 225.065,58.324 225.879,59.402 L225.879,62.042 Z M232.259,64.264 C233.051,64.264 233.491,64 233.909,63.604 L233.513,63.098 C233.249,63.406 232.787,63.67 232.259,63.67 C231.467,63.67 231.115,63.032 231.115,62.13 L231.115,53.968 L233.271,53.968 L233.271,53.374 L231.115,53.374 L231.115,50.47 L230.455,50.47 L230.455,53.374 L228.695,53.374 L228.695,53.968 L230.455,53.968 L230.455,62.13 C230.455,63.45 231.027,64.264 232.259,64.264 L232.259,64.264 Z M236.285,51.548 C236.637,51.548 236.923,51.262 236.923,50.91 C236.923,50.558 236.637,50.272 236.285,50.272 C235.955,50.272 235.647,50.558 235.647,50.91 C235.647,51.262 235.955,51.548 236.285,51.548 L236.285,51.548 Z M235.955,64 L236.615,64 L236.615,53.374 L235.955,53.374 L235.955,64 Z M240.707,64 L241.367,64 L241.367,53.968 L243.523,53.968 L243.523,53.374 L241.367,53.374 L241.367,52.252 C241.367,50.646 242.027,49.7 243.369,49.7 C243.787,49.7 244.073,49.81 244.337,49.964 L244.623,49.392 C244.249,49.172 243.831,49.106 243.369,49.106 C241.697,49.106 240.707,50.272 240.707,52.252 L240.707,53.374 L238.947,53.374 L238.947,53.968 L240.707,53.968 L240.707,64 Z" id="Récapitulatif" fill="#FFFFFF" sketch:type="MSShapeGroup"></path>
            <path d="M12.85,66.055 L13.435,66.055 L11.035,63.355 L13.435,60.7 L12.85,60.7 L10.45,63.355 L12.85,66.055 Z M26.455,67 L27.01,67 L22.84,56.995 L22.27,56.995 L18.1,67 L18.655,67 L19.765,64.315 L25.345,64.315 L26.455,67 Z M22.555,57.55 L25.165,63.865 L19.945,63.865 L22.555,57.55 Z M33.505,67 L33.955,67 L33.955,61.945 C33.955,60.235 33.13,59.575 31.69,59.575 C30.685,59.575 29.605,60.235 29.065,60.895 L29.065,59.755 L28.615,59.755 L28.615,67 L29.065,67 L29.065,61.345 C29.575,60.625 30.64,59.98 31.63,59.98 C32.755,59.98 33.505,60.43 33.505,61.945 L33.505,67 Z M41.425,67 L41.875,67 L41.875,61.945 C41.875,60.235 41.05,59.575 39.61,59.575 C38.605,59.575 37.525,60.235 36.985,60.895 L36.985,59.755 L36.535,59.755 L36.535,67 L36.985,67 L36.985,61.345 C37.495,60.625 38.56,59.98 39.55,59.98 C40.675,59.98 41.425,60.43 41.425,61.945 L41.425,67 Z M49.345,67 L49.795,67 L49.795,59.755 L49.345,59.755 L49.345,65.455 C48.835,66.175 47.77,66.775 46.78,66.775 C45.655,66.775 44.905,66.355 44.905,64.84 L44.905,59.755 L44.455,59.755 L44.455,64.84 C44.455,66.55 45.28,67.18 46.72,67.18 C47.725,67.18 48.73,66.58 49.345,65.89 L49.345,67 Z M52.375,67 L52.825,67 L52.825,56.995 L52.375,56.995 L52.375,67 Z M55.015,63.37 C55.015,65.575 56.47,67.18 58.57,67.18 C59.785,67.18 60.625,66.73 61.36,65.965 L61.09,65.68 C60.415,66.4 59.59,66.775 58.57,66.775 C56.725,66.775 55.57,65.29 55.525,63.52 L61.78,63.52 L61.78,63.37 C61.78,61.36 60.64,59.575 58.42,59.575 C56.47,59.575 55.015,61.27 55.015,63.37 L55.015,63.37 Z M58.405,59.98 C60.385,59.98 61.3,61.72 61.3,63.115 L55.525,63.115 C55.57,61.69 56.545,59.98 58.405,59.98 L58.405,59.98 Z M63.97,67 L64.42,67 L64.42,61.57 C64.75,60.895 65.785,60.145 66.55,60.145 C66.685,60.145 66.775,60.145 66.91,60.16 L66.91,59.62 C65.86,59.62 65.065,60.22 64.42,61.075 L64.42,59.755 L63.97,59.755 L63.97,67 Z" id="‹-Annuler" fill="#FFFFFF" sketch:type="MSShapeGroup"></path>
            <path d="M117.78,440 L120.02,440 L120.02,393.31 L117.92,393.31 L108.89,402.97 L110.43,404.58 L117.78,396.53 L117.78,440 Z M130.31,440 L159.78,440 L159.78,437.9 L133.6,437.9 C147.46,426.35 159.64,416.2 159.64,405.28 C159.64,396.04 151.8,392.61 145.85,392.61 C139.27,392.61 133.95,395.41 131.08,399.68 L132.9,401.01 C135.28,397.3 139.83,394.71 145.78,394.71 C151.31,394.71 157.4,397.72 157.4,405.28 C157.4,415.29 145.22,425.65 130.31,438.04 L130.31,440 Z M172.17,448.26 C174.41,446.65 176.51,443.29 176.51,439.79 C176.51,437.41 175.25,436.08 173.78,436.08 C172.45,436.08 171.54,437.13 171.54,438.32 C171.54,439.58 172.45,440.63 173.78,440.63 L174.34,440.56 C174.34,442.66 172.87,445.32 170.63,447 L172.17,448.26 Z M183.23,424.11 L200.03,424.11 L200.03,422.01 L183.23,422.01 L183.23,424.11 Z M249.59,438.74 C239.79,438.74 231.81,432.44 229.43,422.71 L253.79,422.71 L253.79,420.61 L229.01,420.61 C228.8,419.35 228.73,418.02 228.73,416.69 C228.73,415.29 228.8,413.96 229.01,412.63 L253.79,412.63 L253.79,410.53 L229.43,410.53 C231.81,400.8 239.86,394.64 249.59,394.64 C255.4,394.64 260.79,397.3 264.08,401.43 L265.83,399.89 C261.7,395.13 256.17,392.54 249.59,392.54 C238.6,392.54 229.43,399.61 226.98,410.53 L223.06,410.53 L223.06,412.63 L226.56,412.63 C226.35,413.96 226.28,415.29 226.28,416.69 C226.28,418.02 226.35,419.35 226.56,420.61 L223.06,420.61 L223.06,422.71 L226.91,422.71 C229.36,433.7 238.53,440.84 249.59,440.84 C256.17,440.84 261.49,438.39 265.9,433.42 L264.08,431.95 C260.79,436.08 255.4,438.74 249.59,438.74 L249.59,438.74 Z" id="12,--€" fill="#0075FF" sketch:type="MSShapeGroup"></path>
            <path d="M24.89,136 L24.89,127.105 L28.07,127.105 L28.07,125.995 L20.48,125.995 L20.48,127.105 L23.645,127.105 L23.645,136 L24.89,136 Z M29.525,136 L29.525,130.87 C29.855,130.285 30.8,129.715 31.49,129.715 C31.67,129.715 31.805,129.73 31.94,129.76 L31.94,128.605 C30.95,128.605 30.11,129.16 29.525,129.925 L29.525,128.755 L28.4,128.755 L28.4,136 L29.525,136 Z M39.005,136 L39.005,131.02 C39.005,129.265 37.73,128.575 36.2,128.575 C35.015,128.575 34.085,128.965 33.305,129.775 L33.83,130.555 C34.475,129.865 35.18,129.55 36.05,129.55 C37.1,129.55 37.88,130.105 37.88,131.08 L37.88,132.385 C37.295,131.71 36.47,131.395 35.48,131.395 C34.25,131.395 32.945,132.16 32.945,133.78 C32.945,135.355 34.25,136.18 35.48,136.18 C36.455,136.18 37.28,135.835 37.88,135.175 L37.88,136 L39.005,136 Z M35.885,135.37 C34.835,135.37 34.1,134.71 34.1,133.795 C34.1,132.865 34.835,132.205 35.885,132.205 C36.68,132.205 37.445,132.505 37.88,133.105 L37.88,134.47 C37.445,135.07 36.68,135.37 35.885,135.37 L35.885,135.37 Z M41.81,127.72 C42.23,127.72 42.575,127.39 42.575,126.97 C42.575,126.55 42.23,126.205 41.81,126.205 C41.405,126.205 41.06,126.55 41.06,126.97 C41.06,127.39 41.405,127.72 41.81,127.72 L41.81,127.72 Z M40.235,138.94 C41.615,138.94 42.38,138.13 42.38,136.705 L42.38,128.755 L41.255,128.755 L41.255,136.705 C41.255,137.62 40.76,138.01 40.085,138.01 C39.635,138.01 39.305,137.8 39.05,137.545 L38.645,138.4 C39.11,138.76 39.5,138.94 40.235,138.94 L40.235,138.94 Z M47.9,136.18 C49.085,136.18 50.06,135.79 50.78,135.07 L50.24,134.335 C49.67,134.92 48.83,135.25 48.005,135.25 C46.445,135.25 45.485,134.11 45.395,132.745 L51.26,132.745 L51.26,132.46 C51.26,130.285 49.97,128.575 47.78,128.575 C45.71,128.575 44.21,130.27 44.21,132.37 C44.21,134.635 45.755,136.18 47.9,136.18 L47.9,136.18 Z M50.15,131.92 L45.395,131.92 C45.455,130.81 46.22,129.505 47.765,129.505 C49.415,129.505 50.135,130.84 50.15,131.92 L50.15,131.92 Z M54.905,136.18 C55.565,136.18 55.97,135.985 56.255,135.715 L55.925,134.875 C55.775,135.04 55.475,135.175 55.16,135.175 C54.665,135.175 54.425,134.785 54.425,134.245 L54.425,129.745 L55.895,129.745 L55.895,128.755 L54.425,128.755 L54.425,126.775 L53.3,126.775 L53.3,128.755 L52.1,128.755 L52.1,129.745 L53.3,129.745 L53.3,134.485 C53.3,135.565 53.84,136.18 54.905,136.18 L54.905,136.18 Z" id="Trajet" fill="#BEBEBE" sketch:type="MSShapeGroup"></path>
            <path d="M45.872,177 L45.872,148.986 L43.478,148.986 L43.478,172.716 L25.922,148.986 L23.486,148.986 L23.486,177 L25.88,177 L25.88,152.934 L43.52,177 L45.872,177 Z M67.838,177 L67.838,162.72 C67.838,158.184 64.562,156.21 60.446,156.21 C57.086,156.21 54.734,157.344 52.634,159.612 L53.852,161.124 C55.7,159.024 57.674,158.142 60.194,158.142 C63.218,158.142 65.654,159.78 65.654,162.804 L65.654,166.92 C63.89,164.946 61.58,164.022 58.766,164.022 C55.238,164.022 51.668,166.332 51.668,170.742 C51.668,175.11 55.28,177.504 58.766,177.504 C61.58,177.504 63.848,176.58 65.654,174.606 L65.654,177 L67.838,177 Z M59.522,175.782 C56.162,175.782 53.978,173.64 53.978,170.784 C53.978,167.886 56.162,165.744 59.522,165.744 C61.958,165.744 64.226,166.71 65.654,168.558 L65.654,173.01 C64.226,174.858 61.958,175.782 59.522,175.782 L59.522,175.782 Z M100.976,177 L100.976,162.384 C100.976,158.31 99.17,156.21 95.432,156.21 C92.576,156.21 89.846,158.142 88.712,160.032 C88.208,158.058 86.528,156.21 83.378,156.21 C80.438,156.21 77.666,158.478 76.826,159.78 L76.826,156.714 L74.642,156.714 L74.642,177 L76.826,177 L76.826,161.67 C78.044,159.822 80.48,158.184 82.622,158.184 C85.52,158.184 86.696,159.948 86.696,162.804 L86.696,177 L88.922,177 L88.922,161.628 C90.056,159.78 92.534,158.184 94.718,158.184 C97.574,158.184 98.792,159.948 98.792,162.804 L98.792,177 L100.976,177 Z M123.656,177 L123.656,156.714 L121.472,156.714 L121.472,172.17 C120.128,173.976 117.482,175.53 114.878,175.53 C111.938,175.53 109.964,174.438 109.964,170.49 L109.964,156.714 L107.78,156.714 L107.78,170.994 C107.78,175.572 110.006,177.504 114.164,177.504 C117.104,177.504 119.792,175.866 121.472,174.018 L121.472,177 L123.656,177 Z M132.644,177 L132.644,162.216 C133.568,160.452 136.34,158.604 138.398,158.604 C138.818,158.604 139.112,158.604 139.49,158.688 L139.49,156.294 C136.676,156.294 134.366,157.932 132.644,160.2 L132.644,156.714 L130.46,156.714 L130.46,177 L132.644,177 Z M161.624,166.794 L154.904,159.36 L152.51,159.36 L159.23,166.794 L152.51,174.354 L154.904,174.354 L161.624,166.794 Z M189.008,177 C194.006,177 197.03,174.102 197.03,169.44 C197.03,166.122 194.552,163.014 191.57,162.552 C194.09,162.048 196.484,159.654 196.484,156.126 C196.484,151.716 193.46,148.986 188.756,148.986 L177.248,148.986 L177.248,177 L189.008,177 Z M188.462,161.544 L179.642,161.544 L179.642,151.17 L188.462,151.17 C192.074,151.17 193.964,153.522 193.964,156.378 C193.964,159.276 192.074,161.544 188.462,161.544 L188.462,161.544 Z M188.63,174.816 L179.642,174.816 L179.642,163.728 L188.63,163.728 C192.536,163.728 194.51,166.416 194.51,169.272 C194.51,172.674 192.326,174.816 188.63,174.816 L188.63,174.816 Z M205.136,177 L205.136,162.216 C206.06,160.452 208.832,158.604 210.89,158.604 C211.31,158.604 211.604,158.604 211.982,158.688 L211.982,156.294 C209.168,156.294 206.858,157.932 205.136,160.2 L205.136,156.714 L202.952,156.714 L202.952,177 L205.136,177 Z M232.142,177 L232.142,156.714 L229.958,156.714 L229.958,172.17 C228.614,173.976 225.968,175.53 223.364,175.53 C220.424,175.53 218.45,174.438 218.45,170.49 L218.45,156.714 L216.266,156.714 L216.266,170.994 C216.266,175.572 218.492,177.504 222.65,177.504 C225.59,177.504 228.278,175.866 229.958,174.018 L229.958,177 L232.142,177 Z M254.948,177 L246.926,166.584 L254.486,156.714 L251.882,156.714 L245.624,165.072 L239.324,156.714 L236.72,156.714 L244.28,166.584 L236.258,177 L238.862,177 L245.624,168.054 L252.344,177 L254.948,177 Z M266.414,177.504 C269.774,177.504 272.336,176.328 274.352,174.228 L273.218,172.8 C271.496,174.648 269.144,175.614 266.582,175.614 C261.794,175.614 258.854,171.96 258.644,167.55 L275.612,167.55 L275.612,166.962 C275.612,161.124 272.21,156.21 266.036,156.21 C260.408,156.21 256.25,160.956 256.25,166.836 C256.25,173.094 260.492,177.504 266.414,177.504 L266.414,177.504 Z M273.386,165.828 L258.644,165.828 C258.812,162.3 261.206,158.1 265.994,158.1 C271.076,158.1 273.344,162.384 273.386,165.828 L273.386,165.828 Z M283.424,177 L283.424,148.986 L281.24,148.986 L281.24,177 L283.424,177 Z M292.412,177 L292.412,148.986 L290.228,148.986 L290.228,177 L292.412,177 Z M308.204,177.504 C311.564,177.504 314.126,176.328 316.142,174.228 L315.008,172.8 C313.286,174.648 310.934,175.614 308.372,175.614 C303.584,175.614 300.644,171.96 300.434,167.55 L317.402,167.55 L317.402,166.962 C317.402,161.124 314,156.21 307.826,156.21 C302.198,156.21 298.04,160.956 298.04,166.836 C298.04,173.094 302.282,177.504 308.204,177.504 L308.204,177.504 Z M315.176,165.828 L300.434,165.828 C300.602,162.3 302.996,158.1 307.784,158.1 C312.866,158.1 315.134,162.384 315.176,165.828 L315.176,165.828 Z M329.078,177.504 C334.16,177.504 336.68,174.816 336.68,171.54 C336.68,163.728 323.87,166.836 323.87,161.754 C323.87,159.654 325.802,158.058 328.952,158.058 C331.64,158.058 333.824,159.15 335,160.746 L336.218,159.192 C334.748,157.554 332.438,156.21 328.952,156.21 C324.374,156.21 321.728,158.73 321.728,161.838 C321.728,169.104 334.538,165.996 334.538,171.54 C334.538,173.892 332.522,175.656 329.12,175.656 C326.264,175.656 323.87,174.312 322.568,172.674 L321.266,174.312 C323.282,176.538 325.802,177.504 329.078,177.504 L329.078,177.504 Z" id="Trajet" fill="#404040" sketch:type="MSShapeGroup"></path>
            <path d="M24.89,237.5 L24.89,228.605 L28.07,228.605 L28.07,227.495 L20.48,227.495 L20.48,228.605 L23.645,228.605 L23.645,237.5 L24.89,237.5 Z M28.43,240.335 C28.64,240.395 29.015,240.44 29.255,240.44 C30.215,240.425 30.95,240.02 31.385,238.97 L35.015,230.255 L33.785,230.255 L31.385,236.195 L28.97,230.255 L27.755,230.255 L30.785,237.575 L30.305,238.67 C30.05,239.27 29.72,239.435 29.225,239.435 C29.045,239.435 28.775,239.39 28.61,239.315 L28.43,240.335 Z M39.755,237.68 C41.66,237.68 42.98,236.21 42.98,233.87 C42.98,231.515 41.66,230.075 39.755,230.075 C38.735,230.075 37.835,230.6 37.31,231.335 L37.31,230.255 L36.185,230.255 L36.185,240.26 L37.31,240.26 L37.31,236.405 C37.895,237.215 38.765,237.68 39.755,237.68 L39.755,237.68 Z M39.47,236.675 C38.585,236.675 37.7,236.135 37.31,235.505 L37.31,232.235 C37.7,231.605 38.585,231.08 39.47,231.08 C40.925,231.08 41.795,232.265 41.795,233.87 C41.795,235.475 40.925,236.675 39.47,236.675 L39.47,236.675 Z M48.035,237.68 C49.22,237.68 50.195,237.29 50.915,236.57 L50.375,235.835 C49.805,236.42 48.965,236.75 48.14,236.75 C46.58,236.75 45.62,235.61 45.53,234.245 L51.395,234.245 L51.395,233.96 C51.395,231.785 50.105,230.075 47.915,230.075 C45.845,230.075 44.345,231.77 44.345,233.87 C44.345,236.135 45.89,237.68 48.035,237.68 L48.035,237.68 Z M50.285,233.42 L45.53,233.42 C45.59,232.31 46.355,231.005 47.9,231.005 C49.55,231.005 50.27,232.34 50.285,233.42 L50.285,233.42 Z" id="Type" fill="#BEBEBE" sketch:type="MSShapeGroup"></path>
            <path d="M33.904,259.5 L27.898,244.826 L26.336,244.826 L20.33,259.5 L21.782,259.5 L23.234,255.892 L31,255.892 L32.452,259.5 L33.904,259.5 Z M30.582,254.748 L23.652,254.748 L27.106,246.168 L30.582,254.748 Z M37.16,259.5 L37.16,244.826 L36.016,244.826 L36.016,259.5 L37.16,259.5 Z M41.868,259.5 L41.868,244.826 L40.724,244.826 L40.724,259.5 L41.868,259.5 Z M50.14,259.764 C51.9,259.764 53.242,259.148 54.298,258.048 L53.704,257.3 C52.802,258.268 51.57,258.774 50.228,258.774 C47.72,258.774 46.18,256.86 46.07,254.55 L54.958,254.55 L54.958,254.242 C54.958,251.184 53.176,248.61 49.942,248.61 C46.994,248.61 44.816,251.096 44.816,254.176 C44.816,257.454 47.038,259.764 50.14,259.764 L50.14,259.764 Z M53.792,253.648 L46.07,253.648 C46.158,251.8 47.412,249.6 49.92,249.6 C52.582,249.6 53.77,251.844 53.792,253.648 L53.792,253.648 Z M59.05,259.5 L59.05,251.756 C59.534,250.832 60.986,249.864 62.064,249.864 C62.284,249.864 62.438,249.864 62.636,249.908 L62.636,248.654 C61.162,248.654 59.952,249.512 59.05,250.7 L59.05,248.874 L57.906,248.874 L57.906,259.5 L59.05,259.5 Z M73.746,259.764 C76.408,259.764 77.728,258.356 77.728,256.64 C77.728,252.548 71.018,254.176 71.018,251.514 C71.018,250.414 72.03,249.578 73.68,249.578 C75.088,249.578 76.232,250.15 76.848,250.986 L77.486,250.172 C76.716,249.314 75.506,248.61 73.68,248.61 C71.282,248.61 69.896,249.93 69.896,251.558 C69.896,255.364 76.606,253.736 76.606,256.64 C76.606,257.872 75.55,258.796 73.768,258.796 C72.272,258.796 71.018,258.092 70.336,257.234 L69.654,258.092 C70.71,259.258 72.03,259.764 73.746,259.764 L73.746,259.764 Z M81.248,247.202 C81.732,247.202 82.128,246.806 82.128,246.322 C82.128,245.838 81.732,245.464 81.248,245.464 C80.786,245.464 80.368,245.838 80.368,246.322 C80.368,246.806 80.786,247.202 81.248,247.202 L81.248,247.202 Z M81.82,259.5 L81.82,248.874 L80.676,248.874 L80.676,259.5 L81.82,259.5 Z M99.178,259.5 L99.178,251.844 C99.178,249.71 98.232,248.61 96.274,248.61 C94.778,248.61 93.348,249.622 92.754,250.612 C92.49,249.578 91.61,248.61 89.96,248.61 C88.42,248.61 86.968,249.798 86.528,250.48 L86.528,248.874 L85.384,248.874 L85.384,259.5 L86.528,259.5 L86.528,251.47 C87.166,250.502 88.442,249.644 89.564,249.644 C91.082,249.644 91.698,250.568 91.698,252.064 L91.698,259.5 L92.864,259.5 L92.864,251.448 C93.458,250.48 94.756,249.644 95.9,249.644 C97.396,249.644 98.034,250.568 98.034,252.064 L98.034,259.5 L99.178,259.5 Z M107.582,259.764 C110.42,259.764 112.334,257.564 112.334,254.176 C112.334,250.766 110.42,248.61 107.582,248.61 C105.998,248.61 104.634,249.468 103.886,250.546 L103.886,248.874 L102.742,248.874 L102.742,263.548 L103.886,263.548 L103.886,257.784 C104.744,258.994 106.086,259.764 107.582,259.764 L107.582,259.764 Z M107.384,258.73 C105.91,258.73 104.502,257.806 103.886,256.794 L103.886,251.536 C104.502,250.524 105.91,249.644 107.384,249.644 C109.76,249.644 111.102,251.602 111.102,254.176 C111.102,256.75 109.76,258.73 107.384,258.73 L107.384,258.73 Z M116.36,259.5 L116.36,244.826 L115.216,244.826 L115.216,259.5 L116.36,259.5 Z M124.632,259.764 C126.392,259.764 127.734,259.148 128.79,258.048 L128.196,257.3 C127.294,258.268 126.062,258.774 124.72,258.774 C122.212,258.774 120.672,256.86 120.562,254.55 L129.45,254.55 L129.45,254.242 C129.45,251.184 127.668,248.61 124.434,248.61 C121.486,248.61 119.308,251.096 119.308,254.176 C119.308,257.454 121.53,259.764 124.632,259.764 L124.632,259.764 Z M128.284,253.648 L120.562,253.648 C120.65,251.8 121.904,249.6 124.412,249.6 C127.074,249.6 128.262,251.844 128.284,253.648 L128.284,253.648 Z" id="Type" fill="#404040" sketch:type="MSShapeGroup"></path>
            <path d="M212.39,237.476 L212.39,228.581 L215.57,228.581 L215.57,227.471 L207.98,227.471 L207.98,228.581 L211.145,228.581 L211.145,237.476 L212.39,237.476 Z M215.93,240.311 C216.14,240.371 216.515,240.416 216.755,240.416 C217.715,240.401 218.45,239.996 218.885,238.946 L222.515,230.231 L221.285,230.231 L218.885,236.171 L216.47,230.231 L215.255,230.231 L218.285,237.551 L217.805,238.646 C217.55,239.246 217.22,239.411 216.725,239.411 C216.545,239.411 216.275,239.366 216.11,239.291 L215.93,240.311 Z M227.255,237.656 C229.16,237.656 230.48,236.186 230.48,233.846 C230.48,231.491 229.16,230.051 227.255,230.051 C226.235,230.051 225.335,230.576 224.81,231.311 L224.81,230.231 L223.685,230.231 L223.685,240.236 L224.81,240.236 L224.81,236.381 C225.395,237.191 226.265,237.656 227.255,237.656 L227.255,237.656 Z M226.97,236.651 C226.085,236.651 225.2,236.111 224.81,235.481 L224.81,232.211 C225.2,231.581 226.085,231.056 226.97,231.056 C228.425,231.056 229.295,232.241 229.295,233.846 C229.295,235.451 228.425,236.651 226.97,236.651 L226.97,236.651 Z M235.535,237.656 C236.72,237.656 237.695,237.266 238.415,236.546 L237.875,235.811 C237.305,236.396 236.465,236.726 235.64,236.726 C234.08,236.726 233.12,235.586 233.03,234.221 L238.895,234.221 L238.895,233.936 C238.895,231.761 237.605,230.051 235.415,230.051 C233.345,230.051 231.845,231.746 231.845,233.846 C231.845,236.111 233.39,237.656 235.535,237.656 L235.535,237.656 Z M237.785,233.396 L233.03,233.396 C233.09,232.286 233.855,230.981 235.4,230.981 C237.05,230.981 237.77,232.316 237.785,233.396 L237.785,233.396 Z" id="Type-Copy" fill="#BEBEBE" sketch:type="MSShapeGroup"></path>
            <path d="M213.88,259.74 C217.84,259.74 219.094,257.474 219.094,255.582 C219.094,250.104 210.294,252.172 210.294,248.41 C210.294,246.826 211.768,245.704 213.726,245.704 C215.376,245.704 216.872,246.276 217.928,247.552 L218.764,246.628 C217.62,245.33 215.992,244.56 213.792,244.56 C211.13,244.56 208.974,246.078 208.974,248.476 C208.974,253.602 217.774,251.358 217.774,255.67 C217.774,256.924 216.916,258.596 213.902,258.596 C211.812,258.596 210.272,257.562 209.326,256.462 L208.512,257.408 C209.634,258.772 211.46,259.74 213.88,259.74 L213.88,259.74 Z M223.956,259.74 C224.836,259.74 225.342,259.476 225.76,259.08 L225.32,258.2 C225.078,258.464 224.638,258.706 224.132,258.706 C223.384,258.706 223.032,258.112 223.032,257.254 L223.032,249.862 L225.188,249.862 L225.188,248.85 L223.032,248.85 L223.032,245.946 L221.866,245.946 L221.866,248.85 L220.106,248.85 L220.106,249.862 L221.866,249.862 L221.866,257.43 C221.866,258.882 222.548,259.74 223.956,259.74 L223.956,259.74 Z M235.594,259.476 L235.594,251.996 C235.594,249.62 233.878,248.586 231.722,248.586 C229.962,248.586 228.73,249.18 227.63,250.368 L228.268,251.16 C229.236,250.06 230.27,249.598 231.59,249.598 C233.174,249.598 234.45,250.456 234.45,252.04 L234.45,254.196 C233.526,253.162 232.316,252.678 230.842,252.678 C228.994,252.678 227.124,253.888 227.124,256.198 C227.124,258.486 229.016,259.74 230.842,259.74 C232.316,259.74 233.504,259.256 234.45,258.222 L234.45,259.476 L235.594,259.476 Z M231.238,258.838 C229.478,258.838 228.334,257.716 228.334,256.22 C228.334,254.702 229.478,253.58 231.238,253.58 C232.514,253.58 233.702,254.086 234.45,255.054 L234.45,257.386 C233.702,258.354 232.514,258.838 231.238,258.838 L231.238,258.838 Z M247.474,259.476 L247.474,252.04 C247.474,249.642 246.286,248.586 244.13,248.586 C242.59,248.586 241.072,249.532 240.302,250.456 L240.302,248.85 L239.158,248.85 L239.158,259.476 L240.302,259.476 L240.302,251.446 C240.984,250.478 242.392,249.62 243.756,249.62 C245.296,249.62 246.33,250.236 246.33,252.282 L246.33,259.476 L247.474,259.476 Z M260.036,259.476 L260.036,244.802 L258.87,244.802 L258.87,250.566 C258.012,249.356 256.692,248.586 255.174,248.586 C252.358,248.586 250.422,250.808 250.422,254.174 C250.422,257.584 252.358,259.74 255.174,259.74 C256.758,259.74 258.122,258.882 258.87,257.782 L258.87,259.476 L260.036,259.476 Z M255.372,258.706 C253.018,258.706 251.654,256.748 251.654,254.174 C251.654,251.6 253.018,249.62 255.372,249.62 C256.868,249.62 258.254,250.522 258.87,251.556 L258.87,256.814 C258.254,257.826 256.868,258.706 255.372,258.706 L255.372,258.706 Z M271.498,259.476 L271.498,251.996 C271.498,249.62 269.782,248.586 267.626,248.586 C265.866,248.586 264.634,249.18 263.534,250.368 L264.172,251.16 C265.14,250.06 266.174,249.598 267.494,249.598 C269.078,249.598 270.354,250.456 270.354,252.04 L270.354,254.196 C269.43,253.162 268.22,252.678 266.746,252.678 C264.898,252.678 263.028,253.888 263.028,256.198 C263.028,258.486 264.92,259.74 266.746,259.74 C268.22,259.74 269.408,259.256 270.354,258.222 L270.354,259.476 L271.498,259.476 Z M267.142,258.838 C265.382,258.838 264.238,257.716 264.238,256.22 C264.238,254.702 265.382,253.58 267.142,253.58 C268.418,253.58 269.606,254.086 270.354,255.054 L270.354,257.386 C269.606,258.354 268.418,258.838 267.142,258.838 L267.142,258.838 Z M276.206,259.476 L276.206,251.732 C276.69,250.808 278.142,249.84 279.22,249.84 C279.44,249.84 279.594,249.84 279.792,249.884 L279.792,248.63 C278.318,248.63 277.108,249.488 276.206,250.676 L276.206,248.85 L275.062,248.85 L275.062,259.476 L276.206,259.476 Z M291.034,259.476 L291.034,244.802 L289.868,244.802 L289.868,250.566 C289.01,249.356 287.69,248.586 286.172,248.586 C283.356,248.586 281.42,250.808 281.42,254.174 C281.42,257.584 283.356,259.74 286.172,259.74 C287.756,259.74 289.12,258.882 289.868,257.782 L289.868,259.476 L291.034,259.476 Z M286.37,258.706 C284.016,258.706 282.652,256.748 282.652,254.174 C282.652,251.6 284.016,249.62 286.37,249.62 C287.866,249.62 289.252,250.522 289.868,251.556 L289.868,256.814 C289.252,257.826 287.866,258.706 286.37,258.706 L286.37,258.706 Z" id="Tarif" fill="#404040" sketch:type="MSShapeGroup"></path>
            <path d="M24.41,307.68 C27.11,307.68 28.1,306.195 28.1,304.74 C28.1,301.005 22.175,302.295 22.175,300.045 C22.175,299.1 23.03,298.455 24.23,298.455 C25.325,298.455 26.375,298.83 27.125,299.655 L27.875,298.74 C27.035,297.855 25.85,297.345 24.32,297.345 C22.355,297.345 20.885,298.47 20.885,300.12 C20.885,303.69 26.81,302.265 26.81,304.845 C26.81,305.61 26.24,306.57 24.455,306.57 C23.045,306.57 21.965,305.88 21.305,305.145 L20.57,306.09 C21.395,307.02 22.67,307.68 24.41,307.68 L24.41,307.68 Z M35.93,307.5 L35.93,300.255 L34.805,300.255 L34.805,305.58 C34.385,306.165 33.545,306.675 32.66,306.675 C31.685,306.675 31.04,306.3 31.04,305.025 L31.04,300.255 L29.915,300.255 L29.915,305.37 C29.915,306.945 30.71,307.68 32.225,307.68 C33.305,307.68 34.25,307.11 34.805,306.48 L34.805,307.5 L35.93,307.5 Z M41.75,307.68 C43.655,307.68 44.975,306.21 44.975,303.87 C44.975,301.515 43.655,300.075 41.75,300.075 C40.73,300.075 39.83,300.6 39.305,301.335 L39.305,300.255 L38.18,300.255 L38.18,310.26 L39.305,310.26 L39.305,306.405 C39.89,307.215 40.76,307.68 41.75,307.68 L41.75,307.68 Z M41.465,306.675 C40.58,306.675 39.695,306.135 39.305,305.505 L39.305,302.235 C39.695,301.605 40.58,301.08 41.465,301.08 C42.92,301.08 43.79,302.265 43.79,303.87 C43.79,305.475 42.92,306.675 41.465,306.675 L41.465,306.675 Z M50.33,307.68 C52.235,307.68 53.555,306.21 53.555,303.87 C53.555,301.515 52.235,300.075 50.33,300.075 C49.31,300.075 48.41,300.6 47.885,301.335 L47.885,300.255 L46.76,300.255 L46.76,310.26 L47.885,310.26 L47.885,306.405 C48.47,307.215 49.34,307.68 50.33,307.68 L50.33,307.68 Z M50.045,306.675 C49.16,306.675 48.275,306.135 47.885,305.505 L47.885,302.235 C48.275,301.605 49.16,301.08 50.045,301.08 C51.5,301.08 52.37,302.265 52.37,303.87 C52.37,305.475 51.5,306.675 50.045,306.675 L50.045,306.675 Z M56.465,307.5 L56.465,297.495 L55.34,297.495 L55.34,307.5 L56.465,307.5 Z M64.4,297 L63.23,297 L61.01,299.16 L61.865,299.16 L64.4,297 Z M61.985,307.68 C63.17,307.68 64.145,307.29 64.865,306.57 L64.325,305.835 C63.755,306.42 62.915,306.75 62.09,306.75 C60.53,306.75 59.57,305.61 59.48,304.245 L65.345,304.245 L65.345,303.96 C65.345,301.785 64.055,300.075 61.865,300.075 C59.795,300.075 58.295,301.77 58.295,303.87 C58.295,306.135 59.84,307.68 61.985,307.68 L61.985,307.68 Z M64.235,303.42 L59.48,303.42 C59.54,302.31 60.305,301.005 61.85,301.005 C63.5,301.005 64.22,302.34 64.235,303.42 L64.235,303.42 Z M77.03,307.5 L77.03,302.265 C77.03,300.81 76.325,300.075 75.005,300.075 C73.955,300.075 72.98,300.765 72.575,301.425 C72.365,300.675 71.735,300.075 70.625,300.075 C69.56,300.075 68.585,300.84 68.285,301.305 L68.285,300.255 L67.16,300.255 L67.16,307.5 L68.285,307.5 L68.285,302.205 C68.675,301.62 69.455,301.08 70.19,301.08 C71.135,301.08 71.525,301.665 71.525,302.58 L71.525,307.5 L72.65,307.5 L72.65,302.19 C73.025,301.62 73.82,301.08 74.57,301.08 C75.5,301.08 75.905,301.665 75.905,302.58 L75.905,307.5 L77.03,307.5 Z M82.55,307.68 C83.735,307.68 84.71,307.29 85.43,306.57 L84.89,305.835 C84.32,306.42 83.48,306.75 82.655,306.75 C81.095,306.75 80.135,305.61 80.045,304.245 L85.91,304.245 L85.91,303.96 C85.91,301.785 84.62,300.075 82.43,300.075 C80.36,300.075 78.86,301.77 78.86,303.87 C78.86,306.135 80.405,307.68 82.55,307.68 L82.55,307.68 Z M84.8,303.42 L80.045,303.42 C80.105,302.31 80.87,301.005 82.415,301.005 C84.065,301.005 84.785,302.34 84.8,303.42 L84.8,303.42 Z M93.74,307.5 L93.74,302.415 C93.74,300.84 92.945,300.075 91.43,300.075 C90.35,300.075 89.36,300.705 88.85,301.305 L88.85,300.255 L87.725,300.255 L87.725,307.5 L88.85,307.5 L88.85,302.205 C89.27,301.62 90.11,301.08 90.995,301.08 C91.97,301.08 92.615,301.485 92.615,302.76 L92.615,307.5 L93.74,307.5 Z M97.82,307.68 C98.48,307.68 98.885,307.485 99.17,307.215 L98.84,306.375 C98.69,306.54 98.39,306.675 98.075,306.675 C97.58,306.675 97.34,306.285 97.34,305.745 L97.34,301.245 L98.81,301.245 L98.81,300.255 L97.34,300.255 L97.34,298.275 L96.215,298.275 L96.215,300.255 L95.015,300.255 L95.015,301.245 L96.215,301.245 L96.215,305.985 C96.215,307.065 96.755,307.68 97.82,307.68 L97.82,307.68 Z M102.695,307.68 C104.57,307.68 105.545,306.705 105.545,305.49 C105.545,302.67 101.06,303.72 101.06,302.13 C101.06,301.485 101.675,300.99 102.665,300.99 C103.595,300.99 104.39,301.38 104.825,301.905 L105.35,301.125 C104.765,300.54 103.895,300.075 102.665,300.075 C100.94,300.075 99.965,301.035 99.965,302.16 C99.965,304.845 104.45,303.765 104.45,305.52 C104.45,306.24 103.85,306.765 102.74,306.765 C101.75,306.765 100.835,306.285 100.355,305.73 L99.77,306.54 C100.505,307.32 101.51,307.68 102.695,307.68 L102.695,307.68 Z" id="Suppléments" fill="#BEBEBE" sketch:type="MSShapeGroup"></path>
            <path d="M31.376,326.5 L26.462,314.494 L25.184,314.494 L20.27,326.5 L21.458,326.5 L22.646,323.548 L29,323.548 L30.188,326.5 L31.376,326.5 Z M28.658,322.612 L22.988,322.612 L25.814,315.592 L28.658,322.612 Z M39.71,326.5 L39.71,317.806 L38.774,317.806 L38.774,324.43 C38.198,325.204 37.064,325.87 35.948,325.87 C34.688,325.87 33.842,325.402 33.842,323.71 L33.842,317.806 L32.906,317.806 L32.906,323.926 C32.906,325.888 33.86,326.716 35.642,326.716 C36.902,326.716 38.054,326.014 38.774,325.222 L38.774,326.5 L39.71,326.5 Z M46.352,326.716 C47.864,326.716 48.728,326.122 49.43,325.222 L48.782,324.646 C48.152,325.51 47.36,325.87 46.406,325.87 C44.372,325.87 43.13,324.232 43.13,322.144 C43.13,320.056 44.372,318.436 46.406,318.436 C47.36,318.436 48.152,318.778 48.782,319.642 L49.43,319.066 C48.728,318.184 47.864,317.59 46.352,317.59 C43.796,317.59 42.122,319.606 42.122,322.144 C42.122,324.682 43.796,326.716 46.352,326.716 L46.352,326.716 Z M58.322,326.5 L58.322,317.806 L57.386,317.806 L57.386,324.43 C56.81,325.204 55.676,325.87 54.56,325.87 C53.3,325.87 52.454,325.402 52.454,323.71 L52.454,317.806 L51.518,317.806 L51.518,323.926 C51.518,325.888 52.472,326.716 54.254,326.716 C55.514,326.716 56.666,326.014 57.386,325.222 L57.386,326.5 L58.322,326.5 Z M68.042,326.5 L68.042,320.416 C68.042,318.454 67.07,317.59 65.306,317.59 C64.046,317.59 62.804,318.364 62.174,319.12 L62.174,317.806 L61.238,317.806 L61.238,326.5 L62.174,326.5 L62.174,319.93 C62.732,319.138 63.884,318.436 65,318.436 C66.26,318.436 67.106,318.94 67.106,320.614 L67.106,326.5 L68.042,326.5 Z" id="Suppléments" fill="#404040" sketch:type="MSShapeGroup"></path>
            <path d="M148.314,555 L148.314,545.028 L155.262,545.028 C159.834,545.028 162.498,541.788 162.498,538.008 C162.498,534.228 159.87,530.988 155.262,530.988 L146.262,530.988 L146.262,555 L148.314,555 Z M155.046,543.156 L148.314,543.156 L148.314,532.86 L155.046,532.86 C158.214,532.86 160.338,534.984 160.338,538.008 C160.338,541.032 158.214,543.156 155.046,543.156 L155.046,543.156 Z M179.67,555 L179.67,542.76 C179.67,538.872 176.862,537.18 173.334,537.18 C170.454,537.18 168.438,538.152 166.638,540.096 L167.682,541.392 C169.266,539.592 170.958,538.836 173.118,538.836 C175.71,538.836 177.798,540.24 177.798,542.832 L177.798,546.36 C176.286,544.668 174.306,543.876 171.894,543.876 C168.87,543.876 165.81,545.856 165.81,549.636 C165.81,553.38 168.906,555.432 171.894,555.432 C174.306,555.432 176.25,554.64 177.798,552.948 L177.798,555 L179.67,555 Z M172.542,553.956 C169.662,553.956 167.79,552.12 167.79,549.672 C167.79,547.188 169.662,545.352 172.542,545.352 C174.63,545.352 176.574,546.18 177.798,547.764 L177.798,551.58 C176.574,553.164 174.63,553.956 172.542,553.956 L172.542,553.956 Z M184.35,561.804 C184.818,561.948 185.61,562.056 186.186,562.056 C188.238,562.056 189.714,561.012 190.65,558.816 L199.65,537.612 L197.526,537.612 L191.262,552.804 L184.926,537.612 L182.838,537.612 L190.182,555.144 L188.814,558.24 C188.13,559.896 187.338,560.364 186.186,560.364 C185.754,560.364 185.07,560.256 184.674,560.076 L184.35,561.804 Z M210.522,555.432 C213.402,555.432 215.598,554.424 217.326,552.624 L216.354,551.4 C214.878,552.984 212.862,553.812 210.666,553.812 C206.562,553.812 204.042,550.68 203.862,546.9 L218.406,546.9 L218.406,546.396 C218.406,541.392 215.49,537.18 210.198,537.18 C205.374,537.18 201.81,541.248 201.81,546.288 C201.81,551.652 205.446,555.432 210.522,555.432 L210.522,555.432 Z M216.498,545.424 L203.862,545.424 C204.006,542.4 206.058,538.8 210.162,538.8 C214.518,538.8 216.462,542.472 216.498,545.424 L216.498,545.424 Z M225.102,555 L225.102,542.328 C225.894,540.816 228.27,539.232 230.034,539.232 C230.394,539.232 230.646,539.232 230.97,539.304 L230.97,537.252 C228.558,537.252 226.578,538.656 225.102,540.6 L225.102,537.612 L223.23,537.612 L223.23,555 L225.102,555 Z" id="Payer" fill="#FFFFFF" sketch:type="MSShapeGroup"></path>
            <path d="M30.721,661 L31.128,661 L28.07,653.663 L27.652,653.663 L24.594,661 L25.001,661 L25.815,659.031 L29.907,659.031 L30.721,661 Z M27.861,654.07 L29.775,658.701 L25.947,658.701 L27.861,654.07 Z M32.019,658.338 C32.019,659.867 32.987,661.132 34.527,661.132 C35.396,661.132 35.891,660.802 36.342,660.241 L36.1,660.032 C35.671,660.615 35.165,660.835 34.549,660.835 C33.185,660.835 32.382,659.724 32.382,658.338 C32.382,656.952 33.185,655.852 34.549,655.852 C35.165,655.852 35.671,656.061 36.1,656.644 L36.342,656.446 C35.891,655.885 35.396,655.555 34.527,655.555 C32.987,655.555 32.019,656.809 32.019,658.338 L32.019,658.338 Z M41.314,661 L41.644,661 L41.644,657.271 C41.644,656.017 41.039,655.555 39.983,655.555 C39.246,655.555 38.454,656.039 38.058,656.523 L38.058,653.663 L37.728,653.663 L37.728,661 L38.058,661 L38.058,656.853 C38.432,656.325 39.213,655.852 39.939,655.852 C40.764,655.852 41.314,656.16 41.314,657.271 L41.314,661 Z M43.25,658.338 C43.25,659.955 44.317,661.132 45.857,661.132 C46.748,661.132 47.364,660.802 47.903,660.241 L47.705,660.032 C47.21,660.56 46.605,660.835 45.857,660.835 C44.504,660.835 43.657,659.746 43.624,658.448 L48.211,658.448 L48.211,658.338 C48.211,656.864 47.375,655.555 45.747,655.555 C44.317,655.555 43.25,656.798 43.25,658.338 L43.25,658.338 Z M45.736,655.852 C47.188,655.852 47.859,657.128 47.859,658.151 L43.624,658.151 C43.657,657.106 44.372,655.852 45.736,655.852 L45.736,655.852 Z M50.785,661.132 C51.181,661.132 51.401,661 51.61,660.802 L51.412,660.549 C51.28,660.703 51.049,660.835 50.785,660.835 C50.389,660.835 50.213,660.516 50.213,660.065 L50.213,655.984 L51.291,655.984 L51.291,655.687 L50.213,655.687 L50.213,654.235 L49.883,654.235 L49.883,655.687 L49.003,655.687 L49.003,655.984 L49.883,655.984 L49.883,660.065 C49.883,660.725 50.169,661.132 50.785,661.132 L50.785,661.132 Z M52.347,658.338 C52.347,659.955 53.414,661.132 54.954,661.132 C55.845,661.132 56.461,660.802 57,660.241 L56.802,660.032 C56.307,660.56 55.702,660.835 54.954,660.835 C53.601,660.835 52.754,659.746 52.721,658.448 L57.308,658.448 L57.308,658.338 C57.308,656.864 56.472,655.555 54.844,655.555 C53.414,655.555 52.347,656.798 52.347,658.338 L52.347,658.338 Z M54.833,655.852 C56.285,655.852 56.956,657.128 56.956,658.151 L52.721,658.151 C52.754,657.106 53.469,655.852 54.833,655.852 L54.833,655.852 Z M58.914,661 L59.244,661 L59.244,657.018 C59.486,656.523 60.245,655.973 60.806,655.973 C60.905,655.973 60.971,655.973 61.07,655.984 L61.07,655.588 C60.3,655.588 59.717,656.028 59.244,656.655 L59.244,655.687 L58.914,655.687 L58.914,661 Z M68.704,661 L69.034,661 L69.034,655.687 L68.704,655.687 L68.704,659.867 C68.33,660.395 67.549,660.835 66.823,660.835 C65.998,660.835 65.448,660.527 65.448,659.416 L65.448,655.687 L65.118,655.687 L65.118,659.416 C65.118,660.67 65.723,661.132 66.779,661.132 C67.516,661.132 68.253,660.692 68.704,660.186 L68.704,661 Z M74.512,661 L74.842,661 L74.842,657.293 C74.842,656.039 74.237,655.555 73.181,655.555 C72.444,655.555 71.652,656.039 71.256,656.523 L71.256,655.687 L70.926,655.687 L70.926,661 L71.256,661 L71.256,656.853 C71.63,656.325 72.411,655.852 73.137,655.852 C73.962,655.852 74.512,656.182 74.512,657.293 L74.512,661 Z M79.594,661 L79.924,661 L79.924,660.109 C80.287,660.659 81.002,661.132 81.838,661.132 C83.268,661.132 84.214,660.032 84.214,658.349 C84.214,656.677 83.268,655.555 81.838,655.555 C81.046,655.555 80.353,655.973 79.924,656.6 L79.924,653.663 L79.594,653.663 L79.594,661 Z M79.924,659.779 L79.924,656.93 C80.254,656.369 81.013,655.852 81.838,655.852 C83.136,655.852 83.851,656.952 83.851,658.349 C83.851,659.746 83.136,660.835 81.838,660.835 C81.013,660.835 80.254,660.34 79.924,659.779 L79.924,659.779 Z M85.985,654.774 C86.161,654.774 86.304,654.631 86.304,654.455 C86.304,654.279 86.161,654.136 85.985,654.136 C85.82,654.136 85.666,654.279 85.666,654.455 C85.666,654.631 85.82,654.774 85.985,654.774 L85.985,654.774 Z M85.82,661 L86.15,661 L86.15,655.687 L85.82,655.687 L85.82,661 Z M88.042,661 L88.372,661 L88.372,653.663 L88.042,653.663 L88.042,661 Z M90.264,661 L90.594,661 L90.594,653.663 L90.264,653.663 L90.264,661 Z M92.2,658.338 C92.2,659.955 93.267,661.132 94.807,661.132 C95.698,661.132 96.314,660.802 96.853,660.241 L96.655,660.032 C96.16,660.56 95.555,660.835 94.807,660.835 C93.454,660.835 92.607,659.746 92.574,658.448 L97.161,658.448 L97.161,658.338 C97.161,656.864 96.325,655.555 94.697,655.555 C93.267,655.555 92.2,656.798 92.2,658.338 L92.2,658.338 Z M94.686,655.852 C96.138,655.852 96.809,657.128 96.809,658.151 L92.574,658.151 C92.607,657.106 93.322,655.852 94.686,655.852 L94.686,655.852 Z M99.735,661.132 C100.131,661.132 100.351,661 100.56,660.802 L100.362,660.549 C100.23,660.703 99.999,660.835 99.735,660.835 C99.339,660.835 99.163,660.516 99.163,660.065 L99.163,655.984 L100.241,655.984 L100.241,655.687 L99.163,655.687 L99.163,654.235 L98.833,654.235 L98.833,655.687 L97.953,655.687 L97.953,655.984 L98.833,655.984 L98.833,660.065 C98.833,660.725 99.119,661.132 99.735,661.132 L99.735,661.132 Z" id="Acheter-un-billet" fill="#6D4040" sketch:type="MSShapeGroup"></path>
            <path d="M169.856,661 L170.208,661 L170.208,653.663 L169.647,653.663 L166.941,660.23 L164.235,653.663 L163.674,653.663 L163.674,661 L164.026,661 L164.026,654.081 L166.886,661 L166.996,661 L169.856,654.081 L169.856,661 Z M171.836,658.338 C171.836,659.955 172.903,661.132 174.443,661.132 C175.334,661.132 175.95,660.802 176.489,660.241 L176.291,660.032 C175.796,660.56 175.191,660.835 174.443,660.835 C173.09,660.835 172.243,659.746 172.21,658.448 L176.797,658.448 L176.797,658.338 C176.797,656.864 175.961,655.555 174.333,655.555 C172.903,655.555 171.836,656.798 171.836,658.338 L171.836,658.338 Z M174.322,655.852 C175.774,655.852 176.445,657.128 176.445,658.151 L172.21,658.151 C172.243,657.106 172.958,655.852 174.322,655.852 L174.322,655.852 Z M177.941,660.285 C178.469,660.89 179.052,661.132 179.888,661.132 C181.175,661.132 181.791,660.428 181.791,659.603 C181.791,658.525 180.812,658.272 179.899,658.041 C179.118,657.832 178.381,657.656 178.381,656.963 C178.381,656.336 178.931,655.852 179.855,655.852 C180.57,655.852 181.131,656.138 181.439,656.578 L181.681,656.358 C181.34,655.918 180.768,655.555 179.855,655.555 C178.711,655.555 178.051,656.182 178.051,656.963 C178.051,657.931 178.975,658.162 179.855,658.393 C180.669,658.613 181.461,658.822 181.461,659.603 C181.461,660.307 180.867,660.835 179.888,660.835 C179.107,660.835 178.535,660.483 178.205,660.043 L177.941,660.285 Z M186.257,661 L186.587,661 L186.587,660.109 C186.95,660.659 187.665,661.132 188.501,661.132 C189.931,661.132 190.877,660.032 190.877,658.349 C190.877,656.677 189.931,655.555 188.501,655.555 C187.709,655.555 187.016,655.973 186.587,656.6 L186.587,653.663 L186.257,653.663 L186.257,661 Z M186.587,659.779 L186.587,656.93 C186.917,656.369 187.676,655.852 188.501,655.852 C189.799,655.852 190.514,656.952 190.514,658.349 C190.514,659.746 189.799,660.835 188.501,660.835 C187.676,660.835 186.917,660.34 186.587,659.779 L186.587,659.779 Z M192.648,654.774 C192.824,654.774 192.967,654.631 192.967,654.455 C192.967,654.279 192.824,654.136 192.648,654.136 C192.483,654.136 192.329,654.279 192.329,654.455 C192.329,654.631 192.483,654.774 192.648,654.774 L192.648,654.774 Z M192.483,661 L192.813,661 L192.813,655.687 L192.483,655.687 L192.483,661 Z M194.705,661 L195.035,661 L195.035,653.663 L194.705,653.663 L194.705,661 Z M196.927,661 L197.257,661 L197.257,653.663 L196.927,653.663 L196.927,661 Z M198.863,658.338 C198.863,659.955 199.93,661.132 201.47,661.132 C202.361,661.132 202.977,660.802 203.516,660.241 L203.318,660.032 C202.823,660.56 202.218,660.835 201.47,660.835 C200.117,660.835 199.27,659.746 199.237,658.448 L203.824,658.448 L203.824,658.338 C203.824,656.864 202.988,655.555 201.36,655.555 C199.93,655.555 198.863,656.798 198.863,658.338 L198.863,658.338 Z M201.349,655.852 C202.801,655.852 203.472,657.128 203.472,658.151 L199.237,658.151 C199.27,657.106 199.985,655.852 201.349,655.852 L201.349,655.852 Z M206.398,661.132 C206.794,661.132 207.014,661 207.223,660.802 L207.025,660.549 C206.893,660.703 206.662,660.835 206.398,660.835 C206.002,660.835 205.826,660.516 205.826,660.065 L205.826,655.984 L206.904,655.984 L206.904,655.687 L205.826,655.687 L205.826,654.235 L205.496,654.235 L205.496,655.687 L204.616,655.687 L204.616,655.984 L205.496,655.984 L205.496,660.065 C205.496,660.725 205.782,661.132 206.398,661.132 L206.398,661.132 Z M207.784,660.285 C208.312,660.89 208.895,661.132 209.731,661.132 C211.018,661.132 211.634,660.428 211.634,659.603 C211.634,658.525 210.655,658.272 209.742,658.041 C208.961,657.832 208.224,657.656 208.224,656.963 C208.224,656.336 208.774,655.852 209.698,655.852 C210.413,655.852 210.974,656.138 211.282,656.578 L211.524,656.358 C211.183,655.918 210.611,655.555 209.698,655.555 C208.554,655.555 207.894,656.182 207.894,656.963 C207.894,657.931 208.818,658.162 209.698,658.393 C210.512,658.613 211.304,658.822 211.304,659.603 C211.304,660.307 210.71,660.835 209.731,660.835 C208.95,660.835 208.378,660.483 208.048,660.043 L207.784,660.285 Z" id="Mes-billets" fill="#6D4040" sketch:type="MSShapeGroup"></path>
            <path d="M290.203,661 L290.555,661 L290.555,653.663 L289.994,653.663 L287.288,660.23 L284.582,653.663 L284.021,653.663 L284.021,661 L284.373,661 L284.373,654.081 L287.233,661 L287.343,661 L290.203,654.081 L290.203,661 Z M294.658,661.132 C296.165,661.132 297.133,659.9 297.133,658.338 C297.133,656.776 296.165,655.555 294.658,655.555 C293.162,655.555 292.183,656.776 292.183,658.338 C292.183,659.9 293.162,661.132 294.658,661.132 L294.658,661.132 Z M294.658,660.835 C293.305,660.835 292.546,659.636 292.546,658.338 C292.546,657.051 293.305,655.852 294.658,655.852 C296.022,655.852 296.77,657.051 296.77,658.338 C296.77,659.636 296.022,660.835 294.658,660.835 L294.658,660.835 Z M302.325,661 L302.655,661 L302.655,657.293 C302.655,656.039 302.05,655.555 300.994,655.555 C300.257,655.555 299.465,656.039 299.069,656.523 L299.069,655.687 L298.739,655.687 L298.739,661 L299.069,661 L299.069,656.853 C299.443,656.325 300.224,655.852 300.95,655.852 C301.775,655.852 302.325,656.182 302.325,657.293 L302.325,661 Z M307.121,658.338 C307.121,659.867 308.089,661.132 309.629,661.132 C310.498,661.132 310.993,660.802 311.444,660.241 L311.202,660.032 C310.773,660.615 310.267,660.835 309.651,660.835 C308.287,660.835 307.484,659.724 307.484,658.338 C307.484,656.952 308.287,655.852 309.651,655.852 C310.267,655.852 310.773,656.061 311.202,656.644 L311.444,656.446 C310.993,655.885 310.498,655.555 309.629,655.555 C308.089,655.555 307.121,656.809 307.121,658.338 L307.121,658.338 Z M315.019,661.132 C316.526,661.132 317.494,659.9 317.494,658.338 C317.494,656.776 316.526,655.555 315.019,655.555 C313.523,655.555 312.544,656.776 312.544,658.338 C312.544,659.9 313.523,661.132 315.019,661.132 L315.019,661.132 Z M315.019,660.835 C313.666,660.835 312.907,659.636 312.907,658.338 C312.907,657.051 313.666,655.852 315.019,655.852 C316.383,655.852 317.131,657.051 317.131,658.338 C317.131,659.636 316.383,660.835 315.019,660.835 L315.019,660.835 Z M325.348,661 L325.678,661 L325.678,657.172 C325.678,656.116 325.227,655.555 324.259,655.555 C323.522,655.555 322.807,656.072 322.51,656.567 C322.4,656.072 321.971,655.555 321.135,655.555 C320.376,655.555 319.65,656.171 319.43,656.523 L319.43,655.687 L319.1,655.687 L319.1,661 L319.43,661 L319.43,656.853 C319.782,656.314 320.486,655.852 321.08,655.852 C321.883,655.852 322.224,656.347 322.224,657.172 L322.224,661 L322.554,661 L322.554,656.842 C322.884,656.303 323.61,655.852 324.204,655.852 C325.007,655.852 325.348,656.347 325.348,657.172 L325.348,661 Z M327.9,663.024 L327.9,660.087 C328.329,660.714 329.022,661.132 329.814,661.132 C331.244,661.132 332.19,660.01 332.19,658.338 C332.19,656.655 331.244,655.555 329.814,655.555 C328.978,655.555 328.263,656.028 327.9,656.578 L327.9,655.687 L327.57,655.687 L327.57,663.024 L327.9,663.024 Z M331.827,658.338 C331.827,659.735 331.112,660.835 329.814,660.835 C328.989,660.835 328.23,660.318 327.9,659.757 L327.9,656.908 C328.23,656.347 328.989,655.852 329.814,655.852 C331.112,655.852 331.827,656.941 331.827,658.338 L331.827,658.338 Z M334.764,661.132 C335.16,661.132 335.38,661 335.589,660.802 L335.391,660.549 C335.259,660.703 335.028,660.835 334.764,660.835 C334.368,660.835 334.192,660.516 334.192,660.065 L334.192,655.984 L335.27,655.984 L335.27,655.687 L334.192,655.687 L334.192,654.235 L333.862,654.235 L333.862,655.687 L332.982,655.687 L332.982,655.984 L333.862,655.984 L333.862,660.065 C333.862,660.725 334.148,661.132 334.764,661.132 L334.764,661.132 Z M336.326,658.338 C336.326,659.955 337.393,661.132 338.933,661.132 C339.824,661.132 340.44,660.802 340.979,660.241 L340.781,660.032 C340.286,660.56 339.681,660.835 338.933,660.835 C337.58,660.835 336.733,659.746 336.7,658.448 L341.287,658.448 L341.287,658.338 C341.287,656.864 340.451,655.555 338.823,655.555 C337.393,655.555 336.326,656.798 336.326,658.338 L336.326,658.338 Z M338.812,655.852 C340.264,655.852 340.935,657.128 340.935,658.151 L336.7,658.151 C336.733,657.106 337.448,655.852 338.812,655.852 L338.812,655.852 Z" id="Mon-compte" fill="#6D4040" sketch:type="MSShapeGroup"></path>
        </g>
    </g>
</svg>