<?xml version="1.0" encoding="UTF-8" standalone="no"?>
<svg width="109px" height="109px" viewBox="0 0 109 109" version="1.1" xmlns="http://www.w3.org/2000/svg" xmlns:xlink="http://www.w3.org/1999/xlink" xmlns:sketch="http://www.bohemiancoding.com/sketch/ns">
    <!-- Generator: Sketch 3.3.3 (12081) - http://www.bohemiancoding.com/sketch -->
    <title>Imported Layers</title>
    <desc>Created with Sketch.</desc>
    <defs></defs>
    <g id="Page-1" stroke="none" stroke-width="1" fill="none" fill-rule="evenodd" sketch:type="MSPage">
        <g id="Imported-Layers" sketch:type="MSLayerGroup" transform="translate(1.000000, 1.000000)">
            <path d="M0.848,35.917408 C0.848,16.622176 16.607392,0.98 36.048,0.98" id="Fill-2" sketch:type="MSShapeGroup"></path>
            <path d="M0.848,35.917408 C0.848,16.622176 16.607392,0.98 36.048,0.98" id="Stroke-3" stroke="#0079FE" stroke-width="2" sketch:type="MSShapeGroup"></path>
            <path d="M35.872,0.98 C16.512,0.98 0.848,16.512 0.848,36.224 L35.872,36.224 L35.872,0.98 L35.872,0.98 Z" id="Fill-4" sketch:type="MSShapeGroup"></path>
            <path d="M35.872,0.98 C16.512,0.98 0.848,16.512 0.848,36.224 L35.872,36.224 L35.872,0.98 L35.872,0.98 Z" id="Stroke-5" stroke="#0079FE" stroke-width="2" sketch:type="MSShapeGroup"></path>
            <path d="M71.424,1.024 C90.864256,1.024 106.624,16.783392 106.624,36.224" id="Fill-6" sketch:type="MSShapeGroup"></path>
            <path d="M71.424,1.024 C90.864256,1.024 106.624,16.783392 106.624,36.224" id="Stroke-7" stroke="#0079FE" stroke-width="2" sketch:type="MSShapeGroup"></path>
            <path d="M106.624,36.224 C106.624,16.783392 90.864256,1.024 71.424,1.024 L71.424,36.224 L106.624,36.224 L106.624,36.224 Z" id="Fill-8" sketch:type="MSShapeGroup"></path>
            <path d="M106.624,36.224 C106.624,16.783392 90.864256,1.024 71.424,1.024 L71.424,36.224 L106.624,36.224 L106.624,36.224 Z" id="Stroke-9" stroke="#0079FE" stroke-width="2" sketch:type="MSShapeGroup"></path>
            <path d="M106.624,71.776 C106.624,91.216256 90.864256,106.976 71.424,106.976" id="Fill-10" sketch:type="MSShapeGroup"></path>
            <path d="M106.624,71.776 C106.624,91.216256 90.864256,106.976 71.424,106.976" id="Stroke-11" stroke="#0079FE" stroke-width="2" sketch:type="MSShapeGroup"></path>
            <path d="M71.424,106.976 C90.864256,106.976 106.624,91.216256 106.624,71.776 L71.424,71.776 L71.424,106.976 L71.424,106.976 Z" id="Fill-12" sketch:type="MSShapeGroup"></path>
            <path d="M71.424,106.976 C90.864256,106.976 106.624,91.216256 106.624,71.776 L71.424,71.776 L71.424,106.976 L71.424,106.976 Z" id="Stroke-13" stroke="#0079FE" stroke-width="2" sketch:type="MSShapeGroup"></path>
            <path d="M1.024,106.976 C1.024,87.535392 16.783744,71.776 36.224,71.776" id="Fill-14" sketch:type="MSShapeGroup"></path>
            <path d="M1.024,106.976 C1.024,87.535392 16.783744,71.776 36.224,71.776" id="Stroke-15" stroke="#0079FE" stroke-width="2" sketch:type="MSShapeGroup"></path>
            <path d="M36.224,71.776 C16.783744,71.776 1.024,87.616 1.024,106.976 L36.224,106.976 L36.224,71.776 L36.224,71.776 Z" id="Fill-16" sketch:type="MSShapeGroup"></path>
            <path d="M36.224,71.776 C16.783744,71.776 1.024,87.616 1.024,106.976 L36.224,106.976 L36.224,71.776 L36.224,71.776 Z" id="Stroke-17" stroke="#0079FE" stroke-width="2" sketch:type="MSShapeGroup"></path>
            <path d="M36.29968,7.910528 C27.029408,7.910528 19.04112,12.288 13.927968,18.976 L5.424,18.976" id="Fill-18" sketch:type="MSShapeGroup"></path>
            <path d="M36.29968,7.910528 C27.029408,7.910528 19.04112,12.288 13.927968,18.976 L5.424,18.976" id="Stroke-19" stroke="#0079FE" stroke-width="2" sketch:type="MSShapeGroup"></path>
            <path d="M36.224,71.776 L71.424,71.776 L71.424,106.976 L36.224,106.976 L36.224,71.776 Z" id="Fill-20" sketch:type="MSShapeGroup"></path>
            <path d="M36.224,71.776 L71.424,71.776 L71.424,106.976 L36.224,106.976 L36.224,71.776 Z" id="Stroke-21" stroke="#0079FE" stroke-width="2" sketch:type="MSShapeGroup"></path>
            <path d="M44.672,89.376 L53.472,89.376 L53.472,106.976 L44.672,106.976 L44.672,89.376 Z" id="Fill-22" sketch:type="MSShapeGroup"></path>
            <path d="M44.672,89.376 L53.472,89.376 L53.472,106.976 L44.672,106.976 L44.672,89.376 Z" id="Stroke-23" stroke="#0079FE" stroke-width="2" sketch:type="MSShapeGroup"></path>
            <path id="Fill-24" sketch:type="MSShapeGroup" d="M49.072,93.776 L49.072,98"></path>
            <path d="M49.072,93.776 L49.072,98" id="Stroke-25" stroke="#0079FE" stroke-width="2" sketch:type="MSShapeGroup"></path>
            <path d="M53.472,89.376 L62.272,89.376 L62.272,106.976 L53.472,106.976 L53.472,89.376 Z" id="Fill-26" sketch:type="MSShapeGroup"></path>
            <path d="M53.472,89.376 L62.272,89.376 L62.272,106.976 L53.472,106.976 L53.472,89.376 Z" id="Stroke-27" stroke="#0079FE" stroke-width="2" sketch:type="MSShapeGroup"></path>
            <path id="Fill-28" sketch:type="MSShapeGroup" d="M57.872,93.776 L57.872,98"></path>
            <path d="M57.872,93.776 L57.872,98" id="Stroke-29" stroke="#0079FE" stroke-width="2" sketch:type="MSShapeGroup"></path>
            <path d="M36.224,1.024 L71.424,1.024 L71.424,36.224 L36.224,36.224 L36.224,1.024 Z" id="Fill-30" sketch:type="MSShapeGroup"></path>
            <path d="M36.224,1.024 L71.424,1.024 L71.424,36.224 L36.224,36.224 L36.224,1.024 Z" id="Stroke-31" stroke="#0079FE" stroke-width="2" sketch:type="MSShapeGroup"></path>
            <path d="M62.272,14.224 L62.272,18.624 L45.024,18.624 L45.024,14.224" id="Fill-32" sketch:type="MSShapeGroup"></path>
            <path d="M62.272,14.224 L62.272,18.624 L45.024,18.624 L45.024,14.224" id="Stroke-33" stroke="#0079FE" stroke-width="2" sketch:type="MSShapeGroup"></path>
            <path id="Fill-34" sketch:type="MSShapeGroup" d="M57.872,10.704 L57.872,6.48"></path>
            <path d="M57.872,10.704 L57.872,6.48" id="Stroke-35" stroke="#0079FE" stroke-width="2" sketch:type="MSShapeGroup"></path>
            <path id="Fill-36" sketch:type="MSShapeGroup" d="M49.072,10.704 L49.072,6.48"></path>
            <path d="M49.072,10.704 L49.072,6.48" id="Stroke-37" stroke="#0079FE" stroke-width="2" sketch:type="MSShapeGroup"></path>
            <path id="Fill-38" sketch:type="MSShapeGroup" d="M53.648,10.704 L53.648,6.48"></path>
            <path d="M53.648,10.704 L53.648,6.48" id="Stroke-39" stroke="#0079FE" stroke-width="2" sketch:type="MSShapeGroup"></path>
            <path id="Fill-40" sketch:type="MSShapeGroup" d="M44.848,15.28 L44.848,6.48"></path>
            <path d="M44.848,15.28 L44.848,6.48" id="Stroke-41" stroke="#0079FE" stroke-width="2" sketch:type="MSShapeGroup"></path>
            <path id="Fill-42" sketch:type="MSShapeGroup" d="M62.096,14.224 L62.096,6.48"></path>
            <path d="M62.096,14.224 L62.096,6.48" id="Stroke-43" stroke="#0079FE" stroke-width="2" sketch:type="MSShapeGroup"></path>
            <path id="Fill-44" sketch:type="MSShapeGroup" d="M57.872,7.184 L57.872,2.96"></path>
            <path d="M57.872,7.184 L57.872,2.96" id="Stroke-45" stroke="#0079FE" stroke-width="2" sketch:type="MSShapeGroup"></path>
            <path id="Fill-46" sketch:type="MSShapeGroup" d="M49.072,7.184 L49.072,2.96"></path>
            <path d="M49.072,7.184 L49.072,2.96" id="Stroke-47" stroke="#0079FE" stroke-width="2" sketch:type="MSShapeGroup"></path>
            <path id="Fill-48" sketch:type="MSShapeGroup" d="M53.648,7.184 L53.648,2.96"></path>
            <path d="M53.648,7.184 L53.648,2.96" id="Stroke-49" stroke="#0079FE" stroke-width="2" sketch:type="MSShapeGroup"></path>
            <path id="Fill-50" sketch:type="MSShapeGroup" d="M44.848,7.184 L44.848,2.96"></path>
            <path d="M44.848,7.184 L44.848,2.96" id="Stroke-51" stroke="#0079FE" stroke-width="2" sketch:type="MSShapeGroup"></path>
            <path id="Fill-52" sketch:type="MSShapeGroup" d="M62.096,7.184 L62.096,2.96"></path>
            <path d="M62.096,7.184 L62.096,2.96" id="Stroke-53" stroke="#0079FE" stroke-width="2" sketch:type="MSShapeGroup"></path>
            <path id="Fill-54" sketch:type="MSShapeGroup" d="M57.872,5.424 L57.872,1.2"></path>
            <path d="M57.872,5.424 L57.872,1.2" id="Stroke-55" stroke="#0079FE" stroke-width="2" sketch:type="MSShapeGroup"></path>
            <path id="Fill-56" sketch:type="MSShapeGroup" d="M49.072,5.424 L49.072,1.2"></path>
            <path d="M49.072,5.424 L49.072,1.2" id="Stroke-57" stroke="#0079FE" stroke-width="2" sketch:type="MSShapeGroup"></path>
            <path id="Fill-58" sketch:type="MSShapeGroup" d="M53.648,5.424 L53.648,1.2"></path>
            <path d="M53.648,5.424 L53.648,1.2" id="Stroke-59" stroke="#0079FE" stroke-width="2" sketch:type="MSShapeGroup"></path>
            <path id="Fill-60" sketch:type="MSShapeGroup" d="M44.848,5.424 L44.848,1.2"></path>
            <path d="M44.848,5.424 L44.848,1.2" id="Stroke-61" stroke="#0079FE" stroke-width="2" sketch:type="MSShapeGroup"></path>
            <path id="Fill-62" sketch:type="MSShapeGroup" d="M62.096,5.424 L62.096,1.2"></path>
            <path d="M62.096,5.424 L62.096,1.2" id="Stroke-63" stroke="#0079FE" stroke-width="2" sketch:type="MSShapeGroup"></path>
            <path id="Fill-64" sketch:type="MSShapeGroup" d="M62.096,15.28 L62.096,6.48"></path>
            <path d="M62.096,15.28 L62.096,6.48" id="Stroke-65" stroke="#0079FE" stroke-width="2" sketch:type="MSShapeGroup"></path>
            <path id="Fill-66" sketch:type="MSShapeGroup" d="M62.096,7.184 L62.096,2.96"></path>
            <path d="M62.096,7.184 L62.096,2.96" id="Stroke-67" stroke="#0079FE" stroke-width="2" sketch:type="MSShapeGroup"></path>
            <path id="Fill-68" sketch:type="MSShapeGroup" d="M62.096,5.424 L62.096,1.2"></path>
            <path d="M62.096,5.424 L62.096,1.2" id="Stroke-69" stroke="#0079FE" stroke-width="2" sketch:type="MSShapeGroup"></path>
            <path d="M71.424,36.4 L106.624,36.4 L106.624,71.6 L71.424,71.6 L71.424,36.4 Z" id="Fill-70" sketch:type="MSShapeGroup"></path>
            <path d="M71.424,36.4 L106.624,36.4 L106.624,71.6 L71.424,71.6 L71.424,36.4 Z" id="Stroke-71" stroke="#0079FE" stroke-width="2" sketch:type="MSShapeGroup"></path>
            <path d="M80.224,45.2 L97.824,45.2 L97.824,62.8 L80.224,62.8 L80.224,45.2 Z" id="Fill-72" sketch:type="MSShapeGroup"></path>
            <path d="M80.224,45.2 L97.824,45.2 L97.824,62.8 L80.224,62.8 L80.224,45.2 Z" id="Stroke-73" stroke="#0079FE" stroke-width="2" sketch:type="MSShapeGroup"></path>
            <path id="Fill-74" sketch:type="MSShapeGroup" d="M88.848,50.107584 L88.848,51.867584"></path>
            <path d="M88.848,50.107584 L88.848,51.867584" id="Stroke-75" stroke="#0079FE" stroke-width="2" sketch:type="MSShapeGroup"></path>
            <path d="M80.224,45.2 L97.824,45.2 L97.824,49.542624 L80.224,49.542624 L80.224,45.2 Z" id="Fill-76" sketch:type="MSShapeGroup"></path>
            <path d="M80.224,45.2 L97.824,45.2 L97.824,49.542624 L80.224,49.542624 L80.224,45.2 Z" id="Stroke-77" stroke="#0079FE" stroke-width="2" sketch:type="MSShapeGroup"></path>
            <path id="Fill-78" sketch:type="MSShapeGroup" d="M57.872,18.448 L57.872,10"></path>
            <path d="M57.872,18.448 L57.872,10" id="Stroke-79" stroke="#0079FE" stroke-width="2" sketch:type="MSShapeGroup"></path>
            <path id="Fill-80" sketch:type="MSShapeGroup" d="M49.072,18.8 L49.072,10"></path>
            <path d="M49.072,18.8 L49.072,10" id="Stroke-81" stroke="#0079FE" stroke-width="2" sketch:type="MSShapeGroup"></path>
            <path id="Fill-82" sketch:type="MSShapeGroup" d="M53.648,18.448 L53.648,10"></path>
            <path d="M53.648,18.448 L53.648,10" id="Stroke-83" stroke="#0079FE" stroke-width="2" sketch:type="MSShapeGroup"></path>
            <path d="M1.3748384,60.2120224 C2.5364384,61.5214624 4.3316384,62.4507424 6.7815584,62.4507424 C10.5831584,62.4507424 11.9770784,60.3598624 11.9770784,58.3112224 C11.9770784,55.3544224 9.3581984,54.6363424 7.0561184,54.0238624 C5.2609184,53.5381024 3.6346784,53.1157024 3.6346784,51.7006624 C3.6346784,50.3701024 4.8385184,49.4619424 6.5281184,49.4619424 C8.0698784,49.4619424 9.5482784,49.9899424 10.6042784,51.1515424 L11.6602784,49.8632224 C10.4775584,48.6171424 8.8090784,47.8990624 6.6548384,47.8990624 C3.8881184,47.8990624 1.8183584,49.4830624 1.8183584,51.8062624 C1.8183584,54.5729824 4.3316384,55.2065824 6.5914784,55.7979424 C8.4500384,56.3048224 10.1607584,56.7694624 10.1607584,58.4590624 C10.1607584,59.5361824 9.3581984,60.8878624 6.8449184,60.8878624 C4.8596384,60.8878624 3.3389984,59.9163424 2.4097184,58.8814624 L1.3748384,60.2120224 Z M24.6645984,62.1973024 L26.3541984,62.1973024 L26.3541984,48.1102624 L24.6012384,48.1102624 L24.6012384,59.1137824 L16.4911584,48.1102624 L14.6959584,48.1102624 L14.6959584,62.1973024 L16.4489184,62.1973024 L16.4489184,50.9614624 L24.6645984,62.1973024 Z M36.4228384,62.4507424 C38.9149984,62.4507424 40.6045984,61.2680224 41.7873184,59.6629024 L40.2877984,58.8392224 C39.4852384,60.0430624 38.0279584,60.8878624 36.4228384,60.8878624 C33.3393184,60.8878624 30.9949984,58.5013024 30.9949984,55.1643424 C30.9949984,51.8062624 33.3393184,49.4408224 36.4228384,49.4408224 C38.0279584,49.4408224 39.4852384,50.3067424 40.2877984,51.4894624 L41.7661984,50.6657824 C40.6468384,49.0817824 38.9149984,47.8779424 36.4228384,47.8779424 C32.3677984,47.8779424 29.1786784,50.8347424 29.1786784,55.1643424 C29.1786784,59.4939424 32.3677984,62.4507424 36.4228384,62.4507424 L36.4228384,62.4507424 Z M44.1260384,62.1973024 L50.5465184,62.1973024 C53.1231584,62.1973024 54.6226784,60.6555424 54.6226784,58.3957024 C54.6226784,56.7061024 53.3765984,55.1643424 51.8770784,54.9320224 C53.1653984,54.6574624 54.3481184,53.4747424 54.3481184,51.7006624 C54.3481184,49.5886624 52.8485984,48.1102624 50.3986784,48.1102624 L44.1260384,48.1102624 L44.1260384,62.1973024 Z M45.8789984,54.2139424 L45.8789984,49.6731424 L50.1029984,49.6731424 C51.6869984,49.6731424 52.5317984,50.6869024 52.5317984,51.9541024 C52.5317984,53.2424224 51.6869984,54.2139424 50.1029984,54.2139424 L45.8789984,54.2139424 Z M45.8789984,60.6344224 L45.8789984,55.7768224 L50.1874784,55.7768224 C51.9193184,55.7768224 52.8063584,56.9173024 52.8063584,58.2056224 C52.8063584,59.7051424 51.8348384,60.6344224 50.1874784,60.6344224 L45.8789984,60.6344224 Z" id="SNCB" fill="#0079FE" sketch:type="MSShapeGroup"></path>
        </g>
    </g>
</svg>